G04 #@! TF.GenerationSoftware,KiCad,Pcbnew,(5.0.1-3-g963ef8bb5)*
G04 #@! TF.CreationDate,2021-05-26T22:53:26+02:00*
G04 #@! TF.ProjectId,EPS_v3_NanoSatLab,4550535F76335F4E616E6F5361744C61,rev?*
G04 #@! TF.SameCoordinates,Original*
G04 #@! TF.FileFunction,Legend,Top*
G04 #@! TF.FilePolarity,Positive*
%FSLAX46Y46*%
G04 Gerber Fmt 4.6, Leading zero omitted, Abs format (unit mm)*
G04 Created by KiCad (PCBNEW (5.0.1-3-g963ef8bb5)) date 2021 May 26, Wednesday 22:53:26*
%MOMM*%
%LPD*%
G01*
G04 APERTURE LIST*
%ADD10C,0.125000*%
%ADD11C,0.100000*%
%ADD12C,0.075000*%
%ADD13C,0.150000*%
%ADD14C,0.152400*%
%ADD15C,0.120000*%
%ADD16C,0.010000*%
%ADD17C,0.127000*%
G04 APERTURE END LIST*
D10*
X106261904Y-111589772D02*
X106333333Y-111613582D01*
X106452380Y-111613582D01*
X106500000Y-111589772D01*
X106523809Y-111565963D01*
X106547619Y-111518344D01*
X106547619Y-111470725D01*
X106523809Y-111423106D01*
X106500000Y-111399296D01*
X106452380Y-111375487D01*
X106357142Y-111351677D01*
X106309523Y-111327868D01*
X106285714Y-111304058D01*
X106261904Y-111256439D01*
X106261904Y-111208820D01*
X106285714Y-111161201D01*
X106309523Y-111137392D01*
X106357142Y-111113582D01*
X106476190Y-111113582D01*
X106547619Y-111137392D01*
X107047619Y-111565963D02*
X107023809Y-111589772D01*
X106952380Y-111613582D01*
X106904761Y-111613582D01*
X106833333Y-111589772D01*
X106785714Y-111542153D01*
X106761904Y-111494534D01*
X106738095Y-111399296D01*
X106738095Y-111327868D01*
X106761904Y-111232630D01*
X106785714Y-111185011D01*
X106833333Y-111137392D01*
X106904761Y-111113582D01*
X106952380Y-111113582D01*
X107023809Y-111137392D01*
X107047619Y-111161201D01*
X107142857Y-111661201D02*
X107523809Y-111661201D01*
X107642857Y-111613582D02*
X107642857Y-111113582D01*
X107809523Y-111470725D01*
X107976190Y-111113582D01*
X107976190Y-111613582D01*
X108214285Y-111613582D02*
X108214285Y-111113582D01*
X108452380Y-111613582D02*
X108452380Y-111113582D01*
X108571428Y-111113582D01*
X108642857Y-111137392D01*
X108690476Y-111185011D01*
X108714285Y-111232630D01*
X108738095Y-111327868D01*
X108738095Y-111399296D01*
X108714285Y-111494534D01*
X108690476Y-111542153D01*
X108642857Y-111589772D01*
X108571428Y-111613582D01*
X108452380Y-111613582D01*
X109459167Y-108602380D02*
X109530596Y-108626190D01*
X109649643Y-108626190D01*
X109697262Y-108602380D01*
X109721072Y-108578571D01*
X109744882Y-108530952D01*
X109744882Y-108483333D01*
X109721072Y-108435714D01*
X109697262Y-108411904D01*
X109649643Y-108388095D01*
X109554405Y-108364285D01*
X109506786Y-108340476D01*
X109482977Y-108316666D01*
X109459167Y-108269047D01*
X109459167Y-108221428D01*
X109482977Y-108173809D01*
X109506786Y-108150000D01*
X109554405Y-108126190D01*
X109673453Y-108126190D01*
X109744882Y-108150000D01*
X110244882Y-108578571D02*
X110221072Y-108602380D01*
X110149643Y-108626190D01*
X110102024Y-108626190D01*
X110030596Y-108602380D01*
X109982977Y-108554761D01*
X109959167Y-108507142D01*
X109935358Y-108411904D01*
X109935358Y-108340476D01*
X109959167Y-108245238D01*
X109982977Y-108197619D01*
X110030596Y-108150000D01*
X110102024Y-108126190D01*
X110149643Y-108126190D01*
X110221072Y-108150000D01*
X110244882Y-108173809D01*
X110340120Y-108673809D02*
X110721072Y-108673809D01*
X110768691Y-108126190D02*
X111054405Y-108126190D01*
X110911548Y-108626190D02*
X110911548Y-108126190D01*
X111316310Y-108126190D02*
X111411548Y-108126190D01*
X111459167Y-108150000D01*
X111506786Y-108197619D01*
X111530596Y-108292857D01*
X111530596Y-108459523D01*
X111506786Y-108554761D01*
X111459167Y-108602380D01*
X111411548Y-108626190D01*
X111316310Y-108626190D01*
X111268691Y-108602380D01*
X111221072Y-108554761D01*
X111197262Y-108459523D01*
X111197262Y-108292857D01*
X111221072Y-108197619D01*
X111268691Y-108150000D01*
X111316310Y-108126190D01*
X111744882Y-108626190D02*
X111744882Y-108126190D01*
X111935358Y-108126190D01*
X111982977Y-108150000D01*
X112006786Y-108173809D01*
X112030596Y-108221428D01*
X112030596Y-108292857D01*
X112006786Y-108340476D01*
X111982977Y-108364285D01*
X111935358Y-108388095D01*
X111744882Y-108388095D01*
D11*
X164757441Y-104580952D02*
X164890775Y-104980952D01*
X165024108Y-104580952D01*
X165138394Y-104961904D02*
X165195536Y-104980952D01*
X165290775Y-104980952D01*
X165328870Y-104961904D01*
X165347917Y-104942857D01*
X165366965Y-104904761D01*
X165366965Y-104866666D01*
X165347917Y-104828571D01*
X165328870Y-104809523D01*
X165290775Y-104790476D01*
X165214584Y-104771428D01*
X165176489Y-104752380D01*
X165157441Y-104733333D01*
X165138394Y-104695238D01*
X165138394Y-104657142D01*
X165157441Y-104619047D01*
X165176489Y-104600000D01*
X165214584Y-104580952D01*
X165309822Y-104580952D01*
X165366965Y-104600000D01*
X165500298Y-104580952D02*
X165595536Y-104980952D01*
X165671727Y-104695238D01*
X165747917Y-104980952D01*
X165843155Y-104580952D01*
X165900298Y-105019047D02*
X166205060Y-105019047D01*
X166262203Y-104580952D02*
X166509822Y-104580952D01*
X166376489Y-104733333D01*
X166433632Y-104733333D01*
X166471727Y-104752380D01*
X166490775Y-104771428D01*
X166509822Y-104809523D01*
X166509822Y-104904761D01*
X166490775Y-104942857D01*
X166471727Y-104961904D01*
X166433632Y-104980952D01*
X166319346Y-104980952D01*
X166281251Y-104961904D01*
X166262203Y-104942857D01*
X166624108Y-104580952D02*
X166757441Y-104980952D01*
X166890775Y-104580952D01*
X166986013Y-104580952D02*
X167233632Y-104580952D01*
X167100298Y-104733333D01*
X167157441Y-104733333D01*
X167195536Y-104752380D01*
X167214584Y-104771428D01*
X167233632Y-104809523D01*
X167233632Y-104904761D01*
X167214584Y-104942857D01*
X167195536Y-104961904D01*
X167157441Y-104980952D01*
X167043155Y-104980952D01*
X167005060Y-104961904D01*
X166986013Y-104942857D01*
X167309822Y-105019047D02*
X167614584Y-105019047D01*
X167843155Y-104771428D02*
X167900298Y-104790476D01*
X167919346Y-104809523D01*
X167938394Y-104847619D01*
X167938394Y-104904761D01*
X167919346Y-104942857D01*
X167900298Y-104961904D01*
X167862203Y-104980952D01*
X167709822Y-104980952D01*
X167709822Y-104580952D01*
X167843155Y-104580952D01*
X167881251Y-104600000D01*
X167900298Y-104619047D01*
X167919346Y-104657142D01*
X167919346Y-104695238D01*
X167900298Y-104733333D01*
X167881251Y-104752380D01*
X167843155Y-104771428D01*
X167709822Y-104771428D01*
X168090775Y-104866666D02*
X168281251Y-104866666D01*
X168052679Y-104980952D02*
X168186013Y-104580952D01*
X168319346Y-104980952D01*
X168395536Y-104580952D02*
X168624108Y-104580952D01*
X168509822Y-104980952D02*
X168509822Y-104580952D01*
D10*
X135240775Y-116326190D02*
X135407441Y-116826190D01*
X135574108Y-116326190D01*
X135716965Y-116802380D02*
X135788394Y-116826190D01*
X135907441Y-116826190D01*
X135955060Y-116802380D01*
X135978870Y-116778571D01*
X136002679Y-116730952D01*
X136002679Y-116683333D01*
X135978870Y-116635714D01*
X135955060Y-116611904D01*
X135907441Y-116588095D01*
X135812203Y-116564285D01*
X135764584Y-116540476D01*
X135740775Y-116516666D01*
X135716965Y-116469047D01*
X135716965Y-116421428D01*
X135740775Y-116373809D01*
X135764584Y-116350000D01*
X135812203Y-116326190D01*
X135931251Y-116326190D01*
X136002679Y-116350000D01*
X136169346Y-116326190D02*
X136288394Y-116826190D01*
X136383632Y-116469047D01*
X136478870Y-116826190D01*
X136597917Y-116326190D01*
X136669346Y-116873809D02*
X137050298Y-116873809D01*
X137431251Y-116826190D02*
X137145536Y-116826190D01*
X137288394Y-116826190D02*
X137288394Y-116326190D01*
X137240775Y-116397619D01*
X137193155Y-116445238D01*
X137145536Y-116469047D01*
X137621727Y-116373809D02*
X137645536Y-116350000D01*
X137693155Y-116326190D01*
X137812203Y-116326190D01*
X137859822Y-116350000D01*
X137883632Y-116373809D01*
X137907441Y-116421428D01*
X137907441Y-116469047D01*
X137883632Y-116540476D01*
X137597917Y-116826190D01*
X137907441Y-116826190D01*
X138050298Y-116326190D02*
X138216965Y-116826190D01*
X138383632Y-116326190D01*
X138431251Y-116873809D02*
X138812203Y-116873809D01*
X138907441Y-116802380D02*
X138978870Y-116826190D01*
X139097917Y-116826190D01*
X139145536Y-116802380D01*
X139169346Y-116778571D01*
X139193155Y-116730952D01*
X139193155Y-116683333D01*
X139169346Y-116635714D01*
X139145536Y-116611904D01*
X139097917Y-116588095D01*
X139002679Y-116564285D01*
X138955060Y-116540476D01*
X138931251Y-116516666D01*
X138907441Y-116469047D01*
X138907441Y-116421428D01*
X138931251Y-116373809D01*
X138955060Y-116350000D01*
X139002679Y-116326190D01*
X139121727Y-116326190D01*
X139193155Y-116350000D01*
X139693155Y-116778571D02*
X139669346Y-116802380D01*
X139597917Y-116826190D01*
X139550298Y-116826190D01*
X139478870Y-116802380D01*
X139431251Y-116754761D01*
X139407441Y-116707142D01*
X139383632Y-116611904D01*
X139383632Y-116540476D01*
X139407441Y-116445238D01*
X139431251Y-116397619D01*
X139478870Y-116350000D01*
X139550298Y-116326190D01*
X139597917Y-116326190D01*
X139669346Y-116350000D01*
X139693155Y-116373809D01*
X176442240Y-125013582D02*
X176608906Y-125513582D01*
X176775573Y-125013582D01*
X176823192Y-125561201D02*
X177204145Y-125561201D01*
X177489859Y-125251677D02*
X177561287Y-125275487D01*
X177585097Y-125299296D01*
X177608906Y-125346915D01*
X177608906Y-125418344D01*
X177585097Y-125465963D01*
X177561287Y-125489772D01*
X177513668Y-125513582D01*
X177323192Y-125513582D01*
X177323192Y-125013582D01*
X177489859Y-125013582D01*
X177537478Y-125037392D01*
X177561287Y-125061201D01*
X177585097Y-125108820D01*
X177585097Y-125156439D01*
X177561287Y-125204058D01*
X177537478Y-125227868D01*
X177489859Y-125251677D01*
X177323192Y-125251677D01*
X177799383Y-125370725D02*
X178037478Y-125370725D01*
X177751764Y-125513582D02*
X177918430Y-125013582D01*
X178085097Y-125513582D01*
X178180335Y-125013582D02*
X178466049Y-125013582D01*
X178323192Y-125513582D02*
X178323192Y-125013582D01*
D11*
X161766666Y-89580952D02*
X161900000Y-89980952D01*
X162033333Y-89580952D01*
X162147619Y-89961904D02*
X162204761Y-89980952D01*
X162300000Y-89980952D01*
X162338095Y-89961904D01*
X162357142Y-89942857D01*
X162376190Y-89904761D01*
X162376190Y-89866666D01*
X162357142Y-89828571D01*
X162338095Y-89809523D01*
X162300000Y-89790476D01*
X162223809Y-89771428D01*
X162185714Y-89752380D01*
X162166666Y-89733333D01*
X162147619Y-89695238D01*
X162147619Y-89657142D01*
X162166666Y-89619047D01*
X162185714Y-89600000D01*
X162223809Y-89580952D01*
X162319047Y-89580952D01*
X162376190Y-89600000D01*
X162509523Y-89580952D02*
X162604761Y-89980952D01*
X162680952Y-89695238D01*
X162757142Y-89980952D01*
X162852380Y-89580952D01*
X162909523Y-90019047D02*
X163214285Y-90019047D01*
X163519047Y-89980952D02*
X163290476Y-89980952D01*
X163404761Y-89980952D02*
X163404761Y-89580952D01*
X163366666Y-89638095D01*
X163328571Y-89676190D01*
X163290476Y-89695238D01*
X163671428Y-89619047D02*
X163690476Y-89600000D01*
X163728571Y-89580952D01*
X163823809Y-89580952D01*
X163861904Y-89600000D01*
X163880952Y-89619047D01*
X163900000Y-89657142D01*
X163900000Y-89695238D01*
X163880952Y-89752380D01*
X163652380Y-89980952D01*
X163900000Y-89980952D01*
X164014285Y-89580952D02*
X164147619Y-89980952D01*
X164280952Y-89580952D01*
X164319047Y-90019047D02*
X164623809Y-90019047D01*
X164852380Y-89771428D02*
X164909523Y-89790476D01*
X164928571Y-89809523D01*
X164947619Y-89847619D01*
X164947619Y-89904761D01*
X164928571Y-89942857D01*
X164909523Y-89961904D01*
X164871428Y-89980952D01*
X164719047Y-89980952D01*
X164719047Y-89580952D01*
X164852380Y-89580952D01*
X164890476Y-89600000D01*
X164909523Y-89619047D01*
X164928571Y-89657142D01*
X164928571Y-89695238D01*
X164909523Y-89733333D01*
X164890476Y-89752380D01*
X164852380Y-89771428D01*
X164719047Y-89771428D01*
X165100000Y-89866666D02*
X165290476Y-89866666D01*
X165061904Y-89980952D02*
X165195238Y-89580952D01*
X165328571Y-89980952D01*
X165404761Y-89580952D02*
X165633333Y-89580952D01*
X165519047Y-89980952D02*
X165519047Y-89580952D01*
D10*
X146851428Y-90226190D02*
X147018095Y-90726190D01*
X147184761Y-90226190D01*
X147327619Y-90702380D02*
X147399047Y-90726190D01*
X147518095Y-90726190D01*
X147565714Y-90702380D01*
X147589523Y-90678571D01*
X147613333Y-90630952D01*
X147613333Y-90583333D01*
X147589523Y-90535714D01*
X147565714Y-90511904D01*
X147518095Y-90488095D01*
X147422857Y-90464285D01*
X147375238Y-90440476D01*
X147351428Y-90416666D01*
X147327619Y-90369047D01*
X147327619Y-90321428D01*
X147351428Y-90273809D01*
X147375238Y-90250000D01*
X147422857Y-90226190D01*
X147541904Y-90226190D01*
X147613333Y-90250000D01*
X147780000Y-90226190D02*
X147899047Y-90726190D01*
X147994285Y-90369047D01*
X148089523Y-90726190D01*
X148208571Y-90226190D01*
X148280000Y-90773809D02*
X148660952Y-90773809D01*
X149018095Y-90226190D02*
X148780000Y-90226190D01*
X148756190Y-90464285D01*
X148780000Y-90440476D01*
X148827619Y-90416666D01*
X148946666Y-90416666D01*
X148994285Y-90440476D01*
X149018095Y-90464285D01*
X149041904Y-90511904D01*
X149041904Y-90630952D01*
X149018095Y-90678571D01*
X148994285Y-90702380D01*
X148946666Y-90726190D01*
X148827619Y-90726190D01*
X148780000Y-90702380D01*
X148756190Y-90678571D01*
X149184761Y-90226190D02*
X149351428Y-90726190D01*
X149518095Y-90226190D01*
X149565714Y-90773809D02*
X149946666Y-90773809D01*
X150232380Y-90464285D02*
X150303809Y-90488095D01*
X150327619Y-90511904D01*
X150351428Y-90559523D01*
X150351428Y-90630952D01*
X150327619Y-90678571D01*
X150303809Y-90702380D01*
X150256190Y-90726190D01*
X150065714Y-90726190D01*
X150065714Y-90226190D01*
X150232380Y-90226190D01*
X150280000Y-90250000D01*
X150303809Y-90273809D01*
X150327619Y-90321428D01*
X150327619Y-90369047D01*
X150303809Y-90416666D01*
X150280000Y-90440476D01*
X150232380Y-90464285D01*
X150065714Y-90464285D01*
X150541904Y-90583333D02*
X150780000Y-90583333D01*
X150494285Y-90726190D02*
X150660952Y-90226190D01*
X150827619Y-90726190D01*
X150922857Y-90226190D02*
X151208571Y-90226190D01*
X151065714Y-90726190D02*
X151065714Y-90226190D01*
X132383333Y-82513582D02*
X132550000Y-83013582D01*
X132716666Y-82513582D01*
X132859523Y-82989772D02*
X132930952Y-83013582D01*
X133050000Y-83013582D01*
X133097619Y-82989772D01*
X133121428Y-82965963D01*
X133145238Y-82918344D01*
X133145238Y-82870725D01*
X133121428Y-82823106D01*
X133097619Y-82799296D01*
X133050000Y-82775487D01*
X132954761Y-82751677D01*
X132907142Y-82727868D01*
X132883333Y-82704058D01*
X132859523Y-82656439D01*
X132859523Y-82608820D01*
X132883333Y-82561201D01*
X132907142Y-82537392D01*
X132954761Y-82513582D01*
X133073809Y-82513582D01*
X133145238Y-82537392D01*
X133311904Y-82513582D02*
X133430952Y-83013582D01*
X133526190Y-82656439D01*
X133621428Y-83013582D01*
X133740476Y-82513582D01*
X133811904Y-83061201D02*
X134192857Y-83061201D01*
X134264285Y-82513582D02*
X134573809Y-82513582D01*
X134407142Y-82704058D01*
X134478571Y-82704058D01*
X134526190Y-82727868D01*
X134550000Y-82751677D01*
X134573809Y-82799296D01*
X134573809Y-82918344D01*
X134550000Y-82965963D01*
X134526190Y-82989772D01*
X134478571Y-83013582D01*
X134335714Y-83013582D01*
X134288095Y-82989772D01*
X134264285Y-82965963D01*
X134716666Y-82513582D02*
X134883333Y-83013582D01*
X135050000Y-82513582D01*
X135169047Y-82513582D02*
X135478571Y-82513582D01*
X135311904Y-82704058D01*
X135383333Y-82704058D01*
X135430952Y-82727868D01*
X135454761Y-82751677D01*
X135478571Y-82799296D01*
X135478571Y-82918344D01*
X135454761Y-82965963D01*
X135430952Y-82989772D01*
X135383333Y-83013582D01*
X135240476Y-83013582D01*
X135192857Y-82989772D01*
X135169047Y-82965963D01*
X135573809Y-83061201D02*
X135954761Y-83061201D01*
X136240476Y-82751677D02*
X136311904Y-82775487D01*
X136335714Y-82799296D01*
X136359523Y-82846915D01*
X136359523Y-82918344D01*
X136335714Y-82965963D01*
X136311904Y-82989772D01*
X136264285Y-83013582D01*
X136073809Y-83013582D01*
X136073809Y-82513582D01*
X136240476Y-82513582D01*
X136288095Y-82537392D01*
X136311904Y-82561201D01*
X136335714Y-82608820D01*
X136335714Y-82656439D01*
X136311904Y-82704058D01*
X136288095Y-82727868D01*
X136240476Y-82751677D01*
X136073809Y-82751677D01*
X136550000Y-82870725D02*
X136788095Y-82870725D01*
X136502380Y-83013582D02*
X136669047Y-82513582D01*
X136835714Y-83013582D01*
X136930952Y-82513582D02*
X137216666Y-82513582D01*
X137073809Y-83013582D02*
X137073809Y-82513582D01*
X127011904Y-72179940D02*
X127011904Y-71679940D01*
X127202380Y-71679940D01*
X127250000Y-71703750D01*
X127273809Y-71727559D01*
X127297619Y-71775178D01*
X127297619Y-71846607D01*
X127273809Y-71894226D01*
X127250000Y-71918035D01*
X127202380Y-71941845D01*
X127011904Y-71941845D01*
X127440476Y-71679940D02*
X127607142Y-72179940D01*
X127773809Y-71679940D01*
X127821428Y-72227559D02*
X128202380Y-72227559D01*
X128488095Y-71918035D02*
X128559523Y-71941845D01*
X128583333Y-71965654D01*
X128607142Y-72013273D01*
X128607142Y-72084702D01*
X128583333Y-72132321D01*
X128559523Y-72156130D01*
X128511904Y-72179940D01*
X128321428Y-72179940D01*
X128321428Y-71679940D01*
X128488095Y-71679940D01*
X128535714Y-71703750D01*
X128559523Y-71727559D01*
X128583333Y-71775178D01*
X128583333Y-71822797D01*
X128559523Y-71870416D01*
X128535714Y-71894226D01*
X128488095Y-71918035D01*
X128321428Y-71918035D01*
X129059523Y-72179940D02*
X128821428Y-72179940D01*
X128821428Y-71679940D01*
X129321428Y-71679940D02*
X129416666Y-71679940D01*
X129464285Y-71703750D01*
X129511904Y-71751369D01*
X129535714Y-71846607D01*
X129535714Y-72013273D01*
X129511904Y-72108511D01*
X129464285Y-72156130D01*
X129416666Y-72179940D01*
X129321428Y-72179940D01*
X129273809Y-72156130D01*
X129226190Y-72108511D01*
X129202380Y-72013273D01*
X129202380Y-71846607D01*
X129226190Y-71751369D01*
X129273809Y-71703750D01*
X129321428Y-71679940D01*
X130035714Y-72132321D02*
X130011904Y-72156130D01*
X129940476Y-72179940D01*
X129892857Y-72179940D01*
X129821428Y-72156130D01*
X129773809Y-72108511D01*
X129750000Y-72060892D01*
X129726190Y-71965654D01*
X129726190Y-71894226D01*
X129750000Y-71798988D01*
X129773809Y-71751369D01*
X129821428Y-71703750D01*
X129892857Y-71679940D01*
X129940476Y-71679940D01*
X130011904Y-71703750D01*
X130035714Y-71727559D01*
X130250000Y-72179940D02*
X130250000Y-71679940D01*
X130535714Y-72179940D02*
X130321428Y-71894226D01*
X130535714Y-71679940D02*
X130250000Y-71965654D01*
X130726190Y-72156130D02*
X130797619Y-72179940D01*
X130916666Y-72179940D01*
X130964285Y-72156130D01*
X130988095Y-72132321D01*
X131011904Y-72084702D01*
X131011904Y-72037083D01*
X130988095Y-71989464D01*
X130964285Y-71965654D01*
X130916666Y-71941845D01*
X130821428Y-71918035D01*
X130773809Y-71894226D01*
X130750000Y-71870416D01*
X130726190Y-71822797D01*
X130726190Y-71775178D01*
X130750000Y-71727559D01*
X130773809Y-71703750D01*
X130821428Y-71679940D01*
X130940476Y-71679940D01*
X131011904Y-71703750D01*
X182900952Y-108064285D02*
X182972380Y-108088095D01*
X182996190Y-108111904D01*
X183020000Y-108159523D01*
X183020000Y-108230952D01*
X182996190Y-108278571D01*
X182972380Y-108302380D01*
X182924761Y-108326190D01*
X182734285Y-108326190D01*
X182734285Y-107826190D01*
X182900952Y-107826190D01*
X182948571Y-107850000D01*
X182972380Y-107873809D01*
X182996190Y-107921428D01*
X182996190Y-107969047D01*
X182972380Y-108016666D01*
X182948571Y-108040476D01*
X182900952Y-108064285D01*
X182734285Y-108064285D01*
X183210476Y-108183333D02*
X183448571Y-108183333D01*
X183162857Y-108326190D02*
X183329523Y-107826190D01*
X183496190Y-108326190D01*
X183591428Y-107826190D02*
X183877142Y-107826190D01*
X183734285Y-108326190D02*
X183734285Y-107826190D01*
X104087142Y-108652380D02*
X104158571Y-108676190D01*
X104277619Y-108676190D01*
X104325238Y-108652380D01*
X104349047Y-108628571D01*
X104372857Y-108580952D01*
X104372857Y-108533333D01*
X104349047Y-108485714D01*
X104325238Y-108461904D01*
X104277619Y-108438095D01*
X104182380Y-108414285D01*
X104134761Y-108390476D01*
X104110952Y-108366666D01*
X104087142Y-108319047D01*
X104087142Y-108271428D01*
X104110952Y-108223809D01*
X104134761Y-108200000D01*
X104182380Y-108176190D01*
X104301428Y-108176190D01*
X104372857Y-108200000D01*
X104872857Y-108628571D02*
X104849047Y-108652380D01*
X104777619Y-108676190D01*
X104730000Y-108676190D01*
X104658571Y-108652380D01*
X104610952Y-108604761D01*
X104587142Y-108557142D01*
X104563333Y-108461904D01*
X104563333Y-108390476D01*
X104587142Y-108295238D01*
X104610952Y-108247619D01*
X104658571Y-108200000D01*
X104730000Y-108176190D01*
X104777619Y-108176190D01*
X104849047Y-108200000D01*
X104872857Y-108223809D01*
X159587619Y-95641428D02*
X159563809Y-95712857D01*
X159563809Y-95831904D01*
X159587619Y-95879523D01*
X159611428Y-95903333D01*
X159659047Y-95927142D01*
X159706666Y-95927142D01*
X159754285Y-95903333D01*
X159778095Y-95879523D01*
X159801904Y-95831904D01*
X159825714Y-95736666D01*
X159849523Y-95689047D01*
X159873333Y-95665238D01*
X159920952Y-95641428D01*
X159968571Y-95641428D01*
X160016190Y-95665238D01*
X160040000Y-95689047D01*
X160063809Y-95736666D01*
X160063809Y-95855714D01*
X160040000Y-95927142D01*
X160063809Y-96093809D02*
X159563809Y-96212857D01*
X159920952Y-96308095D01*
X159563809Y-96403333D01*
X160063809Y-96522380D01*
X159563809Y-96712857D02*
X160063809Y-96712857D01*
X160063809Y-96831904D01*
X160040000Y-96903333D01*
X159992380Y-96950952D01*
X159944761Y-96974761D01*
X159849523Y-96998571D01*
X159778095Y-96998571D01*
X159682857Y-96974761D01*
X159635238Y-96950952D01*
X159587619Y-96903333D01*
X159563809Y-96831904D01*
X159563809Y-96712857D01*
D12*
X149237251Y-109276082D02*
X149237251Y-109633225D01*
X149213441Y-109704653D01*
X149165822Y-109752272D01*
X149094394Y-109776082D01*
X149046775Y-109776082D01*
X149713441Y-109776082D02*
X149475346Y-109776082D01*
X149475346Y-109276082D01*
X150165822Y-109728463D02*
X150142013Y-109752272D01*
X150070584Y-109776082D01*
X150022965Y-109776082D01*
X149951536Y-109752272D01*
X149903917Y-109704653D01*
X149880108Y-109657034D01*
X149856298Y-109561796D01*
X149856298Y-109490368D01*
X149880108Y-109395130D01*
X149903917Y-109347511D01*
X149951536Y-109299892D01*
X150022965Y-109276082D01*
X150070584Y-109276082D01*
X150142013Y-109299892D01*
X150165822Y-109323701D01*
X150522965Y-109276082D02*
X150522965Y-109633225D01*
X150499155Y-109704653D01*
X150451536Y-109752272D01*
X150380108Y-109776082D01*
X150332489Y-109776082D01*
X150999155Y-109776082D02*
X150761060Y-109776082D01*
X150761060Y-109276082D01*
X151451536Y-109728463D02*
X151427727Y-109752272D01*
X151356298Y-109776082D01*
X151308679Y-109776082D01*
X151237251Y-109752272D01*
X151189632Y-109704653D01*
X151165822Y-109657034D01*
X151142013Y-109561796D01*
X151142013Y-109490368D01*
X151165822Y-109395130D01*
X151189632Y-109347511D01*
X151237251Y-109299892D01*
X151308679Y-109276082D01*
X151356298Y-109276082D01*
X151427727Y-109299892D01*
X151451536Y-109323701D01*
X151808679Y-109276082D02*
X151808679Y-109633225D01*
X151784870Y-109704653D01*
X151737251Y-109752272D01*
X151665822Y-109776082D01*
X151618203Y-109776082D01*
X152284870Y-109776082D02*
X152046775Y-109776082D01*
X152046775Y-109276082D01*
X152737251Y-109728463D02*
X152713441Y-109752272D01*
X152642013Y-109776082D01*
X152594394Y-109776082D01*
X152522965Y-109752272D01*
X152475346Y-109704653D01*
X152451536Y-109657034D01*
X152427727Y-109561796D01*
X152427727Y-109490368D01*
X152451536Y-109395130D01*
X152475346Y-109347511D01*
X152522965Y-109299892D01*
X152594394Y-109276082D01*
X152642013Y-109276082D01*
X152713441Y-109299892D01*
X152737251Y-109323701D01*
X153094394Y-109276082D02*
X153094394Y-109633225D01*
X153070584Y-109704653D01*
X153022965Y-109752272D01*
X152951536Y-109776082D01*
X152903917Y-109776082D01*
X153570584Y-109776082D02*
X153332489Y-109776082D01*
X153332489Y-109276082D01*
X154022965Y-109728463D02*
X153999155Y-109752272D01*
X153927727Y-109776082D01*
X153880108Y-109776082D01*
X153808679Y-109752272D01*
X153761060Y-109704653D01*
X153737251Y-109657034D01*
X153713441Y-109561796D01*
X153713441Y-109490368D01*
X153737251Y-109395130D01*
X153761060Y-109347511D01*
X153808679Y-109299892D01*
X153880108Y-109276082D01*
X153927727Y-109276082D01*
X153999155Y-109299892D01*
X154022965Y-109323701D01*
D13*
X170950000Y-102940000D02*
G75*
G02X166784323Y-98774323I0J4165677D01*
G01*
X162620000Y-68850000D02*
G75*
G02X166785677Y-73015677I0J-4165677D01*
G01*
X121270000Y-101090000D02*
G75*
G02X117104323Y-105255677I-4165677J0D01*
G01*
X121274323Y-73015677D02*
G75*
G02X125440000Y-68850000I4165677J0D01*
G01*
X188440000Y-102930000D02*
X188430000Y-102940000D01*
X170970000Y-102940000D02*
X188430000Y-102940000D01*
X166790000Y-73030000D02*
X166790000Y-98800000D01*
X125460000Y-68850000D02*
X162620000Y-68850000D01*
X121270000Y-101080000D02*
X121270000Y-73030000D01*
X99170000Y-105260000D02*
X117120000Y-105260000D01*
D14*
G04 #@! TO.C,U308*
X124229776Y-85763641D02*
X124229776Y-85963641D01*
X124229776Y-85763641D02*
X124429776Y-85763641D01*
X124229776Y-87563643D02*
X124229776Y-87763643D01*
X124229776Y-87763643D02*
X124429776Y-87763643D01*
X126379774Y-87763643D02*
X126579774Y-87763643D01*
X126579774Y-87563643D02*
X126579774Y-87763643D01*
X126579774Y-85763641D02*
X126579774Y-86163643D01*
X126179775Y-85763641D02*
X126579774Y-85763641D01*
D15*
G04 #@! TO.C,R633*
X146790775Y-63488921D02*
X146790775Y-63163363D01*
X147810775Y-63488921D02*
X147810775Y-63163363D01*
G04 #@! TO.C,C304*
X134110000Y-114191422D02*
X134110000Y-114708578D01*
X132690000Y-114191422D02*
X132690000Y-114708578D01*
D16*
G04 #@! TO.C,G\002A\002A\002A*
G36*
X146148529Y-122735148D02*
X146149046Y-122753489D01*
X146149546Y-122783313D01*
X146150027Y-122824014D01*
X146150485Y-122874982D01*
X146150918Y-122935611D01*
X146151323Y-123005291D01*
X146151698Y-123083415D01*
X146152040Y-123169375D01*
X146152347Y-123262562D01*
X146152616Y-123362370D01*
X146152844Y-123468189D01*
X146153029Y-123579412D01*
X146153168Y-123695431D01*
X146153258Y-123815637D01*
X146153298Y-123939423D01*
X146153300Y-123970325D01*
X146153300Y-125211750D01*
X145509779Y-125211750D01*
X145418373Y-125211790D01*
X145329133Y-125211909D01*
X145243060Y-125212101D01*
X145161154Y-125212359D01*
X145084416Y-125212678D01*
X145013849Y-125213052D01*
X144950453Y-125213476D01*
X144895229Y-125213945D01*
X144849179Y-125214452D01*
X144813303Y-125214991D01*
X144788604Y-125215558D01*
X144780483Y-125215863D01*
X144739274Y-125217318D01*
X144710598Y-125217127D01*
X144694398Y-125215287D01*
X144690591Y-125213313D01*
X144693149Y-125207002D01*
X144701735Y-125190523D01*
X144715910Y-125164639D01*
X144735238Y-125130112D01*
X144759281Y-125087707D01*
X144787603Y-125038187D01*
X144819767Y-124982315D01*
X144855335Y-124920854D01*
X144893871Y-124854569D01*
X144934937Y-124784221D01*
X144978096Y-124710575D01*
X144991998Y-124686912D01*
X145041438Y-124602801D01*
X145093061Y-124514970D01*
X145145956Y-124424964D01*
X145199218Y-124334328D01*
X145251936Y-124244607D01*
X145303205Y-124157347D01*
X145352114Y-124074093D01*
X145397758Y-123996390D01*
X145439227Y-123925784D01*
X145475614Y-123863820D01*
X145491376Y-123836975D01*
X145527833Y-123774887D01*
X145563738Y-123713763D01*
X145598333Y-123654889D01*
X145630864Y-123599551D01*
X145660573Y-123549035D01*
X145686704Y-123504627D01*
X145708500Y-123467613D01*
X145725207Y-123439280D01*
X145734104Y-123424225D01*
X145753289Y-123391753D01*
X145776833Y-123351800D01*
X145802686Y-123307848D01*
X145828800Y-123263380D01*
X145851767Y-123224200D01*
X145877230Y-123180763D01*
X145905277Y-123133001D01*
X145933573Y-123084884D01*
X145959785Y-123040381D01*
X145978720Y-123008300D01*
X146002867Y-122967375D01*
X146029853Y-122921537D01*
X146056937Y-122875446D01*
X146081380Y-122833760D01*
X146089790Y-122819387D01*
X146107745Y-122789198D01*
X146123742Y-122763281D01*
X146136609Y-122743458D01*
X146145175Y-122731550D01*
X146147997Y-122728899D01*
X146148529Y-122735148D01*
X146148529Y-122735148D01*
G37*
X146148529Y-122735148D02*
X146149046Y-122753489D01*
X146149546Y-122783313D01*
X146150027Y-122824014D01*
X146150485Y-122874982D01*
X146150918Y-122935611D01*
X146151323Y-123005291D01*
X146151698Y-123083415D01*
X146152040Y-123169375D01*
X146152347Y-123262562D01*
X146152616Y-123362370D01*
X146152844Y-123468189D01*
X146153029Y-123579412D01*
X146153168Y-123695431D01*
X146153258Y-123815637D01*
X146153298Y-123939423D01*
X146153300Y-123970325D01*
X146153300Y-125211750D01*
X145509779Y-125211750D01*
X145418373Y-125211790D01*
X145329133Y-125211909D01*
X145243060Y-125212101D01*
X145161154Y-125212359D01*
X145084416Y-125212678D01*
X145013849Y-125213052D01*
X144950453Y-125213476D01*
X144895229Y-125213945D01*
X144849179Y-125214452D01*
X144813303Y-125214991D01*
X144788604Y-125215558D01*
X144780483Y-125215863D01*
X144739274Y-125217318D01*
X144710598Y-125217127D01*
X144694398Y-125215287D01*
X144690591Y-125213313D01*
X144693149Y-125207002D01*
X144701735Y-125190523D01*
X144715910Y-125164639D01*
X144735238Y-125130112D01*
X144759281Y-125087707D01*
X144787603Y-125038187D01*
X144819767Y-124982315D01*
X144855335Y-124920854D01*
X144893871Y-124854569D01*
X144934937Y-124784221D01*
X144978096Y-124710575D01*
X144991998Y-124686912D01*
X145041438Y-124602801D01*
X145093061Y-124514970D01*
X145145956Y-124424964D01*
X145199218Y-124334328D01*
X145251936Y-124244607D01*
X145303205Y-124157347D01*
X145352114Y-124074093D01*
X145397758Y-123996390D01*
X145439227Y-123925784D01*
X145475614Y-123863820D01*
X145491376Y-123836975D01*
X145527833Y-123774887D01*
X145563738Y-123713763D01*
X145598333Y-123654889D01*
X145630864Y-123599551D01*
X145660573Y-123549035D01*
X145686704Y-123504627D01*
X145708500Y-123467613D01*
X145725207Y-123439280D01*
X145734104Y-123424225D01*
X145753289Y-123391753D01*
X145776833Y-123351800D01*
X145802686Y-123307848D01*
X145828800Y-123263380D01*
X145851767Y-123224200D01*
X145877230Y-123180763D01*
X145905277Y-123133001D01*
X145933573Y-123084884D01*
X145959785Y-123040381D01*
X145978720Y-123008300D01*
X146002867Y-122967375D01*
X146029853Y-122921537D01*
X146056937Y-122875446D01*
X146081380Y-122833760D01*
X146089790Y-122819387D01*
X146107745Y-122789198D01*
X146123742Y-122763281D01*
X146136609Y-122743458D01*
X146145175Y-122731550D01*
X146147997Y-122728899D01*
X146148529Y-122735148D01*
G36*
X146118574Y-122655589D02*
X146111815Y-122669458D01*
X146104039Y-122682621D01*
X146096805Y-122694486D01*
X146083927Y-122716013D01*
X146066172Y-122745904D01*
X146044310Y-122782859D01*
X146019107Y-122825577D01*
X145991332Y-122872761D01*
X145961754Y-122923109D01*
X145943445Y-122954325D01*
X145922525Y-122989996D01*
X145895725Y-123035670D01*
X145863599Y-123090400D01*
X145826705Y-123153242D01*
X145785596Y-123223249D01*
X145740829Y-123299476D01*
X145692960Y-123380977D01*
X145642544Y-123466806D01*
X145590138Y-123556018D01*
X145536295Y-123647667D01*
X145481573Y-123740807D01*
X145426526Y-123834493D01*
X145371711Y-123927778D01*
X145317683Y-124019718D01*
X145264998Y-124109366D01*
X145214211Y-124195777D01*
X145165879Y-124278005D01*
X145120556Y-124355105D01*
X145078798Y-124426130D01*
X145041162Y-124490135D01*
X145008202Y-124546174D01*
X144980475Y-124593302D01*
X144965924Y-124618025D01*
X144909299Y-124714225D01*
X144858886Y-124799906D01*
X144814440Y-124875485D01*
X144775716Y-124941378D01*
X144742468Y-124998003D01*
X144714453Y-125045777D01*
X144691426Y-125085117D01*
X144673141Y-125116440D01*
X144659354Y-125140164D01*
X144651876Y-125153119D01*
X144637507Y-125176704D01*
X144624077Y-125196259D01*
X144613612Y-125208941D01*
X144610049Y-125211857D01*
X144601752Y-125213010D01*
X144582321Y-125214060D01*
X144553201Y-125215001D01*
X144515837Y-125215831D01*
X144471673Y-125216543D01*
X144422154Y-125217135D01*
X144368724Y-125217602D01*
X144312829Y-125217939D01*
X144255913Y-125218143D01*
X144199419Y-125218208D01*
X144144794Y-125218131D01*
X144093481Y-125217908D01*
X144046926Y-125217533D01*
X144006572Y-125217003D01*
X143973865Y-125216313D01*
X143950249Y-125215460D01*
X143937168Y-125214438D01*
X143935033Y-125213866D01*
X143934448Y-125207063D01*
X143933887Y-125188407D01*
X143933356Y-125158747D01*
X143932859Y-125118932D01*
X143932403Y-125069808D01*
X143931993Y-125012225D01*
X143931634Y-124947029D01*
X143931332Y-124875070D01*
X143931092Y-124797194D01*
X143930920Y-124714250D01*
X143930822Y-124627087D01*
X143930800Y-124560249D01*
X143930800Y-123910864D01*
X143948262Y-123898705D01*
X143960491Y-123890860D01*
X143980937Y-123878449D01*
X144006766Y-123863168D01*
X144035145Y-123846711D01*
X144035575Y-123846465D01*
X144074877Y-123823887D01*
X144123114Y-123796136D01*
X144178225Y-123764398D01*
X144238153Y-123729860D01*
X144300839Y-123693708D01*
X144364223Y-123657130D01*
X144426248Y-123621311D01*
X144445150Y-123610389D01*
X144523074Y-123565379D01*
X144603856Y-123518762D01*
X144690073Y-123469049D01*
X144784305Y-123414754D01*
X144800750Y-123405282D01*
X144838137Y-123383724D01*
X144881172Y-123358870D01*
X144924522Y-123333803D01*
X144962675Y-123311709D01*
X144993697Y-123293730D01*
X145022627Y-123276973D01*
X145046823Y-123262966D01*
X145063645Y-123253239D01*
X145067450Y-123251043D01*
X145077331Y-123245349D01*
X145097038Y-123233993D01*
X145125391Y-123217655D01*
X145161212Y-123197015D01*
X145203322Y-123172751D01*
X145250542Y-123145543D01*
X145301693Y-123116070D01*
X145355597Y-123085010D01*
X145356375Y-123084563D01*
X145412130Y-123052432D01*
X145466648Y-123021006D01*
X145518509Y-122991103D01*
X145566289Y-122963544D01*
X145608568Y-122939149D01*
X145643925Y-122918738D01*
X145670938Y-122903130D01*
X145686575Y-122894080D01*
X145770353Y-122845551D01*
X145843696Y-122803154D01*
X145907124Y-122766594D01*
X145961155Y-122735579D01*
X146006310Y-122709813D01*
X146043107Y-122689004D01*
X146072066Y-122672857D01*
X146093706Y-122661079D01*
X146108546Y-122653374D01*
X146117107Y-122649451D01*
X146119849Y-122648882D01*
X146118574Y-122655589D01*
X146118574Y-122655589D01*
G37*
X146118574Y-122655589D02*
X146111815Y-122669458D01*
X146104039Y-122682621D01*
X146096805Y-122694486D01*
X146083927Y-122716013D01*
X146066172Y-122745904D01*
X146044310Y-122782859D01*
X146019107Y-122825577D01*
X145991332Y-122872761D01*
X145961754Y-122923109D01*
X145943445Y-122954325D01*
X145922525Y-122989996D01*
X145895725Y-123035670D01*
X145863599Y-123090400D01*
X145826705Y-123153242D01*
X145785596Y-123223249D01*
X145740829Y-123299476D01*
X145692960Y-123380977D01*
X145642544Y-123466806D01*
X145590138Y-123556018D01*
X145536295Y-123647667D01*
X145481573Y-123740807D01*
X145426526Y-123834493D01*
X145371711Y-123927778D01*
X145317683Y-124019718D01*
X145264998Y-124109366D01*
X145214211Y-124195777D01*
X145165879Y-124278005D01*
X145120556Y-124355105D01*
X145078798Y-124426130D01*
X145041162Y-124490135D01*
X145008202Y-124546174D01*
X144980475Y-124593302D01*
X144965924Y-124618025D01*
X144909299Y-124714225D01*
X144858886Y-124799906D01*
X144814440Y-124875485D01*
X144775716Y-124941378D01*
X144742468Y-124998003D01*
X144714453Y-125045777D01*
X144691426Y-125085117D01*
X144673141Y-125116440D01*
X144659354Y-125140164D01*
X144651876Y-125153119D01*
X144637507Y-125176704D01*
X144624077Y-125196259D01*
X144613612Y-125208941D01*
X144610049Y-125211857D01*
X144601752Y-125213010D01*
X144582321Y-125214060D01*
X144553201Y-125215001D01*
X144515837Y-125215831D01*
X144471673Y-125216543D01*
X144422154Y-125217135D01*
X144368724Y-125217602D01*
X144312829Y-125217939D01*
X144255913Y-125218143D01*
X144199419Y-125218208D01*
X144144794Y-125218131D01*
X144093481Y-125217908D01*
X144046926Y-125217533D01*
X144006572Y-125217003D01*
X143973865Y-125216313D01*
X143950249Y-125215460D01*
X143937168Y-125214438D01*
X143935033Y-125213866D01*
X143934448Y-125207063D01*
X143933887Y-125188407D01*
X143933356Y-125158747D01*
X143932859Y-125118932D01*
X143932403Y-125069808D01*
X143931993Y-125012225D01*
X143931634Y-124947029D01*
X143931332Y-124875070D01*
X143931092Y-124797194D01*
X143930920Y-124714250D01*
X143930822Y-124627087D01*
X143930800Y-124560249D01*
X143930800Y-123910864D01*
X143948262Y-123898705D01*
X143960491Y-123890860D01*
X143980937Y-123878449D01*
X144006766Y-123863168D01*
X144035145Y-123846711D01*
X144035575Y-123846465D01*
X144074877Y-123823887D01*
X144123114Y-123796136D01*
X144178225Y-123764398D01*
X144238153Y-123729860D01*
X144300839Y-123693708D01*
X144364223Y-123657130D01*
X144426248Y-123621311D01*
X144445150Y-123610389D01*
X144523074Y-123565379D01*
X144603856Y-123518762D01*
X144690073Y-123469049D01*
X144784305Y-123414754D01*
X144800750Y-123405282D01*
X144838137Y-123383724D01*
X144881172Y-123358870D01*
X144924522Y-123333803D01*
X144962675Y-123311709D01*
X144993697Y-123293730D01*
X145022627Y-123276973D01*
X145046823Y-123262966D01*
X145063645Y-123253239D01*
X145067450Y-123251043D01*
X145077331Y-123245349D01*
X145097038Y-123233993D01*
X145125391Y-123217655D01*
X145161212Y-123197015D01*
X145203322Y-123172751D01*
X145250542Y-123145543D01*
X145301693Y-123116070D01*
X145355597Y-123085010D01*
X145356375Y-123084563D01*
X145412130Y-123052432D01*
X145466648Y-123021006D01*
X145518509Y-122991103D01*
X145566289Y-122963544D01*
X145608568Y-122939149D01*
X145643925Y-122918738D01*
X145670938Y-122903130D01*
X145686575Y-122894080D01*
X145770353Y-122845551D01*
X145843696Y-122803154D01*
X145907124Y-122766594D01*
X145961155Y-122735579D01*
X146006310Y-122709813D01*
X146043107Y-122689004D01*
X146072066Y-122672857D01*
X146093706Y-122661079D01*
X146108546Y-122653374D01*
X146117107Y-122649451D01*
X146119849Y-122648882D01*
X146118574Y-122655589D01*
G36*
X143869277Y-123947958D02*
X143869955Y-123966019D01*
X143870597Y-123995083D01*
X143871196Y-124034304D01*
X143871746Y-124082832D01*
X143872240Y-124139820D01*
X143872670Y-124204420D01*
X143873031Y-124275784D01*
X143873316Y-124353064D01*
X143873517Y-124435411D01*
X143873629Y-124521978D01*
X143873650Y-124579925D01*
X143873650Y-125218100D01*
X143297387Y-125218104D01*
X143195968Y-125218161D01*
X143085869Y-125218326D01*
X142969499Y-125218590D01*
X142849266Y-125218942D01*
X142727580Y-125219374D01*
X142606848Y-125219877D01*
X142489480Y-125220442D01*
X142377884Y-125221058D01*
X142274469Y-125221718D01*
X142192487Y-125222324D01*
X142100018Y-125222993D01*
X142014703Y-125223473D01*
X141937161Y-125223764D01*
X141868009Y-125223869D01*
X141807867Y-125223790D01*
X141757352Y-125223529D01*
X141717083Y-125223087D01*
X141687678Y-125222467D01*
X141669756Y-125221670D01*
X141663927Y-125220733D01*
X141669120Y-125215204D01*
X141682945Y-125205332D01*
X141702881Y-125192852D01*
X141713140Y-125186866D01*
X141741672Y-125170498D01*
X141775356Y-125151062D01*
X141808388Y-125131912D01*
X141819425Y-125125487D01*
X141836646Y-125115487D01*
X141863492Y-125099954D01*
X141898581Y-125079684D01*
X141940529Y-125055475D01*
X141987953Y-125028126D01*
X142039470Y-124998434D01*
X142093697Y-124967197D01*
X142143275Y-124938654D01*
X142199039Y-124906548D01*
X142253566Y-124875139D01*
X142305433Y-124845247D01*
X142353218Y-124817692D01*
X142395500Y-124793295D01*
X142430855Y-124772876D01*
X142457863Y-124757255D01*
X142473475Y-124748200D01*
X142492053Y-124737425D01*
X142520216Y-124721137D01*
X142556544Y-124700155D01*
X142599613Y-124675300D01*
X142648003Y-124647392D01*
X142700291Y-124617252D01*
X142755054Y-124585700D01*
X142803675Y-124557700D01*
X142859435Y-124525589D01*
X142913959Y-124494182D01*
X142965823Y-124464297D01*
X143013606Y-124436755D01*
X143055887Y-124412374D01*
X143091243Y-124391975D01*
X143118253Y-124376378D01*
X143133875Y-124367340D01*
X143164767Y-124349445D01*
X143201978Y-124327903D01*
X143240831Y-124305422D01*
X143276649Y-124284708D01*
X143276750Y-124284650D01*
X143312550Y-124263947D01*
X143351400Y-124241472D01*
X143388623Y-124219931D01*
X143419542Y-124202030D01*
X143419625Y-124201982D01*
X143441030Y-124189603D01*
X143471511Y-124172003D01*
X143509139Y-124150295D01*
X143551982Y-124125592D01*
X143598109Y-124099008D01*
X143645591Y-124071655D01*
X143667275Y-124059168D01*
X143711399Y-124033696D01*
X143752089Y-124010085D01*
X143788012Y-123989115D01*
X143817835Y-123971571D01*
X143840227Y-123958234D01*
X143853855Y-123949887D01*
X143857457Y-123947442D01*
X143866567Y-123942066D01*
X143868570Y-123941750D01*
X143869277Y-123947958D01*
X143869277Y-123947958D01*
G37*
X143869277Y-123947958D02*
X143869955Y-123966019D01*
X143870597Y-123995083D01*
X143871196Y-124034304D01*
X143871746Y-124082832D01*
X143872240Y-124139820D01*
X143872670Y-124204420D01*
X143873031Y-124275784D01*
X143873316Y-124353064D01*
X143873517Y-124435411D01*
X143873629Y-124521978D01*
X143873650Y-124579925D01*
X143873650Y-125218100D01*
X143297387Y-125218104D01*
X143195968Y-125218161D01*
X143085869Y-125218326D01*
X142969499Y-125218590D01*
X142849266Y-125218942D01*
X142727580Y-125219374D01*
X142606848Y-125219877D01*
X142489480Y-125220442D01*
X142377884Y-125221058D01*
X142274469Y-125221718D01*
X142192487Y-125222324D01*
X142100018Y-125222993D01*
X142014703Y-125223473D01*
X141937161Y-125223764D01*
X141868009Y-125223869D01*
X141807867Y-125223790D01*
X141757352Y-125223529D01*
X141717083Y-125223087D01*
X141687678Y-125222467D01*
X141669756Y-125221670D01*
X141663927Y-125220733D01*
X141669120Y-125215204D01*
X141682945Y-125205332D01*
X141702881Y-125192852D01*
X141713140Y-125186866D01*
X141741672Y-125170498D01*
X141775356Y-125151062D01*
X141808388Y-125131912D01*
X141819425Y-125125487D01*
X141836646Y-125115487D01*
X141863492Y-125099954D01*
X141898581Y-125079684D01*
X141940529Y-125055475D01*
X141987953Y-125028126D01*
X142039470Y-124998434D01*
X142093697Y-124967197D01*
X142143275Y-124938654D01*
X142199039Y-124906548D01*
X142253566Y-124875139D01*
X142305433Y-124845247D01*
X142353218Y-124817692D01*
X142395500Y-124793295D01*
X142430855Y-124772876D01*
X142457863Y-124757255D01*
X142473475Y-124748200D01*
X142492053Y-124737425D01*
X142520216Y-124721137D01*
X142556544Y-124700155D01*
X142599613Y-124675300D01*
X142648003Y-124647392D01*
X142700291Y-124617252D01*
X142755054Y-124585700D01*
X142803675Y-124557700D01*
X142859435Y-124525589D01*
X142913959Y-124494182D01*
X142965823Y-124464297D01*
X143013606Y-124436755D01*
X143055887Y-124412374D01*
X143091243Y-124391975D01*
X143118253Y-124376378D01*
X143133875Y-124367340D01*
X143164767Y-124349445D01*
X143201978Y-124327903D01*
X143240831Y-124305422D01*
X143276649Y-124284708D01*
X143276750Y-124284650D01*
X143312550Y-124263947D01*
X143351400Y-124241472D01*
X143388623Y-124219931D01*
X143419542Y-124202030D01*
X143419625Y-124201982D01*
X143441030Y-124189603D01*
X143471511Y-124172003D01*
X143509139Y-124150295D01*
X143551982Y-124125592D01*
X143598109Y-124099008D01*
X143645591Y-124071655D01*
X143667275Y-124059168D01*
X143711399Y-124033696D01*
X143752089Y-124010085D01*
X143788012Y-123989115D01*
X143817835Y-123971571D01*
X143840227Y-123958234D01*
X143853855Y-123949887D01*
X143857457Y-123947442D01*
X143866567Y-123942066D01*
X143868570Y-123941750D01*
X143869277Y-123947958D01*
G36*
X143881515Y-121275932D02*
X143886075Y-121279362D01*
X143893918Y-121284636D01*
X143905729Y-121292169D01*
X143922193Y-121302372D01*
X143943996Y-121315658D01*
X143971822Y-121332441D01*
X144006356Y-121353134D01*
X144048283Y-121378149D01*
X144098288Y-121407899D01*
X144157056Y-121442797D01*
X144225272Y-121483256D01*
X144303622Y-121529688D01*
X144318150Y-121538295D01*
X144381421Y-121575791D01*
X144452483Y-121617923D01*
X144528209Y-121662838D01*
X144605476Y-121708681D01*
X144681156Y-121753597D01*
X144752125Y-121795733D01*
X144810275Y-121830274D01*
X144863569Y-121861935D01*
X144925744Y-121898864D01*
X144994754Y-121939847D01*
X145068556Y-121983671D01*
X145145109Y-122029124D01*
X145222368Y-122074991D01*
X145298291Y-122120060D01*
X145370835Y-122163119D01*
X145404000Y-122182801D01*
X145471629Y-122222942D01*
X145541592Y-122264478D01*
X145612160Y-122306382D01*
X145681604Y-122347626D01*
X145748195Y-122387184D01*
X145810203Y-122424028D01*
X145865900Y-122457131D01*
X145913557Y-122485467D01*
X145940013Y-122501205D01*
X145984662Y-122527728D01*
X146025969Y-122552179D01*
X146062639Y-122573798D01*
X146093374Y-122591824D01*
X146116875Y-122605495D01*
X146131846Y-122614049D01*
X146136863Y-122616718D01*
X146141263Y-122621344D01*
X146140586Y-122622739D01*
X146134001Y-122623159D01*
X146115363Y-122623654D01*
X146085319Y-122624216D01*
X146044516Y-122624841D01*
X145993601Y-122625520D01*
X145933221Y-122626247D01*
X145864023Y-122627017D01*
X145786655Y-122627821D01*
X145701762Y-122628653D01*
X145609992Y-122629507D01*
X145511992Y-122630376D01*
X145408409Y-122631253D01*
X145299889Y-122632132D01*
X145187080Y-122633006D01*
X145070629Y-122633868D01*
X145032511Y-122634142D01*
X144879432Y-122635261D01*
X144738791Y-122636348D01*
X144610326Y-122637407D01*
X144493775Y-122638442D01*
X144388876Y-122639456D01*
X144295366Y-122640452D01*
X144212984Y-122641435D01*
X144141468Y-122642406D01*
X144080556Y-122643371D01*
X144029985Y-122644332D01*
X143989494Y-122645294D01*
X143958821Y-122646258D01*
X143937703Y-122647230D01*
X143925879Y-122648212D01*
X143922959Y-122648945D01*
X143922304Y-122656140D01*
X143921674Y-122675169D01*
X143921076Y-122705165D01*
X143920516Y-122745263D01*
X143920001Y-122794596D01*
X143919538Y-122852298D01*
X143919133Y-122917504D01*
X143918792Y-122989346D01*
X143918521Y-123066958D01*
X143918328Y-123149476D01*
X143918219Y-123236031D01*
X143918197Y-123285737D01*
X143918134Y-123374071D01*
X143917980Y-123458782D01*
X143917740Y-123539010D01*
X143917422Y-123613898D01*
X143917032Y-123682585D01*
X143916577Y-123744213D01*
X143916064Y-123797923D01*
X143915499Y-123842855D01*
X143914890Y-123878150D01*
X143914244Y-123902949D01*
X143913566Y-123916394D01*
X143913172Y-123918645D01*
X143905584Y-123917214D01*
X143890653Y-123910473D01*
X143873485Y-123900964D01*
X143855828Y-123890560D01*
X143829986Y-123875494D01*
X143798792Y-123857412D01*
X143765085Y-123837958D01*
X143746650Y-123827356D01*
X143710263Y-123806426D01*
X143672436Y-123784615D01*
X143636823Y-123764031D01*
X143607078Y-123746786D01*
X143597425Y-123741170D01*
X143580204Y-123731174D01*
X143553357Y-123715644D01*
X143518268Y-123695377D01*
X143476320Y-123671171D01*
X143428896Y-123643824D01*
X143377380Y-123614133D01*
X143323153Y-123582898D01*
X143273575Y-123554354D01*
X143197708Y-123510679D01*
X143131808Y-123472728D01*
X143074828Y-123439893D01*
X143025722Y-123411572D01*
X142983444Y-123387157D01*
X142946950Y-123366046D01*
X142915192Y-123347632D01*
X142887125Y-123331310D01*
X142861705Y-123316477D01*
X142837883Y-123302526D01*
X142814892Y-123289016D01*
X142790143Y-123275153D01*
X142768953Y-123264581D01*
X142753934Y-123258527D01*
X142748217Y-123257716D01*
X142743847Y-123263624D01*
X142733721Y-123279716D01*
X142718347Y-123305125D01*
X142698230Y-123338987D01*
X142673877Y-123380436D01*
X142645794Y-123428607D01*
X142614488Y-123482633D01*
X142580465Y-123541649D01*
X142544231Y-123604790D01*
X142506293Y-123671191D01*
X142505391Y-123672773D01*
X142426035Y-123811967D01*
X142349060Y-123946960D01*
X142274685Y-124077372D01*
X142203127Y-124202823D01*
X142134602Y-124322931D01*
X142069330Y-124437315D01*
X142007527Y-124545596D01*
X141949411Y-124647392D01*
X141895199Y-124742322D01*
X141845109Y-124830007D01*
X141799357Y-124910065D01*
X141758163Y-124982115D01*
X141721743Y-125045777D01*
X141690314Y-125100670D01*
X141664094Y-125146413D01*
X141643301Y-125182627D01*
X141628153Y-125208929D01*
X141618865Y-125224939D01*
X141615669Y-125230270D01*
X141615413Y-125224280D01*
X141615165Y-125206178D01*
X141614924Y-125176555D01*
X141614692Y-125135999D01*
X141614471Y-125085100D01*
X141614262Y-125024448D01*
X141614065Y-124954630D01*
X141613882Y-124876237D01*
X141613713Y-124789857D01*
X141613561Y-124696080D01*
X141613427Y-124595495D01*
X141613311Y-124488691D01*
X141613215Y-124376258D01*
X141613139Y-124258784D01*
X141613086Y-124136859D01*
X141613056Y-124011072D01*
X141613050Y-123917972D01*
X141613050Y-123825919D01*
X141670200Y-123825919D01*
X141670228Y-123947500D01*
X141670311Y-124065579D01*
X141670446Y-124179539D01*
X141670630Y-124288761D01*
X141670860Y-124392626D01*
X141671134Y-124490518D01*
X141671448Y-124581818D01*
X141671800Y-124665908D01*
X141672188Y-124742169D01*
X141672607Y-124809985D01*
X141673056Y-124868736D01*
X141673531Y-124917805D01*
X141674030Y-124956573D01*
X141674550Y-124984423D01*
X141675088Y-125000737D01*
X141675575Y-125005057D01*
X141679423Y-124998787D01*
X141689107Y-124982244D01*
X141704187Y-124956197D01*
X141724225Y-124921413D01*
X141748779Y-124878660D01*
X141777410Y-124828707D01*
X141809677Y-124772321D01*
X141845141Y-124710270D01*
X141883361Y-124643322D01*
X141923898Y-124572245D01*
X141966311Y-124497807D01*
X141981021Y-124471975D01*
X142024818Y-124395062D01*
X142067468Y-124320186D01*
X142108470Y-124248228D01*
X142147320Y-124180072D01*
X142183513Y-124116599D01*
X142216547Y-124058692D01*
X142245918Y-124007233D01*
X142271124Y-123963105D01*
X142291659Y-123927190D01*
X142307022Y-123900371D01*
X142316709Y-123883530D01*
X142317928Y-123881425D01*
X142356511Y-123814711D01*
X142395256Y-123747334D01*
X142433656Y-123680202D01*
X142471204Y-123614225D01*
X142507391Y-123550312D01*
X142541711Y-123489370D01*
X142573656Y-123432310D01*
X142602718Y-123380039D01*
X142628391Y-123333467D01*
X142650166Y-123293502D01*
X142667537Y-123261053D01*
X142679996Y-123237030D01*
X142687036Y-123222340D01*
X142688397Y-123217885D01*
X142680958Y-123212841D01*
X142664980Y-123203052D01*
X142647060Y-123192450D01*
X142782899Y-123192450D01*
X142787460Y-123198898D01*
X142802667Y-123210569D01*
X142828698Y-123227579D01*
X142865731Y-123250045D01*
X142913074Y-123277584D01*
X142954218Y-123301191D01*
X142995420Y-123324870D01*
X143034164Y-123347172D01*
X143067933Y-123366649D01*
X143094212Y-123381852D01*
X143102125Y-123386448D01*
X143130215Y-123402766D01*
X143164976Y-123422920D01*
X143202076Y-123444398D01*
X143237183Y-123464692D01*
X143238650Y-123465539D01*
X143270226Y-123483777D01*
X143299516Y-123500704D01*
X143327982Y-123517167D01*
X143357084Y-123534014D01*
X143388284Y-123552091D01*
X143423044Y-123572246D01*
X143462825Y-123595325D01*
X143509088Y-123622175D01*
X143563294Y-123653645D01*
X143626906Y-123690580D01*
X143632350Y-123693741D01*
X143679057Y-123720769D01*
X143722440Y-123745698D01*
X143761247Y-123767819D01*
X143794227Y-123786428D01*
X143820125Y-123800818D01*
X143837691Y-123810283D01*
X143845672Y-123814116D01*
X143845897Y-123814162D01*
X143847441Y-123810438D01*
X143848866Y-123798651D01*
X143850188Y-123778269D01*
X143851420Y-123748765D01*
X143852575Y-123709608D01*
X143853669Y-123660269D01*
X143854713Y-123600219D01*
X143855724Y-123528927D01*
X143856714Y-123445865D01*
X143857456Y-123375012D01*
X143858186Y-123296585D01*
X143858816Y-123218212D01*
X143859340Y-123141414D01*
X143859752Y-123067714D01*
X143860045Y-122998633D01*
X143860214Y-122935693D01*
X143860252Y-122880416D01*
X143860154Y-122834325D01*
X143859913Y-122798941D01*
X143859809Y-122790420D01*
X143857775Y-122645566D01*
X143476812Y-122646147D01*
X143393084Y-122646335D01*
X143321312Y-122646636D01*
X143260753Y-122647067D01*
X143210664Y-122647641D01*
X143170303Y-122648377D01*
X143138925Y-122649290D01*
X143115788Y-122650395D01*
X143100148Y-122651708D01*
X143091262Y-122653247D01*
X143088653Y-122654476D01*
X143083731Y-122661872D01*
X143073411Y-122678925D01*
X143058448Y-122704311D01*
X143039595Y-122736705D01*
X143017605Y-122774779D01*
X142993232Y-122817210D01*
X142967229Y-122862670D01*
X142940350Y-122909835D01*
X142913348Y-122957380D01*
X142886976Y-123003977D01*
X142861987Y-123048303D01*
X142839136Y-123089030D01*
X142819176Y-123124835D01*
X142802859Y-123154390D01*
X142790939Y-123176371D01*
X142784170Y-123189452D01*
X142782899Y-123192450D01*
X142647060Y-123192450D01*
X142642976Y-123190034D01*
X142622700Y-123178297D01*
X142593772Y-123161677D01*
X142558140Y-123141157D01*
X142520089Y-123119209D01*
X142483903Y-123098300D01*
X142479825Y-123095941D01*
X142434222Y-123069562D01*
X142391351Y-123044775D01*
X142349012Y-123020310D01*
X142305006Y-122994899D01*
X142257133Y-122967270D01*
X142203193Y-122936153D01*
X142140988Y-122900279D01*
X142124225Y-122890613D01*
X142074332Y-122861840D01*
X142017493Y-122829056D01*
X141957760Y-122794597D01*
X141899182Y-122760801D01*
X141845814Y-122730005D01*
X141829249Y-122720445D01*
X141789818Y-122697902D01*
X141753935Y-122677797D01*
X141723073Y-122660923D01*
X141719071Y-122658812D01*
X141851321Y-122658812D01*
X141854301Y-122664497D01*
X141865123Y-122672422D01*
X141865807Y-122672816D01*
X141876628Y-122679028D01*
X141896366Y-122690408D01*
X141922951Y-122705760D01*
X141954311Y-122723888D01*
X141987700Y-122743204D01*
X142093002Y-122804136D01*
X142187867Y-122858991D01*
X142272835Y-122908074D01*
X142348449Y-122951689D01*
X142415251Y-122990141D01*
X142473783Y-123023733D01*
X142524587Y-123052770D01*
X142568207Y-123077558D01*
X142605182Y-123098399D01*
X142636057Y-123115598D01*
X142661373Y-123129460D01*
X142681672Y-123140288D01*
X142697496Y-123148389D01*
X142709388Y-123154064D01*
X142717889Y-123157620D01*
X142723542Y-123159361D01*
X142726889Y-123159590D01*
X142728238Y-123158925D01*
X142732878Y-123151832D01*
X142743035Y-123134918D01*
X142757989Y-123109426D01*
X142777019Y-123076600D01*
X142799407Y-123037681D01*
X142824432Y-122993913D01*
X142851375Y-122946539D01*
X142857761Y-122935275D01*
X142885627Y-122886139D01*
X142912208Y-122839356D01*
X142936695Y-122796341D01*
X142958282Y-122758509D01*
X142976160Y-122727275D01*
X142989521Y-122704057D01*
X142997558Y-122690268D01*
X142998245Y-122689117D01*
X143008316Y-122671111D01*
X143014908Y-122656986D01*
X143016400Y-122651646D01*
X143012755Y-122649584D01*
X143001263Y-122648098D01*
X142981086Y-122647174D01*
X142951388Y-122646801D01*
X142911329Y-122646964D01*
X142860073Y-122647651D01*
X142811612Y-122648547D01*
X142765322Y-122649354D01*
X142708400Y-122650144D01*
X142642915Y-122650900D01*
X142570935Y-122651603D01*
X142494529Y-122652234D01*
X142415764Y-122652777D01*
X142336709Y-122653214D01*
X142259433Y-122653525D01*
X142230388Y-122653608D01*
X142162459Y-122653849D01*
X142098381Y-122654211D01*
X142039270Y-122654679D01*
X141986240Y-122655238D01*
X141940406Y-122655872D01*
X141902882Y-122656567D01*
X141874783Y-122657307D01*
X141857222Y-122658076D01*
X141851321Y-122658812D01*
X141719071Y-122658812D01*
X141698702Y-122648070D01*
X141682293Y-122640030D01*
X141675317Y-122637594D01*
X141675262Y-122637621D01*
X141674742Y-122644192D01*
X141674237Y-122662838D01*
X141673749Y-122692936D01*
X141673281Y-122733861D01*
X141672836Y-122784987D01*
X141672416Y-122845691D01*
X141672025Y-122915348D01*
X141671664Y-122993334D01*
X141671336Y-123079024D01*
X141671045Y-123171794D01*
X141670792Y-123271019D01*
X141670580Y-123376075D01*
X141670412Y-123486337D01*
X141670291Y-123601180D01*
X141670220Y-123719982D01*
X141670200Y-123825919D01*
X141613050Y-123825919D01*
X141613050Y-122603029D01*
X141628440Y-122593914D01*
X141746400Y-122593914D01*
X141752167Y-122594325D01*
X141769801Y-122594638D01*
X141798471Y-122594853D01*
X141837343Y-122594973D01*
X141885587Y-122595000D01*
X141942368Y-122594933D01*
X142006857Y-122594775D01*
X142078219Y-122594528D01*
X142155623Y-122594192D01*
X142238236Y-122593769D01*
X142325228Y-122593261D01*
X142397275Y-122592795D01*
X142509629Y-122591999D01*
X142609807Y-122591208D01*
X142698333Y-122590411D01*
X142775731Y-122589599D01*
X142842525Y-122588762D01*
X142899238Y-122587892D01*
X142946395Y-122586978D01*
X142984520Y-122586011D01*
X143014137Y-122584981D01*
X143034393Y-122583950D01*
X143130700Y-122583950D01*
X143136026Y-122585462D01*
X143152182Y-122586612D01*
X143179433Y-122587401D01*
X143218045Y-122587832D01*
X143268283Y-122587904D01*
X143330411Y-122587621D01*
X143404696Y-122586983D01*
X143491403Y-122585991D01*
X143494237Y-122585956D01*
X143560905Y-122585100D01*
X143623659Y-122584268D01*
X143681370Y-122583475D01*
X143732911Y-122582739D01*
X143777153Y-122582076D01*
X143812969Y-122581503D01*
X143839231Y-122581036D01*
X143854812Y-122580694D01*
X143858827Y-122580522D01*
X143859379Y-122573918D01*
X143859929Y-122555686D01*
X143860472Y-122526858D01*
X143861006Y-122488465D01*
X143861525Y-122441542D01*
X143862028Y-122387119D01*
X143862509Y-122326231D01*
X143862964Y-122259909D01*
X143863392Y-122189186D01*
X143863786Y-122115094D01*
X143864144Y-122038667D01*
X143864369Y-121983655D01*
X143924450Y-121983655D01*
X143924450Y-122583860D01*
X144284812Y-122580116D01*
X144345401Y-122579518D01*
X144417072Y-122578862D01*
X144498207Y-122578161D01*
X144587187Y-122577429D01*
X144682395Y-122576676D01*
X144782211Y-122575916D01*
X144885019Y-122575160D01*
X144989199Y-122574422D01*
X145093135Y-122573713D01*
X145195207Y-122573046D01*
X145284937Y-122572487D01*
X145373894Y-122571908D01*
X145459179Y-122571277D01*
X145539946Y-122570606D01*
X145615348Y-122569903D01*
X145684538Y-122569180D01*
X145746670Y-122568447D01*
X145800896Y-122567715D01*
X145846371Y-122566994D01*
X145882247Y-122566294D01*
X145907677Y-122565626D01*
X145921816Y-122564999D01*
X145924551Y-122564613D01*
X145919229Y-122560670D01*
X145904035Y-122550921D01*
X145880034Y-122536015D01*
X145848293Y-122516599D01*
X145809876Y-122493322D01*
X145765849Y-122466834D01*
X145717278Y-122437781D01*
X145665788Y-122407145D01*
X145603973Y-122370460D01*
X145533933Y-122328895D01*
X145458363Y-122284051D01*
X145379962Y-122237526D01*
X145301425Y-122190922D01*
X145225448Y-122145838D01*
X145154730Y-122103875D01*
X145121425Y-122084113D01*
X145012399Y-122019421D01*
X144913577Y-121960781D01*
X144824237Y-121907766D01*
X144743661Y-121859948D01*
X144671128Y-121816898D01*
X144605919Y-121778191D01*
X144547313Y-121743397D01*
X144494591Y-121712090D01*
X144447033Y-121683842D01*
X144403919Y-121658225D01*
X144364529Y-121634811D01*
X144328144Y-121613174D01*
X144294044Y-121592885D01*
X144261509Y-121573517D01*
X144229818Y-121554641D01*
X144198253Y-121535832D01*
X144166093Y-121516660D01*
X144143525Y-121503203D01*
X144096749Y-121475446D01*
X144053364Y-121449964D01*
X144014579Y-121427448D01*
X143981603Y-121408588D01*
X143955646Y-121394075D01*
X143937916Y-121384599D01*
X143929624Y-121380850D01*
X143929212Y-121380845D01*
X143928528Y-121387429D01*
X143927874Y-121405833D01*
X143927256Y-121435179D01*
X143926682Y-121474585D01*
X143926157Y-121523174D01*
X143925690Y-121580066D01*
X143925287Y-121644380D01*
X143924954Y-121715238D01*
X143924700Y-121791760D01*
X143924531Y-121873066D01*
X143924454Y-121958277D01*
X143924450Y-121983655D01*
X143864369Y-121983655D01*
X143864462Y-121960936D01*
X143864737Y-121882935D01*
X143864963Y-121805695D01*
X143865139Y-121730250D01*
X143865259Y-121657631D01*
X143865320Y-121588872D01*
X143865319Y-121525005D01*
X143865251Y-121467063D01*
X143865113Y-121416078D01*
X143864901Y-121373082D01*
X143864611Y-121339109D01*
X143864240Y-121315191D01*
X143863784Y-121302360D01*
X143863489Y-121300402D01*
X143859440Y-121305821D01*
X143849681Y-121321368D01*
X143834756Y-121346120D01*
X143815204Y-121379149D01*
X143791567Y-121419530D01*
X143764386Y-121466336D01*
X143734203Y-121518642D01*
X143701559Y-121575522D01*
X143666995Y-121636049D01*
X143656541Y-121654415D01*
X143615126Y-121727205D01*
X143570519Y-121805585D01*
X143523992Y-121887316D01*
X143476821Y-121970158D01*
X143430281Y-122051875D01*
X143385646Y-122130227D01*
X143344192Y-122202975D01*
X143307193Y-122267882D01*
X143293003Y-122292766D01*
X143261652Y-122347862D01*
X143232295Y-122399695D01*
X143205521Y-122447208D01*
X143181919Y-122489342D01*
X143162081Y-122525039D01*
X143146595Y-122553241D01*
X143136051Y-122572890D01*
X143131039Y-122582927D01*
X143130700Y-122583950D01*
X143034393Y-122583950D01*
X143035769Y-122583880D01*
X143049941Y-122582698D01*
X143057177Y-122581424D01*
X143058280Y-122580853D01*
X143062414Y-122574303D01*
X143072347Y-122557532D01*
X143087608Y-122531360D01*
X143107725Y-122496610D01*
X143132225Y-122454102D01*
X143160635Y-122404658D01*
X143192485Y-122349100D01*
X143227301Y-122288248D01*
X143264612Y-122222925D01*
X143303944Y-122153951D01*
X143330912Y-122106600D01*
X143372795Y-122033036D01*
X143414012Y-121960667D01*
X143453969Y-121890536D01*
X143492071Y-121823686D01*
X143527722Y-121761161D01*
X143560327Y-121704004D01*
X143589290Y-121653260D01*
X143614017Y-121609971D01*
X143633913Y-121575182D01*
X143648381Y-121549935D01*
X143652814Y-121542224D01*
X143670794Y-121510679D01*
X143686147Y-121483130D01*
X143697903Y-121461370D01*
X143705091Y-121447189D01*
X143706862Y-121442395D01*
X143701148Y-121445122D01*
X143685475Y-121453746D01*
X143660817Y-121467704D01*
X143628149Y-121486433D01*
X143588446Y-121509370D01*
X143542682Y-121535953D01*
X143491833Y-121565618D01*
X143436873Y-121597803D01*
X143390704Y-121624926D01*
X143329763Y-121660776D01*
X143269479Y-121696238D01*
X143211221Y-121730507D01*
X143156356Y-121762779D01*
X143106254Y-121792248D01*
X143062282Y-121818110D01*
X143025809Y-121839560D01*
X142998204Y-121855792D01*
X142987825Y-121861894D01*
X142964600Y-121875554D01*
X142931900Y-121894799D01*
X142891190Y-121918766D01*
X142843935Y-121946591D01*
X142791602Y-121977412D01*
X142735655Y-122010365D01*
X142677562Y-122044588D01*
X142618786Y-122079217D01*
X142610000Y-122084394D01*
X142541194Y-122124927D01*
X142464546Y-122170065D01*
X142382962Y-122218096D01*
X142299351Y-122267310D01*
X142216620Y-122315993D01*
X142137679Y-122362435D01*
X142065436Y-122404924D01*
X142035325Y-122422628D01*
X141980407Y-122454941D01*
X141928838Y-122485334D01*
X141881647Y-122513199D01*
X141839866Y-122537923D01*
X141804523Y-122558896D01*
X141776649Y-122575507D01*
X141757274Y-122587146D01*
X141747429Y-122593202D01*
X141746400Y-122593914D01*
X141628440Y-122593914D01*
X141719412Y-122540037D01*
X141758050Y-122517188D01*
X141804064Y-122490032D01*
X141853874Y-122460679D01*
X141903896Y-122431239D01*
X141950550Y-122403824D01*
X141959125Y-122398791D01*
X142002477Y-122373329D01*
X142047866Y-122346634D01*
X142092286Y-122320476D01*
X142132731Y-122296627D01*
X142166195Y-122276855D01*
X142175025Y-122271627D01*
X142204042Y-122254467D01*
X142241358Y-122232448D01*
X142284316Y-122207135D01*
X142330259Y-122180093D01*
X142376529Y-122152886D01*
X142406800Y-122135106D01*
X142451776Y-122108685D01*
X142498229Y-122081369D01*
X142543504Y-122054723D01*
X142584942Y-122030311D01*
X142619887Y-122009697D01*
X142638575Y-121998653D01*
X142669144Y-121980600D01*
X142707667Y-121957900D01*
X142751137Y-121932323D01*
X142796548Y-121905636D01*
X142840892Y-121879609D01*
X142854475Y-121871645D01*
X142899284Y-121845347D01*
X142947476Y-121817012D01*
X142995666Y-121788633D01*
X143040471Y-121762202D01*
X143078508Y-121739712D01*
X143086250Y-121735125D01*
X143122152Y-121713876D01*
X143165631Y-121688201D01*
X143213307Y-121660092D01*
X143261797Y-121631543D01*
X143307720Y-121604547D01*
X143318025Y-121598497D01*
X143397582Y-121551787D01*
X143467183Y-121510898D01*
X143527833Y-121475238D01*
X143580535Y-121444212D01*
X143626295Y-121417228D01*
X143666117Y-121393694D01*
X143701007Y-121373015D01*
X143731968Y-121354599D01*
X143760005Y-121337852D01*
X143786123Y-121322182D01*
X143787478Y-121321368D01*
X143817337Y-121303871D01*
X143843340Y-121289509D01*
X143863608Y-121279250D01*
X143876257Y-121274063D01*
X143879553Y-121273935D01*
X143881515Y-121275932D01*
X143881515Y-121275932D01*
G37*
X143881515Y-121275932D02*
X143886075Y-121279362D01*
X143893918Y-121284636D01*
X143905729Y-121292169D01*
X143922193Y-121302372D01*
X143943996Y-121315658D01*
X143971822Y-121332441D01*
X144006356Y-121353134D01*
X144048283Y-121378149D01*
X144098288Y-121407899D01*
X144157056Y-121442797D01*
X144225272Y-121483256D01*
X144303622Y-121529688D01*
X144318150Y-121538295D01*
X144381421Y-121575791D01*
X144452483Y-121617923D01*
X144528209Y-121662838D01*
X144605476Y-121708681D01*
X144681156Y-121753597D01*
X144752125Y-121795733D01*
X144810275Y-121830274D01*
X144863569Y-121861935D01*
X144925744Y-121898864D01*
X144994754Y-121939847D01*
X145068556Y-121983671D01*
X145145109Y-122029124D01*
X145222368Y-122074991D01*
X145298291Y-122120060D01*
X145370835Y-122163119D01*
X145404000Y-122182801D01*
X145471629Y-122222942D01*
X145541592Y-122264478D01*
X145612160Y-122306382D01*
X145681604Y-122347626D01*
X145748195Y-122387184D01*
X145810203Y-122424028D01*
X145865900Y-122457131D01*
X145913557Y-122485467D01*
X145940013Y-122501205D01*
X145984662Y-122527728D01*
X146025969Y-122552179D01*
X146062639Y-122573798D01*
X146093374Y-122591824D01*
X146116875Y-122605495D01*
X146131846Y-122614049D01*
X146136863Y-122616718D01*
X146141263Y-122621344D01*
X146140586Y-122622739D01*
X146134001Y-122623159D01*
X146115363Y-122623654D01*
X146085319Y-122624216D01*
X146044516Y-122624841D01*
X145993601Y-122625520D01*
X145933221Y-122626247D01*
X145864023Y-122627017D01*
X145786655Y-122627821D01*
X145701762Y-122628653D01*
X145609992Y-122629507D01*
X145511992Y-122630376D01*
X145408409Y-122631253D01*
X145299889Y-122632132D01*
X145187080Y-122633006D01*
X145070629Y-122633868D01*
X145032511Y-122634142D01*
X144879432Y-122635261D01*
X144738791Y-122636348D01*
X144610326Y-122637407D01*
X144493775Y-122638442D01*
X144388876Y-122639456D01*
X144295366Y-122640452D01*
X144212984Y-122641435D01*
X144141468Y-122642406D01*
X144080556Y-122643371D01*
X144029985Y-122644332D01*
X143989494Y-122645294D01*
X143958821Y-122646258D01*
X143937703Y-122647230D01*
X143925879Y-122648212D01*
X143922959Y-122648945D01*
X143922304Y-122656140D01*
X143921674Y-122675169D01*
X143921076Y-122705165D01*
X143920516Y-122745263D01*
X143920001Y-122794596D01*
X143919538Y-122852298D01*
X143919133Y-122917504D01*
X143918792Y-122989346D01*
X143918521Y-123066958D01*
X143918328Y-123149476D01*
X143918219Y-123236031D01*
X143918197Y-123285737D01*
X143918134Y-123374071D01*
X143917980Y-123458782D01*
X143917740Y-123539010D01*
X143917422Y-123613898D01*
X143917032Y-123682585D01*
X143916577Y-123744213D01*
X143916064Y-123797923D01*
X143915499Y-123842855D01*
X143914890Y-123878150D01*
X143914244Y-123902949D01*
X143913566Y-123916394D01*
X143913172Y-123918645D01*
X143905584Y-123917214D01*
X143890653Y-123910473D01*
X143873485Y-123900964D01*
X143855828Y-123890560D01*
X143829986Y-123875494D01*
X143798792Y-123857412D01*
X143765085Y-123837958D01*
X143746650Y-123827356D01*
X143710263Y-123806426D01*
X143672436Y-123784615D01*
X143636823Y-123764031D01*
X143607078Y-123746786D01*
X143597425Y-123741170D01*
X143580204Y-123731174D01*
X143553357Y-123715644D01*
X143518268Y-123695377D01*
X143476320Y-123671171D01*
X143428896Y-123643824D01*
X143377380Y-123614133D01*
X143323153Y-123582898D01*
X143273575Y-123554354D01*
X143197708Y-123510679D01*
X143131808Y-123472728D01*
X143074828Y-123439893D01*
X143025722Y-123411572D01*
X142983444Y-123387157D01*
X142946950Y-123366046D01*
X142915192Y-123347632D01*
X142887125Y-123331310D01*
X142861705Y-123316477D01*
X142837883Y-123302526D01*
X142814892Y-123289016D01*
X142790143Y-123275153D01*
X142768953Y-123264581D01*
X142753934Y-123258527D01*
X142748217Y-123257716D01*
X142743847Y-123263624D01*
X142733721Y-123279716D01*
X142718347Y-123305125D01*
X142698230Y-123338987D01*
X142673877Y-123380436D01*
X142645794Y-123428607D01*
X142614488Y-123482633D01*
X142580465Y-123541649D01*
X142544231Y-123604790D01*
X142506293Y-123671191D01*
X142505391Y-123672773D01*
X142426035Y-123811967D01*
X142349060Y-123946960D01*
X142274685Y-124077372D01*
X142203127Y-124202823D01*
X142134602Y-124322931D01*
X142069330Y-124437315D01*
X142007527Y-124545596D01*
X141949411Y-124647392D01*
X141895199Y-124742322D01*
X141845109Y-124830007D01*
X141799357Y-124910065D01*
X141758163Y-124982115D01*
X141721743Y-125045777D01*
X141690314Y-125100670D01*
X141664094Y-125146413D01*
X141643301Y-125182627D01*
X141628153Y-125208929D01*
X141618865Y-125224939D01*
X141615669Y-125230270D01*
X141615413Y-125224280D01*
X141615165Y-125206178D01*
X141614924Y-125176555D01*
X141614692Y-125135999D01*
X141614471Y-125085100D01*
X141614262Y-125024448D01*
X141614065Y-124954630D01*
X141613882Y-124876237D01*
X141613713Y-124789857D01*
X141613561Y-124696080D01*
X141613427Y-124595495D01*
X141613311Y-124488691D01*
X141613215Y-124376258D01*
X141613139Y-124258784D01*
X141613086Y-124136859D01*
X141613056Y-124011072D01*
X141613050Y-123917972D01*
X141613050Y-123825919D01*
X141670200Y-123825919D01*
X141670228Y-123947500D01*
X141670311Y-124065579D01*
X141670446Y-124179539D01*
X141670630Y-124288761D01*
X141670860Y-124392626D01*
X141671134Y-124490518D01*
X141671448Y-124581818D01*
X141671800Y-124665908D01*
X141672188Y-124742169D01*
X141672607Y-124809985D01*
X141673056Y-124868736D01*
X141673531Y-124917805D01*
X141674030Y-124956573D01*
X141674550Y-124984423D01*
X141675088Y-125000737D01*
X141675575Y-125005057D01*
X141679423Y-124998787D01*
X141689107Y-124982244D01*
X141704187Y-124956197D01*
X141724225Y-124921413D01*
X141748779Y-124878660D01*
X141777410Y-124828707D01*
X141809677Y-124772321D01*
X141845141Y-124710270D01*
X141883361Y-124643322D01*
X141923898Y-124572245D01*
X141966311Y-124497807D01*
X141981021Y-124471975D01*
X142024818Y-124395062D01*
X142067468Y-124320186D01*
X142108470Y-124248228D01*
X142147320Y-124180072D01*
X142183513Y-124116599D01*
X142216547Y-124058692D01*
X142245918Y-124007233D01*
X142271124Y-123963105D01*
X142291659Y-123927190D01*
X142307022Y-123900371D01*
X142316709Y-123883530D01*
X142317928Y-123881425D01*
X142356511Y-123814711D01*
X142395256Y-123747334D01*
X142433656Y-123680202D01*
X142471204Y-123614225D01*
X142507391Y-123550312D01*
X142541711Y-123489370D01*
X142573656Y-123432310D01*
X142602718Y-123380039D01*
X142628391Y-123333467D01*
X142650166Y-123293502D01*
X142667537Y-123261053D01*
X142679996Y-123237030D01*
X142687036Y-123222340D01*
X142688397Y-123217885D01*
X142680958Y-123212841D01*
X142664980Y-123203052D01*
X142647060Y-123192450D01*
X142782899Y-123192450D01*
X142787460Y-123198898D01*
X142802667Y-123210569D01*
X142828698Y-123227579D01*
X142865731Y-123250045D01*
X142913074Y-123277584D01*
X142954218Y-123301191D01*
X142995420Y-123324870D01*
X143034164Y-123347172D01*
X143067933Y-123366649D01*
X143094212Y-123381852D01*
X143102125Y-123386448D01*
X143130215Y-123402766D01*
X143164976Y-123422920D01*
X143202076Y-123444398D01*
X143237183Y-123464692D01*
X143238650Y-123465539D01*
X143270226Y-123483777D01*
X143299516Y-123500704D01*
X143327982Y-123517167D01*
X143357084Y-123534014D01*
X143388284Y-123552091D01*
X143423044Y-123572246D01*
X143462825Y-123595325D01*
X143509088Y-123622175D01*
X143563294Y-123653645D01*
X143626906Y-123690580D01*
X143632350Y-123693741D01*
X143679057Y-123720769D01*
X143722440Y-123745698D01*
X143761247Y-123767819D01*
X143794227Y-123786428D01*
X143820125Y-123800818D01*
X143837691Y-123810283D01*
X143845672Y-123814116D01*
X143845897Y-123814162D01*
X143847441Y-123810438D01*
X143848866Y-123798651D01*
X143850188Y-123778269D01*
X143851420Y-123748765D01*
X143852575Y-123709608D01*
X143853669Y-123660269D01*
X143854713Y-123600219D01*
X143855724Y-123528927D01*
X143856714Y-123445865D01*
X143857456Y-123375012D01*
X143858186Y-123296585D01*
X143858816Y-123218212D01*
X143859340Y-123141414D01*
X143859752Y-123067714D01*
X143860045Y-122998633D01*
X143860214Y-122935693D01*
X143860252Y-122880416D01*
X143860154Y-122834325D01*
X143859913Y-122798941D01*
X143859809Y-122790420D01*
X143857775Y-122645566D01*
X143476812Y-122646147D01*
X143393084Y-122646335D01*
X143321312Y-122646636D01*
X143260753Y-122647067D01*
X143210664Y-122647641D01*
X143170303Y-122648377D01*
X143138925Y-122649290D01*
X143115788Y-122650395D01*
X143100148Y-122651708D01*
X143091262Y-122653247D01*
X143088653Y-122654476D01*
X143083731Y-122661872D01*
X143073411Y-122678925D01*
X143058448Y-122704311D01*
X143039595Y-122736705D01*
X143017605Y-122774779D01*
X142993232Y-122817210D01*
X142967229Y-122862670D01*
X142940350Y-122909835D01*
X142913348Y-122957380D01*
X142886976Y-123003977D01*
X142861987Y-123048303D01*
X142839136Y-123089030D01*
X142819176Y-123124835D01*
X142802859Y-123154390D01*
X142790939Y-123176371D01*
X142784170Y-123189452D01*
X142782899Y-123192450D01*
X142647060Y-123192450D01*
X142642976Y-123190034D01*
X142622700Y-123178297D01*
X142593772Y-123161677D01*
X142558140Y-123141157D01*
X142520089Y-123119209D01*
X142483903Y-123098300D01*
X142479825Y-123095941D01*
X142434222Y-123069562D01*
X142391351Y-123044775D01*
X142349012Y-123020310D01*
X142305006Y-122994899D01*
X142257133Y-122967270D01*
X142203193Y-122936153D01*
X142140988Y-122900279D01*
X142124225Y-122890613D01*
X142074332Y-122861840D01*
X142017493Y-122829056D01*
X141957760Y-122794597D01*
X141899182Y-122760801D01*
X141845814Y-122730005D01*
X141829249Y-122720445D01*
X141789818Y-122697902D01*
X141753935Y-122677797D01*
X141723073Y-122660923D01*
X141719071Y-122658812D01*
X141851321Y-122658812D01*
X141854301Y-122664497D01*
X141865123Y-122672422D01*
X141865807Y-122672816D01*
X141876628Y-122679028D01*
X141896366Y-122690408D01*
X141922951Y-122705760D01*
X141954311Y-122723888D01*
X141987700Y-122743204D01*
X142093002Y-122804136D01*
X142187867Y-122858991D01*
X142272835Y-122908074D01*
X142348449Y-122951689D01*
X142415251Y-122990141D01*
X142473783Y-123023733D01*
X142524587Y-123052770D01*
X142568207Y-123077558D01*
X142605182Y-123098399D01*
X142636057Y-123115598D01*
X142661373Y-123129460D01*
X142681672Y-123140288D01*
X142697496Y-123148389D01*
X142709388Y-123154064D01*
X142717889Y-123157620D01*
X142723542Y-123159361D01*
X142726889Y-123159590D01*
X142728238Y-123158925D01*
X142732878Y-123151832D01*
X142743035Y-123134918D01*
X142757989Y-123109426D01*
X142777019Y-123076600D01*
X142799407Y-123037681D01*
X142824432Y-122993913D01*
X142851375Y-122946539D01*
X142857761Y-122935275D01*
X142885627Y-122886139D01*
X142912208Y-122839356D01*
X142936695Y-122796341D01*
X142958282Y-122758509D01*
X142976160Y-122727275D01*
X142989521Y-122704057D01*
X142997558Y-122690268D01*
X142998245Y-122689117D01*
X143008316Y-122671111D01*
X143014908Y-122656986D01*
X143016400Y-122651646D01*
X143012755Y-122649584D01*
X143001263Y-122648098D01*
X142981086Y-122647174D01*
X142951388Y-122646801D01*
X142911329Y-122646964D01*
X142860073Y-122647651D01*
X142811612Y-122648547D01*
X142765322Y-122649354D01*
X142708400Y-122650144D01*
X142642915Y-122650900D01*
X142570935Y-122651603D01*
X142494529Y-122652234D01*
X142415764Y-122652777D01*
X142336709Y-122653214D01*
X142259433Y-122653525D01*
X142230388Y-122653608D01*
X142162459Y-122653849D01*
X142098381Y-122654211D01*
X142039270Y-122654679D01*
X141986240Y-122655238D01*
X141940406Y-122655872D01*
X141902882Y-122656567D01*
X141874783Y-122657307D01*
X141857222Y-122658076D01*
X141851321Y-122658812D01*
X141719071Y-122658812D01*
X141698702Y-122648070D01*
X141682293Y-122640030D01*
X141675317Y-122637594D01*
X141675262Y-122637621D01*
X141674742Y-122644192D01*
X141674237Y-122662838D01*
X141673749Y-122692936D01*
X141673281Y-122733861D01*
X141672836Y-122784987D01*
X141672416Y-122845691D01*
X141672025Y-122915348D01*
X141671664Y-122993334D01*
X141671336Y-123079024D01*
X141671045Y-123171794D01*
X141670792Y-123271019D01*
X141670580Y-123376075D01*
X141670412Y-123486337D01*
X141670291Y-123601180D01*
X141670220Y-123719982D01*
X141670200Y-123825919D01*
X141613050Y-123825919D01*
X141613050Y-122603029D01*
X141628440Y-122593914D01*
X141746400Y-122593914D01*
X141752167Y-122594325D01*
X141769801Y-122594638D01*
X141798471Y-122594853D01*
X141837343Y-122594973D01*
X141885587Y-122595000D01*
X141942368Y-122594933D01*
X142006857Y-122594775D01*
X142078219Y-122594528D01*
X142155623Y-122594192D01*
X142238236Y-122593769D01*
X142325228Y-122593261D01*
X142397275Y-122592795D01*
X142509629Y-122591999D01*
X142609807Y-122591208D01*
X142698333Y-122590411D01*
X142775731Y-122589599D01*
X142842525Y-122588762D01*
X142899238Y-122587892D01*
X142946395Y-122586978D01*
X142984520Y-122586011D01*
X143014137Y-122584981D01*
X143034393Y-122583950D01*
X143130700Y-122583950D01*
X143136026Y-122585462D01*
X143152182Y-122586612D01*
X143179433Y-122587401D01*
X143218045Y-122587832D01*
X143268283Y-122587904D01*
X143330411Y-122587621D01*
X143404696Y-122586983D01*
X143491403Y-122585991D01*
X143494237Y-122585956D01*
X143560905Y-122585100D01*
X143623659Y-122584268D01*
X143681370Y-122583475D01*
X143732911Y-122582739D01*
X143777153Y-122582076D01*
X143812969Y-122581503D01*
X143839231Y-122581036D01*
X143854812Y-122580694D01*
X143858827Y-122580522D01*
X143859379Y-122573918D01*
X143859929Y-122555686D01*
X143860472Y-122526858D01*
X143861006Y-122488465D01*
X143861525Y-122441542D01*
X143862028Y-122387119D01*
X143862509Y-122326231D01*
X143862964Y-122259909D01*
X143863392Y-122189186D01*
X143863786Y-122115094D01*
X143864144Y-122038667D01*
X143864369Y-121983655D01*
X143924450Y-121983655D01*
X143924450Y-122583860D01*
X144284812Y-122580116D01*
X144345401Y-122579518D01*
X144417072Y-122578862D01*
X144498207Y-122578161D01*
X144587187Y-122577429D01*
X144682395Y-122576676D01*
X144782211Y-122575916D01*
X144885019Y-122575160D01*
X144989199Y-122574422D01*
X145093135Y-122573713D01*
X145195207Y-122573046D01*
X145284937Y-122572487D01*
X145373894Y-122571908D01*
X145459179Y-122571277D01*
X145539946Y-122570606D01*
X145615348Y-122569903D01*
X145684538Y-122569180D01*
X145746670Y-122568447D01*
X145800896Y-122567715D01*
X145846371Y-122566994D01*
X145882247Y-122566294D01*
X145907677Y-122565626D01*
X145921816Y-122564999D01*
X145924551Y-122564613D01*
X145919229Y-122560670D01*
X145904035Y-122550921D01*
X145880034Y-122536015D01*
X145848293Y-122516599D01*
X145809876Y-122493322D01*
X145765849Y-122466834D01*
X145717278Y-122437781D01*
X145665788Y-122407145D01*
X145603973Y-122370460D01*
X145533933Y-122328895D01*
X145458363Y-122284051D01*
X145379962Y-122237526D01*
X145301425Y-122190922D01*
X145225448Y-122145838D01*
X145154730Y-122103875D01*
X145121425Y-122084113D01*
X145012399Y-122019421D01*
X144913577Y-121960781D01*
X144824237Y-121907766D01*
X144743661Y-121859948D01*
X144671128Y-121816898D01*
X144605919Y-121778191D01*
X144547313Y-121743397D01*
X144494591Y-121712090D01*
X144447033Y-121683842D01*
X144403919Y-121658225D01*
X144364529Y-121634811D01*
X144328144Y-121613174D01*
X144294044Y-121592885D01*
X144261509Y-121573517D01*
X144229818Y-121554641D01*
X144198253Y-121535832D01*
X144166093Y-121516660D01*
X144143525Y-121503203D01*
X144096749Y-121475446D01*
X144053364Y-121449964D01*
X144014579Y-121427448D01*
X143981603Y-121408588D01*
X143955646Y-121394075D01*
X143937916Y-121384599D01*
X143929624Y-121380850D01*
X143929212Y-121380845D01*
X143928528Y-121387429D01*
X143927874Y-121405833D01*
X143927256Y-121435179D01*
X143926682Y-121474585D01*
X143926157Y-121523174D01*
X143925690Y-121580066D01*
X143925287Y-121644380D01*
X143924954Y-121715238D01*
X143924700Y-121791760D01*
X143924531Y-121873066D01*
X143924454Y-121958277D01*
X143924450Y-121983655D01*
X143864369Y-121983655D01*
X143864462Y-121960936D01*
X143864737Y-121882935D01*
X143864963Y-121805695D01*
X143865139Y-121730250D01*
X143865259Y-121657631D01*
X143865320Y-121588872D01*
X143865319Y-121525005D01*
X143865251Y-121467063D01*
X143865113Y-121416078D01*
X143864901Y-121373082D01*
X143864611Y-121339109D01*
X143864240Y-121315191D01*
X143863784Y-121302360D01*
X143863489Y-121300402D01*
X143859440Y-121305821D01*
X143849681Y-121321368D01*
X143834756Y-121346120D01*
X143815204Y-121379149D01*
X143791567Y-121419530D01*
X143764386Y-121466336D01*
X143734203Y-121518642D01*
X143701559Y-121575522D01*
X143666995Y-121636049D01*
X143656541Y-121654415D01*
X143615126Y-121727205D01*
X143570519Y-121805585D01*
X143523992Y-121887316D01*
X143476821Y-121970158D01*
X143430281Y-122051875D01*
X143385646Y-122130227D01*
X143344192Y-122202975D01*
X143307193Y-122267882D01*
X143293003Y-122292766D01*
X143261652Y-122347862D01*
X143232295Y-122399695D01*
X143205521Y-122447208D01*
X143181919Y-122489342D01*
X143162081Y-122525039D01*
X143146595Y-122553241D01*
X143136051Y-122572890D01*
X143131039Y-122582927D01*
X143130700Y-122583950D01*
X143034393Y-122583950D01*
X143035769Y-122583880D01*
X143049941Y-122582698D01*
X143057177Y-122581424D01*
X143058280Y-122580853D01*
X143062414Y-122574303D01*
X143072347Y-122557532D01*
X143087608Y-122531360D01*
X143107725Y-122496610D01*
X143132225Y-122454102D01*
X143160635Y-122404658D01*
X143192485Y-122349100D01*
X143227301Y-122288248D01*
X143264612Y-122222925D01*
X143303944Y-122153951D01*
X143330912Y-122106600D01*
X143372795Y-122033036D01*
X143414012Y-121960667D01*
X143453969Y-121890536D01*
X143492071Y-121823686D01*
X143527722Y-121761161D01*
X143560327Y-121704004D01*
X143589290Y-121653260D01*
X143614017Y-121609971D01*
X143633913Y-121575182D01*
X143648381Y-121549935D01*
X143652814Y-121542224D01*
X143670794Y-121510679D01*
X143686147Y-121483130D01*
X143697903Y-121461370D01*
X143705091Y-121447189D01*
X143706862Y-121442395D01*
X143701148Y-121445122D01*
X143685475Y-121453746D01*
X143660817Y-121467704D01*
X143628149Y-121486433D01*
X143588446Y-121509370D01*
X143542682Y-121535953D01*
X143491833Y-121565618D01*
X143436873Y-121597803D01*
X143390704Y-121624926D01*
X143329763Y-121660776D01*
X143269479Y-121696238D01*
X143211221Y-121730507D01*
X143156356Y-121762779D01*
X143106254Y-121792248D01*
X143062282Y-121818110D01*
X143025809Y-121839560D01*
X142998204Y-121855792D01*
X142987825Y-121861894D01*
X142964600Y-121875554D01*
X142931900Y-121894799D01*
X142891190Y-121918766D01*
X142843935Y-121946591D01*
X142791602Y-121977412D01*
X142735655Y-122010365D01*
X142677562Y-122044588D01*
X142618786Y-122079217D01*
X142610000Y-122084394D01*
X142541194Y-122124927D01*
X142464546Y-122170065D01*
X142382962Y-122218096D01*
X142299351Y-122267310D01*
X142216620Y-122315993D01*
X142137679Y-122362435D01*
X142065436Y-122404924D01*
X142035325Y-122422628D01*
X141980407Y-122454941D01*
X141928838Y-122485334D01*
X141881647Y-122513199D01*
X141839866Y-122537923D01*
X141804523Y-122558896D01*
X141776649Y-122575507D01*
X141757274Y-122587146D01*
X141747429Y-122593202D01*
X141746400Y-122593914D01*
X141628440Y-122593914D01*
X141719412Y-122540037D01*
X141758050Y-122517188D01*
X141804064Y-122490032D01*
X141853874Y-122460679D01*
X141903896Y-122431239D01*
X141950550Y-122403824D01*
X141959125Y-122398791D01*
X142002477Y-122373329D01*
X142047866Y-122346634D01*
X142092286Y-122320476D01*
X142132731Y-122296627D01*
X142166195Y-122276855D01*
X142175025Y-122271627D01*
X142204042Y-122254467D01*
X142241358Y-122232448D01*
X142284316Y-122207135D01*
X142330259Y-122180093D01*
X142376529Y-122152886D01*
X142406800Y-122135106D01*
X142451776Y-122108685D01*
X142498229Y-122081369D01*
X142543504Y-122054723D01*
X142584942Y-122030311D01*
X142619887Y-122009697D01*
X142638575Y-121998653D01*
X142669144Y-121980600D01*
X142707667Y-121957900D01*
X142751137Y-121932323D01*
X142796548Y-121905636D01*
X142840892Y-121879609D01*
X142854475Y-121871645D01*
X142899284Y-121845347D01*
X142947476Y-121817012D01*
X142995666Y-121788633D01*
X143040471Y-121762202D01*
X143078508Y-121739712D01*
X143086250Y-121735125D01*
X143122152Y-121713876D01*
X143165631Y-121688201D01*
X143213307Y-121660092D01*
X143261797Y-121631543D01*
X143307720Y-121604547D01*
X143318025Y-121598497D01*
X143397582Y-121551787D01*
X143467183Y-121510898D01*
X143527833Y-121475238D01*
X143580535Y-121444212D01*
X143626295Y-121417228D01*
X143666117Y-121393694D01*
X143701007Y-121373015D01*
X143731968Y-121354599D01*
X143760005Y-121337852D01*
X143786123Y-121322182D01*
X143787478Y-121321368D01*
X143817337Y-121303871D01*
X143843340Y-121289509D01*
X143863608Y-121279250D01*
X143876257Y-121274063D01*
X143879553Y-121273935D01*
X143881515Y-121275932D01*
G36*
X144567288Y-125295829D02*
X144560648Y-125307070D01*
X144548654Y-125327460D01*
X144532370Y-125355189D01*
X144512859Y-125388444D01*
X144491184Y-125425415D01*
X144476853Y-125449875D01*
X144451438Y-125493234D01*
X144424806Y-125538630D01*
X144398722Y-125583056D01*
X144374951Y-125623504D01*
X144355259Y-125656968D01*
X144350070Y-125665775D01*
X144330697Y-125698656D01*
X144307008Y-125738896D01*
X144281117Y-125782903D01*
X144255137Y-125827083D01*
X144234249Y-125862625D01*
X144208684Y-125906129D01*
X144180242Y-125954516D01*
X144151402Y-126003568D01*
X144124643Y-126049070D01*
X144107317Y-126078525D01*
X144083086Y-126119726D01*
X144056142Y-126165572D01*
X144029113Y-126211589D01*
X144004627Y-126253302D01*
X143994472Y-126270612D01*
X143976467Y-126300790D01*
X143960422Y-126326701D01*
X143947512Y-126346523D01*
X143938911Y-126358438D01*
X143936067Y-126361100D01*
X143935280Y-126354903D01*
X143934565Y-126336927D01*
X143933928Y-126308094D01*
X143933377Y-126269322D01*
X143932917Y-126221534D01*
X143932554Y-126165649D01*
X143932295Y-126102589D01*
X143932146Y-126033275D01*
X143932114Y-125958626D01*
X143932205Y-125879565D01*
X143932351Y-125819762D01*
X143933975Y-125278425D01*
X144256791Y-125276779D01*
X144579608Y-125275133D01*
X144567288Y-125295829D01*
X144567288Y-125295829D01*
G37*
X144567288Y-125295829D02*
X144560648Y-125307070D01*
X144548654Y-125327460D01*
X144532370Y-125355189D01*
X144512859Y-125388444D01*
X144491184Y-125425415D01*
X144476853Y-125449875D01*
X144451438Y-125493234D01*
X144424806Y-125538630D01*
X144398722Y-125583056D01*
X144374951Y-125623504D01*
X144355259Y-125656968D01*
X144350070Y-125665775D01*
X144330697Y-125698656D01*
X144307008Y-125738896D01*
X144281117Y-125782903D01*
X144255137Y-125827083D01*
X144234249Y-125862625D01*
X144208684Y-125906129D01*
X144180242Y-125954516D01*
X144151402Y-126003568D01*
X144124643Y-126049070D01*
X144107317Y-126078525D01*
X144083086Y-126119726D01*
X144056142Y-126165572D01*
X144029113Y-126211589D01*
X144004627Y-126253302D01*
X143994472Y-126270612D01*
X143976467Y-126300790D01*
X143960422Y-126326701D01*
X143947512Y-126346523D01*
X143938911Y-126358438D01*
X143936067Y-126361100D01*
X143935280Y-126354903D01*
X143934565Y-126336927D01*
X143933928Y-126308094D01*
X143933377Y-126269322D01*
X143932917Y-126221534D01*
X143932554Y-126165649D01*
X143932295Y-126102589D01*
X143932146Y-126033275D01*
X143932114Y-125958626D01*
X143932205Y-125879565D01*
X143932351Y-125819762D01*
X143933975Y-125278425D01*
X144256791Y-125276779D01*
X144579608Y-125275133D01*
X144567288Y-125295829D01*
G36*
X145724733Y-125269541D02*
X145799743Y-125269679D01*
X145867930Y-125269903D01*
X145928497Y-125270209D01*
X145980642Y-125270593D01*
X146023566Y-125271051D01*
X146056468Y-125271581D01*
X146078550Y-125272179D01*
X146089012Y-125272840D01*
X146089780Y-125273086D01*
X146084589Y-125278307D01*
X146070667Y-125287934D01*
X146050458Y-125300343D01*
X146037392Y-125307855D01*
X146015632Y-125320169D01*
X145985499Y-125337338D01*
X145949618Y-125357861D01*
X145910612Y-125380237D01*
X145871104Y-125402967D01*
X145864375Y-125406846D01*
X145775296Y-125458214D01*
X145694442Y-125504861D01*
X145622284Y-125546514D01*
X145559294Y-125582902D01*
X145505944Y-125613752D01*
X145462703Y-125638791D01*
X145432575Y-125656277D01*
X145413997Y-125667046D01*
X145385833Y-125683329D01*
X145349506Y-125704306D01*
X145306437Y-125729156D01*
X145258047Y-125757060D01*
X145205760Y-125787198D01*
X145150997Y-125818749D01*
X145102375Y-125846750D01*
X145046614Y-125878860D01*
X144992090Y-125910267D01*
X144940226Y-125940152D01*
X144892443Y-125967694D01*
X144850162Y-125992075D01*
X144814806Y-126012474D01*
X144787796Y-126028071D01*
X144772175Y-126037109D01*
X144741282Y-126055004D01*
X144704071Y-126076546D01*
X144665218Y-126099027D01*
X144629400Y-126119741D01*
X144629300Y-126119800D01*
X144593499Y-126140501D01*
X144554649Y-126162975D01*
X144517426Y-126184515D01*
X144486507Y-126202414D01*
X144486425Y-126202462D01*
X144461184Y-126217053D01*
X144427751Y-126236342D01*
X144388944Y-126258704D01*
X144347583Y-126282514D01*
X144306490Y-126306148D01*
X144299100Y-126310396D01*
X144254365Y-126336124D01*
X144205090Y-126364498D01*
X144155198Y-126393256D01*
X144108614Y-126420137D01*
X144070500Y-126442161D01*
X144035475Y-126462416D01*
X144002250Y-126481618D01*
X143973172Y-126498414D01*
X143950585Y-126511449D01*
X143937562Y-126518951D01*
X143921334Y-126527842D01*
X143913758Y-126530355D01*
X143912743Y-126526888D01*
X143913887Y-126523437D01*
X143918615Y-126514062D01*
X143928642Y-126496041D01*
X143942698Y-126471597D01*
X143959514Y-126442954D01*
X143968123Y-126428483D01*
X143980528Y-126407623D01*
X143998601Y-126377088D01*
X144021590Y-126338156D01*
X144048741Y-126292109D01*
X144079299Y-126240226D01*
X144112511Y-126183786D01*
X144147623Y-126124070D01*
X144183880Y-126062359D01*
X144213535Y-126011850D01*
X144274463Y-125908045D01*
X144329294Y-125814642D01*
X144378357Y-125731084D01*
X144421981Y-125656818D01*
X144460493Y-125591288D01*
X144494222Y-125533942D01*
X144523497Y-125484223D01*
X144548646Y-125441577D01*
X144569996Y-125405451D01*
X144587878Y-125375289D01*
X144602618Y-125350536D01*
X144614545Y-125330640D01*
X144623988Y-125315043D01*
X144631275Y-125303194D01*
X144636734Y-125294536D01*
X144640693Y-125288515D01*
X144643482Y-125284578D01*
X144645428Y-125282168D01*
X144645955Y-125281600D01*
X144648567Y-125280109D01*
X144653819Y-125278770D01*
X144662387Y-125277572D01*
X144674945Y-125276504D01*
X144692167Y-125275555D01*
X144714727Y-125274715D01*
X144743300Y-125273972D01*
X144778560Y-125273315D01*
X144821181Y-125272735D01*
X144871837Y-125272219D01*
X144931204Y-125271757D01*
X144999954Y-125271339D01*
X145078763Y-125270953D01*
X145168305Y-125270589D01*
X145269254Y-125270235D01*
X145372475Y-125269911D01*
X145466773Y-125269673D01*
X145557448Y-125269534D01*
X145643702Y-125269491D01*
X145724733Y-125269541D01*
X145724733Y-125269541D01*
G37*
X145724733Y-125269541D02*
X145799743Y-125269679D01*
X145867930Y-125269903D01*
X145928497Y-125270209D01*
X145980642Y-125270593D01*
X146023566Y-125271051D01*
X146056468Y-125271581D01*
X146078550Y-125272179D01*
X146089012Y-125272840D01*
X146089780Y-125273086D01*
X146084589Y-125278307D01*
X146070667Y-125287934D01*
X146050458Y-125300343D01*
X146037392Y-125307855D01*
X146015632Y-125320169D01*
X145985499Y-125337338D01*
X145949618Y-125357861D01*
X145910612Y-125380237D01*
X145871104Y-125402967D01*
X145864375Y-125406846D01*
X145775296Y-125458214D01*
X145694442Y-125504861D01*
X145622284Y-125546514D01*
X145559294Y-125582902D01*
X145505944Y-125613752D01*
X145462703Y-125638791D01*
X145432575Y-125656277D01*
X145413997Y-125667046D01*
X145385833Y-125683329D01*
X145349506Y-125704306D01*
X145306437Y-125729156D01*
X145258047Y-125757060D01*
X145205760Y-125787198D01*
X145150997Y-125818749D01*
X145102375Y-125846750D01*
X145046614Y-125878860D01*
X144992090Y-125910267D01*
X144940226Y-125940152D01*
X144892443Y-125967694D01*
X144850162Y-125992075D01*
X144814806Y-126012474D01*
X144787796Y-126028071D01*
X144772175Y-126037109D01*
X144741282Y-126055004D01*
X144704071Y-126076546D01*
X144665218Y-126099027D01*
X144629400Y-126119741D01*
X144629300Y-126119800D01*
X144593499Y-126140501D01*
X144554649Y-126162975D01*
X144517426Y-126184515D01*
X144486507Y-126202414D01*
X144486425Y-126202462D01*
X144461184Y-126217053D01*
X144427751Y-126236342D01*
X144388944Y-126258704D01*
X144347583Y-126282514D01*
X144306490Y-126306148D01*
X144299100Y-126310396D01*
X144254365Y-126336124D01*
X144205090Y-126364498D01*
X144155198Y-126393256D01*
X144108614Y-126420137D01*
X144070500Y-126442161D01*
X144035475Y-126462416D01*
X144002250Y-126481618D01*
X143973172Y-126498414D01*
X143950585Y-126511449D01*
X143937562Y-126518951D01*
X143921334Y-126527842D01*
X143913758Y-126530355D01*
X143912743Y-126526888D01*
X143913887Y-126523437D01*
X143918615Y-126514062D01*
X143928642Y-126496041D01*
X143942698Y-126471597D01*
X143959514Y-126442954D01*
X143968123Y-126428483D01*
X143980528Y-126407623D01*
X143998601Y-126377088D01*
X144021590Y-126338156D01*
X144048741Y-126292109D01*
X144079299Y-126240226D01*
X144112511Y-126183786D01*
X144147623Y-126124070D01*
X144183880Y-126062359D01*
X144213535Y-126011850D01*
X144274463Y-125908045D01*
X144329294Y-125814642D01*
X144378357Y-125731084D01*
X144421981Y-125656818D01*
X144460493Y-125591288D01*
X144494222Y-125533942D01*
X144523497Y-125484223D01*
X144548646Y-125441577D01*
X144569996Y-125405451D01*
X144587878Y-125375289D01*
X144602618Y-125350536D01*
X144614545Y-125330640D01*
X144623988Y-125315043D01*
X144631275Y-125303194D01*
X144636734Y-125294536D01*
X144640693Y-125288515D01*
X144643482Y-125284578D01*
X144645428Y-125282168D01*
X144645955Y-125281600D01*
X144648567Y-125280109D01*
X144653819Y-125278770D01*
X144662387Y-125277572D01*
X144674945Y-125276504D01*
X144692167Y-125275555D01*
X144714727Y-125274715D01*
X144743300Y-125273972D01*
X144778560Y-125273315D01*
X144821181Y-125272735D01*
X144871837Y-125272219D01*
X144931204Y-125271757D01*
X144999954Y-125271339D01*
X145078763Y-125270953D01*
X145168305Y-125270589D01*
X145269254Y-125270235D01*
X145372475Y-125269911D01*
X145466773Y-125269673D01*
X145557448Y-125269534D01*
X145643702Y-125269491D01*
X145724733Y-125269541D01*
G36*
X143873650Y-125907075D02*
X143873603Y-125995467D01*
X143873467Y-126080183D01*
X143873248Y-126160368D01*
X143872952Y-126235173D01*
X143872587Y-126303744D01*
X143872158Y-126365230D01*
X143871672Y-126418779D01*
X143871135Y-126463538D01*
X143870553Y-126498656D01*
X143869934Y-126523281D01*
X143869283Y-126536561D01*
X143868887Y-126538729D01*
X143861352Y-126535591D01*
X143846401Y-126527570D01*
X143829200Y-126517550D01*
X143818597Y-126511198D01*
X143806756Y-126504168D01*
X143792827Y-126495967D01*
X143775961Y-126486104D01*
X143755307Y-126474086D01*
X143730016Y-126459423D01*
X143699237Y-126441622D01*
X143662121Y-126420192D01*
X143617817Y-126394640D01*
X143565476Y-126364475D01*
X143504247Y-126329205D01*
X143433281Y-126288338D01*
X143394225Y-126265850D01*
X143338462Y-126233735D01*
X143283938Y-126202319D01*
X143232072Y-126172420D01*
X143184288Y-126144859D01*
X143142007Y-126120457D01*
X143106651Y-126100034D01*
X143079642Y-126084410D01*
X143064025Y-126075350D01*
X143045447Y-126064575D01*
X143017284Y-126048285D01*
X142980958Y-126027302D01*
X142937890Y-126002444D01*
X142889502Y-125974533D01*
X142837216Y-125944389D01*
X142782454Y-125912832D01*
X142733825Y-125884822D01*
X142677187Y-125852200D01*
X142621059Y-125819862D01*
X142566985Y-125788696D01*
X142516505Y-125759592D01*
X142471164Y-125733440D01*
X142432502Y-125711128D01*
X142402062Y-125693546D01*
X142384575Y-125683431D01*
X142348039Y-125662289D01*
X142308278Y-125639308D01*
X142269907Y-125617155D01*
X142237539Y-125598493D01*
X142235350Y-125597232D01*
X142202734Y-125578404D01*
X142167894Y-125558213D01*
X142135762Y-125539520D01*
X142117875Y-125529067D01*
X142099880Y-125518587D01*
X142072637Y-125502810D01*
X142037915Y-125482755D01*
X141997482Y-125459443D01*
X141953108Y-125433893D01*
X141906561Y-125407127D01*
X141880287Y-125392034D01*
X141693499Y-125284775D01*
X142242237Y-125280925D01*
X142342881Y-125280261D01*
X142453323Y-125279606D01*
X142570931Y-125278973D01*
X142693070Y-125278372D01*
X142817108Y-125277816D01*
X142940412Y-125277316D01*
X143060348Y-125276883D01*
X143174284Y-125276528D01*
X143279586Y-125276264D01*
X143332312Y-125276163D01*
X143873650Y-125275250D01*
X143873650Y-125907075D01*
X143873650Y-125907075D01*
G37*
X143873650Y-125907075D02*
X143873603Y-125995467D01*
X143873467Y-126080183D01*
X143873248Y-126160368D01*
X143872952Y-126235173D01*
X143872587Y-126303744D01*
X143872158Y-126365230D01*
X143871672Y-126418779D01*
X143871135Y-126463538D01*
X143870553Y-126498656D01*
X143869934Y-126523281D01*
X143869283Y-126536561D01*
X143868887Y-126538729D01*
X143861352Y-126535591D01*
X143846401Y-126527570D01*
X143829200Y-126517550D01*
X143818597Y-126511198D01*
X143806756Y-126504168D01*
X143792827Y-126495967D01*
X143775961Y-126486104D01*
X143755307Y-126474086D01*
X143730016Y-126459423D01*
X143699237Y-126441622D01*
X143662121Y-126420192D01*
X143617817Y-126394640D01*
X143565476Y-126364475D01*
X143504247Y-126329205D01*
X143433281Y-126288338D01*
X143394225Y-126265850D01*
X143338462Y-126233735D01*
X143283938Y-126202319D01*
X143232072Y-126172420D01*
X143184288Y-126144859D01*
X143142007Y-126120457D01*
X143106651Y-126100034D01*
X143079642Y-126084410D01*
X143064025Y-126075350D01*
X143045447Y-126064575D01*
X143017284Y-126048285D01*
X142980958Y-126027302D01*
X142937890Y-126002444D01*
X142889502Y-125974533D01*
X142837216Y-125944389D01*
X142782454Y-125912832D01*
X142733825Y-125884822D01*
X142677187Y-125852200D01*
X142621059Y-125819862D01*
X142566985Y-125788696D01*
X142516505Y-125759592D01*
X142471164Y-125733440D01*
X142432502Y-125711128D01*
X142402062Y-125693546D01*
X142384575Y-125683431D01*
X142348039Y-125662289D01*
X142308278Y-125639308D01*
X142269907Y-125617155D01*
X142237539Y-125598493D01*
X142235350Y-125597232D01*
X142202734Y-125578404D01*
X142167894Y-125558213D01*
X142135762Y-125539520D01*
X142117875Y-125529067D01*
X142099880Y-125518587D01*
X142072637Y-125502810D01*
X142037915Y-125482755D01*
X141997482Y-125459443D01*
X141953108Y-125433893D01*
X141906561Y-125407127D01*
X141880287Y-125392034D01*
X141693499Y-125284775D01*
X142242237Y-125280925D01*
X142342881Y-125280261D01*
X142453323Y-125279606D01*
X142570931Y-125278973D01*
X142693070Y-125278372D01*
X142817108Y-125277816D01*
X142940412Y-125277316D01*
X143060348Y-125276883D01*
X143174284Y-125276528D01*
X143279586Y-125276264D01*
X143332312Y-125276163D01*
X143873650Y-125275250D01*
X143873650Y-125907075D01*
D14*
G04 #@! TO.C,D501*
X175039213Y-122006693D02*
X175443073Y-122006693D01*
X172697333Y-116012293D02*
X172293473Y-116012293D01*
X175443073Y-116012293D02*
X175039213Y-116012293D01*
X175443073Y-122006693D02*
X175443073Y-116012293D01*
X172293473Y-122006693D02*
X172697333Y-122006693D01*
X172293473Y-116012293D02*
X172293473Y-122006693D01*
X174503273Y-115377293D02*
X173233273Y-115377293D01*
X173868273Y-114615293D02*
X173741273Y-115377293D01*
X173868273Y-114615293D02*
X173614273Y-115377293D01*
X173868273Y-114615293D02*
X173487273Y-115377293D01*
X173868273Y-114615293D02*
X173360273Y-115377293D01*
X173868273Y-114615293D02*
X173233273Y-115377293D01*
X173868273Y-114615293D02*
X173995273Y-115377293D01*
X173868273Y-114615293D02*
X174122273Y-115377293D01*
X173868273Y-114615293D02*
X174249273Y-115377293D01*
X173868273Y-114615293D02*
X174376273Y-115377293D01*
X173868273Y-114615293D02*
X174503273Y-115377293D01*
X174503273Y-114615293D02*
X173233273Y-114615293D01*
X173868273Y-115631293D02*
X173868273Y-114361293D01*
G04 #@! TO.C,U202*
X144583475Y-102367241D02*
X142526075Y-102367241D01*
X142526075Y-103680380D02*
X142526075Y-104406902D01*
X142526075Y-105720041D02*
X144583475Y-105720041D01*
G04 #@! TO.C,Q503*
X166317514Y-112001542D02*
X166984036Y-112001542D01*
X168327175Y-112001542D02*
X168327175Y-110045742D01*
X168327175Y-110045742D02*
X167267515Y-110045742D01*
X164974375Y-110045742D02*
X164974375Y-112001542D01*
X166034035Y-110045742D02*
X164974375Y-110045742D01*
X165776975Y-113634241D02*
G75*
G03X165776975Y-113634241I-76200J0D01*
G01*
G04 #@! TO.C,Q502*
X169806173Y-116032754D02*
X169806173Y-115366232D01*
X169806173Y-114023093D02*
X167850373Y-114023093D01*
X167850373Y-114023093D02*
X167850373Y-115082753D01*
X167850373Y-117375893D02*
X169806173Y-117375893D01*
X167850373Y-116316233D02*
X167850373Y-117375893D01*
X171515072Y-116649493D02*
G75*
G03X171515072Y-116649493I-76200J0D01*
G01*
G04 #@! TO.C,Q501*
X163400373Y-115356232D02*
X163400373Y-116022754D01*
X163400373Y-117365893D02*
X165356173Y-117365893D01*
X165356173Y-117365893D02*
X165356173Y-116306233D01*
X165356173Y-114013093D02*
X163400373Y-114013093D01*
X165356173Y-115072753D02*
X165356173Y-114013093D01*
X161843874Y-114739493D02*
G75*
G03X161843874Y-114739493I-76200J0D01*
G01*
G04 #@! TO.C,J101*
X105061775Y-100224642D02*
G75*
G03X105061775Y-100224642I-381000J0D01*
G01*
X100451929Y-91080642D02*
X99103697Y-91080642D01*
X102209609Y-98446642D02*
X104818697Y-98446642D01*
X104818697Y-92850702D02*
X104818697Y-91080642D01*
X99103697Y-98446642D02*
X100451929Y-98446642D01*
X99103697Y-91080642D02*
X99103697Y-98446642D01*
X104818697Y-91080642D02*
X102209609Y-91080642D01*
X104818697Y-98446642D02*
X104818697Y-96676582D01*
G04 #@! TO.C,J102*
X105051775Y-83859642D02*
G75*
G03X105051775Y-83859642I-381000J0D01*
G01*
X100441929Y-74715642D02*
X99093697Y-74715642D01*
X102199609Y-82081642D02*
X104808697Y-82081642D01*
X104808697Y-76485702D02*
X104808697Y-74715642D01*
X99093697Y-82081642D02*
X100441929Y-82081642D01*
X99093697Y-74715642D02*
X99093697Y-82081642D01*
X104808697Y-74715642D02*
X102199609Y-74715642D01*
X104808697Y-82081642D02*
X104808697Y-80311582D01*
G04 #@! TO.C,J103*
X109030775Y-52993642D02*
G75*
G03X109030775Y-52993642I-381000J0D01*
G01*
X117793775Y-48764796D02*
X117793775Y-47416564D01*
X110427775Y-50522476D02*
X110427775Y-53131564D01*
X116023715Y-53131564D02*
X117793775Y-53131564D01*
X110427775Y-47416564D02*
X110427775Y-48764796D01*
X117793775Y-47416564D02*
X110427775Y-47416564D01*
X117793775Y-53131564D02*
X117793775Y-50522476D01*
X110427775Y-53131564D02*
X112197835Y-53131564D01*
G04 #@! TO.C,J104*
X123695775Y-52983642D02*
G75*
G03X123695775Y-52983642I-381000J0D01*
G01*
X132458775Y-48754796D02*
X132458775Y-47406564D01*
X125092775Y-50512476D02*
X125092775Y-53121564D01*
X130688715Y-53121564D02*
X132458775Y-53121564D01*
X125092775Y-47406564D02*
X125092775Y-48754796D01*
X132458775Y-47406564D02*
X125092775Y-47406564D01*
X132458775Y-53121564D02*
X132458775Y-50512476D01*
X125092775Y-53121564D02*
X126862835Y-53121564D01*
G04 #@! TO.C,J105*
X139360775Y-52983642D02*
G75*
G03X139360775Y-52983642I-381000J0D01*
G01*
X148123775Y-48754796D02*
X148123775Y-47406564D01*
X140757775Y-50512476D02*
X140757775Y-53121564D01*
X146353715Y-53121564D02*
X148123775Y-53121564D01*
X140757775Y-47406564D02*
X140757775Y-48754796D01*
X148123775Y-47406564D02*
X140757775Y-47406564D01*
X148123775Y-53121564D02*
X148123775Y-50512476D01*
X140757775Y-53121564D02*
X142527835Y-53121564D01*
G04 #@! TO.C,J106*
X154477025Y-52983642D02*
G75*
G03X154477025Y-52983642I-381000J0D01*
G01*
X163240025Y-48754796D02*
X163240025Y-47406564D01*
X155874025Y-50512476D02*
X155874025Y-53121564D01*
X161469965Y-53121564D02*
X163240025Y-53121564D01*
X155874025Y-47406564D02*
X155874025Y-48754796D01*
X163240025Y-47406564D02*
X155874025Y-47406564D01*
X163240025Y-53121564D02*
X163240025Y-50512476D01*
X155874025Y-53121564D02*
X157644085Y-53121564D01*
G04 #@! TO.C,J107*
X169791675Y-52983642D02*
G75*
G03X169791675Y-52983642I-381000J0D01*
G01*
X178554675Y-48754796D02*
X178554675Y-47406564D01*
X171188675Y-50512476D02*
X171188675Y-53121564D01*
X176784615Y-53121564D02*
X178554675Y-53121564D01*
X171188675Y-47406564D02*
X171188675Y-48754796D01*
X178554675Y-47406564D02*
X171188675Y-47406564D01*
X178554675Y-53121564D02*
X178554675Y-50512476D01*
X171188675Y-53121564D02*
X172958735Y-53121564D01*
G04 #@! TO.C,J108*
X183231151Y-74208497D02*
G75*
G03X183231151Y-74208497I-381000J0D01*
G01*
X187078997Y-83352497D02*
X188427229Y-83352497D01*
X185321317Y-75986497D02*
X182712229Y-75986497D01*
X182712229Y-81582437D02*
X182712229Y-83352497D01*
X188427229Y-75986497D02*
X187078997Y-75986497D01*
X188427229Y-83352497D02*
X188427229Y-75986497D01*
X182712229Y-83352497D02*
X185321317Y-83352497D01*
X182712229Y-75986497D02*
X182712229Y-77756557D01*
G04 #@! TO.C,J109*
X183231151Y-90549747D02*
G75*
G03X183231151Y-90549747I-381000J0D01*
G01*
X187078997Y-99693747D02*
X188427229Y-99693747D01*
X185321317Y-92327747D02*
X182712229Y-92327747D01*
X182712229Y-97923687D02*
X182712229Y-99693747D01*
X188427229Y-92327747D02*
X187078997Y-92327747D01*
X188427229Y-99693747D02*
X188427229Y-92327747D01*
X182712229Y-99693747D02*
X185321317Y-99693747D01*
X182712229Y-92327747D02*
X182712229Y-94097807D01*
G04 #@! TO.C,J111*
X183251775Y-106822642D02*
G75*
G03X183251775Y-106822642I-381000J0D01*
G01*
X187099621Y-115966642D02*
X188447853Y-115966642D01*
X185341941Y-108600642D02*
X182732853Y-108600642D01*
X182732853Y-114196582D02*
X182732853Y-115966642D01*
X188447853Y-108600642D02*
X187099621Y-108600642D01*
X188447853Y-115966642D02*
X188447853Y-108600642D01*
X182732853Y-115966642D02*
X185341941Y-115966642D01*
X182732853Y-108600642D02*
X182732853Y-110370702D01*
G04 #@! TO.C,J112*
X105101775Y-118056742D02*
G75*
G03X105101775Y-118056742I-381000J0D01*
G01*
X100491929Y-108912742D02*
X99143697Y-108912742D01*
X102249609Y-116278742D02*
X104858697Y-116278742D01*
X104858697Y-110682802D02*
X104858697Y-108912742D01*
X99143697Y-116278742D02*
X100491929Y-116278742D01*
X99143697Y-108912742D02*
X99143697Y-116278742D01*
X104858697Y-108912742D02*
X102249609Y-108912742D01*
X104858697Y-116278742D02*
X104858697Y-114508682D01*
G04 #@! TO.C,U303*
X158779774Y-75953642D02*
X159004775Y-75953642D01*
X156254773Y-75953642D02*
X156479774Y-75953642D01*
X158504776Y-73653642D02*
X159004775Y-73653642D01*
X156254773Y-73653642D02*
X156479774Y-73653642D01*
D15*
G04 #@! TO.C,R318*
X152694775Y-77862220D02*
X152694775Y-77345064D01*
X154114775Y-77862220D02*
X154114775Y-77345064D01*
G04 #@! TO.C,R317*
X154564775Y-77862220D02*
X154564775Y-77345064D01*
X155984775Y-77862220D02*
X155984775Y-77345064D01*
D14*
G04 #@! TO.C,L302*
X131898575Y-107863082D02*
X131898575Y-109204202D01*
X139162975Y-109204202D02*
X139162975Y-107863082D01*
X135606975Y-104126742D02*
G75*
G03X135606975Y-104126742I-76200J0D01*
G01*
G04 #@! TO.C,D601*
X111759275Y-96483642D02*
X113029275Y-96483642D01*
X112775275Y-97118642D02*
X112775275Y-95848642D01*
X112775275Y-96483642D02*
X112013275Y-97118642D01*
X112775275Y-96483642D02*
X112013275Y-96991642D01*
X112775275Y-96483642D02*
X112013275Y-96864642D01*
X112775275Y-96483642D02*
X112013275Y-96737642D01*
X112775275Y-96483642D02*
X112013275Y-96610642D01*
X112775275Y-96483642D02*
X112013275Y-95848642D01*
X112775275Y-96483642D02*
X112013275Y-95975642D01*
X112775275Y-96483642D02*
X112013275Y-96102642D01*
X112775275Y-96483642D02*
X112013275Y-96229642D01*
X112775275Y-96483642D02*
X112013275Y-96356642D01*
X112013275Y-97118642D02*
X112013275Y-95848642D01*
X111378275Y-94959642D02*
X105841075Y-94959642D01*
X105841075Y-94959642D02*
X105841075Y-95325402D01*
X105841075Y-98007642D02*
X111378275Y-98007642D01*
X111378275Y-98007642D02*
X111378275Y-97641882D01*
X111378275Y-95325402D02*
X111378275Y-94959642D01*
X105841075Y-97641882D02*
X105841075Y-98007642D01*
D17*
G04 #@! TO.C,J110*
X99144775Y-126613642D02*
X99144775Y-51513642D01*
X103244775Y-47413642D02*
X184344775Y-47413642D01*
X100144775Y-127613642D02*
X102744775Y-127613642D01*
X188444775Y-51513642D02*
X188444775Y-126613642D01*
X187444775Y-127613642D02*
X184944775Y-127613642D01*
X106844775Y-140313642D02*
X180844775Y-140313642D01*
X183944775Y-137213642D02*
X183944775Y-128613642D01*
X103744775Y-128613642D02*
X103744775Y-137213642D01*
X103744775Y-137213642D02*
G75*
G03X106844775Y-140313642I3100000J0D01*
G01*
X102744775Y-127613642D02*
G75*
G02X103744775Y-128613642I0J-1000000D01*
G01*
X180844775Y-140313642D02*
G75*
G03X183944775Y-137213642I0J3100000D01*
G01*
X184944775Y-127613642D02*
G75*
G03X183944775Y-128613642I0J-1000000D01*
G01*
X188444775Y-126613642D02*
G75*
G02X187444775Y-127613642I-1000000J0D01*
G01*
X184344775Y-47413642D02*
G75*
G02X188444775Y-51513642I0J-4100000D01*
G01*
X99144775Y-126613642D02*
G75*
G03X100144775Y-127613642I1000000J0D01*
G01*
X99144775Y-51513642D02*
G75*
G02X103244775Y-47413642I4100000J0D01*
G01*
D14*
G04 #@! TO.C,L601*
X106011075Y-89403942D02*
X106011075Y-94763342D01*
X106011075Y-94763342D02*
X106389325Y-94763342D01*
X111370475Y-94763342D02*
X111370475Y-89403942D01*
X111370475Y-89403942D02*
X110992225Y-89403942D01*
X106389325Y-89403942D02*
X106011075Y-89403942D01*
X110992225Y-94763342D02*
X111370475Y-94763342D01*
X108766975Y-88768942D02*
G75*
G03X108766975Y-88768942I-76200J0D01*
G01*
G04 #@! TO.C,U601*
X115057175Y-98878542D02*
X115057175Y-94128742D01*
X115057175Y-94128742D02*
X114865914Y-94128742D01*
X111704375Y-94128742D02*
X111704375Y-98878542D01*
X111704375Y-98878542D02*
X111895636Y-98878542D01*
X114865914Y-98878542D02*
X115057175Y-98878542D01*
X111895636Y-94128742D02*
X111704375Y-94128742D01*
G04 #@! TO.C,U602*
X114937061Y-81958542D02*
X114937061Y-77208742D01*
X114937061Y-77208742D02*
X114745800Y-77208742D01*
X111584261Y-77208742D02*
X111584261Y-81958542D01*
X111584261Y-81958542D02*
X111775522Y-81958542D01*
X114745800Y-81958542D02*
X114937061Y-81958542D01*
X111775522Y-77208742D02*
X111584261Y-77208742D01*
G04 #@! TO.C,U603*
X108655875Y-63189928D02*
X113405675Y-63189928D01*
X113405675Y-63189928D02*
X113405675Y-62998667D01*
X113405675Y-59837128D02*
X108655875Y-59837128D01*
X108655875Y-59837128D02*
X108655875Y-60028389D01*
X108655875Y-62998667D02*
X108655875Y-63189928D01*
X113405675Y-60028389D02*
X113405675Y-59837128D01*
G04 #@! TO.C,U604*
X123165875Y-63190042D02*
X127915675Y-63190042D01*
X127915675Y-63190042D02*
X127915675Y-62998781D01*
X127915675Y-59837242D02*
X123165875Y-59837242D01*
X123165875Y-59837242D02*
X123165875Y-60028503D01*
X123165875Y-62998781D02*
X123165875Y-63190042D01*
X127915675Y-60028503D02*
X127915675Y-59837242D01*
G04 #@! TO.C,U605*
X138825875Y-63190042D02*
X143575675Y-63190042D01*
X143575675Y-63190042D02*
X143575675Y-62998781D01*
X143575675Y-59837242D02*
X138825875Y-59837242D01*
X138825875Y-59837242D02*
X138825875Y-60028503D01*
X138825875Y-62998781D02*
X138825875Y-63190042D01*
X143575675Y-60028503D02*
X143575675Y-59837242D01*
G04 #@! TO.C,U606*
X154785875Y-63190042D02*
X159535675Y-63190042D01*
X159535675Y-63190042D02*
X159535675Y-62998781D01*
X159535675Y-59837242D02*
X154785875Y-59837242D01*
X154785875Y-59837242D02*
X154785875Y-60028503D01*
X154785875Y-62998781D02*
X154785875Y-63190042D01*
X159535675Y-60028503D02*
X159535675Y-59837242D01*
G04 #@! TO.C,U607*
X170805875Y-63190042D02*
X175555675Y-63190042D01*
X175555675Y-63190042D02*
X175555675Y-62998781D01*
X175555675Y-59837242D02*
X170805875Y-59837242D01*
X170805875Y-59837242D02*
X170805875Y-60028503D01*
X170805875Y-62998781D02*
X170805875Y-63190042D01*
X175555675Y-60028503D02*
X175555675Y-59837242D01*
G04 #@! TO.C,U608*
X172613751Y-75585847D02*
X172613751Y-80335647D01*
X172613751Y-80335647D02*
X172805012Y-80335647D01*
X175966551Y-80335647D02*
X175966551Y-75585847D01*
X175966551Y-75585847D02*
X175775290Y-75585847D01*
X172805012Y-75585847D02*
X172613751Y-75585847D01*
X175775290Y-80335647D02*
X175966551Y-80335647D01*
G04 #@! TO.C,U609*
X172613751Y-91995847D02*
X172613751Y-96745647D01*
X172613751Y-96745647D02*
X172805012Y-96745647D01*
X175966551Y-96745647D02*
X175966551Y-91995847D01*
X175966551Y-91995847D02*
X175775290Y-91995847D01*
X172805012Y-91995847D02*
X172613751Y-91995847D01*
X175775290Y-96745647D02*
X175966551Y-96745647D01*
D15*
G04 #@! TO.C,C201*
X143391996Y-105733642D02*
X143717554Y-105733642D01*
X143391996Y-106753642D02*
X143717554Y-106753642D01*
G04 #@! TO.C,C301*
X133084775Y-99780863D02*
X133084775Y-100106421D01*
X132064775Y-99780863D02*
X132064775Y-100106421D01*
G04 #@! TO.C,C302*
X144034775Y-72950863D02*
X144034775Y-73276421D01*
X143014775Y-72950863D02*
X143014775Y-73276421D01*
G04 #@! TO.C,C303*
X145190000Y-87741422D02*
X145190000Y-88258578D01*
X143770000Y-87741422D02*
X143770000Y-88258578D01*
G04 #@! TO.C,C305*
X146760000Y-87810863D02*
X146760000Y-88136421D01*
X145740000Y-87810863D02*
X145740000Y-88136421D01*
G04 #@! TO.C,C306*
X135580000Y-114177221D02*
X135580000Y-114502779D01*
X134560000Y-114177221D02*
X134560000Y-114502779D01*
G04 #@! TO.C,C307*
X160544775Y-73193363D02*
X160544775Y-73518921D01*
X159524775Y-73193363D02*
X159524775Y-73518921D01*
G04 #@! TO.C,C308*
X140370496Y-84433642D02*
X140696054Y-84433642D01*
X140370496Y-85453642D02*
X140696054Y-85453642D01*
G04 #@! TO.C,C309*
X129617996Y-110883642D02*
X129943554Y-110883642D01*
X129617996Y-111903642D02*
X129943554Y-111903642D01*
G04 #@! TO.C,C312*
X160324775Y-84605064D02*
X160324775Y-85122220D01*
X158904775Y-84605064D02*
X158904775Y-85122220D01*
G04 #@! TO.C,C313*
X161824775Y-84700863D02*
X161824775Y-85026421D01*
X160804775Y-84700863D02*
X160804775Y-85026421D01*
G04 #@! TO.C,C314*
X130624775Y-76700863D02*
X130624775Y-77026421D01*
X129604775Y-76700863D02*
X129604775Y-77026421D01*
G04 #@! TO.C,C315*
X135860775Y-89306421D02*
X135860775Y-88980863D01*
X136880775Y-89306421D02*
X136880775Y-88980863D01*
G04 #@! TO.C,C316*
X125110775Y-116286421D02*
X125110775Y-115960863D01*
X126130775Y-116286421D02*
X126130775Y-115960863D01*
G04 #@! TO.C,C317*
X156461996Y-81813642D02*
X156787554Y-81813642D01*
X156461996Y-82833642D02*
X156787554Y-82833642D01*
G04 #@! TO.C,C321*
X143482197Y-89983642D02*
X143999353Y-89983642D01*
X143482197Y-91403642D02*
X143999353Y-91403642D01*
G04 #@! TO.C,C322*
X133272197Y-116353642D02*
X133789353Y-116353642D01*
X133272197Y-117773642D02*
X133789353Y-117773642D01*
G04 #@! TO.C,C323*
X143482197Y-91838642D02*
X143999353Y-91838642D01*
X143482197Y-93258642D02*
X143999353Y-93258642D01*
G04 #@! TO.C,C324*
X133272197Y-118243642D02*
X133789353Y-118243642D01*
X133272197Y-119663642D02*
X133789353Y-119663642D01*
G04 #@! TO.C,C325*
X125146197Y-88253642D02*
X125663353Y-88253642D01*
X125146197Y-89673642D02*
X125663353Y-89673642D01*
G04 #@! TO.C,C326*
X143482197Y-93693642D02*
X143999353Y-93693642D01*
X143482197Y-95113642D02*
X143999353Y-95113642D01*
G04 #@! TO.C,C327*
X133272197Y-120133642D02*
X133789353Y-120133642D01*
X133272197Y-121553642D02*
X133789353Y-121553642D01*
G04 #@! TO.C,C329*
X153467554Y-84803642D02*
X153141996Y-84803642D01*
X153467554Y-83783642D02*
X153141996Y-83783642D01*
G04 #@! TO.C,C330*
X159366197Y-86833642D02*
X159883353Y-86833642D01*
X159366197Y-88253642D02*
X159883353Y-88253642D01*
G04 #@! TO.C,C331*
X159366197Y-88703642D02*
X159883353Y-88703642D01*
X159366197Y-90123642D02*
X159883353Y-90123642D01*
G04 #@! TO.C,C332*
X159366197Y-90573642D02*
X159883353Y-90573642D01*
X159366197Y-91993642D02*
X159883353Y-91993642D01*
G04 #@! TO.C,C333*
X128540775Y-86525064D02*
X128540775Y-87042220D01*
X127120775Y-86525064D02*
X127120775Y-87042220D01*
G04 #@! TO.C,C334*
X130840775Y-86181578D02*
X130840775Y-87385706D01*
X129020775Y-86181578D02*
X129020775Y-87385706D01*
G04 #@! TO.C,C401*
X119806304Y-115550409D02*
X120323460Y-115550409D01*
X119806304Y-116970409D02*
X120323460Y-116970409D01*
G04 #@! TO.C,C403*
X119806304Y-119268697D02*
X120323460Y-119268697D01*
X119806304Y-120688697D02*
X120323460Y-120688697D01*
G04 #@! TO.C,C404*
X119806304Y-117409553D02*
X120323460Y-117409553D01*
X119806304Y-118829553D02*
X120323460Y-118829553D01*
G04 #@! TO.C,C405*
X113524882Y-124070119D02*
X113524882Y-124587275D01*
X112104882Y-124070119D02*
X112104882Y-124587275D01*
G04 #@! TO.C,C501*
X161775494Y-119243642D02*
X162101052Y-119243642D01*
X161775494Y-120263642D02*
X162101052Y-120263642D01*
G04 #@! TO.C,C502*
X163079353Y-110751142D02*
X162562197Y-110751142D01*
X163079353Y-109331142D02*
X162562197Y-109331142D01*
G04 #@! TO.C,C503*
X163079353Y-108928642D02*
X162562197Y-108928642D01*
X163079353Y-107508642D02*
X162562197Y-107508642D01*
G04 #@! TO.C,C505*
X163079353Y-107106142D02*
X162562197Y-107106142D01*
X163079353Y-105686142D02*
X162562197Y-105686142D01*
G04 #@! TO.C,C506*
X163079353Y-105283642D02*
X162562197Y-105283642D01*
X163079353Y-103863642D02*
X162562197Y-103863642D01*
G04 #@! TO.C,C507*
X172090000Y-115627221D02*
X172090000Y-115952779D01*
X171070000Y-115627221D02*
X171070000Y-115952779D01*
G04 #@! TO.C,C508*
X163079353Y-112573642D02*
X162562197Y-112573642D01*
X163079353Y-111153642D02*
X162562197Y-111153642D01*
G04 #@! TO.C,C607*
X109852839Y-101083642D02*
X108648711Y-101083642D01*
X109852839Y-98363642D02*
X108648711Y-98363642D01*
G04 #@! TO.C,C608*
X109852839Y-84633642D02*
X108648711Y-84633642D01*
X109852839Y-81913642D02*
X108648711Y-81913642D01*
G04 #@! TO.C,C609*
X105810775Y-58105706D02*
X105810775Y-56901578D01*
X108530775Y-58105706D02*
X108530775Y-56901578D01*
G04 #@! TO.C,C610*
X121440775Y-61441578D02*
X121440775Y-62645706D01*
X118720775Y-61441578D02*
X118720775Y-62645706D01*
G04 #@! TO.C,C611*
X137030775Y-61441578D02*
X137030775Y-62645706D01*
X134310775Y-61441578D02*
X134310775Y-62645706D01*
G04 #@! TO.C,C612*
X153010775Y-61441578D02*
X153010775Y-62645706D01*
X150290775Y-61441578D02*
X150290775Y-62645706D01*
G04 #@! TO.C,C616*
X120490775Y-58105706D02*
X120490775Y-56901578D01*
X123210775Y-58105706D02*
X123210775Y-56901578D01*
G04 #@! TO.C,C617*
X136110775Y-58105706D02*
X136110775Y-56901578D01*
X138830775Y-58105706D02*
X138830775Y-56901578D01*
G04 #@! TO.C,C618*
X152070775Y-58105706D02*
X152070775Y-56901578D01*
X154790775Y-58105706D02*
X154790775Y-56901578D01*
G04 #@! TO.C,C619*
X169020775Y-61441578D02*
X169020775Y-62645706D01*
X166300775Y-61441578D02*
X166300775Y-62645706D01*
G04 #@! TO.C,C620*
X174362215Y-73810747D02*
X173158087Y-73810747D01*
X174362215Y-71090747D02*
X173158087Y-71090747D01*
G04 #@! TO.C,C621*
X174362215Y-90240747D02*
X173158087Y-90240747D01*
X174362215Y-87520747D02*
X173158087Y-87520747D01*
G04 #@! TO.C,C625*
X168070775Y-58105706D02*
X168070775Y-56901578D01*
X170790775Y-58105706D02*
X170790775Y-56901578D01*
G04 #@! TO.C,C626*
X177698087Y-72990747D02*
X178902215Y-72990747D01*
X177698087Y-75710747D02*
X178902215Y-75710747D01*
G04 #@! TO.C,C627*
X177698087Y-89320747D02*
X178902215Y-89320747D01*
X177698087Y-92040747D02*
X178902215Y-92040747D01*
D14*
G04 #@! TO.C,D602*
X111759275Y-80053642D02*
X113029275Y-80053642D01*
X112775275Y-80688642D02*
X112775275Y-79418642D01*
X112775275Y-80053642D02*
X112013275Y-80688642D01*
X112775275Y-80053642D02*
X112013275Y-80561642D01*
X112775275Y-80053642D02*
X112013275Y-80434642D01*
X112775275Y-80053642D02*
X112013275Y-80307642D01*
X112775275Y-80053642D02*
X112013275Y-80180642D01*
X112775275Y-80053642D02*
X112013275Y-79418642D01*
X112775275Y-80053642D02*
X112013275Y-79545642D01*
X112775275Y-80053642D02*
X112013275Y-79672642D01*
X112775275Y-80053642D02*
X112013275Y-79799642D01*
X112775275Y-80053642D02*
X112013275Y-79926642D01*
X112013275Y-80688642D02*
X112013275Y-79418642D01*
X111378275Y-78529642D02*
X105841075Y-78529642D01*
X105841075Y-78529642D02*
X105841075Y-78895402D01*
X105841075Y-81577642D02*
X111378275Y-81577642D01*
X111378275Y-81577642D02*
X111378275Y-81211882D01*
X111378275Y-78895402D02*
X111378275Y-78529642D01*
X105841075Y-81211882D02*
X105841075Y-81577642D01*
G04 #@! TO.C,D603*
X110380775Y-60012142D02*
X110380775Y-61282142D01*
X109745775Y-61028142D02*
X111015775Y-61028142D01*
X110380775Y-61028142D02*
X109745775Y-60266142D01*
X110380775Y-61028142D02*
X109872775Y-60266142D01*
X110380775Y-61028142D02*
X109999775Y-60266142D01*
X110380775Y-61028142D02*
X110126775Y-60266142D01*
X110380775Y-61028142D02*
X110253775Y-60266142D01*
X110380775Y-61028142D02*
X111015775Y-60266142D01*
X110380775Y-61028142D02*
X110888775Y-60266142D01*
X110380775Y-61028142D02*
X110761775Y-60266142D01*
X110380775Y-61028142D02*
X110634775Y-60266142D01*
X110380775Y-61028142D02*
X110507775Y-60266142D01*
X109745775Y-60266142D02*
X111015775Y-60266142D01*
X111904775Y-59631142D02*
X111904775Y-54093942D01*
X111904775Y-54093942D02*
X111539015Y-54093942D01*
X108856775Y-54093942D02*
X108856775Y-59631142D01*
X108856775Y-59631142D02*
X109222535Y-59631142D01*
X111539015Y-59631142D02*
X111904775Y-59631142D01*
X109222535Y-54093942D02*
X108856775Y-54093942D01*
G04 #@! TO.C,D604*
X117210775Y-89683735D02*
X117210775Y-88413735D01*
X117845775Y-88667735D02*
X116575775Y-88667735D01*
X117210775Y-88667735D02*
X117845775Y-89429735D01*
X117210775Y-88667735D02*
X117718775Y-89429735D01*
X117210775Y-88667735D02*
X117591775Y-89429735D01*
X117210775Y-88667735D02*
X117464775Y-89429735D01*
X117210775Y-88667735D02*
X117337775Y-89429735D01*
X117210775Y-88667735D02*
X116575775Y-89429735D01*
X117210775Y-88667735D02*
X116702775Y-89429735D01*
X117210775Y-88667735D02*
X116829775Y-89429735D01*
X117210775Y-88667735D02*
X116956775Y-89429735D01*
X117210775Y-88667735D02*
X117083775Y-89429735D01*
X117845775Y-89429735D02*
X116575775Y-89429735D01*
X115686775Y-90064735D02*
X115686775Y-95601935D01*
X115686775Y-95601935D02*
X116052535Y-95601935D01*
X118734775Y-95601935D02*
X118734775Y-90064735D01*
X118734775Y-90064735D02*
X118369015Y-90064735D01*
X116052535Y-90064735D02*
X115686775Y-90064735D01*
X118369015Y-95601935D02*
X118734775Y-95601935D01*
G04 #@! TO.C,D605*
X117210775Y-72702941D02*
X117210775Y-71432941D01*
X117845775Y-71686941D02*
X116575775Y-71686941D01*
X117210775Y-71686941D02*
X117845775Y-72448941D01*
X117210775Y-71686941D02*
X117718775Y-72448941D01*
X117210775Y-71686941D02*
X117591775Y-72448941D01*
X117210775Y-71686941D02*
X117464775Y-72448941D01*
X117210775Y-71686941D02*
X117337775Y-72448941D01*
X117210775Y-71686941D02*
X116575775Y-72448941D01*
X117210775Y-71686941D02*
X116702775Y-72448941D01*
X117210775Y-71686941D02*
X116829775Y-72448941D01*
X117210775Y-71686941D02*
X116956775Y-72448941D01*
X117210775Y-71686941D02*
X117083775Y-72448941D01*
X117845775Y-72448941D02*
X116575775Y-72448941D01*
X115686775Y-73083941D02*
X115686775Y-78621141D01*
X115686775Y-78621141D02*
X116052535Y-78621141D01*
X118734775Y-78621141D02*
X118734775Y-73083941D01*
X118734775Y-73083941D02*
X118369015Y-73083941D01*
X116052535Y-73083941D02*
X115686775Y-73083941D01*
X118369015Y-78621141D02*
X118734775Y-78621141D01*
G04 #@! TO.C,D606*
X117880375Y-66433642D02*
X119150375Y-66433642D01*
X118896375Y-67068642D02*
X118896375Y-65798642D01*
X118896375Y-66433642D02*
X118134375Y-67068642D01*
X118896375Y-66433642D02*
X118134375Y-66941642D01*
X118896375Y-66433642D02*
X118134375Y-66814642D01*
X118896375Y-66433642D02*
X118134375Y-66687642D01*
X118896375Y-66433642D02*
X118134375Y-66560642D01*
X118896375Y-66433642D02*
X118134375Y-65798642D01*
X118896375Y-66433642D02*
X118134375Y-65925642D01*
X118896375Y-66433642D02*
X118134375Y-66052642D01*
X118896375Y-66433642D02*
X118134375Y-66179642D01*
X118896375Y-66433642D02*
X118134375Y-66306642D01*
X118134375Y-67068642D02*
X118134375Y-65798642D01*
X117499375Y-64909642D02*
X111962175Y-64909642D01*
X111962175Y-64909642D02*
X111962175Y-65275402D01*
X111962175Y-67957642D02*
X117499375Y-67957642D01*
X117499375Y-67957642D02*
X117499375Y-67591882D01*
X117499375Y-65275402D02*
X117499375Y-64909642D01*
X111962175Y-67591882D02*
X111962175Y-67957642D01*
G04 #@! TO.C,D607*
X125030775Y-60012142D02*
X125030775Y-61282142D01*
X124395775Y-61028142D02*
X125665775Y-61028142D01*
X125030775Y-61028142D02*
X124395775Y-60266142D01*
X125030775Y-61028142D02*
X124522775Y-60266142D01*
X125030775Y-61028142D02*
X124649775Y-60266142D01*
X125030775Y-61028142D02*
X124776775Y-60266142D01*
X125030775Y-61028142D02*
X124903775Y-60266142D01*
X125030775Y-61028142D02*
X125665775Y-60266142D01*
X125030775Y-61028142D02*
X125538775Y-60266142D01*
X125030775Y-61028142D02*
X125411775Y-60266142D01*
X125030775Y-61028142D02*
X125284775Y-60266142D01*
X125030775Y-61028142D02*
X125157775Y-60266142D01*
X124395775Y-60266142D02*
X125665775Y-60266142D01*
X126554775Y-59631142D02*
X126554775Y-54093942D01*
X126554775Y-54093942D02*
X126189015Y-54093942D01*
X123506775Y-54093942D02*
X123506775Y-59631142D01*
X123506775Y-59631142D02*
X123872535Y-59631142D01*
X126189015Y-59631142D02*
X126554775Y-59631142D01*
X123872535Y-54093942D02*
X123506775Y-54093942D01*
G04 #@! TO.C,D608*
X140680775Y-60012142D02*
X140680775Y-61282142D01*
X140045775Y-61028142D02*
X141315775Y-61028142D01*
X140680775Y-61028142D02*
X140045775Y-60266142D01*
X140680775Y-61028142D02*
X140172775Y-60266142D01*
X140680775Y-61028142D02*
X140299775Y-60266142D01*
X140680775Y-61028142D02*
X140426775Y-60266142D01*
X140680775Y-61028142D02*
X140553775Y-60266142D01*
X140680775Y-61028142D02*
X141315775Y-60266142D01*
X140680775Y-61028142D02*
X141188775Y-60266142D01*
X140680775Y-61028142D02*
X141061775Y-60266142D01*
X140680775Y-61028142D02*
X140934775Y-60266142D01*
X140680775Y-61028142D02*
X140807775Y-60266142D01*
X140045775Y-60266142D02*
X141315775Y-60266142D01*
X142204775Y-59631142D02*
X142204775Y-54093942D01*
X142204775Y-54093942D02*
X141839015Y-54093942D01*
X139156775Y-54093942D02*
X139156775Y-59631142D01*
X139156775Y-59631142D02*
X139522535Y-59631142D01*
X141839015Y-59631142D02*
X142204775Y-59631142D01*
X139522535Y-54093942D02*
X139156775Y-54093942D01*
G04 #@! TO.C,D609*
X156646125Y-60012142D02*
X156646125Y-61282142D01*
X156011125Y-61028142D02*
X157281125Y-61028142D01*
X156646125Y-61028142D02*
X156011125Y-60266142D01*
X156646125Y-61028142D02*
X156138125Y-60266142D01*
X156646125Y-61028142D02*
X156265125Y-60266142D01*
X156646125Y-61028142D02*
X156392125Y-60266142D01*
X156646125Y-61028142D02*
X156519125Y-60266142D01*
X156646125Y-61028142D02*
X157281125Y-60266142D01*
X156646125Y-61028142D02*
X157154125Y-60266142D01*
X156646125Y-61028142D02*
X157027125Y-60266142D01*
X156646125Y-61028142D02*
X156900125Y-60266142D01*
X156646125Y-61028142D02*
X156773125Y-60266142D01*
X156011125Y-60266142D02*
X157281125Y-60266142D01*
X158170125Y-59631142D02*
X158170125Y-54093942D01*
X158170125Y-54093942D02*
X157804365Y-54093942D01*
X155122125Y-54093942D02*
X155122125Y-59631142D01*
X155122125Y-59631142D02*
X155487885Y-59631142D01*
X157804365Y-59631142D02*
X158170125Y-59631142D01*
X155487885Y-54093942D02*
X155122125Y-54093942D01*
G04 #@! TO.C,D610*
X132370375Y-66433642D02*
X133640375Y-66433642D01*
X133386375Y-67068642D02*
X133386375Y-65798642D01*
X133386375Y-66433642D02*
X132624375Y-67068642D01*
X133386375Y-66433642D02*
X132624375Y-66941642D01*
X133386375Y-66433642D02*
X132624375Y-66814642D01*
X133386375Y-66433642D02*
X132624375Y-66687642D01*
X133386375Y-66433642D02*
X132624375Y-66560642D01*
X133386375Y-66433642D02*
X132624375Y-65798642D01*
X133386375Y-66433642D02*
X132624375Y-65925642D01*
X133386375Y-66433642D02*
X132624375Y-66052642D01*
X133386375Y-66433642D02*
X132624375Y-66179642D01*
X133386375Y-66433642D02*
X132624375Y-66306642D01*
X132624375Y-67068642D02*
X132624375Y-65798642D01*
X131989375Y-64909642D02*
X126452175Y-64909642D01*
X126452175Y-64909642D02*
X126452175Y-65275402D01*
X126452175Y-67957642D02*
X131989375Y-67957642D01*
X131989375Y-67957642D02*
X131989375Y-67591882D01*
X131989375Y-65275402D02*
X131989375Y-64909642D01*
X126452175Y-67591882D02*
X126452175Y-67957642D01*
G04 #@! TO.C,D611*
X148041476Y-66433642D02*
X149311476Y-66433642D01*
X149057476Y-67068642D02*
X149057476Y-65798642D01*
X149057476Y-66433642D02*
X148295476Y-67068642D01*
X149057476Y-66433642D02*
X148295476Y-66941642D01*
X149057476Y-66433642D02*
X148295476Y-66814642D01*
X149057476Y-66433642D02*
X148295476Y-66687642D01*
X149057476Y-66433642D02*
X148295476Y-66560642D01*
X149057476Y-66433642D02*
X148295476Y-65798642D01*
X149057476Y-66433642D02*
X148295476Y-65925642D01*
X149057476Y-66433642D02*
X148295476Y-66052642D01*
X149057476Y-66433642D02*
X148295476Y-66179642D01*
X149057476Y-66433642D02*
X148295476Y-66306642D01*
X148295476Y-67068642D02*
X148295476Y-65798642D01*
X147660476Y-64909642D02*
X142123276Y-64909642D01*
X142123276Y-64909642D02*
X142123276Y-65275402D01*
X142123276Y-67957642D02*
X147660476Y-67957642D01*
X147660476Y-67957642D02*
X147660476Y-67591882D01*
X147660476Y-65275402D02*
X147660476Y-64909642D01*
X142123276Y-67591882D02*
X142123276Y-67957642D01*
G04 #@! TO.C,D612*
X164228776Y-66433642D02*
X165498776Y-66433642D01*
X165244776Y-67068642D02*
X165244776Y-65798642D01*
X165244776Y-66433642D02*
X164482776Y-67068642D01*
X165244776Y-66433642D02*
X164482776Y-66941642D01*
X165244776Y-66433642D02*
X164482776Y-66814642D01*
X165244776Y-66433642D02*
X164482776Y-66687642D01*
X165244776Y-66433642D02*
X164482776Y-66560642D01*
X165244776Y-66433642D02*
X164482776Y-65798642D01*
X165244776Y-66433642D02*
X164482776Y-65925642D01*
X165244776Y-66433642D02*
X164482776Y-66052642D01*
X165244776Y-66433642D02*
X164482776Y-66179642D01*
X165244776Y-66433642D02*
X164482776Y-66306642D01*
X164482776Y-67068642D02*
X164482776Y-65798642D01*
X163847776Y-64909642D02*
X158310576Y-64909642D01*
X158310576Y-64909642D02*
X158310576Y-65275402D01*
X158310576Y-67957642D02*
X163847776Y-67957642D01*
X163847776Y-67957642D02*
X163847776Y-67591882D01*
X163847776Y-65275402D02*
X163847776Y-64909642D01*
X158310576Y-67591882D02*
X158310576Y-67957642D01*
G04 #@! TO.C,D613*
X172630775Y-60012142D02*
X172630775Y-61282142D01*
X171995775Y-61028142D02*
X173265775Y-61028142D01*
X172630775Y-61028142D02*
X171995775Y-60266142D01*
X172630775Y-61028142D02*
X172122775Y-60266142D01*
X172630775Y-61028142D02*
X172249775Y-60266142D01*
X172630775Y-61028142D02*
X172376775Y-60266142D01*
X172630775Y-61028142D02*
X172503775Y-60266142D01*
X172630775Y-61028142D02*
X173265775Y-60266142D01*
X172630775Y-61028142D02*
X173138775Y-60266142D01*
X172630775Y-61028142D02*
X173011775Y-60266142D01*
X172630775Y-61028142D02*
X172884775Y-60266142D01*
X172630775Y-61028142D02*
X172757775Y-60266142D01*
X171995775Y-60266142D02*
X173265775Y-60266142D01*
X174154775Y-59631142D02*
X174154775Y-54093942D01*
X174154775Y-54093942D02*
X173789015Y-54093942D01*
X171106775Y-54093942D02*
X171106775Y-59631142D01*
X171106775Y-59631142D02*
X171472535Y-59631142D01*
X173789015Y-59631142D02*
X174154775Y-59631142D01*
X171472535Y-54093942D02*
X171106775Y-54093942D01*
G04 #@! TO.C,D614*
X175791651Y-77558597D02*
X174521651Y-77558597D01*
X174775651Y-76923597D02*
X174775651Y-78193597D01*
X174775651Y-77558597D02*
X175537651Y-76923597D01*
X174775651Y-77558597D02*
X175537651Y-77050597D01*
X174775651Y-77558597D02*
X175537651Y-77177597D01*
X174775651Y-77558597D02*
X175537651Y-77304597D01*
X174775651Y-77558597D02*
X175537651Y-77431597D01*
X174775651Y-77558597D02*
X175537651Y-78193597D01*
X174775651Y-77558597D02*
X175537651Y-78066597D01*
X174775651Y-77558597D02*
X175537651Y-77939597D01*
X174775651Y-77558597D02*
X175537651Y-77812597D01*
X174775651Y-77558597D02*
X175537651Y-77685597D01*
X175537651Y-76923597D02*
X175537651Y-78193597D01*
X176172651Y-79082597D02*
X181709851Y-79082597D01*
X181709851Y-79082597D02*
X181709851Y-78716837D01*
X181709851Y-76034597D02*
X176172651Y-76034597D01*
X176172651Y-76034597D02*
X176172651Y-76400357D01*
X176172651Y-78716837D02*
X176172651Y-79082597D01*
X181709851Y-76400357D02*
X181709851Y-76034597D01*
G04 #@! TO.C,D615*
X175791651Y-93899847D02*
X174521651Y-93899847D01*
X174775651Y-93264847D02*
X174775651Y-94534847D01*
X174775651Y-93899847D02*
X175537651Y-93264847D01*
X174775651Y-93899847D02*
X175537651Y-93391847D01*
X174775651Y-93899847D02*
X175537651Y-93518847D01*
X174775651Y-93899847D02*
X175537651Y-93645847D01*
X174775651Y-93899847D02*
X175537651Y-93772847D01*
X174775651Y-93899847D02*
X175537651Y-94534847D01*
X174775651Y-93899847D02*
X175537651Y-94407847D01*
X174775651Y-93899847D02*
X175537651Y-94280847D01*
X174775651Y-93899847D02*
X175537651Y-94153847D01*
X174775651Y-93899847D02*
X175537651Y-94026847D01*
X175537651Y-93264847D02*
X175537651Y-94534847D01*
X176172651Y-95423847D02*
X181709851Y-95423847D01*
X181709851Y-95423847D02*
X181709851Y-95058087D01*
X181709851Y-92375847D02*
X176172651Y-92375847D01*
X176172651Y-92375847D02*
X176172651Y-92741607D01*
X176172651Y-95058087D02*
X176172651Y-95423847D01*
X181709851Y-92741607D02*
X181709851Y-92375847D01*
G04 #@! TO.C,D616*
X180258776Y-66433642D02*
X181528776Y-66433642D01*
X181274776Y-67068642D02*
X181274776Y-65798642D01*
X181274776Y-66433642D02*
X180512776Y-67068642D01*
X181274776Y-66433642D02*
X180512776Y-66941642D01*
X181274776Y-66433642D02*
X180512776Y-66814642D01*
X181274776Y-66433642D02*
X180512776Y-66687642D01*
X181274776Y-66433642D02*
X180512776Y-66560642D01*
X181274776Y-66433642D02*
X180512776Y-65798642D01*
X181274776Y-66433642D02*
X180512776Y-65925642D01*
X181274776Y-66433642D02*
X180512776Y-66052642D01*
X181274776Y-66433642D02*
X180512776Y-66179642D01*
X181274776Y-66433642D02*
X180512776Y-66306642D01*
X180512776Y-67068642D02*
X180512776Y-65798642D01*
X179877776Y-64909642D02*
X174340576Y-64909642D01*
X174340576Y-64909642D02*
X174340576Y-65275402D01*
X174340576Y-67957642D02*
X179877776Y-67957642D01*
X179877776Y-67957642D02*
X179877776Y-67591882D01*
X179877776Y-65275402D02*
X179877776Y-64909642D01*
X174340576Y-67591882D02*
X174340576Y-67957642D01*
G04 #@! TO.C,D617*
X169360775Y-85033242D02*
X169360775Y-86303242D01*
X168725775Y-86049242D02*
X169995775Y-86049242D01*
X169360775Y-86049242D02*
X168725775Y-85287242D01*
X169360775Y-86049242D02*
X168852775Y-85287242D01*
X169360775Y-86049242D02*
X168979775Y-85287242D01*
X169360775Y-86049242D02*
X169106775Y-85287242D01*
X169360775Y-86049242D02*
X169233775Y-85287242D01*
X169360775Y-86049242D02*
X169995775Y-85287242D01*
X169360775Y-86049242D02*
X169868775Y-85287242D01*
X169360775Y-86049242D02*
X169741775Y-85287242D01*
X169360775Y-86049242D02*
X169614775Y-85287242D01*
X169360775Y-86049242D02*
X169487775Y-85287242D01*
X168725775Y-85287242D02*
X169995775Y-85287242D01*
X170884775Y-84652242D02*
X170884775Y-79115042D01*
X170884775Y-79115042D02*
X170519015Y-79115042D01*
X167836775Y-79115042D02*
X167836775Y-84652242D01*
X167836775Y-84652242D02*
X168202535Y-84652242D01*
X170519015Y-84652242D02*
X170884775Y-84652242D01*
X168202535Y-79115042D02*
X167836775Y-79115042D01*
G04 #@! TO.C,D618*
X169350000Y-100709600D02*
X169350000Y-101979600D01*
X168715000Y-101725600D02*
X169985000Y-101725600D01*
X169350000Y-101725600D02*
X168715000Y-100963600D01*
X169350000Y-101725600D02*
X168842000Y-100963600D01*
X169350000Y-101725600D02*
X168969000Y-100963600D01*
X169350000Y-101725600D02*
X169096000Y-100963600D01*
X169350000Y-101725600D02*
X169223000Y-100963600D01*
X169350000Y-101725600D02*
X169985000Y-100963600D01*
X169350000Y-101725600D02*
X169858000Y-100963600D01*
X169350000Y-101725600D02*
X169731000Y-100963600D01*
X169350000Y-101725600D02*
X169604000Y-100963600D01*
X169350000Y-101725600D02*
X169477000Y-100963600D01*
X168715000Y-100963600D02*
X169985000Y-100963600D01*
X170874000Y-100328600D02*
X170874000Y-94791400D01*
X170874000Y-94791400D02*
X170508240Y-94791400D01*
X167826000Y-94791400D02*
X167826000Y-100328600D01*
X167826000Y-100328600D02*
X168191760Y-100328600D01*
X170508240Y-100328600D02*
X170874000Y-100328600D01*
X168191760Y-94791400D02*
X167826000Y-94791400D01*
D15*
G04 #@! TO.C,J201*
X159330775Y-95603642D02*
X156670775Y-95603642D01*
X159330775Y-103283642D02*
X159330775Y-95603642D01*
X156670775Y-103283642D02*
X156670775Y-95603642D01*
X159330775Y-103283642D02*
X156670775Y-103283642D01*
X159330775Y-104553642D02*
X159330775Y-105883642D01*
X159330775Y-105883642D02*
X158000775Y-105883642D01*
G04 #@! TO.C,L304*
X125241996Y-84273642D02*
X125567554Y-84273642D01*
X125241996Y-85293642D02*
X125567554Y-85293642D01*
G04 #@! TO.C,L401*
X108094882Y-118567275D02*
X108094882Y-118050119D01*
X109514882Y-118567275D02*
X109514882Y-118050119D01*
D14*
G04 #@! TO.C,L602*
X106011075Y-72933942D02*
X106011075Y-78293342D01*
X106011075Y-78293342D02*
X106389325Y-78293342D01*
X111370475Y-78293342D02*
X111370475Y-72933942D01*
X111370475Y-72933942D02*
X110992225Y-72933942D01*
X106389325Y-72933942D02*
X106011075Y-72933942D01*
X110992225Y-78293342D02*
X111370475Y-78293342D01*
X108766975Y-72298942D02*
G75*
G03X108766975Y-72298942I-76200J0D01*
G01*
G04 #@! TO.C,L603*
X117540475Y-54263942D02*
X112181075Y-54263942D01*
X112181075Y-54263942D02*
X112181075Y-54642192D01*
X112181075Y-59623342D02*
X117540475Y-59623342D01*
X117540475Y-59623342D02*
X117540475Y-59245092D01*
X117540475Y-54642192D02*
X117540475Y-54263942D01*
X112181075Y-59245092D02*
X112181075Y-59623342D01*
X118251675Y-56943642D02*
G75*
G03X118251675Y-56943642I-76200J0D01*
G01*
G04 #@! TO.C,L604*
X132140475Y-54263942D02*
X126781075Y-54263942D01*
X126781075Y-54263942D02*
X126781075Y-54642192D01*
X126781075Y-59623342D02*
X132140475Y-59623342D01*
X132140475Y-59623342D02*
X132140475Y-59245092D01*
X132140475Y-54642192D02*
X132140475Y-54263942D01*
X126781075Y-59245092D02*
X126781075Y-59623342D01*
X132851675Y-56943642D02*
G75*
G03X132851675Y-56943642I-76200J0D01*
G01*
G04 #@! TO.C,L605*
X147810475Y-54263942D02*
X142451075Y-54263942D01*
X142451075Y-54263942D02*
X142451075Y-54642192D01*
X142451075Y-59623342D02*
X147810475Y-59623342D01*
X147810475Y-59623342D02*
X147810475Y-59245092D01*
X147810475Y-54642192D02*
X147810475Y-54263942D01*
X142451075Y-59245092D02*
X142451075Y-59623342D01*
X148521675Y-56943642D02*
G75*
G03X148521675Y-56943642I-76200J0D01*
G01*
G04 #@! TO.C,L606*
X163830475Y-54263942D02*
X158471075Y-54263942D01*
X158471075Y-54263942D02*
X158471075Y-54642192D01*
X158471075Y-59623342D02*
X163830475Y-59623342D01*
X163830475Y-59623342D02*
X163830475Y-59245092D01*
X163830475Y-54642192D02*
X163830475Y-54263942D01*
X158471075Y-59245092D02*
X158471075Y-59623342D01*
X164541675Y-56943642D02*
G75*
G03X164541675Y-56943642I-76200J0D01*
G01*
G04 #@! TO.C,L607*
X179850475Y-54263942D02*
X174491075Y-54263942D01*
X174491075Y-54263942D02*
X174491075Y-54642192D01*
X174491075Y-59623342D02*
X179850475Y-59623342D01*
X179850475Y-59623342D02*
X179850475Y-59245092D01*
X179850475Y-54642192D02*
X179850475Y-54263942D01*
X174491075Y-59245092D02*
X174491075Y-59623342D01*
X180561675Y-56943642D02*
G75*
G03X180561675Y-56943642I-76200J0D01*
G01*
G04 #@! TO.C,L608*
X181539851Y-84720447D02*
X181539851Y-79361047D01*
X181539851Y-79361047D02*
X181161601Y-79361047D01*
X176180451Y-79361047D02*
X176180451Y-84720447D01*
X176180451Y-84720447D02*
X176558701Y-84720447D01*
X181161601Y-84720447D02*
X181539851Y-84720447D01*
X176558701Y-79361047D02*
X176180451Y-79361047D01*
X178936351Y-85355447D02*
G75*
G03X178936351Y-85355447I-76200J0D01*
G01*
G04 #@! TO.C,L609*
X181539851Y-101030447D02*
X181539851Y-95671047D01*
X181539851Y-95671047D02*
X181161601Y-95671047D01*
X176180451Y-95671047D02*
X176180451Y-101030447D01*
X176180451Y-101030447D02*
X176558701Y-101030447D01*
X181161601Y-101030447D02*
X181539851Y-101030447D01*
X176558701Y-95671047D02*
X176180451Y-95671047D01*
X178936351Y-101665447D02*
G75*
G03X178936351Y-101665447I-76200J0D01*
G01*
D15*
G04 #@! TO.C,R205*
X158327054Y-110343642D02*
X158001496Y-110343642D01*
X158327054Y-109323642D02*
X158001496Y-109323642D01*
G04 #@! TO.C,R211*
X158327054Y-113863642D02*
X158001496Y-113863642D01*
X158327054Y-112843642D02*
X158001496Y-112843642D01*
G04 #@! TO.C,R227*
X146014775Y-102468920D02*
X146014775Y-102143362D01*
X147034775Y-102468920D02*
X147034775Y-102143362D01*
G04 #@! TO.C,R306*
X126460775Y-104136421D02*
X126460775Y-103810863D01*
X127480775Y-104136421D02*
X127480775Y-103810863D01*
G04 #@! TO.C,R309*
X138514775Y-77622220D02*
X138514775Y-77105064D01*
X139934775Y-77622220D02*
X139934775Y-77105064D01*
G04 #@! TO.C,R310*
X136664775Y-77622220D02*
X136664775Y-77105064D01*
X138084775Y-77622220D02*
X138084775Y-77105064D01*
G04 #@! TO.C,R311*
X139984775Y-71810863D02*
X139984775Y-72136421D01*
X138964775Y-71810863D02*
X138964775Y-72136421D01*
G04 #@! TO.C,R312*
X138584775Y-71810863D02*
X138584775Y-72136421D01*
X137564775Y-71810863D02*
X137564775Y-72136421D01*
G04 #@! TO.C,R313*
X133084775Y-102673363D02*
X133084775Y-102998921D01*
X132064775Y-102673363D02*
X132064775Y-102998921D01*
G04 #@! TO.C,R314*
X144034775Y-75850863D02*
X144034775Y-76176421D01*
X143014775Y-75850863D02*
X143014775Y-76176421D01*
G04 #@! TO.C,R319*
X156494775Y-71980863D02*
X156494775Y-72306421D01*
X155474775Y-71980863D02*
X155474775Y-72306421D01*
G04 #@! TO.C,R320*
X155064775Y-71980863D02*
X155064775Y-72306421D01*
X154044775Y-71980863D02*
X154044775Y-72306421D01*
G04 #@! TO.C,R325*
X160544775Y-76090863D02*
X160544775Y-76416421D01*
X159524775Y-76090863D02*
X159524775Y-76416421D01*
G04 #@! TO.C,R326*
X124384775Y-81439720D02*
X124384775Y-80922564D01*
X125804775Y-81439720D02*
X125804775Y-80922564D01*
G04 #@! TO.C,R327*
X122534775Y-81439720D02*
X122534775Y-80922564D01*
X123954775Y-81439720D02*
X123954775Y-80922564D01*
G04 #@! TO.C,R328*
X126604775Y-75550863D02*
X126604775Y-75876421D01*
X125584775Y-75550863D02*
X125584775Y-75876421D01*
G04 #@! TO.C,R329*
X125214775Y-75550863D02*
X125214775Y-75876421D01*
X124194775Y-75550863D02*
X124194775Y-75876421D01*
G04 #@! TO.C,R331*
X130624775Y-79600863D02*
X130624775Y-79926421D01*
X129604775Y-79600863D02*
X129604775Y-79926421D01*
G04 #@! TO.C,R332*
X138260775Y-88980863D02*
X138260775Y-89306421D01*
X137240775Y-88980863D02*
X137240775Y-89306421D01*
G04 #@! TO.C,R333*
X127550775Y-115960863D02*
X127550775Y-116286421D01*
X126530775Y-115960863D02*
X126530775Y-116286421D01*
G04 #@! TO.C,R334*
X140543554Y-91943642D02*
X140217996Y-91943642D01*
X140543554Y-90923642D02*
X140217996Y-90923642D01*
G04 #@! TO.C,R335*
X137563554Y-91943642D02*
X137237996Y-91943642D01*
X137563554Y-90923642D02*
X137237996Y-90923642D01*
G04 #@! TO.C,R336*
X129373554Y-118913642D02*
X129047996Y-118913642D01*
X129373554Y-117893642D02*
X129047996Y-117893642D01*
G04 #@! TO.C,R337*
X126433554Y-118913642D02*
X126107996Y-118913642D01*
X126433554Y-117893642D02*
X126107996Y-117893642D01*
G04 #@! TO.C,R339*
X154614775Y-86320863D02*
X154614775Y-86646421D01*
X153594775Y-86320863D02*
X153594775Y-86646421D01*
G04 #@! TO.C,R340*
X156647554Y-89183642D02*
X156321996Y-89183642D01*
X156647554Y-88163642D02*
X156321996Y-88163642D01*
G04 #@! TO.C,R341*
X153507554Y-89183642D02*
X153181996Y-89183642D01*
X153507554Y-88163642D02*
X153181996Y-88163642D01*
G04 #@! TO.C,R402*
X117104882Y-123965918D02*
X117104882Y-124291476D01*
X116084882Y-123965918D02*
X116084882Y-124291476D01*
G04 #@! TO.C,R403*
X115744882Y-112981476D02*
X115744882Y-112655918D01*
X116764882Y-112981476D02*
X116764882Y-112655918D01*
G04 #@! TO.C,R405*
X113732103Y-111578697D02*
X114057661Y-111578697D01*
X113732103Y-112598697D02*
X114057661Y-112598697D01*
G04 #@! TO.C,R406*
X115299603Y-110138697D02*
X115625161Y-110138697D01*
X115299603Y-111158697D02*
X115625161Y-111158697D01*
G04 #@! TO.C,R502*
X161775494Y-120689493D02*
X162101052Y-120689493D01*
X161775494Y-121709493D02*
X162101052Y-121709493D01*
G04 #@! TO.C,R503*
X162101052Y-123149493D02*
X161775494Y-123149493D01*
X162101052Y-122129493D02*
X161775494Y-122129493D01*
G04 #@! TO.C,R504*
X167838273Y-126466714D02*
X167838273Y-126792272D01*
X166818273Y-126466714D02*
X166818273Y-126792272D01*
G04 #@! TO.C,R505*
X166190775Y-125590863D02*
X166190775Y-125916421D01*
X165170775Y-125590863D02*
X165170775Y-125916421D01*
G04 #@! TO.C,R506*
X169345494Y-125329493D02*
X169671052Y-125329493D01*
X169345494Y-126349493D02*
X169671052Y-126349493D01*
G04 #@! TO.C,R507*
X171900775Y-120790863D02*
X171900775Y-121116421D01*
X170880775Y-120790863D02*
X170880775Y-121116421D01*
G04 #@! TO.C,R508*
X172900000Y-124007221D02*
X172900000Y-124332779D01*
X171880000Y-124007221D02*
X171880000Y-124332779D01*
G04 #@! TO.C,R628*
X124001454Y-66173642D02*
X123484298Y-66173642D01*
X124001454Y-64753642D02*
X123484298Y-64753642D01*
G04 #@! TO.C,R629*
X139661454Y-66173642D02*
X139144298Y-66173642D01*
X139661454Y-64753642D02*
X139144298Y-64753642D01*
G04 #@! TO.C,R630*
X155406905Y-66173642D02*
X154889749Y-66173642D01*
X155406905Y-64753642D02*
X154889749Y-64753642D01*
G04 #@! TO.C,R646*
X171426905Y-66173642D02*
X170909749Y-66173642D01*
X171426905Y-64753642D02*
X170909749Y-64753642D01*
G04 #@! TO.C,R647*
X169630151Y-76206877D02*
X169630151Y-75689721D01*
X171050151Y-76206877D02*
X171050151Y-75689721D01*
G04 #@! TO.C,R648*
X169630151Y-92616877D02*
X169630151Y-92099721D01*
X171050151Y-92616877D02*
X171050151Y-92099721D01*
D17*
G04 #@! TO.C,TP301*
X150615000Y-88280000D02*
G75*
G03X150615000Y-88280000I-1585000J0D01*
G01*
G04 #@! TO.C,TP302*
X139075775Y-114293642D02*
G75*
G03X139075775Y-114293642I-1585000J0D01*
G01*
G04 #@! TO.C,TP303*
X164825775Y-87643642D02*
G75*
G03X164825775Y-87643642I-1585000J0D01*
G01*
G04 #@! TO.C,TP304*
X131995775Y-82833642D02*
G75*
G03X131995775Y-82833642I-1585000J0D01*
G01*
G04 #@! TO.C,TP401*
X110459882Y-113358697D02*
G75*
G03X110459882Y-113358697I-1585000J0D01*
G01*
G04 #@! TO.C,TP402*
X112329882Y-110568697D02*
G75*
G03X112329882Y-110568697I-1585000J0D01*
G01*
G04 #@! TO.C,TP501*
X168275775Y-106883642D02*
G75*
G03X168275775Y-106883642I-1585000J0D01*
G01*
G04 #@! TO.C,TP502*
X179039145Y-122948514D02*
G75*
G03X179039145Y-122948514I-1585000J0D01*
G01*
G04 #@! TO.C,TP601*
X126515000Y-72000000D02*
G75*
G03X126515000Y-72000000I-1585000J0D01*
G01*
D14*
G04 #@! TO.C,U201*
X147812975Y-113317442D02*
X148324335Y-113317442D01*
X155280575Y-113317442D02*
X155280575Y-112806082D01*
X155280575Y-105849842D02*
X154769215Y-105849842D01*
X147812975Y-105849842D02*
X147812975Y-106361202D01*
X147812975Y-112806082D02*
X147812975Y-113317442D01*
X154769215Y-113317442D02*
X155280575Y-113317442D01*
X155280575Y-106361202D02*
X155280575Y-105849842D01*
X148324335Y-105849842D02*
X147812975Y-105849842D01*
X146091376Y-111143141D02*
X146091376Y-111524141D01*
X146091376Y-111524141D02*
X146345376Y-111524141D01*
X146345376Y-111524141D02*
X146345376Y-111143141D01*
X146345376Y-111143141D02*
X146091376Y-111143141D01*
X152106276Y-114785041D02*
X152106276Y-115039041D01*
X152106276Y-115039041D02*
X152487276Y-115039041D01*
X152487276Y-115039041D02*
X152487276Y-114785041D01*
X152487276Y-114785041D02*
X152106276Y-114785041D01*
X157002174Y-109643141D02*
X157002174Y-110024142D01*
X157002174Y-110024142D02*
X156748174Y-110024142D01*
X156748174Y-110024142D02*
X156748174Y-109643141D01*
X156748174Y-109643141D02*
X157002174Y-109643141D01*
X152606275Y-104382243D02*
X152606275Y-104128243D01*
X152606275Y-104128243D02*
X152987275Y-104128243D01*
X152987275Y-104128243D02*
X152987275Y-104382243D01*
X152987275Y-104382243D02*
X152606275Y-104382243D01*
G04 #@! TO.C,U301*
X131329774Y-102543642D02*
X131554775Y-102543642D01*
X128804773Y-102543642D02*
X129029774Y-102543642D01*
X131054776Y-100243642D02*
X131554775Y-100243642D01*
X128804773Y-100243642D02*
X129029774Y-100243642D01*
G04 #@! TO.C,U302*
X142259774Y-75723642D02*
X142484775Y-75723642D01*
X139734773Y-75723642D02*
X139959774Y-75723642D01*
X141984776Y-73423642D02*
X142484775Y-73423642D01*
X139734773Y-73423642D02*
X139959774Y-73423642D01*
G04 #@! TO.C,U304*
X141900774Y-89583642D02*
X141900774Y-89083643D01*
X138800776Y-89583642D02*
X138800776Y-89083643D01*
X141600775Y-89583642D02*
X141900774Y-89583642D01*
X138800776Y-89583642D02*
X139100775Y-89583642D01*
X140275776Y-89583642D02*
X140425774Y-89583642D01*
X138175776Y-87408642D02*
G75*
G03X138175776Y-87408642I-125001J0D01*
G01*
G04 #@! TO.C,U305*
X131180774Y-116063642D02*
X131180774Y-115563643D01*
X128080776Y-116063642D02*
X128080776Y-115563643D01*
X130880775Y-116063642D02*
X131180774Y-116063642D01*
X128080776Y-116063642D02*
X128380775Y-116063642D01*
X129555776Y-116063642D02*
X129705774Y-116063642D01*
X127455776Y-113888642D02*
G75*
G03X127455776Y-113888642I-125001J0D01*
G01*
G04 #@! TO.C,U306*
X128879774Y-79463642D02*
X129104775Y-79463642D01*
X126354773Y-79463642D02*
X126579774Y-79463642D01*
X128604776Y-77163642D02*
X129104775Y-77163642D01*
X126354773Y-77163642D02*
X126579774Y-77163642D01*
G04 #@! TO.C,U307*
X158254774Y-86583642D02*
X158254774Y-86083643D01*
X155154776Y-86583642D02*
X155154776Y-86083643D01*
X157954775Y-86583642D02*
X158254774Y-86583642D01*
X155154776Y-86583642D02*
X155454775Y-86583642D01*
X156629776Y-86583642D02*
X156779774Y-86583642D01*
X154529776Y-84408642D02*
G75*
G03X154529776Y-84408642I-125001J0D01*
G01*
G04 #@! TO.C,U401*
X118051582Y-120317099D02*
X118051582Y-116300295D01*
X109898182Y-116300295D02*
X109898182Y-120317099D01*
X116060222Y-122367096D02*
X116441222Y-122367096D01*
X116441222Y-122367096D02*
X116441222Y-122113096D01*
X116441222Y-122113096D02*
X116060222Y-122113096D01*
X116060222Y-122113096D02*
X116060222Y-122367096D01*
X112809022Y-114250298D02*
X113190022Y-114250298D01*
X113190022Y-114250298D02*
X113190022Y-114504298D01*
X113190022Y-114504298D02*
X112809022Y-114504298D01*
X112809022Y-114504298D02*
X112809022Y-114250298D01*
G04 #@! TO.C,U501*
X165174673Y-123298393D02*
X165598133Y-123298393D01*
X169441873Y-123298393D02*
X169441873Y-122879632D01*
X169441873Y-118040593D02*
X169018413Y-118040593D01*
X165174673Y-118040593D02*
X165174673Y-118459354D01*
X165174673Y-122879632D02*
X165174673Y-123298393D01*
X169018413Y-123298393D02*
X169441873Y-123298393D01*
X169441873Y-118459354D02*
X169441873Y-118040593D01*
X165598133Y-118040593D02*
X165174673Y-118040593D01*
X166367772Y-123725392D02*
X166367772Y-123979392D01*
X166367772Y-123979392D02*
X166748772Y-123979392D01*
X166748772Y-123979392D02*
X166748772Y-123725392D01*
X166748772Y-123725392D02*
X166367772Y-123725392D01*
X170122872Y-119728992D02*
X170122872Y-120109992D01*
X170122872Y-120109992D02*
X169868872Y-120109992D01*
X169868872Y-120109992D02*
X169868872Y-119728992D01*
X169868872Y-119728992D02*
X170122872Y-119728992D01*
D15*
G04 #@! TO.C,C601*
X113178711Y-100703642D02*
X114382839Y-100703642D01*
X113178711Y-103423642D02*
X114382839Y-103423642D01*
G04 #@! TO.C,C602*
X113198711Y-83693642D02*
X114402839Y-83693642D01*
X113198711Y-86413642D02*
X114402839Y-86413642D01*
G04 #@! TO.C,C603*
X106880775Y-61441578D02*
X106880775Y-62645706D01*
X104160775Y-61441578D02*
X104160775Y-62645706D01*
G04 #@! TO.C,R610*
X117920775Y-98042963D02*
X117920775Y-98560119D01*
X116500775Y-98042963D02*
X116500775Y-98560119D01*
G04 #@! TO.C,R611*
X117920775Y-81122963D02*
X117920775Y-81640119D01*
X116500775Y-81122963D02*
X116500775Y-81640119D01*
G04 #@! TO.C,R612*
X109491454Y-66173642D02*
X108974298Y-66173642D01*
X109491454Y-64753642D02*
X108974298Y-64753642D01*
D14*
G04 #@! TO.C,L301*
X142200975Y-78147142D02*
X142200975Y-85640142D01*
X142200975Y-85640142D02*
X143100135Y-85640142D01*
X149160575Y-85640142D02*
X149160575Y-78147142D01*
X149160575Y-78147142D02*
X148261415Y-78147142D01*
X143100135Y-78147142D02*
X142200975Y-78147142D01*
X148261415Y-85640142D02*
X149160575Y-85640142D01*
D17*
G04 #@! TO.C,L303*
X164860775Y-83083642D02*
X159860775Y-83083642D01*
X159860775Y-78083642D02*
X164860775Y-78083642D01*
D14*
G04 #@! TO.C,L501*
X168518300Y-108500000D02*
G75*
G03X168518300Y-108500000I-76200J0D01*
G01*
X179783200Y-105919360D02*
X179783200Y-103216800D01*
X169216800Y-111080640D02*
X169216800Y-113783200D01*
X169216800Y-103216800D02*
X169216800Y-105919360D01*
X179783200Y-103216800D02*
X169216800Y-103216800D01*
X179783200Y-113783200D02*
X179783200Y-111080640D01*
X169216800Y-113783200D02*
X179783200Y-113783200D01*
D15*
G04 #@! TO.C,C310*
X137750775Y-84686421D02*
X137750775Y-84360863D01*
X138770775Y-84686421D02*
X138770775Y-84360863D01*
G04 #@! TO.C,C311*
X127960775Y-111266421D02*
X127960775Y-110940863D01*
X126940775Y-111266421D02*
X126940775Y-110940863D01*
G04 #@! TO.C,C318*
X154830775Y-82076421D02*
X154830775Y-81750863D01*
X153810775Y-82076421D02*
X153810775Y-81750863D01*
G04 #@! TO.C,C509*
X175110775Y-124592220D02*
X175110775Y-124075064D01*
X173690775Y-124592220D02*
X173690775Y-124075064D01*
G04 #@! TO.C,R301*
X129220775Y-105870863D02*
X129220775Y-106196421D01*
X128200775Y-105870863D02*
X128200775Y-106196421D01*
G04 #@! TO.C,R302*
X128200775Y-96866421D02*
X128200775Y-96540863D01*
X129220775Y-96866421D02*
X129220775Y-96540863D01*
G04 #@! TO.C,R303*
X139740775Y-80488363D02*
X139740775Y-80813921D01*
X138720775Y-80488363D02*
X138720775Y-80813921D01*
G04 #@! TO.C,R304*
X142390775Y-71496421D02*
X142390775Y-71170863D01*
X141370775Y-71496421D02*
X141370775Y-71170863D01*
G04 #@! TO.C,R308*
X126364775Y-97755064D02*
X126364775Y-98272220D01*
X127784775Y-97755064D02*
X127784775Y-98272220D01*
G04 #@! TO.C,R315*
X156390775Y-78980863D02*
X156390775Y-79306421D01*
X157410775Y-78980863D02*
X157410775Y-79306421D01*
G04 #@! TO.C,R316*
X157060775Y-70576421D02*
X157060775Y-70250863D01*
X158080775Y-70576421D02*
X158080775Y-70250863D01*
G04 #@! TO.C,R321*
X131140775Y-105596421D02*
X131140775Y-105270863D01*
X130120775Y-105596421D02*
X130120775Y-105270863D01*
G04 #@! TO.C,R322*
X140680775Y-78486421D02*
X140680775Y-78160863D01*
X141700775Y-78486421D02*
X141700775Y-78160863D01*
G04 #@! TO.C,R323*
X126180775Y-80990863D02*
X126180775Y-81316421D01*
X127200775Y-80990863D02*
X127200775Y-81316421D01*
G04 #@! TO.C,R324*
X127270775Y-74966421D02*
X127270775Y-74640863D01*
X128290775Y-74966421D02*
X128290775Y-74640863D01*
G04 #@! TO.C,R330*
X158990775Y-78016421D02*
X158990775Y-77690863D01*
X157970775Y-78016421D02*
X157970775Y-77690863D01*
G04 #@! TO.C,R338*
X127570775Y-82690863D02*
X127570775Y-83016421D01*
X128590775Y-82690863D02*
X128590775Y-83016421D01*
G04 #@! TO.C,R401*
X119160775Y-111346421D02*
X119160775Y-111020863D01*
X118140775Y-111346421D02*
X118140775Y-111020863D01*
G04 #@! TO.C,R404*
X107230775Y-115400863D02*
X107230775Y-115726421D01*
X106210775Y-115400863D02*
X106210775Y-115726421D01*
G04 #@! TO.C,R407*
X113600775Y-108898921D02*
X113600775Y-108573363D01*
X112580775Y-108898921D02*
X112580775Y-108573363D01*
G04 #@! TO.C,R501*
X162101052Y-118813642D02*
X161775494Y-118813642D01*
X162101052Y-117793642D02*
X161775494Y-117793642D01*
G04 #@! TO.C,R510*
X180290775Y-119150863D02*
X180290775Y-119476421D01*
X181310775Y-119150863D02*
X181310775Y-119476421D01*
G04 #@! TO.C,R601*
X104303554Y-89203642D02*
X103977996Y-89203642D01*
X104303554Y-90223642D02*
X103977996Y-90223642D01*
G04 #@! TO.C,R602*
X104203554Y-72783642D02*
X103877996Y-72783642D01*
X104203554Y-71763642D02*
X103877996Y-71763642D01*
G04 #@! TO.C,R603*
X119250775Y-54216421D02*
X119250775Y-53890863D01*
X118230775Y-54216421D02*
X118230775Y-53890863D01*
G04 #@! TO.C,R613*
X114840775Y-89433363D02*
X114840775Y-89758921D01*
X113820775Y-89433363D02*
X113820775Y-89758921D01*
G04 #@! TO.C,R615*
X114840775Y-72590863D02*
X114840775Y-72916421D01*
X113820775Y-72590863D02*
X113820775Y-72916421D01*
G04 #@! TO.C,R617*
X116500775Y-63416421D02*
X116500775Y-63090863D01*
X117520775Y-63416421D02*
X117520775Y-63090863D01*
G04 #@! TO.C,R619*
X133020775Y-54086421D02*
X133020775Y-53760863D01*
X134040775Y-54086421D02*
X134040775Y-53760863D01*
G04 #@! TO.C,R620*
X148270775Y-54406421D02*
X148270775Y-54080863D01*
X149290775Y-54406421D02*
X149290775Y-54080863D01*
G04 #@! TO.C,R621*
X165600775Y-53546421D02*
X165600775Y-53220863D01*
X164580775Y-53546421D02*
X164580775Y-53220863D01*
G04 #@! TO.C,R631*
X131080775Y-63458921D02*
X131080775Y-63133363D01*
X132100775Y-63458921D02*
X132100775Y-63133363D01*
G04 #@! TO.C,R635*
X163730775Y-63496421D02*
X163730775Y-63170863D01*
X162710775Y-63496421D02*
X162710775Y-63170863D01*
G04 #@! TO.C,R637*
X181410000Y-55662779D02*
X181410000Y-55337221D01*
X180390000Y-55662779D02*
X180390000Y-55337221D01*
G04 #@! TO.C,R638*
X183167996Y-84803642D02*
X183493554Y-84803642D01*
X183167996Y-83783642D02*
X183493554Y-83783642D01*
G04 #@! TO.C,R639*
X183107996Y-101073642D02*
X183433554Y-101073642D01*
X183107996Y-100053642D02*
X183433554Y-100053642D01*
G04 #@! TO.C,R649*
X179740775Y-63496421D02*
X179740775Y-63170863D01*
X178720775Y-63496421D02*
X178720775Y-63170863D01*
G04 #@! TO.C,R651*
X172327996Y-83493642D02*
X172653554Y-83493642D01*
X172327996Y-84513642D02*
X172653554Y-84513642D01*
G04 #@! TO.C,R653*
X172327996Y-100933642D02*
X172653554Y-100933642D01*
X172327996Y-99913642D02*
X172653554Y-99913642D01*
G04 #@! TO.C,U308*
D13*
X125967155Y-86763642D02*
X126205251Y-86763642D01*
X126110013Y-87001737D02*
X126205251Y-86763642D01*
X126110013Y-86525546D01*
X126395727Y-86906499D02*
X126205251Y-86763642D01*
X126395727Y-86620784D01*
G04 #@! TO.C,D501*
X173320653Y-119009493D02*
X173558749Y-119009493D01*
X173463511Y-119247588D02*
X173558749Y-119009493D01*
X173463511Y-118771397D01*
X173749225Y-119152350D02*
X173558749Y-119009493D01*
X173749225Y-118866635D01*
G04 #@! TO.C,U202*
X145104175Y-106097021D02*
X145104175Y-106335117D01*
X144866079Y-106239879D02*
X145104175Y-106335117D01*
X145342270Y-106239879D01*
X144961317Y-106525593D02*
X145104175Y-106335117D01*
X145247032Y-106525593D01*
X145104175Y-106097021D02*
X145104175Y-106335117D01*
X144866079Y-106239879D02*
X145104175Y-106335117D01*
X145342270Y-106239879D01*
X144961317Y-106525593D02*
X145104175Y-106335117D01*
X145247032Y-106525593D01*
G04 #@! TO.C,Q503*
X166650775Y-110476022D02*
X166650775Y-110714118D01*
X166412679Y-110618880D02*
X166650775Y-110714118D01*
X166888870Y-110618880D01*
X166507917Y-110904594D02*
X166650775Y-110714118D01*
X166793632Y-110904594D01*
G04 #@! TO.C,Q502*
X168280653Y-115699493D02*
X168518749Y-115699493D01*
X168423511Y-115937588D02*
X168518749Y-115699493D01*
X168423511Y-115461397D01*
X168709225Y-115842350D02*
X168518749Y-115699493D01*
X168709225Y-115556635D01*
G04 #@! TO.C,Q501*
X163830653Y-115689493D02*
X164068749Y-115689493D01*
X163973511Y-115927588D02*
X164068749Y-115689493D01*
X163973511Y-115451397D01*
X164259225Y-115832350D02*
X164068749Y-115689493D01*
X164259225Y-115546635D01*
G04 #@! TO.C,J101*
X104133155Y-96013642D02*
X104371251Y-96013642D01*
X104276013Y-96251737D02*
X104371251Y-96013642D01*
X104276013Y-95775546D01*
X104561727Y-96156499D02*
X104371251Y-96013642D01*
X104561727Y-95870784D01*
G04 #@! TO.C,J102*
X104123155Y-79648642D02*
X104361251Y-79648642D01*
X104266013Y-79886737D02*
X104361251Y-79648642D01*
X104266013Y-79410546D01*
X104551727Y-79791499D02*
X104361251Y-79648642D01*
X104551727Y-79505784D01*
G04 #@! TO.C,J103*
X112860775Y-52446022D02*
X112860775Y-52684118D01*
X112622679Y-52588880D02*
X112860775Y-52684118D01*
X113098870Y-52588880D01*
X112717917Y-52874594D02*
X112860775Y-52684118D01*
X113003632Y-52874594D01*
G04 #@! TO.C,J104*
X127525775Y-52436022D02*
X127525775Y-52674118D01*
X127287679Y-52578880D02*
X127525775Y-52674118D01*
X127763870Y-52578880D01*
X127382917Y-52864594D02*
X127525775Y-52674118D01*
X127668632Y-52864594D01*
G04 #@! TO.C,J105*
X143190775Y-52436022D02*
X143190775Y-52674118D01*
X142952679Y-52578880D02*
X143190775Y-52674118D01*
X143428870Y-52578880D01*
X143047917Y-52864594D02*
X143190775Y-52674118D01*
X143333632Y-52864594D01*
G04 #@! TO.C,J106*
X158307025Y-52436022D02*
X158307025Y-52674118D01*
X158068929Y-52578880D02*
X158307025Y-52674118D01*
X158545120Y-52578880D01*
X158164167Y-52864594D02*
X158307025Y-52674118D01*
X158449882Y-52864594D01*
G04 #@! TO.C,J107*
X173621675Y-52436022D02*
X173621675Y-52674118D01*
X173383579Y-52578880D02*
X173621675Y-52674118D01*
X173859770Y-52578880D01*
X173478817Y-52864594D02*
X173621675Y-52674118D01*
X173764532Y-52864594D01*
G04 #@! TO.C,J108*
X182302531Y-78419497D02*
X182540627Y-78419497D01*
X182445389Y-78657592D02*
X182540627Y-78419497D01*
X182445389Y-78181401D01*
X182731103Y-78562354D02*
X182540627Y-78419497D01*
X182731103Y-78276639D01*
G04 #@! TO.C,J109*
X182302531Y-94760747D02*
X182540627Y-94760747D01*
X182445389Y-94998842D02*
X182540627Y-94760747D01*
X182445389Y-94522651D01*
X182731103Y-94903604D02*
X182540627Y-94760747D01*
X182731103Y-94617889D01*
G04 #@! TO.C,J111*
X182323155Y-111033642D02*
X182561251Y-111033642D01*
X182466013Y-111271737D02*
X182561251Y-111033642D01*
X182466013Y-110795546D01*
X182751727Y-111176499D02*
X182561251Y-111033642D01*
X182751727Y-110890784D01*
G04 #@! TO.C,J112*
X104173155Y-113845742D02*
X104411251Y-113845742D01*
X104316013Y-114083837D02*
X104411251Y-113845742D01*
X104316013Y-113607646D01*
X104601727Y-113988599D02*
X104411251Y-113845742D01*
X104601727Y-113702884D01*
G04 #@! TO.C,U303*
X157107155Y-74803642D02*
X157345251Y-74803642D01*
X157250013Y-75041737D02*
X157345251Y-74803642D01*
X157250013Y-74565546D01*
X157535727Y-74946499D02*
X157345251Y-74803642D01*
X157535727Y-74660784D01*
G04 #@! TO.C,L302*
X134983155Y-108533642D02*
X135221251Y-108533642D01*
X135126013Y-108771737D02*
X135221251Y-108533642D01*
X135126013Y-108295546D01*
X135411727Y-108676499D02*
X135221251Y-108533642D01*
X135411727Y-108390784D01*
G04 #@! TO.C,D601*
X108609675Y-95936022D02*
X108609675Y-96174118D01*
X108371579Y-96078880D02*
X108609675Y-96174118D01*
X108847770Y-96078880D01*
X108466817Y-96364594D02*
X108609675Y-96174118D01*
X108752532Y-96364594D01*
G04 #@! TO.C,L601*
X108143155Y-92083642D02*
X108381251Y-92083642D01*
X108286013Y-92321737D02*
X108381251Y-92083642D01*
X108286013Y-91845546D01*
X108571727Y-92226499D02*
X108381251Y-92083642D01*
X108571727Y-91940784D01*
G04 #@! TO.C,U601*
X110360355Y-99707592D02*
X110598451Y-99707592D01*
X110503213Y-99945687D02*
X110598451Y-99707592D01*
X110503213Y-99469496D01*
X110788927Y-99850449D02*
X110598451Y-99707592D01*
X110788927Y-99564734D01*
X110360355Y-99707592D02*
X110598451Y-99707592D01*
X110503213Y-99945687D02*
X110598451Y-99707592D01*
X110503213Y-99469496D01*
X110788927Y-99850449D02*
X110598451Y-99707592D01*
X110788927Y-99564734D01*
G04 #@! TO.C,U602*
X110240241Y-82787592D02*
X110478337Y-82787592D01*
X110383099Y-83025687D02*
X110478337Y-82787592D01*
X110383099Y-82549496D01*
X110668813Y-82930449D02*
X110478337Y-82787592D01*
X110668813Y-82644734D01*
X110240241Y-82787592D02*
X110478337Y-82787592D01*
X110383099Y-83025687D02*
X110478337Y-82787592D01*
X110383099Y-82549496D01*
X110668813Y-82930449D02*
X110478337Y-82787592D01*
X110668813Y-82644734D01*
G04 #@! TO.C,U603*
X107826825Y-58493108D02*
X107826825Y-58731204D01*
X107588729Y-58635966D02*
X107826825Y-58731204D01*
X108064920Y-58635966D01*
X107683967Y-58921680D02*
X107826825Y-58731204D01*
X107969682Y-58921680D01*
X107826825Y-58493108D02*
X107826825Y-58731204D01*
X107588729Y-58635966D02*
X107826825Y-58731204D01*
X108064920Y-58635966D01*
X107683967Y-58921680D02*
X107826825Y-58731204D01*
X107969682Y-58921680D01*
G04 #@! TO.C,U604*
X122336825Y-58493222D02*
X122336825Y-58731318D01*
X122098729Y-58636080D02*
X122336825Y-58731318D01*
X122574920Y-58636080D01*
X122193967Y-58921794D02*
X122336825Y-58731318D01*
X122479682Y-58921794D01*
X122336825Y-58493222D02*
X122336825Y-58731318D01*
X122098729Y-58636080D02*
X122336825Y-58731318D01*
X122574920Y-58636080D01*
X122193967Y-58921794D02*
X122336825Y-58731318D01*
X122479682Y-58921794D01*
G04 #@! TO.C,U605*
X137996825Y-58493222D02*
X137996825Y-58731318D01*
X137758729Y-58636080D02*
X137996825Y-58731318D01*
X138234920Y-58636080D01*
X137853967Y-58921794D02*
X137996825Y-58731318D01*
X138139682Y-58921794D01*
X137996825Y-58493222D02*
X137996825Y-58731318D01*
X137758729Y-58636080D02*
X137996825Y-58731318D01*
X138234920Y-58636080D01*
X137853967Y-58921794D02*
X137996825Y-58731318D01*
X138139682Y-58921794D01*
G04 #@! TO.C,U606*
X153956825Y-58493222D02*
X153956825Y-58731318D01*
X153718729Y-58636080D02*
X153956825Y-58731318D01*
X154194920Y-58636080D01*
X153813967Y-58921794D02*
X153956825Y-58731318D01*
X154099682Y-58921794D01*
X153956825Y-58493222D02*
X153956825Y-58731318D01*
X153718729Y-58636080D02*
X153956825Y-58731318D01*
X154194920Y-58636080D01*
X153813967Y-58921794D02*
X153956825Y-58731318D01*
X154099682Y-58921794D01*
G04 #@! TO.C,U607*
X169976825Y-58493222D02*
X169976825Y-58731318D01*
X169738729Y-58636080D02*
X169976825Y-58731318D01*
X170214920Y-58636080D01*
X169833967Y-58921794D02*
X169976825Y-58731318D01*
X170119682Y-58921794D01*
X169976825Y-58493222D02*
X169976825Y-58731318D01*
X169738729Y-58636080D02*
X169976825Y-58731318D01*
X170214920Y-58636080D01*
X169833967Y-58921794D02*
X169976825Y-58731318D01*
X170119682Y-58921794D01*
G04 #@! TO.C,U608*
X176215331Y-74756797D02*
X176453427Y-74756797D01*
X176358189Y-74994892D02*
X176453427Y-74756797D01*
X176358189Y-74518701D01*
X176643903Y-74899654D02*
X176453427Y-74756797D01*
X176643903Y-74613939D01*
X176215331Y-74756797D02*
X176453427Y-74756797D01*
X176358189Y-74994892D02*
X176453427Y-74756797D01*
X176358189Y-74518701D01*
X176643903Y-74899654D02*
X176453427Y-74756797D01*
X176643903Y-74613939D01*
G04 #@! TO.C,U609*
X176215331Y-91166797D02*
X176453427Y-91166797D01*
X176358189Y-91404892D02*
X176453427Y-91166797D01*
X176358189Y-90928701D01*
X176643903Y-91309654D02*
X176453427Y-91166797D01*
X176643903Y-91023939D01*
X176215331Y-91166797D02*
X176453427Y-91166797D01*
X176358189Y-91404892D02*
X176453427Y-91166797D01*
X176358189Y-90928701D01*
X176643903Y-91309654D02*
X176453427Y-91166797D01*
X176643903Y-91023939D01*
G04 #@! TO.C,D602*
X108609675Y-79506022D02*
X108609675Y-79744118D01*
X108371579Y-79648880D02*
X108609675Y-79744118D01*
X108847770Y-79648880D01*
X108466817Y-79934594D02*
X108609675Y-79744118D01*
X108752532Y-79934594D01*
G04 #@! TO.C,D603*
X109833155Y-56862542D02*
X110071251Y-56862542D01*
X109976013Y-57100637D02*
X110071251Y-56862542D01*
X109976013Y-56624446D01*
X110261727Y-57005399D02*
X110071251Y-56862542D01*
X110261727Y-56719684D01*
G04 #@! TO.C,D604*
X116663155Y-92833335D02*
X116901251Y-92833335D01*
X116806013Y-93071430D02*
X116901251Y-92833335D01*
X116806013Y-92595239D01*
X117091727Y-92976192D02*
X116901251Y-92833335D01*
X117091727Y-92690477D01*
G04 #@! TO.C,D605*
X116663155Y-75852541D02*
X116901251Y-75852541D01*
X116806013Y-76090636D02*
X116901251Y-75852541D01*
X116806013Y-75614445D01*
X117091727Y-75995398D02*
X116901251Y-75852541D01*
X117091727Y-75709683D01*
G04 #@! TO.C,D606*
X114730775Y-65886022D02*
X114730775Y-66124118D01*
X114492679Y-66028880D02*
X114730775Y-66124118D01*
X114968870Y-66028880D01*
X114587917Y-66314594D02*
X114730775Y-66124118D01*
X114873632Y-66314594D01*
G04 #@! TO.C,D607*
X124483155Y-56862542D02*
X124721251Y-56862542D01*
X124626013Y-57100637D02*
X124721251Y-56862542D01*
X124626013Y-56624446D01*
X124911727Y-57005399D02*
X124721251Y-56862542D01*
X124911727Y-56719684D01*
G04 #@! TO.C,D608*
X140133155Y-56862542D02*
X140371251Y-56862542D01*
X140276013Y-57100637D02*
X140371251Y-56862542D01*
X140276013Y-56624446D01*
X140561727Y-57005399D02*
X140371251Y-56862542D01*
X140561727Y-56719684D01*
G04 #@! TO.C,D609*
X156098505Y-56862542D02*
X156336601Y-56862542D01*
X156241363Y-57100637D02*
X156336601Y-56862542D01*
X156241363Y-56624446D01*
X156527077Y-57005399D02*
X156336601Y-56862542D01*
X156527077Y-56719684D01*
G04 #@! TO.C,D610*
X129220775Y-65886022D02*
X129220775Y-66124118D01*
X128982679Y-66028880D02*
X129220775Y-66124118D01*
X129458870Y-66028880D01*
X129077917Y-66314594D02*
X129220775Y-66124118D01*
X129363632Y-66314594D01*
G04 #@! TO.C,D611*
X144891876Y-65886022D02*
X144891876Y-66124118D01*
X144653780Y-66028880D02*
X144891876Y-66124118D01*
X145129971Y-66028880D01*
X144749018Y-66314594D02*
X144891876Y-66124118D01*
X145034733Y-66314594D01*
G04 #@! TO.C,D612*
X161079176Y-65886022D02*
X161079176Y-66124118D01*
X160841080Y-66028880D02*
X161079176Y-66124118D01*
X161317271Y-66028880D01*
X160936318Y-66314594D02*
X161079176Y-66124118D01*
X161222033Y-66314594D01*
G04 #@! TO.C,D613*
X172083155Y-56862542D02*
X172321251Y-56862542D01*
X172226013Y-57100637D02*
X172321251Y-56862542D01*
X172226013Y-56624446D01*
X172511727Y-57005399D02*
X172321251Y-56862542D01*
X172511727Y-56719684D01*
G04 #@! TO.C,D614*
X178941251Y-77010977D02*
X178941251Y-77249073D01*
X178703155Y-77153835D02*
X178941251Y-77249073D01*
X179179346Y-77153835D01*
X178798393Y-77439549D02*
X178941251Y-77249073D01*
X179084108Y-77439549D01*
G04 #@! TO.C,D615*
X178941251Y-93352227D02*
X178941251Y-93590323D01*
X178703155Y-93495085D02*
X178941251Y-93590323D01*
X179179346Y-93495085D01*
X178798393Y-93780799D02*
X178941251Y-93590323D01*
X179084108Y-93780799D01*
G04 #@! TO.C,D616*
X177109176Y-65886022D02*
X177109176Y-66124118D01*
X176871080Y-66028880D02*
X177109176Y-66124118D01*
X177347271Y-66028880D01*
X176966318Y-66314594D02*
X177109176Y-66124118D01*
X177252033Y-66314594D01*
G04 #@! TO.C,D617*
X168813155Y-81883642D02*
X169051251Y-81883642D01*
X168956013Y-82121737D02*
X169051251Y-81883642D01*
X168956013Y-81645546D01*
X169241727Y-82026499D02*
X169051251Y-81883642D01*
X169241727Y-81740784D01*
G04 #@! TO.C,D618*
X168802380Y-97560000D02*
X169040476Y-97560000D01*
X168945238Y-97798095D02*
X169040476Y-97560000D01*
X168945238Y-97321904D01*
X169230952Y-97702857D02*
X169040476Y-97560000D01*
X169230952Y-97417142D01*
G04 #@! TO.C,L602*
X108143155Y-75613642D02*
X108381251Y-75613642D01*
X108286013Y-75851737D02*
X108381251Y-75613642D01*
X108286013Y-75375546D01*
X108571727Y-75756499D02*
X108381251Y-75613642D01*
X108571727Y-75470784D01*
G04 #@! TO.C,L603*
X114860775Y-56396022D02*
X114860775Y-56634118D01*
X114622679Y-56538880D02*
X114860775Y-56634118D01*
X115098870Y-56538880D01*
X114717917Y-56824594D02*
X114860775Y-56634118D01*
X115003632Y-56824594D01*
G04 #@! TO.C,L604*
X129460775Y-56396022D02*
X129460775Y-56634118D01*
X129222679Y-56538880D02*
X129460775Y-56634118D01*
X129698870Y-56538880D01*
X129317917Y-56824594D02*
X129460775Y-56634118D01*
X129603632Y-56824594D01*
G04 #@! TO.C,L605*
X145130775Y-56396022D02*
X145130775Y-56634118D01*
X144892679Y-56538880D02*
X145130775Y-56634118D01*
X145368870Y-56538880D01*
X144987917Y-56824594D02*
X145130775Y-56634118D01*
X145273632Y-56824594D01*
G04 #@! TO.C,L606*
X161150775Y-56396022D02*
X161150775Y-56634118D01*
X160912679Y-56538880D02*
X161150775Y-56634118D01*
X161388870Y-56538880D01*
X161007917Y-56824594D02*
X161150775Y-56634118D01*
X161293632Y-56824594D01*
G04 #@! TO.C,L607*
X177170775Y-56396022D02*
X177170775Y-56634118D01*
X176932679Y-56538880D02*
X177170775Y-56634118D01*
X177408870Y-56538880D01*
X177027917Y-56824594D02*
X177170775Y-56634118D01*
X177313632Y-56824594D01*
G04 #@! TO.C,L608*
X178312531Y-82040747D02*
X178550627Y-82040747D01*
X178455389Y-82278842D02*
X178550627Y-82040747D01*
X178455389Y-81802651D01*
X178741103Y-82183604D02*
X178550627Y-82040747D01*
X178741103Y-81897889D01*
G04 #@! TO.C,L609*
X178312531Y-98350747D02*
X178550627Y-98350747D01*
X178455389Y-98588842D02*
X178550627Y-98350747D01*
X178455389Y-98112651D01*
X178741103Y-98493604D02*
X178550627Y-98350747D01*
X178741103Y-98207889D01*
G04 #@! TO.C,U201*
X145964376Y-105655022D02*
X145964376Y-105893118D01*
X145726280Y-105797880D02*
X145964376Y-105893118D01*
X146202471Y-105797880D01*
X145821518Y-106083594D02*
X145964376Y-105893118D01*
X146107233Y-106083594D01*
X145964376Y-105655022D02*
X145964376Y-105893118D01*
X145726280Y-105797880D02*
X145964376Y-105893118D01*
X146202471Y-105797880D01*
X145821518Y-106083594D02*
X145964376Y-105893118D01*
X146107233Y-106083594D01*
G04 #@! TO.C,U301*
X129657155Y-101393642D02*
X129895251Y-101393642D01*
X129800013Y-101631737D02*
X129895251Y-101393642D01*
X129800013Y-101155546D01*
X130085727Y-101536499D02*
X129895251Y-101393642D01*
X130085727Y-101250784D01*
G04 #@! TO.C,U302*
X140587155Y-74573642D02*
X140825251Y-74573642D01*
X140730013Y-74811737D02*
X140825251Y-74573642D01*
X140730013Y-74335546D01*
X141015727Y-74716499D02*
X140825251Y-74573642D01*
X141015727Y-74430784D01*
G04 #@! TO.C,U304*
X140350775Y-87736022D02*
X140350775Y-87974118D01*
X140112679Y-87878880D02*
X140350775Y-87974118D01*
X140588870Y-87878880D01*
X140207917Y-88164594D02*
X140350775Y-87974118D01*
X140493632Y-88164594D01*
G04 #@! TO.C,U305*
X129630775Y-114216022D02*
X129630775Y-114454118D01*
X129392679Y-114358880D02*
X129630775Y-114454118D01*
X129868870Y-114358880D01*
X129487917Y-114644594D02*
X129630775Y-114454118D01*
X129773632Y-114644594D01*
G04 #@! TO.C,U306*
X127207155Y-78313642D02*
X127445251Y-78313642D01*
X127350013Y-78551737D02*
X127445251Y-78313642D01*
X127350013Y-78075546D01*
X127635727Y-78456499D02*
X127445251Y-78313642D01*
X127635727Y-78170784D01*
G04 #@! TO.C,U307*
X156704775Y-84736022D02*
X156704775Y-84974118D01*
X156466679Y-84878880D02*
X156704775Y-84974118D01*
X156942870Y-84878880D01*
X156561917Y-85164594D02*
X156704775Y-84974118D01*
X156847632Y-85164594D01*
G04 #@! TO.C,U401*
X108353142Y-121382097D02*
X108591238Y-121382097D01*
X108496000Y-121620192D02*
X108591238Y-121382097D01*
X108496000Y-121144001D01*
X108781714Y-121524954D02*
X108591238Y-121382097D01*
X108781714Y-121239239D01*
X108353142Y-121382097D02*
X108591238Y-121382097D01*
X108496000Y-121620192D02*
X108591238Y-121382097D01*
X108496000Y-121144001D01*
X108781714Y-121524954D02*
X108591238Y-121382097D01*
X108781714Y-121239239D01*
G04 #@! TO.C,U501*
X164366674Y-118121873D02*
X164366674Y-118359969D01*
X164128578Y-118264731D02*
X164366674Y-118359969D01*
X164604769Y-118264731D01*
X164223816Y-118550445D02*
X164366674Y-118359969D01*
X164509531Y-118550445D01*
X164366674Y-118121873D02*
X164366674Y-118359969D01*
X164128578Y-118264731D02*
X164366674Y-118359969D01*
X164604769Y-118264731D01*
X164223816Y-118550445D02*
X164366674Y-118359969D01*
X164509531Y-118550445D01*
G04 #@! TO.C,L301*
X145133155Y-81893642D02*
X145371251Y-81893642D01*
X145276013Y-82131737D02*
X145371251Y-81893642D01*
X145276013Y-81655546D01*
X145561727Y-82036499D02*
X145371251Y-81893642D01*
X145561727Y-81750784D01*
G04 #@! TO.C,L501*
X174500000Y-107952380D02*
X174500000Y-108190476D01*
X174261904Y-108095238D02*
X174500000Y-108190476D01*
X174738095Y-108095238D01*
X174357142Y-108380952D02*
X174500000Y-108190476D01*
X174642857Y-108380952D01*
G04 #@! TD*
M02*
