G04 #@! TF.GenerationSoftware,KiCad,Pcbnew,(5.0.1-3-g963ef8bb5)*
G04 #@! TF.CreationDate,2021-05-26T22:53:26+02:00*
G04 #@! TF.ProjectId,EPS_v3_NanoSatLab,4550535F76335F4E616E6F5361744C61,rev?*
G04 #@! TF.SameCoordinates,Original*
G04 #@! TF.FileFunction,Copper,L2,Bot,Signal*
G04 #@! TF.FilePolarity,Positive*
%FSLAX46Y46*%
G04 Gerber Fmt 4.6, Leading zero omitted, Abs format (unit mm)*
G04 Created by KiCad (PCBNEW (5.0.1-3-g963ef8bb5)) date 2021 May 26, Wednesday 22:53:26*
%MOMM*%
%LPD*%
G01*
G04 APERTURE LIST*
G04 #@! TA.AperFunction,ComponentPad*
%ADD10C,1.524000*%
G04 #@! TD*
G04 #@! TA.AperFunction,ComponentPad*
%ADD11C,6.200000*%
G04 #@! TD*
G04 #@! TA.AperFunction,ComponentPad*
%ADD12O,1.700000X1.700000*%
G04 #@! TD*
G04 #@! TA.AperFunction,ComponentPad*
%ADD13R,1.700000X1.700000*%
G04 #@! TD*
G04 #@! TA.AperFunction,ComponentPad*
%ADD14C,2.400000*%
G04 #@! TD*
G04 #@! TA.AperFunction,ViaPad*
%ADD15C,0.800000*%
G04 #@! TD*
G04 #@! TA.AperFunction,Conductor*
%ADD16C,0.750000*%
G04 #@! TD*
G04 #@! TA.AperFunction,Conductor*
%ADD17C,0.250000*%
G04 #@! TD*
G04 #@! TA.AperFunction,Conductor*
%ADD18C,0.500000*%
G04 #@! TD*
G04 #@! TA.AperFunction,Conductor*
%ADD19C,0.254000*%
G04 #@! TD*
G04 APERTURE END LIST*
D10*
G04 #@! TO.P,J110,P$104*
G04 #@! TO.N,Net-(J110-PadP$104)*
X111844775Y-137184842D03*
G04 #@! TO.P,J110,P$103*
G04 #@! TO.N,Net-(J110-PadP$103)*
X111844775Y-134644842D03*
G04 #@! TO.P,J110,P$102*
G04 #@! TO.N,Net-(J110-PadP$102)*
X114384775Y-137184842D03*
G04 #@! TO.P,J110,P$101*
G04 #@! TO.N,Net-(J110-PadP$101)*
X114384775Y-134644842D03*
G04 #@! TO.P,J110,P$100*
G04 #@! TO.N,Net-(J110-PadP$100)*
X116924775Y-137184842D03*
G04 #@! TO.P,J110,P$99*
G04 #@! TO.N,Net-(J110-PadP$99)*
X116924775Y-134644842D03*
G04 #@! TO.P,J110,P$98*
G04 #@! TO.N,Net-(J110-PadP$98)*
X119464775Y-137184842D03*
G04 #@! TO.P,J110,P$97*
G04 #@! TO.N,Net-(J110-PadP$97)*
X119464775Y-134644842D03*
G04 #@! TO.P,J110,P$96*
G04 #@! TO.N,Net-(J110-PadP$96)*
X122004775Y-137184842D03*
G04 #@! TO.P,J110,P$95*
G04 #@! TO.N,Net-(J110-PadP$95)*
X122004775Y-134644842D03*
G04 #@! TO.P,J110,P$94*
G04 #@! TO.N,Net-(J110-PadP$94)*
X124544775Y-137184842D03*
G04 #@! TO.P,J110,P$93*
G04 #@! TO.N,Net-(J110-PadP$93)*
X124544775Y-134644842D03*
G04 #@! TO.P,J110,P$92*
G04 #@! TO.N,Net-(J110-PadP$92)*
X127084775Y-137184842D03*
G04 #@! TO.P,J110,P$91*
G04 #@! TO.N,Net-(J110-PadP$91)*
X127084775Y-134644842D03*
G04 #@! TO.P,J110,P$90*
G04 #@! TO.N,Net-(J110-PadP$90)*
X129624775Y-137184842D03*
G04 #@! TO.P,J110,P$89*
G04 #@! TO.N,Net-(J110-PadP$89)*
X129624775Y-134644842D03*
G04 #@! TO.P,J110,P$88*
G04 #@! TO.N,Net-(J110-PadP$88)*
X132164775Y-137184842D03*
G04 #@! TO.P,J110,P$87*
G04 #@! TO.N,Net-(J110-PadP$87)*
X132164775Y-134644842D03*
G04 #@! TO.P,J110,P$86*
G04 #@! TO.N,Net-(J110-PadP$86)*
X134704775Y-137184842D03*
G04 #@! TO.P,J110,P$85*
G04 #@! TO.N,Net-(J110-PadP$85)*
X134704775Y-134644842D03*
G04 #@! TO.P,J110,P$84*
G04 #@! TO.N,Net-(J110-PadP$84)*
X137244775Y-137184842D03*
G04 #@! TO.P,J110,P$83*
G04 #@! TO.N,Net-(J110-PadP$83)*
X137244775Y-134644842D03*
G04 #@! TO.P,J110,P$82*
G04 #@! TO.N,Net-(J110-PadP$82)*
X139784775Y-137184842D03*
G04 #@! TO.P,J110,P$81*
G04 #@! TO.N,Net-(J110-PadP$81)*
X139784775Y-134644842D03*
G04 #@! TO.P,J110,P$80*
G04 #@! TO.N,Net-(J110-PadP$80)*
X142324775Y-137184842D03*
G04 #@! TO.P,J110,P$79*
G04 #@! TO.N,Net-(J110-PadP$79)*
X142324775Y-134644842D03*
G04 #@! TO.P,J110,P$78*
G04 #@! TO.N,Net-(J110-PadP$78)*
X144864775Y-137184842D03*
G04 #@! TO.P,J110,P$77*
G04 #@! TO.N,Net-(J110-PadP$77)*
X144864775Y-134644842D03*
G04 #@! TO.P,J110,P$76*
G04 #@! TO.N,Net-(J110-PadP$76)*
X147404775Y-137184842D03*
G04 #@! TO.P,J110,P$75*
G04 #@! TO.N,Net-(J110-PadP$75)*
X147404775Y-134644842D03*
G04 #@! TO.P,J110,P$74*
G04 #@! TO.N,Net-(J110-PadP$74)*
X149944775Y-137184842D03*
G04 #@! TO.P,J110,P$73*
G04 #@! TO.N,Net-(J110-PadP$73)*
X149944775Y-134644842D03*
G04 #@! TO.P,J110,P$72*
G04 #@! TO.N,Net-(J110-PadP$72)*
X152484775Y-137184842D03*
G04 #@! TO.P,J110,P$71*
G04 #@! TO.N,Net-(J110-PadP$71)*
X152484775Y-134644842D03*
G04 #@! TO.P,J110,P$70*
G04 #@! TO.N,Net-(J110-PadP$70)*
X155024775Y-137184842D03*
G04 #@! TO.P,J110,P$69*
G04 #@! TO.N,Net-(J110-PadP$69)*
X155024775Y-134644842D03*
G04 #@! TO.P,J110,P$68*
G04 #@! TO.N,Net-(J110-PadP$68)*
X157564775Y-137184842D03*
G04 #@! TO.P,J110,P$67*
G04 #@! TO.N,Net-(J110-PadP$67)*
X157564775Y-134644842D03*
G04 #@! TO.P,J110,P$66*
G04 #@! TO.N,Net-(J110-PadP$66)*
X160104775Y-137184842D03*
G04 #@! TO.P,J110,P$65*
G04 #@! TO.N,Net-(J110-PadP$65)*
X160104775Y-134644842D03*
G04 #@! TO.P,J110,P$64*
G04 #@! TO.N,Net-(J110-PadP$64)*
X162644775Y-137184842D03*
G04 #@! TO.P,J110,P$63*
G04 #@! TO.N,Net-(J110-PadP$63)*
X162644775Y-134644842D03*
G04 #@! TO.P,J110,P$62*
G04 #@! TO.N,Net-(J110-PadP$62)*
X165184775Y-137184842D03*
G04 #@! TO.P,J110,P$61*
G04 #@! TO.N,Net-(J110-PadP$61)*
X165184775Y-134644842D03*
G04 #@! TO.P,J110,P$60*
G04 #@! TO.N,Net-(J110-PadP$60)*
X167724775Y-137184842D03*
G04 #@! TO.P,J110,P$59*
G04 #@! TO.N,Net-(J110-PadP$59)*
X167724775Y-134644842D03*
G04 #@! TO.P,J110,P$58*
G04 #@! TO.N,Net-(J110-PadP$58)*
X170264775Y-137184842D03*
G04 #@! TO.P,J110,P$57*
G04 #@! TO.N,Net-(J110-PadP$57)*
X170264775Y-134644842D03*
G04 #@! TO.P,J110,P$56*
G04 #@! TO.N,Net-(J110-PadP$56)*
X172804775Y-137184842D03*
G04 #@! TO.P,J110,P$55*
G04 #@! TO.N,Net-(J110-PadP$55)*
X172804775Y-134644842D03*
G04 #@! TO.P,J110,P$54*
G04 #@! TO.N,Net-(J110-PadP$54)*
X175344775Y-137184842D03*
G04 #@! TO.P,J110,P$53*
G04 #@! TO.N,Net-(J110-PadP$53)*
X175344775Y-134644842D03*
G04 #@! TO.P,J110,P$52*
G04 #@! TO.N,Net-(J110-PadP$52)*
X111844775Y-132104842D03*
G04 #@! TO.P,J110,P$51*
G04 #@! TO.N,Net-(J110-PadP$51)*
X111844775Y-129564842D03*
G04 #@! TO.P,J110,P$50*
G04 #@! TO.N,Net-(J110-PadP$50)*
X114384775Y-132104842D03*
G04 #@! TO.P,J110,P$49*
G04 #@! TO.N,Net-(J110-PadP$49)*
X114384775Y-129564842D03*
G04 #@! TO.P,J110,P$48*
G04 #@! TO.N,Net-(J110-PadP$48)*
X116924775Y-132104842D03*
G04 #@! TO.P,J110,P$47*
G04 #@! TO.N,Net-(J110-PadP$47)*
X116924775Y-129564842D03*
G04 #@! TO.P,J110,P$46*
G04 #@! TO.N,Net-(J110-PadP$46)*
X119464775Y-132104842D03*
G04 #@! TO.P,J110,P$45*
G04 #@! TO.N,/12V_SC*
X119464775Y-129564842D03*
G04 #@! TO.P,J110,P$44*
G04 #@! TO.N,Net-(J110-PadP$44)*
X122004775Y-132104842D03*
G04 #@! TO.P,J110,P$43*
G04 #@! TO.N,VDD*
X122004775Y-129564842D03*
G04 #@! TO.P,J110,P$42*
G04 #@! TO.N,Net-(J110-PadP$42)*
X124544775Y-132104842D03*
G04 #@! TO.P,J110,P$41*
G04 #@! TO.N,/5V_BAT*
X124544775Y-129564842D03*
G04 #@! TO.P,J110,P$40*
G04 #@! TO.N,Net-(J110-PadP$40)*
X127084775Y-132104842D03*
G04 #@! TO.P,J110,P$39*
G04 #@! TO.N,/12V_BAT*
X127084775Y-129564842D03*
G04 #@! TO.P,J110,P$38*
G04 #@! TO.N,Net-(J110-PadP$38)*
X129624775Y-132104842D03*
G04 #@! TO.P,J110,P$37*
G04 #@! TO.N,Net-(J110-PadP$37)*
X129624775Y-129564842D03*
G04 #@! TO.P,J110,P$36*
G04 #@! TO.N,Net-(J110-PadP$36)*
X132164775Y-132104842D03*
G04 #@! TO.P,J110,P$35*
G04 #@! TO.N,Net-(J110-PadP$35)*
X132164775Y-129564842D03*
G04 #@! TO.P,J110,P$34*
G04 #@! TO.N,Net-(J110-PadP$34)*
X134704775Y-132104842D03*
G04 #@! TO.P,J110,P$33*
G04 #@! TO.N,Net-(J110-PadP$33)*
X134704775Y-129564842D03*
G04 #@! TO.P,J110,P$32*
G04 #@! TO.N,/I2C2_SDA*
X137244775Y-132104842D03*
G04 #@! TO.P,J110,P$31*
G04 #@! TO.N,/SPI1_MOSI*
X137244775Y-129564842D03*
G04 #@! TO.P,J110,P$30*
G04 #@! TO.N,/I2C2_SCL*
X139784775Y-132104842D03*
G04 #@! TO.P,J110,P$29*
G04 #@! TO.N,/SPI1_MISO*
X139784775Y-129564842D03*
G04 #@! TO.P,J110,P$28*
G04 #@! TO.N,Net-(J110-PadP$28)*
X142324775Y-132104842D03*
G04 #@! TO.P,J110,P$27*
G04 #@! TO.N,/SPI1_SCK*
X142324775Y-129564842D03*
G04 #@! TO.P,J110,P$26*
G04 #@! TO.N,/LPUART1_TX*
X144864775Y-132104842D03*
G04 #@! TO.P,J110,P$25*
G04 #@! TO.N,/SPI1_NSS*
X144864775Y-129564842D03*
G04 #@! TO.P,J110,P$24*
G04 #@! TO.N,/LPUART1_RX*
X147404775Y-132104842D03*
G04 #@! TO.P,J110,P$23*
G04 #@! TO.N,Net-(J110-PadP$23)*
X147404775Y-129564842D03*
G04 #@! TO.P,J110,P$22*
G04 #@! TO.N,Net-(J110-PadP$22)*
X149944775Y-132104842D03*
G04 #@! TO.P,J110,P$21*
G04 #@! TO.N,/SWCLK*
X149944775Y-129564842D03*
G04 #@! TO.P,J110,P$20*
G04 #@! TO.N,Net-(J110-PadP$20)*
X152484775Y-132104842D03*
G04 #@! TO.P,J110,P$19*
G04 #@! TO.N,/SWDIO*
X152484775Y-129564842D03*
G04 #@! TO.P,J110,P$18*
G04 #@! TO.N,Net-(J110-PadP$18)*
X155024775Y-132104842D03*
G04 #@! TO.P,J110,P$17*
G04 #@! TO.N,Net-(J110-PadP$17)*
X155024775Y-129564842D03*
G04 #@! TO.P,J110,P$16*
G04 #@! TO.N,Net-(J110-PadP$16)*
X157564775Y-132104842D03*
G04 #@! TO.P,J110,P$15*
G04 #@! TO.N,/NRST_MCU*
X157564775Y-129564842D03*
G04 #@! TO.P,J110,P$14*
G04 #@! TO.N,Net-(J110-PadP$14)*
X160104775Y-132104842D03*
G04 #@! TO.P,J110,P$13*
G04 #@! TO.N,Net-(J110-PadP$13)*
X160104775Y-129564842D03*
G04 #@! TO.P,J110,P$12*
G04 #@! TO.N,Net-(J110-PadP$12)*
X162644775Y-132104842D03*
G04 #@! TO.P,J110,P$11*
G04 #@! TO.N,/PV_BLOCKS*
X162644775Y-129564842D03*
G04 #@! TO.P,J110,P$10*
G04 #@! TO.N,Net-(J110-PadP$10)*
X165184775Y-132104842D03*
G04 #@! TO.P,J110,P$9*
G04 #@! TO.N,Net-(J110-PadP$9)*
X165184775Y-129564842D03*
G04 #@! TO.P,J110,P$8*
G04 #@! TO.N,Net-(J110-PadP$8)*
X167724775Y-132104842D03*
G04 #@! TO.P,J110,P$7*
G04 #@! TO.N,Net-(J110-PadP$7)*
X167724775Y-129564842D03*
G04 #@! TO.P,J110,P$6*
G04 #@! TO.N,Net-(J110-PadP$6)*
X170264775Y-132104842D03*
G04 #@! TO.P,J110,P$5*
G04 #@! TO.N,Net-(J110-PadP$5)*
X170264775Y-129564842D03*
G04 #@! TO.P,J110,P$4*
G04 #@! TO.N,Net-(J110-PadP$4)*
X172804775Y-132104842D03*
G04 #@! TO.P,J110,P$3*
G04 #@! TO.N,Net-(J110-PadP$3)*
X172804775Y-129564842D03*
G04 #@! TO.P,J110,P$2*
G04 #@! TO.N,Net-(J110-PadP$2)*
X175344775Y-132104842D03*
G04 #@! TO.P,J110,P$1*
G04 #@! TO.N,Net-(J110-PadP$1)*
X175344775Y-129564842D03*
D11*
G04 #@! TO.P,J110,MOUNT@4*
G04 #@! TO.N,N/C*
X106844775Y-137213642D03*
G04 #@! TO.P,J110,MOUNT@3*
X180544775Y-137213642D03*
G04 #@! TO.P,J110,MOUNT@1*
X184244775Y-51513642D03*
G04 #@! TO.P,J110,MOUNT@2*
X104244775Y-51513642D03*
G04 #@! TD*
D12*
G04 #@! TO.P,J201,4*
G04 #@! TO.N,/SWCLK*
X158000775Y-96933642D03*
G04 #@! TO.P,J201,3*
G04 #@! TO.N,/SWDIO*
X158000775Y-99473642D03*
G04 #@! TO.P,J201,2*
G04 #@! TO.N,GND*
X158000775Y-102013642D03*
D13*
G04 #@! TO.P,J201,1*
G04 #@! TO.N,VDD*
X158000775Y-104553642D03*
G04 #@! TD*
D14*
G04 #@! TO.P,TP301,1*
G04 #@! TO.N,Net-(C303-Pad1)*
X149030000Y-88280000D03*
G04 #@! TD*
G04 #@! TO.P,TP302,1*
G04 #@! TO.N,Net-(C304-Pad1)*
X137490775Y-114293642D03*
G04 #@! TD*
G04 #@! TO.P,TP303,1*
G04 #@! TO.N,Net-(C312-Pad1)*
X163240775Y-87643642D03*
G04 #@! TD*
G04 #@! TO.P,TP304,1*
G04 #@! TO.N,/EPS - Converters/VSW_3V3_BAT*
X130410775Y-82833642D03*
G04 #@! TD*
G04 #@! TO.P,TP401,1*
G04 #@! TO.N,/SC_MID*
X108874882Y-113358697D03*
G04 #@! TD*
G04 #@! TO.P,TP402,1*
G04 #@! TO.N,/SC_TOP*
X110744882Y-110568697D03*
G04 #@! TD*
G04 #@! TO.P,TP501,1*
G04 #@! TO.N,Net-(C502-Pad1)*
X166690775Y-106883642D03*
G04 #@! TD*
G04 #@! TO.P,TP502,1*
G04 #@! TO.N,Net-(R507-Pad1)*
X177454145Y-122948514D03*
G04 #@! TD*
G04 #@! TO.P,TP601,1*
G04 #@! TO.N,/PV_BLOCKS*
X124930000Y-72000000D03*
G04 #@! TD*
D15*
G04 #@! TO.N,VDD*
X133680775Y-76923642D03*
X156010775Y-102813642D03*
X157280775Y-108703642D03*
X157520775Y-114563642D03*
X150440775Y-98323642D03*
X148010775Y-102429641D03*
X151050775Y-108593642D03*
X143360775Y-105223642D03*
X145700775Y-98218642D03*
X147480775Y-93153642D03*
X132370775Y-85976644D03*
G04 #@! TO.N,Net-(C310-Pad1)*
X143020000Y-88430000D03*
X136790775Y-84483642D03*
G04 #@! TO.N,Net-(C311-Pad1)*
X132040000Y-114200000D03*
X125920775Y-111383642D03*
G04 #@! TO.N,Net-(C318-Pad1)*
X158530775Y-84973642D03*
X152870775Y-81703642D03*
G04 #@! TO.N,/5V_BAT*
X124544775Y-91003642D03*
G04 #@! TO.N,/12V_SC*
X125670775Y-126343642D03*
X131360775Y-124663642D03*
G04 #@! TO.N,/12V_BAT*
X128080775Y-94543642D03*
X158300775Y-93653642D03*
G04 #@! TO.N,Net-(C504-Pad1)*
X167308273Y-120669493D03*
X171728273Y-126129146D03*
G04 #@! TO.N,Net-(C507-Pad1)*
X172780000Y-115120000D03*
X169700000Y-117800000D03*
G04 #@! TO.N,/EPS - Batteries/INTVCC*
X167600000Y-116900000D03*
X164424152Y-120209594D03*
X175620000Y-121400000D03*
X167370000Y-124390000D03*
X171121171Y-123018829D03*
G04 #@! TO.N,Net-(C601-Pad1)*
X114930775Y-95663642D03*
X112608777Y-104593642D03*
G04 #@! TO.N,Net-(C602-Pad1)*
X114910775Y-78853642D03*
X112390775Y-87503642D03*
G04 #@! TO.N,Net-(C603-Pad1)*
X111860775Y-63183642D03*
X102730775Y-60653642D03*
G04 #@! TO.N,Net-(C607-Pad1)*
X111410775Y-89093642D03*
X110314275Y-97843642D03*
G04 #@! TO.N,Net-(C608-Pad1)*
X111370775Y-72463642D03*
X110314275Y-81373642D03*
G04 #@! TO.N,Net-(C609-Pad1)*
X117706223Y-59461279D03*
X109020775Y-58903642D03*
G04 #@! TO.N,Net-(C610-Pad1)*
X126400775Y-63133642D03*
X118770775Y-58773642D03*
G04 #@! TO.N,Net-(C611-Pad1)*
X141900775Y-63163642D03*
X134820775Y-58983642D03*
G04 #@! TO.N,Net-(C612-Pad1)*
X157770775Y-63153642D03*
X150530775Y-58753642D03*
G04 #@! TO.N,Net-(C616-Pad1)*
X132270775Y-59543642D03*
X123630775Y-58567142D03*
G04 #@! TO.N,Net-(C617-Pad1)*
X147829774Y-59519435D03*
X139340775Y-58903642D03*
G04 #@! TO.N,Net-(C618-Pad1)*
X163923132Y-59495891D03*
X155200775Y-58903642D03*
G04 #@! TO.N,Net-(C619-Pad1)*
X174070775Y-63153642D03*
X166730775Y-58553642D03*
G04 #@! TO.N,Net-(C620-Pad1)*
X172580775Y-78563642D03*
X175030775Y-69903642D03*
G04 #@! TO.N,Net-(C621-Pad1)*
X172580775Y-95223642D03*
X175140775Y-86533642D03*
G04 #@! TO.N,Net-(C625-Pad1)*
X180310775Y-59603642D03*
X171230775Y-58903642D03*
G04 #@! TO.N,Net-(C626-Pad1)*
X176444448Y-85020160D03*
X176900151Y-76153642D03*
G04 #@! TO.N,Net-(C627-Pad1)*
X176569912Y-101425161D03*
X176900151Y-92573642D03*
G04 #@! TO.N,Net-(D601-Pad2)*
X111500775Y-94693642D03*
X113720775Y-102223642D03*
G04 #@! TO.N,Net-(D602-Pad2)*
X111420775Y-77893642D03*
X113810775Y-85113642D03*
G04 #@! TO.N,Net-(D603-Pad2)*
X112680775Y-59673642D03*
X105420775Y-62053642D03*
G04 #@! TO.N,Net-(D607-Pad2)*
X127290775Y-59643642D03*
X120150775Y-61983642D03*
G04 #@! TO.N,Net-(D608-Pad2)*
X142810775Y-59603642D03*
X135550775Y-62023642D03*
G04 #@! TO.N,Net-(D609-Pad2)*
X158670775Y-59483642D03*
X151460775Y-62043642D03*
G04 #@! TO.N,Net-(D613-Pad2)*
X174890775Y-59703642D03*
X167620775Y-62073642D03*
G04 #@! TO.N,Net-(D614-Pad2)*
X176150775Y-79113642D03*
X173730775Y-72493642D03*
G04 #@! TO.N,Net-(D615-Pad2)*
X176110775Y-95983642D03*
X173800775Y-88913642D03*
G04 #@! TO.N,/PV_BLOCKS*
X158160775Y-79943642D03*
X165910775Y-76663642D03*
X140630775Y-80543642D03*
X126700775Y-82993642D03*
X128900775Y-108643642D03*
X159980775Y-118233642D03*
X126700775Y-93513642D03*
G04 #@! TO.N,/NRST_MCU*
X155470775Y-126023642D03*
X149690775Y-111043642D03*
G04 #@! TO.N,/SWCLK*
X152500775Y-120743642D03*
X151050775Y-111903642D03*
X152960775Y-109033642D03*
X156350775Y-98533642D03*
G04 #@! TO.N,/SPI1_SCK*
X141710775Y-106583642D03*
X154570775Y-97493642D03*
G04 #@! TO.N,/SPI1_MISO*
X147990775Y-100031131D03*
X152790775Y-100838642D03*
G04 #@! TO.N,/I2C2_SCL*
X158900775Y-115203642D03*
G04 #@! TO.N,/I2C2_SDA*
X154020775Y-126003642D03*
X161360775Y-116153642D03*
X159685775Y-110593642D03*
G04 #@! TO.N,/EPS - Batteries/V_BAT*
X181120775Y-106373642D03*
X158960775Y-69703642D03*
X144900000Y-71130000D03*
X129990000Y-74240000D03*
G04 #@! TO.N,/SC_MID*
X111470775Y-113273642D03*
X113770775Y-113403642D03*
G04 #@! TO.N,/EPS - Converters/SW_5V_BAT_uC*
X142940775Y-114043642D03*
X147180775Y-74323642D03*
G04 #@! TO.N,/EPS - Converters/SW_12V_SC_uC*
X146440775Y-116793642D03*
X135170775Y-102713642D03*
X137020775Y-108513642D03*
X133830775Y-108533642D03*
G04 #@! TO.N,/EPS - MCU/\002APFO_SC*
X147530775Y-119763642D03*
X131890775Y-126873642D03*
G04 #@! TO.N,/EPS - Batteries/BAT_CHG_STAT1*
X153454627Y-118140180D03*
X156890775Y-121393642D03*
X158730775Y-123163642D03*
X163620000Y-126980000D03*
G04 #@! TO.N,/EPS - Converters/SW_12V_BAT_uC*
X143850775Y-109723642D03*
X165910776Y-83893642D03*
G04 #@! TO.N,/EPS - Converters/SW_3V3_BAT_uC*
X134570775Y-86103642D03*
X134230775Y-89063642D03*
X132700775Y-93428642D03*
X139165775Y-101353642D03*
X142650775Y-108963642D03*
X134130775Y-81703642D03*
G04 #@! TO.N,/EPS - MCU/PGOOD_SC*
X146080775Y-118643642D03*
X116800775Y-118263642D03*
G04 #@! TO.N,/EPS - Batteries/BAT_CHG_ISMON*
X150980775Y-118653642D03*
X161129566Y-125684966D03*
X157860775Y-126343642D03*
X154745775Y-123913642D03*
G04 #@! TO.N,/EPS - Batteries/BAT_CHG_STAT0*
X163660775Y-125603642D03*
X158767981Y-124959966D03*
X156140775Y-122323642D03*
X153225775Y-119113642D03*
G04 #@! TO.N,Net-(R334-Pad2)*
X138600775Y-86433642D03*
X138900775Y-91433642D03*
G04 #@! TO.N,Net-(R336-Pad2)*
X127710775Y-113003642D03*
X127770775Y-118403642D03*
G04 #@! TO.N,Net-(R340-Pad2)*
X155120775Y-83843642D03*
X154940775Y-88673642D03*
G04 #@! TO.N,GND*
X123400000Y-90300000D03*
X100920775Y-121263642D03*
X102920775Y-123263642D03*
X104920775Y-123263642D03*
X100920775Y-123263642D03*
X102920775Y-121263642D03*
X104920775Y-121263642D03*
X100920775Y-85603642D03*
X102920775Y-87603642D03*
X104920775Y-87603642D03*
X100920775Y-87603642D03*
X102920775Y-85603642D03*
X104920775Y-85603642D03*
X182660775Y-86983642D03*
X184660775Y-88983642D03*
X186660775Y-88983642D03*
X182660775Y-88983642D03*
X184660775Y-86983642D03*
X186660775Y-86983642D03*
X182430775Y-103553642D03*
X184430775Y-105553642D03*
X186430775Y-105553642D03*
X182430775Y-105553642D03*
X184430775Y-103553642D03*
X186430775Y-103553642D03*
X146270775Y-113573642D03*
X145940775Y-120863642D03*
X166300000Y-117000000D03*
X186010775Y-57983642D03*
X179070775Y-87223642D03*
X172260775Y-86383642D03*
X172485680Y-81071918D03*
X175490775Y-76413642D03*
X175220775Y-92733642D03*
X172537750Y-96933642D03*
X131600775Y-89073642D03*
X116700000Y-107900000D03*
X117060775Y-102213642D03*
X112340775Y-97763642D03*
X114990000Y-87250000D03*
X115320775Y-93883642D03*
X110470775Y-86513642D03*
X112470933Y-81231591D03*
X113470000Y-69520000D03*
X115290775Y-76963642D03*
X114370775Y-63303642D03*
X120980775Y-65303642D03*
X123940775Y-60603642D03*
X109382878Y-60483642D03*
X128430410Y-63266043D03*
X136480775Y-65313642D03*
X139600775Y-60633642D03*
X144352741Y-63277296D03*
X122300000Y-83500000D03*
X155512878Y-60553642D03*
X160266956Y-63309177D03*
X171600775Y-60523642D03*
X176350775Y-63313642D03*
X149170775Y-72303642D03*
X136450000Y-72920000D03*
X162920775Y-74593642D03*
X169290000Y-124090000D03*
X156830775Y-87293642D03*
X123300000Y-113300000D03*
X135360775Y-126173642D03*
X140460775Y-98873642D03*
X145530775Y-105953642D03*
X147960775Y-104103642D03*
X149540775Y-102273642D03*
X129620775Y-116843642D03*
X126430775Y-112863642D03*
X110940775Y-118293642D03*
X164660775Y-127643642D03*
X161380775Y-123873642D03*
X159890775Y-121383642D03*
X154230775Y-110053642D03*
X109210775Y-126343642D03*
X127950775Y-122953642D03*
X136370775Y-99383642D03*
X126840775Y-107973642D03*
X140350775Y-90023642D03*
X142290775Y-100173642D03*
X162910775Y-77583642D03*
X123280000Y-77920000D03*
X133030775Y-83833642D03*
X135560000Y-87160000D03*
X137340775Y-81813642D03*
X135370775Y-118453642D03*
X147380775Y-123133642D03*
X115010775Y-126083642D03*
X138870775Y-123773642D03*
X123320775Y-127873642D03*
X164250775Y-99423642D03*
X164250775Y-102283642D03*
X164250775Y-95873642D03*
X164330775Y-92013642D03*
X175430775Y-112943642D03*
X172520000Y-112100000D03*
X174390775Y-109133642D03*
X174390775Y-105273642D03*
X171200000Y-103700000D03*
X167700000Y-103700000D03*
X185340775Y-123663642D03*
X186010775Y-59983642D03*
X186010775Y-61983642D03*
X186010775Y-63983642D03*
X186010775Y-65983642D03*
X184010775Y-57983642D03*
X184010775Y-59983642D03*
X184010775Y-61983642D03*
X184010775Y-63983642D03*
X184010775Y-65983642D03*
X183340775Y-123663642D03*
X181340775Y-123663642D03*
X181340775Y-125663642D03*
X181340775Y-127663642D03*
X181340775Y-129663642D03*
X185340775Y-121663642D03*
X185340775Y-119663642D03*
X183340775Y-119663642D03*
X183340775Y-121663642D03*
X101120775Y-65503642D03*
X101120775Y-67503642D03*
X101120775Y-69503642D03*
X101620775Y-65503642D03*
X101620775Y-67503642D03*
X103120775Y-69503642D03*
X103620775Y-65503642D03*
X103620775Y-67503642D03*
X105120775Y-69503642D03*
X100920775Y-102573642D03*
X100920775Y-104573642D03*
X102920775Y-102573642D03*
X102920775Y-104573642D03*
X104920775Y-102573642D03*
X104920775Y-104573642D03*
X145210775Y-55553642D03*
X129330775Y-54973642D03*
X114900775Y-55983642D03*
X161080775Y-56063642D03*
X107200775Y-75523642D03*
X107350775Y-92043642D03*
X179900775Y-82013642D03*
X179830775Y-98363642D03*
X177170775Y-56053642D03*
X140985774Y-103980861D03*
X127740775Y-101603642D03*
X171300000Y-70700000D03*
G04 #@! TD*
D16*
G04 #@! TO.N,VDD*
X122004775Y-85416640D02*
X130497773Y-76923642D01*
X122004775Y-129564842D02*
X122004775Y-85416640D01*
X130497773Y-76923642D02*
X133680775Y-76923642D01*
D17*
X157750775Y-104553642D02*
X158000775Y-104553642D01*
X156010775Y-102813642D02*
X157750775Y-104553642D01*
X158000775Y-107983642D02*
X157280775Y-108703642D01*
X158000775Y-104553642D02*
X158000775Y-107983642D01*
X157280775Y-114323642D02*
X157520775Y-114563642D01*
X157280775Y-108703642D02*
X157280775Y-114323642D01*
X147265774Y-99683130D02*
X147265774Y-101684640D01*
X148625262Y-98323642D02*
X147265774Y-99683130D01*
X150440775Y-98323642D02*
X148625262Y-98323642D01*
X147265774Y-101684640D02*
X148010775Y-102429641D01*
X157020775Y-114563642D02*
X157520775Y-114563642D01*
X151050775Y-108593642D02*
X157020775Y-114563642D01*
X146154776Y-102429641D02*
X148010775Y-102429641D01*
X143360775Y-105223642D02*
X146154776Y-102429641D01*
X143360775Y-100558642D02*
X145700775Y-98218642D01*
X143360775Y-105223642D02*
X143360775Y-100558642D01*
X139547773Y-93153642D02*
X132370775Y-85976644D01*
X147480775Y-93153642D02*
X139547773Y-93153642D01*
X132370775Y-85976644D02*
X132280775Y-85886644D01*
G04 #@! TO.N,Net-(C310-Pad1)*
X143020000Y-87830000D02*
X143020000Y-88430000D01*
X141098644Y-85908644D02*
X143020000Y-87830000D01*
X140775777Y-85908644D02*
X141098644Y-85908644D01*
X139310775Y-84443642D02*
X140775777Y-85908644D01*
X136830775Y-84443642D02*
X139310775Y-84443642D01*
X136790775Y-84483642D02*
X136830775Y-84443642D01*
G04 #@! TO.N,Net-(C311-Pad1)*
X125930775Y-111393642D02*
X125920775Y-111383642D01*
X130320775Y-112753642D02*
X128960775Y-111393642D01*
X130330775Y-112753642D02*
X130320775Y-112753642D01*
X128960775Y-111393642D02*
X125930775Y-111393642D01*
X130690775Y-113113642D02*
X130330775Y-112753642D01*
X131519327Y-113113642D02*
X130690775Y-113113642D01*
X132040000Y-113634315D02*
X131519327Y-113113642D01*
X132040000Y-114200000D02*
X132040000Y-113634315D01*
G04 #@! TO.N,Net-(C318-Pad1)*
X158530775Y-84973642D02*
X157151775Y-83594642D01*
X157151775Y-83594642D02*
X157151775Y-83564642D01*
X157151775Y-83564642D02*
X155283095Y-81695962D01*
X153523095Y-81703642D02*
X152870775Y-81703642D01*
X153530775Y-81695962D02*
X153523095Y-81703642D01*
X155283095Y-81695962D02*
X153530775Y-81695962D01*
X153530775Y-81695962D02*
X153336394Y-81695962D01*
D16*
G04 #@! TO.N,/5V_BAT*
X124544775Y-129564842D02*
X124544775Y-91003642D01*
G04 #@! TO.N,/12V_SC*
X129680775Y-126343642D02*
X131360775Y-124663642D01*
X125670775Y-126343642D02*
X129680775Y-126343642D01*
G04 #@! TO.N,/12V_BAT*
X130310775Y-94543642D02*
X128080775Y-94543642D01*
X131700775Y-95853642D02*
X131660775Y-95893642D01*
X156100775Y-95853642D02*
X131700775Y-95853642D01*
X158300775Y-93653642D02*
X156100775Y-95853642D01*
X131660775Y-95893642D02*
X130310775Y-94543642D01*
D17*
G04 #@! TO.N,Net-(C504-Pad1)*
X165737473Y-120669493D02*
X165530775Y-120876191D01*
X167308273Y-120669493D02*
X165737473Y-120669493D01*
X167692774Y-127928643D02*
X169928776Y-127928643D01*
X165737473Y-125973342D02*
X167692774Y-127928643D01*
X169928776Y-127928643D02*
X171728273Y-126129146D01*
X165737473Y-120669493D02*
X165737473Y-125973342D01*
D18*
G04 #@! TO.N,Net-(C507-Pad1)*
X170100000Y-117800000D02*
X172780000Y-115120000D01*
X169700000Y-117800000D02*
X170100000Y-117800000D01*
D17*
G04 #@! TO.N,/EPS - Batteries/INTVCC*
X164824151Y-119809595D02*
X167586728Y-119809595D01*
X164424152Y-120209594D02*
X164824151Y-119809595D01*
X167586728Y-119809595D02*
X167560775Y-119783642D01*
X167586728Y-119809595D02*
X167870775Y-119525548D01*
X167870775Y-119525548D02*
X170640775Y-119525548D01*
X170640775Y-119525548D02*
X173002681Y-119525548D01*
X173379999Y-119902866D02*
X173357133Y-119880000D01*
X173002681Y-119525548D02*
X173357133Y-119880000D01*
X174877133Y-121400000D02*
X173002681Y-119525548D01*
X175620000Y-121400000D02*
X174877133Y-121400000D01*
X175220001Y-121799999D02*
X175620000Y-121400000D01*
X173601172Y-123418828D02*
X175220001Y-121799999D01*
X171521170Y-123418828D02*
X173601172Y-123418828D01*
X171121171Y-123018829D02*
X171521170Y-123418828D01*
X167370000Y-124390000D02*
X167370000Y-123370000D01*
X167721171Y-123018829D02*
X171121171Y-123018829D01*
X167370000Y-123370000D02*
X167721171Y-123018829D01*
X167600000Y-119254773D02*
X167600000Y-116900000D01*
X167870775Y-119525548D02*
X167600000Y-119254773D01*
D18*
G04 #@! TO.N,Net-(C601-Pad1)*
X114930775Y-102271644D02*
X112608777Y-104593642D01*
X114930775Y-95663642D02*
X114930775Y-102271644D01*
G04 #@! TO.N,Net-(C602-Pad1)*
X112678777Y-87503642D02*
X112390775Y-87503642D01*
X114910775Y-85271644D02*
X112678777Y-87503642D01*
X114910775Y-78853642D02*
X114910775Y-85271644D01*
G04 #@! TO.N,Net-(C603-Pad1)*
X102762773Y-60653642D02*
X102730775Y-60653642D01*
X105292773Y-63183642D02*
X102762773Y-60653642D01*
X111860775Y-63183642D02*
X105292773Y-63183642D01*
G04 #@! TO.N,Net-(C607-Pad1)*
X110314275Y-90190142D02*
X110314275Y-97843642D01*
X111410775Y-89093642D02*
X110314275Y-90190142D01*
G04 #@! TO.N,Net-(C608-Pad1)*
X110314275Y-73520142D02*
X110314275Y-81373642D01*
X111370775Y-72463642D02*
X110314275Y-73520142D01*
G04 #@! TO.N,Net-(C609-Pad1)*
X109100776Y-58823641D02*
X109020775Y-58903642D01*
X117068585Y-58823641D02*
X109100776Y-58823641D01*
X117706223Y-59461279D02*
X117068585Y-58823641D01*
G04 #@! TO.N,Net-(C610-Pad1)*
X120042773Y-63133642D02*
X118770775Y-61861644D01*
X118770775Y-61861644D02*
X118770775Y-58773642D01*
X126400775Y-63133642D02*
X120042773Y-63133642D01*
G04 #@! TO.N,Net-(C611-Pad1)*
X134700774Y-62431643D02*
X134700774Y-59103643D01*
X135432773Y-63163642D02*
X134700774Y-62431643D01*
X134700774Y-59103643D02*
X134820775Y-58983642D01*
X141900775Y-63163642D02*
X135432773Y-63163642D01*
G04 #@! TO.N,Net-(C612-Pad1)*
X150530775Y-62371644D02*
X150530775Y-58753642D01*
X151312773Y-63153642D02*
X150530775Y-62371644D01*
X157770775Y-63153642D02*
X151312773Y-63153642D01*
G04 #@! TO.N,Net-(C616-Pad1)*
X131294275Y-58567142D02*
X123630775Y-58567142D01*
X132270775Y-59543642D02*
X131294275Y-58567142D01*
G04 #@! TO.N,Net-(C617-Pad1)*
X139490776Y-58753641D02*
X139340775Y-58903642D01*
X147829774Y-59519435D02*
X147063980Y-58753641D01*
X147063980Y-58753641D02*
X139490776Y-58753641D01*
G04 #@! TO.N,Net-(C618-Pad1)*
X155470776Y-58633641D02*
X155200775Y-58903642D01*
X163060882Y-58633641D02*
X155470776Y-58633641D01*
X163923132Y-59495891D02*
X163060882Y-58633641D01*
G04 #@! TO.N,Net-(C619-Pad1)*
X166730775Y-62441644D02*
X166730775Y-58553642D01*
X167442773Y-63153642D02*
X166730775Y-62441644D01*
X174070775Y-63153642D02*
X167442773Y-63153642D01*
G04 #@! TO.N,Net-(C620-Pad1)*
X172580775Y-72353642D02*
X175030775Y-69903642D01*
X172580775Y-78563642D02*
X172580775Y-72353642D01*
G04 #@! TO.N,Net-(C621-Pad1)*
X174922773Y-86533642D02*
X175140775Y-86533642D01*
X172580775Y-88875640D02*
X174922773Y-86533642D01*
X172580775Y-95223642D02*
X172580775Y-88875640D01*
G04 #@! TO.N,Net-(C625-Pad1)*
X171280776Y-58853641D02*
X171230775Y-58903642D01*
X180310775Y-59603642D02*
X179560774Y-58853641D01*
X179560774Y-58853641D02*
X171280776Y-58853641D01*
G04 #@! TO.N,Net-(C626-Pad1)*
X176444448Y-85020160D02*
X177000776Y-84463832D01*
X177000776Y-76254267D02*
X176900151Y-76153642D01*
X177000776Y-84463832D02*
X177000776Y-76254267D01*
G04 #@! TO.N,Net-(C627-Pad1)*
X176969911Y-101025162D02*
X176969911Y-92643402D01*
X176569912Y-101425161D02*
X176969911Y-101025162D01*
X176969911Y-92643402D02*
X176900151Y-92573642D01*
D16*
G04 #@! TO.N,Net-(D601-Pad2)*
X113720775Y-96913642D02*
X113720775Y-102223642D01*
X111500775Y-94693642D02*
X113720775Y-96913642D01*
G04 #@! TO.N,Net-(D602-Pad2)*
X113810775Y-80283642D02*
X113810775Y-85113642D01*
X111420775Y-77893642D02*
X113810775Y-80283642D01*
G04 #@! TO.N,Net-(D603-Pad2)*
X110300775Y-62053642D02*
X105420775Y-62053642D01*
X112680775Y-59673642D02*
X110300775Y-62053642D01*
G04 #@! TO.N,Net-(D607-Pad2)*
X124950775Y-61983642D02*
X120150775Y-61983642D01*
X127290775Y-59643642D02*
X124950775Y-61983642D01*
G04 #@! TO.N,Net-(D608-Pad2)*
X140390775Y-62023642D02*
X135550775Y-62023642D01*
X142810775Y-59603642D02*
X140390775Y-62023642D01*
G04 #@! TO.N,Net-(D609-Pad2)*
X156110775Y-62043642D02*
X151460775Y-62043642D01*
X158670775Y-59483642D02*
X156110775Y-62043642D01*
G04 #@! TO.N,Net-(D613-Pad2)*
X172520775Y-62073642D02*
X167620775Y-62073642D01*
X174890775Y-59703642D02*
X172520775Y-62073642D01*
G04 #@! TO.N,Net-(D614-Pad2)*
X173730775Y-76693642D02*
X173730775Y-72493642D01*
X176150775Y-79113642D02*
X173730775Y-76693642D01*
G04 #@! TO.N,Net-(D615-Pad2)*
X173800775Y-93673642D02*
X173800775Y-88913642D01*
X176110775Y-95983642D02*
X173800775Y-93673642D01*
G04 #@! TO.N,/PV_BLOCKS*
X162620775Y-79953642D02*
X165910775Y-76663642D01*
X156310775Y-79953642D02*
X162620775Y-79953642D01*
X155910776Y-80353641D02*
X155560774Y-80353641D01*
X156310775Y-79953642D02*
X155910776Y-80353641D01*
X155350773Y-80563642D02*
X139980775Y-80563642D01*
X155560774Y-80353641D02*
X155350773Y-80563642D01*
X126700775Y-82163642D02*
X129050775Y-79813642D01*
X139230775Y-79813642D02*
X139980775Y-80563642D01*
X129050775Y-79813642D02*
X139230775Y-79813642D01*
X126700775Y-105043642D02*
X129230775Y-107573642D01*
X150910775Y-109863642D02*
X159280775Y-118233642D01*
X159280775Y-118233642D02*
X159980775Y-118233642D01*
X147450775Y-109863642D02*
X150910775Y-109863642D01*
X145570775Y-111743642D02*
X147450775Y-109863642D01*
X144430775Y-111743642D02*
X145570775Y-111743642D01*
X129230775Y-107573642D02*
X129796460Y-107573642D01*
X129811461Y-107558641D02*
X134298776Y-107558641D01*
X134298776Y-107558641D02*
X135480775Y-108740640D01*
X129796460Y-107573642D02*
X129811461Y-107558641D01*
X135480775Y-108740640D02*
X135480775Y-108813642D01*
X135790775Y-109123642D02*
X135800775Y-109123642D01*
X135480775Y-108813642D02*
X135790775Y-109123642D01*
X135800775Y-109123642D02*
X137570775Y-110893642D01*
X143580775Y-110893642D02*
X144430775Y-111743642D01*
X137570775Y-110893642D02*
X143580775Y-110893642D01*
X126700775Y-82163642D02*
X126700775Y-93513642D01*
X126700775Y-93513642D02*
X126700775Y-105043642D01*
X128900775Y-107903642D02*
X128900775Y-108643642D01*
X129230775Y-107573642D02*
X128900775Y-107903642D01*
D17*
G04 #@! TO.N,/NRST_MCU*
X149690775Y-120243642D02*
X149690775Y-111043642D01*
X155470775Y-126023642D02*
X149690775Y-120243642D01*
G04 #@! TO.N,/SWCLK*
X152500775Y-120743642D02*
X152500775Y-113353642D01*
X152500775Y-113353642D02*
X151050775Y-111903642D01*
X152960775Y-109033642D02*
X152960775Y-101973642D01*
X152960775Y-101973642D02*
X155690775Y-99243642D01*
X155690775Y-99243642D02*
X158000775Y-96933642D01*
G04 #@! TO.N,/SPI1_SCK*
X138440775Y-98763642D02*
X138440775Y-103313642D01*
X139710775Y-97493642D02*
X138440775Y-98763642D01*
X138440775Y-103313642D02*
X141710775Y-106583642D01*
X154570775Y-97493642D02*
X139710775Y-97493642D01*
G04 #@! TO.N,/SPI1_MISO*
X148798286Y-100838642D02*
X152790775Y-100838642D01*
X147990775Y-100031131D02*
X148798286Y-100838642D01*
G04 #@! TO.N,/I2C2_SCL*
X160705776Y-117008643D02*
X158900775Y-115203642D01*
X160705776Y-118838641D02*
X160705776Y-117008643D01*
X156195776Y-123348641D02*
X160705776Y-118838641D01*
X142420775Y-127433642D02*
X155133777Y-127433642D01*
X140871776Y-128982641D02*
X142420775Y-127433642D01*
X156195776Y-126371643D02*
X156195776Y-123348641D01*
X140871776Y-131017841D02*
X140871776Y-128982641D01*
X155133777Y-127433642D02*
X156195776Y-126371643D01*
X139784775Y-132104842D02*
X140871776Y-131017841D01*
G04 #@! TO.N,/I2C2_SDA*
X141737213Y-126003642D02*
X154020775Y-126003642D01*
X138697774Y-129043081D02*
X141737213Y-126003642D01*
X138697774Y-130651843D02*
X138697774Y-129043081D01*
X137244775Y-132104842D02*
X138697774Y-130651843D01*
X161360775Y-112268642D02*
X159685775Y-110593642D01*
X161360775Y-116153642D02*
X161360775Y-112268642D01*
D16*
G04 #@! TO.N,/EPS - Batteries/V_BAT*
X181120775Y-106373642D02*
X180075391Y-106373642D01*
X149440135Y-71130000D02*
X149700135Y-71390000D01*
X144900000Y-71130000D02*
X149440135Y-71130000D01*
X157274417Y-71390000D02*
X158960775Y-69703642D01*
X149700135Y-71390000D02*
X157274417Y-71390000D01*
X144500001Y-71529999D02*
X144900000Y-71130000D01*
X141390001Y-74639999D02*
X144500001Y-71529999D01*
X130389999Y-74639999D02*
X141390001Y-74639999D01*
X129990000Y-74240000D02*
X130389999Y-74639999D01*
X170300000Y-71200000D02*
X170300000Y-96598251D01*
X168803642Y-69703642D02*
X170300000Y-71200000D01*
X158960775Y-69703642D02*
X168803642Y-69703642D01*
X180075391Y-106373642D02*
X170300000Y-96598251D01*
D18*
G04 #@! TO.N,/SC_MID*
X113640775Y-113273642D02*
X113770775Y-113403642D01*
X111470775Y-113273642D02*
X113640775Y-113273642D01*
D17*
G04 #@! TO.N,/EPS - Converters/SW_5V_BAT_uC*
X135791776Y-132626603D02*
X135114737Y-133303642D01*
X135791776Y-129372641D02*
X135791776Y-132626603D01*
X142813787Y-125553632D02*
X139610785Y-125553632D01*
X144763777Y-114043642D02*
X148255776Y-117535641D01*
X148255776Y-120111643D02*
X142813787Y-125553632D01*
X139610785Y-125553632D02*
X135791776Y-129372641D01*
X148255776Y-117535641D02*
X148255776Y-120111643D01*
X142940775Y-114043642D02*
X144763777Y-114043642D01*
X135114737Y-133303642D02*
X108950775Y-133303642D01*
X108950775Y-127676644D02*
X115440775Y-121186644D01*
X108950775Y-133303642D02*
X108950775Y-127676644D01*
X115440775Y-121186644D02*
X115440775Y-106553642D01*
X115440775Y-106553642D02*
X119670775Y-102323642D01*
X119670775Y-102323642D02*
X119670775Y-84183642D01*
X127655776Y-76198641D02*
X128055776Y-76198641D01*
X119670775Y-84183642D02*
X127655776Y-76198641D01*
X128150774Y-76103643D02*
X128055776Y-76198641D01*
X145590776Y-76103643D02*
X128150774Y-76103643D01*
X145966459Y-76103643D02*
X145590776Y-76103643D01*
X147180775Y-74889327D02*
X145966459Y-76103643D01*
X147180775Y-74323642D02*
X147180775Y-74889327D01*
G04 #@! TO.N,/EPS - Converters/SW_12V_SC_uC*
X146440775Y-116793642D02*
X143907773Y-116793642D01*
X133830775Y-109099327D02*
X133830775Y-108533642D01*
X137733773Y-116793642D02*
X133830775Y-112890644D01*
X133830775Y-112890644D02*
X133830775Y-109099327D01*
X143907773Y-116793642D02*
X137733773Y-116793642D01*
X137020775Y-104563642D02*
X135170775Y-102713642D01*
X137020775Y-108513642D02*
X137020775Y-104563642D01*
G04 #@! TO.N,/EPS - MCU/\002APFO_SC*
X139000775Y-119763642D02*
X147530775Y-119763642D01*
X131890775Y-126873642D02*
X139000775Y-119763642D01*
G04 #@! TO.N,/EPS - Batteries/BAT_CHG_STAT1*
X156708089Y-121393642D02*
X156890775Y-121393642D01*
X153454627Y-118140180D02*
X156708089Y-121393642D01*
X160326358Y-123163642D02*
X158730775Y-123163642D01*
X161381357Y-122108643D02*
X160326358Y-123163642D01*
X163998643Y-122108643D02*
X161381357Y-122108643D01*
X164385776Y-122495776D02*
X163998643Y-122108643D01*
X164385776Y-126214224D02*
X164385776Y-122495776D01*
X163620000Y-126980000D02*
X164385776Y-126214224D01*
G04 #@! TO.N,/EPS - Converters/SW_12V_BAT_uC*
X137990765Y-98577242D02*
X140014355Y-96553652D01*
X137990765Y-105376634D02*
X137990765Y-98577242D01*
X156473767Y-96553652D02*
X161715774Y-91311645D01*
X140014355Y-96553652D02*
X156473767Y-96553652D01*
X142337773Y-109723642D02*
X137990765Y-105376634D01*
X143850775Y-109723642D02*
X142337773Y-109723642D01*
X161715774Y-86911641D02*
X161715774Y-86983642D01*
X165910776Y-83893642D02*
X164733773Y-83893642D01*
X164733773Y-83893642D02*
X161715774Y-86911641D01*
X161715774Y-91311645D02*
X161715774Y-86983642D01*
G04 #@! TO.N,/EPS - Converters/SW_3V3_BAT_uC*
X132700775Y-90593642D02*
X132700775Y-93428642D01*
X134230775Y-89063642D02*
X132700775Y-90593642D01*
X142610775Y-108923642D02*
X142650775Y-108963642D01*
X142650775Y-106373642D02*
X142650775Y-108963642D01*
X139165775Y-101353642D02*
X139165775Y-103402232D01*
X139165775Y-103402232D02*
X139169365Y-103402232D01*
X141620775Y-105853642D02*
X142130775Y-105853642D01*
X139169365Y-103402232D02*
X141620775Y-105853642D01*
X142130775Y-105853642D02*
X142650775Y-106373642D01*
X134570775Y-82709327D02*
X134570775Y-84093642D01*
X134130775Y-82269327D02*
X134570775Y-82709327D01*
X134130775Y-81703642D02*
X134130775Y-82269327D01*
X134570775Y-84093642D02*
X134570775Y-86103642D01*
X134570775Y-83723642D02*
X134570775Y-84093642D01*
G04 #@! TO.N,/EPS - MCU/PGOOD_SC*
X128171776Y-129409079D02*
X128171776Y-130592641D01*
X138937213Y-118643642D02*
X128171776Y-129409079D01*
X146080775Y-118643642D02*
X138937213Y-118643642D01*
X128171776Y-130592641D02*
X128112574Y-130651843D01*
X118250775Y-119713642D02*
X118250775Y-130651843D01*
X116800775Y-118263642D02*
X118250775Y-119713642D01*
X128112574Y-130651843D02*
X118250775Y-130651843D01*
G04 #@! TO.N,/EPS - Batteries/BAT_CHG_ISMON*
X150980775Y-120296644D02*
X150980775Y-118653642D01*
X154297773Y-123613642D02*
X150980775Y-120296644D01*
X161129566Y-125684966D02*
X159427099Y-125684966D01*
X158519451Y-125684966D02*
X157860775Y-126343642D01*
X159427099Y-125684966D02*
X158519451Y-125684966D01*
X154445775Y-123613642D02*
X154297773Y-123613642D01*
X154745775Y-123913642D02*
X154445775Y-123613642D01*
G04 #@! TO.N,/EPS - Batteries/BAT_CHG_STAT0*
X161477568Y-124959966D02*
X158767981Y-124959966D01*
X163017099Y-124959966D02*
X161477568Y-124959966D01*
X163660775Y-125603642D02*
X163017099Y-124959966D01*
X153225775Y-119408642D02*
X153225775Y-119113642D01*
X156140775Y-122323642D02*
X153225775Y-119408642D01*
G04 #@! TO.N,Net-(R334-Pad2)*
X138600775Y-91133642D02*
X138900775Y-91433642D01*
X138600775Y-86433642D02*
X138600775Y-91133642D01*
G04 #@! TO.N,Net-(R336-Pad2)*
X127710775Y-118343642D02*
X127770775Y-118403642D01*
X127710775Y-113003642D02*
X127710775Y-118343642D01*
G04 #@! TO.N,Net-(R340-Pad2)*
X155120775Y-88493642D02*
X154940775Y-88673642D01*
X155120775Y-83843642D02*
X155120775Y-88493642D01*
G04 #@! TO.N,GND*
X167151122Y-125163642D02*
X166850775Y-125163642D01*
X158419980Y-124234965D02*
X156750775Y-125904170D01*
X160815090Y-123873642D02*
X160453767Y-124234965D01*
X160453767Y-124234965D02*
X158419980Y-124234965D01*
X161380775Y-123873642D02*
X160815090Y-123873642D01*
X156750775Y-125904170D02*
X156750775Y-127133642D01*
X146270775Y-113573642D02*
X149240766Y-116543633D01*
X149240766Y-116543633D02*
X149240766Y-120713651D01*
G04 #@! TD*
D19*
G04 #@! TO.N,GND*
G36*
X182129067Y-48347262D02*
X181078395Y-49397934D01*
X180509775Y-50770704D01*
X180509775Y-52256580D01*
X181078395Y-53629350D01*
X182129067Y-54680022D01*
X183501837Y-55248642D01*
X184987713Y-55248642D01*
X186360483Y-54680022D01*
X187411155Y-53629350D01*
X187681975Y-52975533D01*
X187681976Y-126531047D01*
X187646315Y-126710325D01*
X187585770Y-126800938D01*
X187495159Y-126861482D01*
X187379732Y-126884442D01*
X184890187Y-126884442D01*
X184819186Y-126898565D01*
X184819183Y-126898565D01*
X184425518Y-126976870D01*
X184160565Y-127086617D01*
X183826831Y-127309610D01*
X183624043Y-127512398D01*
X183401049Y-127846133D01*
X183300788Y-128088186D01*
X183291303Y-128111085D01*
X183212998Y-128504751D01*
X183212998Y-128517458D01*
X183198876Y-128588454D01*
X183198875Y-134585654D01*
X182660483Y-134047262D01*
X181287713Y-133478642D01*
X179801837Y-133478642D01*
X178429067Y-134047262D01*
X177378395Y-135097934D01*
X176809775Y-136470704D01*
X176809775Y-137956580D01*
X177378395Y-139329350D01*
X177620787Y-139571742D01*
X109768763Y-139571742D01*
X110011155Y-139329350D01*
X110579775Y-137956580D01*
X110579775Y-137781400D01*
X110660455Y-137976179D01*
X111053438Y-138369162D01*
X111566894Y-138581842D01*
X112122656Y-138581842D01*
X112636112Y-138369162D01*
X113029095Y-137976179D01*
X113114775Y-137769329D01*
X113200455Y-137976179D01*
X113593438Y-138369162D01*
X114106894Y-138581842D01*
X114662656Y-138581842D01*
X115176112Y-138369162D01*
X115569095Y-137976179D01*
X115654775Y-137769329D01*
X115740455Y-137976179D01*
X116133438Y-138369162D01*
X116646894Y-138581842D01*
X117202656Y-138581842D01*
X117716112Y-138369162D01*
X118109095Y-137976179D01*
X118194775Y-137769329D01*
X118280455Y-137976179D01*
X118673438Y-138369162D01*
X119186894Y-138581842D01*
X119742656Y-138581842D01*
X120256112Y-138369162D01*
X120649095Y-137976179D01*
X120734775Y-137769329D01*
X120820455Y-137976179D01*
X121213438Y-138369162D01*
X121726894Y-138581842D01*
X122282656Y-138581842D01*
X122796112Y-138369162D01*
X123189095Y-137976179D01*
X123274775Y-137769329D01*
X123360455Y-137976179D01*
X123753438Y-138369162D01*
X124266894Y-138581842D01*
X124822656Y-138581842D01*
X125336112Y-138369162D01*
X125729095Y-137976179D01*
X125814775Y-137769329D01*
X125900455Y-137976179D01*
X126293438Y-138369162D01*
X126806894Y-138581842D01*
X127362656Y-138581842D01*
X127876112Y-138369162D01*
X128269095Y-137976179D01*
X128354775Y-137769329D01*
X128440455Y-137976179D01*
X128833438Y-138369162D01*
X129346894Y-138581842D01*
X129902656Y-138581842D01*
X130416112Y-138369162D01*
X130809095Y-137976179D01*
X130894775Y-137769329D01*
X130980455Y-137976179D01*
X131373438Y-138369162D01*
X131886894Y-138581842D01*
X132442656Y-138581842D01*
X132956112Y-138369162D01*
X133349095Y-137976179D01*
X133434775Y-137769329D01*
X133520455Y-137976179D01*
X133913438Y-138369162D01*
X134426894Y-138581842D01*
X134982656Y-138581842D01*
X135496112Y-138369162D01*
X135889095Y-137976179D01*
X135974775Y-137769329D01*
X136060455Y-137976179D01*
X136453438Y-138369162D01*
X136966894Y-138581842D01*
X137522656Y-138581842D01*
X138036112Y-138369162D01*
X138429095Y-137976179D01*
X138514775Y-137769329D01*
X138600455Y-137976179D01*
X138993438Y-138369162D01*
X139506894Y-138581842D01*
X140062656Y-138581842D01*
X140576112Y-138369162D01*
X140969095Y-137976179D01*
X141054775Y-137769329D01*
X141140455Y-137976179D01*
X141533438Y-138369162D01*
X142046894Y-138581842D01*
X142602656Y-138581842D01*
X143116112Y-138369162D01*
X143509095Y-137976179D01*
X143594775Y-137769329D01*
X143680455Y-137976179D01*
X144073438Y-138369162D01*
X144586894Y-138581842D01*
X145142656Y-138581842D01*
X145656112Y-138369162D01*
X146049095Y-137976179D01*
X146134775Y-137769329D01*
X146220455Y-137976179D01*
X146613438Y-138369162D01*
X147126894Y-138581842D01*
X147682656Y-138581842D01*
X148196112Y-138369162D01*
X148589095Y-137976179D01*
X148674775Y-137769329D01*
X148760455Y-137976179D01*
X149153438Y-138369162D01*
X149666894Y-138581842D01*
X150222656Y-138581842D01*
X150736112Y-138369162D01*
X151129095Y-137976179D01*
X151214775Y-137769329D01*
X151300455Y-137976179D01*
X151693438Y-138369162D01*
X152206894Y-138581842D01*
X152762656Y-138581842D01*
X153276112Y-138369162D01*
X153669095Y-137976179D01*
X153754775Y-137769329D01*
X153840455Y-137976179D01*
X154233438Y-138369162D01*
X154746894Y-138581842D01*
X155302656Y-138581842D01*
X155816112Y-138369162D01*
X156209095Y-137976179D01*
X156294775Y-137769329D01*
X156380455Y-137976179D01*
X156773438Y-138369162D01*
X157286894Y-138581842D01*
X157842656Y-138581842D01*
X158356112Y-138369162D01*
X158749095Y-137976179D01*
X158834775Y-137769329D01*
X158920455Y-137976179D01*
X159313438Y-138369162D01*
X159826894Y-138581842D01*
X160382656Y-138581842D01*
X160896112Y-138369162D01*
X161289095Y-137976179D01*
X161374775Y-137769329D01*
X161460455Y-137976179D01*
X161853438Y-138369162D01*
X162366894Y-138581842D01*
X162922656Y-138581842D01*
X163436112Y-138369162D01*
X163829095Y-137976179D01*
X163914775Y-137769329D01*
X164000455Y-137976179D01*
X164393438Y-138369162D01*
X164906894Y-138581842D01*
X165462656Y-138581842D01*
X165976112Y-138369162D01*
X166369095Y-137976179D01*
X166454775Y-137769329D01*
X166540455Y-137976179D01*
X166933438Y-138369162D01*
X167446894Y-138581842D01*
X168002656Y-138581842D01*
X168516112Y-138369162D01*
X168909095Y-137976179D01*
X168994775Y-137769329D01*
X169080455Y-137976179D01*
X169473438Y-138369162D01*
X169986894Y-138581842D01*
X170542656Y-138581842D01*
X171056112Y-138369162D01*
X171449095Y-137976179D01*
X171534775Y-137769329D01*
X171620455Y-137976179D01*
X172013438Y-138369162D01*
X172526894Y-138581842D01*
X173082656Y-138581842D01*
X173596112Y-138369162D01*
X173989095Y-137976179D01*
X174074775Y-137769329D01*
X174160455Y-137976179D01*
X174553438Y-138369162D01*
X175066894Y-138581842D01*
X175622656Y-138581842D01*
X176136112Y-138369162D01*
X176529095Y-137976179D01*
X176741775Y-137462723D01*
X176741775Y-136906961D01*
X176529095Y-136393505D01*
X176136112Y-136000522D01*
X175929262Y-135914842D01*
X176136112Y-135829162D01*
X176529095Y-135436179D01*
X176741775Y-134922723D01*
X176741775Y-134366961D01*
X176529095Y-133853505D01*
X176136112Y-133460522D01*
X175929262Y-133374842D01*
X176136112Y-133289162D01*
X176529095Y-132896179D01*
X176741775Y-132382723D01*
X176741775Y-131826961D01*
X176529095Y-131313505D01*
X176136112Y-130920522D01*
X175929262Y-130834842D01*
X176136112Y-130749162D01*
X176529095Y-130356179D01*
X176741775Y-129842723D01*
X176741775Y-129286961D01*
X176529095Y-128773505D01*
X176136112Y-128380522D01*
X175622656Y-128167842D01*
X175066894Y-128167842D01*
X174553438Y-128380522D01*
X174160455Y-128773505D01*
X174074775Y-128980355D01*
X173989095Y-128773505D01*
X173596112Y-128380522D01*
X173082656Y-128167842D01*
X172526894Y-128167842D01*
X172013438Y-128380522D01*
X171620455Y-128773505D01*
X171534775Y-128980355D01*
X171449095Y-128773505D01*
X171056112Y-128380522D01*
X170699437Y-128232783D01*
X171768075Y-127164146D01*
X171934147Y-127164146D01*
X172314553Y-127006577D01*
X172605704Y-126715426D01*
X172763273Y-126335020D01*
X172763273Y-125923272D01*
X172605704Y-125542866D01*
X172314553Y-125251715D01*
X171934147Y-125094146D01*
X171522399Y-125094146D01*
X171141993Y-125251715D01*
X170850842Y-125542866D01*
X170693273Y-125923272D01*
X170693273Y-126089344D01*
X169613975Y-127168643D01*
X168007576Y-127168643D01*
X166497473Y-125658541D01*
X166497473Y-124981184D01*
X166783720Y-125267431D01*
X167164126Y-125425000D01*
X167575874Y-125425000D01*
X167956280Y-125267431D01*
X168247431Y-124976280D01*
X168405000Y-124595874D01*
X168405000Y-124184126D01*
X168247431Y-123803720D01*
X168222540Y-123778829D01*
X170417460Y-123778829D01*
X170534891Y-123896260D01*
X170915297Y-124053829D01*
X171103553Y-124053829D01*
X171224633Y-124134732D01*
X171446318Y-124178828D01*
X171446322Y-124178828D01*
X171521169Y-124193716D01*
X171596016Y-124178828D01*
X173526325Y-124178828D01*
X173601172Y-124193716D01*
X173676019Y-124178828D01*
X173676024Y-124178828D01*
X173897709Y-124134732D01*
X174149101Y-123966757D01*
X174191503Y-123903298D01*
X175659802Y-122435000D01*
X175680660Y-122435000D01*
X175619145Y-122583510D01*
X175619145Y-123313518D01*
X175898507Y-123987958D01*
X176414701Y-124504152D01*
X177089141Y-124783514D01*
X177819149Y-124783514D01*
X178493589Y-124504152D01*
X179009783Y-123987958D01*
X179289145Y-123313518D01*
X179289145Y-122583510D01*
X179009783Y-121909070D01*
X178493589Y-121392876D01*
X177819149Y-121113514D01*
X177089141Y-121113514D01*
X176655000Y-121293341D01*
X176655000Y-121194126D01*
X176497431Y-120813720D01*
X176206280Y-120522569D01*
X175825874Y-120365000D01*
X175414126Y-120365000D01*
X175062559Y-120510623D01*
X173970329Y-119418395D01*
X173970328Y-119418393D01*
X173841605Y-119289671D01*
X173593012Y-119041078D01*
X173550610Y-118977619D01*
X173299218Y-118809644D01*
X173077533Y-118765548D01*
X173077528Y-118765548D01*
X173002681Y-118750660D01*
X172927834Y-118765548D01*
X170073546Y-118765548D01*
X170286280Y-118677431D01*
X170301442Y-118662269D01*
X170445310Y-118633652D01*
X170738049Y-118438049D01*
X170787425Y-118364153D01*
X173004148Y-116147431D01*
X173366280Y-115997431D01*
X173657431Y-115706280D01*
X173815000Y-115325874D01*
X173815000Y-114914126D01*
X173657431Y-114533720D01*
X173366280Y-114242569D01*
X172985874Y-114085000D01*
X172574126Y-114085000D01*
X172193720Y-114242569D01*
X171902569Y-114533720D01*
X171752569Y-114895852D01*
X169883422Y-116765000D01*
X169494126Y-116765000D01*
X169113720Y-116922569D01*
X168822569Y-117213720D01*
X168665000Y-117594126D01*
X168665000Y-118005874D01*
X168822569Y-118386280D01*
X169113720Y-118677431D01*
X169326454Y-118765548D01*
X168360000Y-118765548D01*
X168360000Y-117603711D01*
X168477431Y-117486280D01*
X168635000Y-117105874D01*
X168635000Y-116694126D01*
X168477431Y-116313720D01*
X168186280Y-116022569D01*
X167805874Y-115865000D01*
X167394126Y-115865000D01*
X167013720Y-116022569D01*
X166722569Y-116313720D01*
X166565000Y-116694126D01*
X166565000Y-117105874D01*
X166722569Y-117486280D01*
X166840001Y-117603712D01*
X166840000Y-119049595D01*
X164898997Y-119049595D01*
X164824150Y-119034707D01*
X164749303Y-119049595D01*
X164749299Y-119049595D01*
X164527614Y-119093691D01*
X164406534Y-119174594D01*
X164218278Y-119174594D01*
X163837872Y-119332163D01*
X163546721Y-119623314D01*
X163389152Y-120003720D01*
X163389152Y-120415468D01*
X163546721Y-120795874D01*
X163837872Y-121087025D01*
X164218278Y-121244594D01*
X164630026Y-121244594D01*
X164814008Y-121168386D01*
X164814872Y-121172728D01*
X164977473Y-121416079D01*
X164977473Y-122013351D01*
X164933705Y-121947847D01*
X164870246Y-121905445D01*
X164588974Y-121624173D01*
X164546572Y-121560714D01*
X164295180Y-121392739D01*
X164073495Y-121348643D01*
X164073490Y-121348643D01*
X163998643Y-121333755D01*
X163923796Y-121348643D01*
X161456204Y-121348643D01*
X161381357Y-121333755D01*
X161306510Y-121348643D01*
X161306505Y-121348643D01*
X161084820Y-121392739D01*
X160833428Y-121560714D01*
X160791028Y-121624170D01*
X160011557Y-122403642D01*
X159434486Y-122403642D01*
X159317055Y-122286211D01*
X158936649Y-122128642D01*
X158524901Y-122128642D01*
X158466305Y-122152913D01*
X161190249Y-119428970D01*
X161253705Y-119386570D01*
X161421680Y-119135178D01*
X161465776Y-118913493D01*
X161465776Y-118913489D01*
X161480664Y-118838642D01*
X161465776Y-118763795D01*
X161465776Y-117188642D01*
X161566649Y-117188642D01*
X161947055Y-117031073D01*
X162238206Y-116739922D01*
X162395775Y-116359516D01*
X162395775Y-115947768D01*
X162238206Y-115567362D01*
X162120775Y-115449931D01*
X162120775Y-112343490D01*
X162135663Y-112268642D01*
X162120775Y-112193794D01*
X162120775Y-112193790D01*
X162076679Y-111972105D01*
X162076679Y-111972104D01*
X161951104Y-111784169D01*
X161908704Y-111720713D01*
X161845248Y-111678313D01*
X160720775Y-110553841D01*
X160720775Y-110387768D01*
X160563206Y-110007362D01*
X160272055Y-109716211D01*
X159891649Y-109558642D01*
X159479901Y-109558642D01*
X159099495Y-109716211D01*
X158808344Y-110007362D01*
X158650775Y-110387768D01*
X158650775Y-110799516D01*
X158808344Y-111179922D01*
X159099495Y-111471073D01*
X159479901Y-111628642D01*
X159645974Y-111628642D01*
X160600776Y-112583445D01*
X160600775Y-115449931D01*
X160483344Y-115567362D01*
X160441154Y-115669219D01*
X159935775Y-115163841D01*
X159935775Y-114997768D01*
X159778206Y-114617362D01*
X159487055Y-114326211D01*
X159106649Y-114168642D01*
X158694901Y-114168642D01*
X158509283Y-114245527D01*
X158398206Y-113977362D01*
X158107055Y-113686211D01*
X158040775Y-113658757D01*
X158040775Y-109407353D01*
X158158206Y-109289922D01*
X158315775Y-108909516D01*
X158315775Y-108743444D01*
X158485248Y-108573971D01*
X158548704Y-108531571D01*
X158611381Y-108437768D01*
X158716679Y-108280180D01*
X158732135Y-108202478D01*
X158760775Y-108058494D01*
X158760775Y-108058490D01*
X158775663Y-107983642D01*
X158760775Y-107908794D01*
X158760775Y-106518638D01*
X164855775Y-106518638D01*
X164855775Y-107248646D01*
X165135137Y-107923086D01*
X165651331Y-108439280D01*
X166325771Y-108718642D01*
X167055779Y-108718642D01*
X167730219Y-108439280D01*
X168246413Y-107923086D01*
X168525775Y-107248646D01*
X168525775Y-106518638D01*
X168246413Y-105844198D01*
X167730219Y-105328004D01*
X167055779Y-105048642D01*
X166325771Y-105048642D01*
X165651331Y-105328004D01*
X165135137Y-105844198D01*
X164855775Y-106518638D01*
X158760775Y-106518638D01*
X158760775Y-106051082D01*
X158850775Y-106051082D01*
X159098540Y-106001799D01*
X159308584Y-105861451D01*
X159448932Y-105651407D01*
X159498215Y-105403642D01*
X159498215Y-103703642D01*
X159448932Y-103455877D01*
X159308584Y-103245833D01*
X159098540Y-103105485D01*
X158850775Y-103056202D01*
X157328136Y-103056202D01*
X157045775Y-102773841D01*
X157045775Y-102607768D01*
X156888206Y-102227362D01*
X156597055Y-101936211D01*
X156216649Y-101778642D01*
X155804901Y-101778642D01*
X155424495Y-101936211D01*
X155133344Y-102227362D01*
X154975775Y-102607768D01*
X154975775Y-103019516D01*
X155133344Y-103399922D01*
X155424495Y-103691073D01*
X155804901Y-103848642D01*
X155970974Y-103848642D01*
X156503335Y-104381004D01*
X156503335Y-105403642D01*
X156552618Y-105651407D01*
X156692966Y-105861451D01*
X156903010Y-106001799D01*
X157150775Y-106051082D01*
X157240775Y-106051082D01*
X157240776Y-107668642D01*
X157074901Y-107668642D01*
X156694495Y-107826211D01*
X156403344Y-108117362D01*
X156245775Y-108497768D01*
X156245775Y-108909516D01*
X156403344Y-109289922D01*
X156520775Y-109407353D01*
X156520776Y-112988841D01*
X153473482Y-109941548D01*
X153547055Y-109911073D01*
X153838206Y-109619922D01*
X153995775Y-109239516D01*
X153995775Y-108827768D01*
X153838206Y-108447362D01*
X153720775Y-108329931D01*
X153720775Y-102288443D01*
X156281104Y-99728115D01*
X156281106Y-99728112D01*
X156440576Y-99568642D01*
X156505580Y-99568642D01*
X156601936Y-100053060D01*
X156930150Y-100544267D01*
X157421357Y-100872481D01*
X157854519Y-100958642D01*
X158147031Y-100958642D01*
X158580193Y-100872481D01*
X159071400Y-100544267D01*
X159399614Y-100053060D01*
X159514867Y-99473642D01*
X159399614Y-98894224D01*
X159071400Y-98403017D01*
X158773014Y-98203642D01*
X159071400Y-98004267D01*
X159399614Y-97513060D01*
X159514867Y-96933642D01*
X159399614Y-96354224D01*
X159071400Y-95863017D01*
X158580193Y-95534803D01*
X158569537Y-95532683D01*
X162200250Y-91901972D01*
X162263703Y-91859574D01*
X162306101Y-91796121D01*
X162306103Y-91796119D01*
X162410741Y-91639516D01*
X162431678Y-91608182D01*
X162475774Y-91386497D01*
X162475774Y-91386493D01*
X162490662Y-91311646D01*
X162475774Y-91236799D01*
X162475774Y-89312958D01*
X162875771Y-89478642D01*
X163605779Y-89478642D01*
X164280219Y-89199280D01*
X164796413Y-88683086D01*
X165075775Y-88008646D01*
X165075775Y-87278638D01*
X164796413Y-86604198D01*
X164280219Y-86088004D01*
X163809281Y-85892935D01*
X165048575Y-84653642D01*
X165207065Y-84653642D01*
X165324496Y-84771073D01*
X165704902Y-84928642D01*
X166116650Y-84928642D01*
X166497056Y-84771073D01*
X166788207Y-84479922D01*
X166945776Y-84099516D01*
X166945776Y-83687768D01*
X166788207Y-83307362D01*
X166497056Y-83016211D01*
X166116650Y-82858642D01*
X165704902Y-82858642D01*
X165324496Y-83016211D01*
X165207065Y-83133642D01*
X164808619Y-83133642D01*
X164733772Y-83118754D01*
X164658925Y-83133642D01*
X164658921Y-83133642D01*
X164437236Y-83177738D01*
X164185844Y-83345713D01*
X164143444Y-83409169D01*
X161231304Y-86321310D01*
X161167845Y-86363712D01*
X160999870Y-86615105D01*
X160955774Y-86836790D01*
X160955774Y-86836794D01*
X160940886Y-86911641D01*
X160955774Y-86986488D01*
X160955774Y-87058494D01*
X160955775Y-87058499D01*
X160955774Y-90996842D01*
X159031730Y-92920886D01*
X158887055Y-92776211D01*
X158506649Y-92618642D01*
X158094901Y-92618642D01*
X157714495Y-92776211D01*
X157423344Y-93067362D01*
X157398344Y-93127717D01*
X155682420Y-94843642D01*
X132039130Y-94843642D01*
X131095293Y-93899805D01*
X131038944Y-93815473D01*
X130704857Y-93592243D01*
X130410251Y-93533642D01*
X130410246Y-93533642D01*
X130310775Y-93513856D01*
X130211304Y-93533642D01*
X128347004Y-93533642D01*
X128286649Y-93508642D01*
X127874901Y-93508642D01*
X127735775Y-93566270D01*
X127735775Y-93307768D01*
X127710775Y-93247413D01*
X127710775Y-83259871D01*
X127735775Y-83199516D01*
X127735775Y-82787768D01*
X127710775Y-82727413D01*
X127710775Y-82581997D01*
X127824134Y-82468638D01*
X128575775Y-82468638D01*
X128575775Y-83198646D01*
X128855137Y-83873086D01*
X129371331Y-84389280D01*
X130045771Y-84668642D01*
X130775779Y-84668642D01*
X131450219Y-84389280D01*
X131966413Y-83873086D01*
X132245775Y-83198646D01*
X132245775Y-82468638D01*
X131966413Y-81794198D01*
X131450219Y-81278004D01*
X130775779Y-80998642D01*
X130045771Y-80998642D01*
X129371331Y-81278004D01*
X128855137Y-81794198D01*
X128575775Y-82468638D01*
X127824134Y-82468638D01*
X129469131Y-80823642D01*
X133550697Y-80823642D01*
X133544495Y-80826211D01*
X133253344Y-81117362D01*
X133095775Y-81497768D01*
X133095775Y-81909516D01*
X133253344Y-82289922D01*
X133386461Y-82423039D01*
X133414871Y-82565864D01*
X133582847Y-82817256D01*
X133646303Y-82859656D01*
X133810775Y-83024128D01*
X133810776Y-83648788D01*
X133810775Y-83648791D01*
X133810775Y-84018791D01*
X133810776Y-85399930D01*
X133693344Y-85517362D01*
X133535775Y-85897768D01*
X133535775Y-86066843D01*
X133405775Y-85936843D01*
X133405775Y-85770770D01*
X133248206Y-85390364D01*
X132957055Y-85099213D01*
X132576649Y-84941644D01*
X132164901Y-84941644D01*
X131784495Y-85099213D01*
X131493344Y-85390364D01*
X131335775Y-85770770D01*
X131335775Y-86182518D01*
X131493344Y-86562924D01*
X131784495Y-86854075D01*
X132164901Y-87011644D01*
X132330974Y-87011644D01*
X133575018Y-88255688D01*
X133353344Y-88477362D01*
X133195775Y-88857768D01*
X133195775Y-89023840D01*
X132216305Y-90003311D01*
X132152846Y-90045713D01*
X131984871Y-90297106D01*
X131940775Y-90518791D01*
X131940775Y-90518795D01*
X131925887Y-90593642D01*
X131940775Y-90668489D01*
X131940776Y-92724930D01*
X131823344Y-92842362D01*
X131665775Y-93222768D01*
X131665775Y-93634516D01*
X131823344Y-94014922D01*
X132114495Y-94306073D01*
X132494901Y-94463642D01*
X132906649Y-94463642D01*
X133287055Y-94306073D01*
X133578206Y-94014922D01*
X133735775Y-93634516D01*
X133735775Y-93222768D01*
X133578206Y-92842362D01*
X133460775Y-92724931D01*
X133460775Y-90908443D01*
X134270577Y-90098642D01*
X134436649Y-90098642D01*
X134817055Y-89941073D01*
X135038729Y-89719399D01*
X138957444Y-93638115D01*
X138999844Y-93701571D01*
X139251236Y-93869546D01*
X139472921Y-93913642D01*
X139472926Y-93913642D01*
X139547773Y-93928530D01*
X139622620Y-93913642D01*
X146777064Y-93913642D01*
X146894495Y-94031073D01*
X147274901Y-94188642D01*
X147686649Y-94188642D01*
X148067055Y-94031073D01*
X148358206Y-93739922D01*
X148515775Y-93359516D01*
X148515775Y-92947768D01*
X148358206Y-92567362D01*
X148067055Y-92276211D01*
X147686649Y-92118642D01*
X147274901Y-92118642D01*
X146894495Y-92276211D01*
X146777064Y-92393642D01*
X139862575Y-92393642D01*
X139633530Y-92164598D01*
X139778206Y-92019922D01*
X139935775Y-91639516D01*
X139935775Y-91227768D01*
X139778206Y-90847362D01*
X139487055Y-90556211D01*
X139360775Y-90503904D01*
X139360775Y-87137353D01*
X139478206Y-87019922D01*
X139635775Y-86639516D01*
X139635775Y-86227768D01*
X139478206Y-85847362D01*
X139187055Y-85556211D01*
X138806649Y-85398642D01*
X138394901Y-85398642D01*
X138014495Y-85556211D01*
X137723344Y-85847362D01*
X137565775Y-86227768D01*
X137565775Y-86639516D01*
X137723344Y-87019922D01*
X137840775Y-87137353D01*
X137840776Y-90371843D01*
X134607574Y-87138642D01*
X134776649Y-87138642D01*
X135157055Y-86981073D01*
X135448206Y-86689922D01*
X135605775Y-86309516D01*
X135605775Y-85897768D01*
X135448206Y-85517362D01*
X135330775Y-85399931D01*
X135330775Y-84277768D01*
X135755775Y-84277768D01*
X135755775Y-84689516D01*
X135913344Y-85069922D01*
X136204495Y-85361073D01*
X136584901Y-85518642D01*
X136996649Y-85518642D01*
X137377055Y-85361073D01*
X137534486Y-85203642D01*
X138995974Y-85203642D01*
X140185447Y-86393116D01*
X140227848Y-86456573D01*
X140291304Y-86498973D01*
X140479239Y-86624548D01*
X140487600Y-86626211D01*
X140700925Y-86668644D01*
X140700929Y-86668644D01*
X140775777Y-86683532D01*
X140794923Y-86679724D01*
X142088779Y-87973581D01*
X141985000Y-88224126D01*
X141985000Y-88635874D01*
X142142569Y-89016280D01*
X142433720Y-89307431D01*
X142814126Y-89465000D01*
X143225874Y-89465000D01*
X143606280Y-89307431D01*
X143897431Y-89016280D01*
X144055000Y-88635874D01*
X144055000Y-88224126D01*
X143926955Y-87914996D01*
X147195000Y-87914996D01*
X147195000Y-88645004D01*
X147474362Y-89319444D01*
X147990556Y-89835638D01*
X148664996Y-90115000D01*
X149395004Y-90115000D01*
X150069444Y-89835638D01*
X150585638Y-89319444D01*
X150865000Y-88645004D01*
X150865000Y-87914996D01*
X150585638Y-87240556D01*
X150069444Y-86724362D01*
X149395004Y-86445000D01*
X148664996Y-86445000D01*
X147990556Y-86724362D01*
X147474362Y-87240556D01*
X147195000Y-87914996D01*
X143926955Y-87914996D01*
X143897431Y-87843720D01*
X143772834Y-87719123D01*
X143742902Y-87568642D01*
X143735904Y-87533462D01*
X143610329Y-87345527D01*
X143567929Y-87282071D01*
X143504473Y-87239671D01*
X141688975Y-85424174D01*
X141646573Y-85360715D01*
X141395181Y-85192740D01*
X141173496Y-85148644D01*
X141173491Y-85148644D01*
X141098644Y-85133756D01*
X141079499Y-85137564D01*
X139901106Y-83959172D01*
X139858704Y-83895713D01*
X139607312Y-83727738D01*
X139385627Y-83683642D01*
X139385622Y-83683642D01*
X139310775Y-83668754D01*
X139235928Y-83683642D01*
X137454486Y-83683642D01*
X137377055Y-83606211D01*
X136996649Y-83448642D01*
X136584901Y-83448642D01*
X136204495Y-83606211D01*
X135913344Y-83897362D01*
X135755775Y-84277768D01*
X135330775Y-84277768D01*
X135330775Y-82784174D01*
X135345663Y-82709327D01*
X135330775Y-82634480D01*
X135330775Y-82634475D01*
X135286679Y-82412790D01*
X135118704Y-82161398D01*
X135073855Y-82131431D01*
X135165775Y-81909516D01*
X135165775Y-81497768D01*
X135008206Y-81117362D01*
X134717055Y-80826211D01*
X134710853Y-80823642D01*
X138812420Y-80823642D01*
X139196257Y-81207479D01*
X139252606Y-81291811D01*
X139586693Y-81515041D01*
X139881299Y-81573642D01*
X139881303Y-81573642D01*
X139980774Y-81593428D01*
X140080245Y-81573642D01*
X140412830Y-81573642D01*
X140424901Y-81578642D01*
X140836649Y-81578642D01*
X140848720Y-81573642D01*
X151835775Y-81573642D01*
X151835775Y-81909516D01*
X151993344Y-82289922D01*
X152284495Y-82581073D01*
X152664901Y-82738642D01*
X153076649Y-82738642D01*
X153457055Y-82581073D01*
X153568662Y-82469466D01*
X153597942Y-82463642D01*
X153597947Y-82463642D01*
X153636557Y-82455962D01*
X154968294Y-82455962D01*
X155320974Y-82808642D01*
X154914901Y-82808642D01*
X154534495Y-82966211D01*
X154243344Y-83257362D01*
X154085775Y-83637768D01*
X154085775Y-84049516D01*
X154243344Y-84429922D01*
X154360775Y-84547353D01*
X154360776Y-87793609D01*
X154354495Y-87796211D01*
X154063344Y-88087362D01*
X153905775Y-88467768D01*
X153905775Y-88879516D01*
X154063344Y-89259922D01*
X154354495Y-89551073D01*
X154734901Y-89708642D01*
X155146649Y-89708642D01*
X155527055Y-89551073D01*
X155818206Y-89259922D01*
X155975775Y-88879516D01*
X155975775Y-88467768D01*
X155880775Y-88238417D01*
X155880775Y-84547353D01*
X155998206Y-84429922D01*
X156155775Y-84049516D01*
X156155775Y-83643444D01*
X156501037Y-83988706D01*
X156603846Y-84142571D01*
X156667305Y-84184973D01*
X157495775Y-85013444D01*
X157495775Y-85179516D01*
X157653344Y-85559922D01*
X157944495Y-85851073D01*
X158324901Y-86008642D01*
X158736649Y-86008642D01*
X159117055Y-85851073D01*
X159408206Y-85559922D01*
X159565775Y-85179516D01*
X159565775Y-84767768D01*
X159408206Y-84387362D01*
X159117055Y-84096211D01*
X158736649Y-83938642D01*
X158570577Y-83938642D01*
X157802516Y-83170582D01*
X157742104Y-83080169D01*
X157699704Y-83016713D01*
X157636248Y-82974313D01*
X156023033Y-81361099D01*
X156304858Y-81305040D01*
X156638945Y-81081810D01*
X156695294Y-80997478D01*
X156729130Y-80963642D01*
X157918688Y-80963642D01*
X157954901Y-80978642D01*
X158366649Y-80978642D01*
X158402862Y-80963642D01*
X162521304Y-80963642D01*
X162620775Y-80983428D01*
X162720246Y-80963642D01*
X162720251Y-80963642D01*
X163014857Y-80905041D01*
X163348944Y-80681811D01*
X163405293Y-80597479D01*
X166436700Y-77566073D01*
X166497055Y-77541073D01*
X166788206Y-77249922D01*
X166945775Y-76869516D01*
X166945775Y-76457768D01*
X166788206Y-76077362D01*
X166497055Y-75786211D01*
X166116649Y-75628642D01*
X165704901Y-75628642D01*
X165324495Y-75786211D01*
X165033344Y-76077362D01*
X165008344Y-76137717D01*
X162202420Y-78943642D01*
X158451147Y-78943642D01*
X158366649Y-78908642D01*
X157954901Y-78908642D01*
X157870403Y-78943642D01*
X156410245Y-78943642D01*
X156310774Y-78923856D01*
X156211303Y-78943642D01*
X156211299Y-78943642D01*
X155916693Y-79002243D01*
X155582606Y-79225473D01*
X155526256Y-79309807D01*
X155500149Y-79335914D01*
X155461303Y-79343641D01*
X155461298Y-79343641D01*
X155166692Y-79402242D01*
X154940106Y-79553642D01*
X140945289Y-79553642D01*
X140836649Y-79508642D01*
X140424901Y-79508642D01*
X140374858Y-79529370D01*
X140015293Y-79169805D01*
X139958944Y-79085473D01*
X139624857Y-78862243D01*
X139330251Y-78803642D01*
X139330246Y-78803642D01*
X139230775Y-78783856D01*
X139131304Y-78803642D01*
X130046129Y-78803642D01*
X130916129Y-77933642D01*
X133414546Y-77933642D01*
X133474901Y-77958642D01*
X133886649Y-77958642D01*
X134267055Y-77801073D01*
X134558206Y-77509922D01*
X134715775Y-77129516D01*
X134715775Y-76863643D01*
X145891612Y-76863643D01*
X145966459Y-76878531D01*
X146041306Y-76863643D01*
X146041311Y-76863643D01*
X146262996Y-76819547D01*
X146514388Y-76651572D01*
X146556790Y-76588113D01*
X147665248Y-75479656D01*
X147728704Y-75437256D01*
X147896679Y-75185864D01*
X147925089Y-75043039D01*
X148058206Y-74909922D01*
X148215775Y-74529516D01*
X148215775Y-74117768D01*
X148058206Y-73737362D01*
X147767055Y-73446211D01*
X147386649Y-73288642D01*
X146974901Y-73288642D01*
X146594495Y-73446211D01*
X146303344Y-73737362D01*
X146145775Y-74117768D01*
X146145775Y-74529516D01*
X146239503Y-74755797D01*
X145651658Y-75343643D01*
X142134557Y-75343643D01*
X142174519Y-75283836D01*
X145318355Y-72140000D01*
X149004638Y-72140000D01*
X149306053Y-72341399D01*
X149600659Y-72400000D01*
X149600663Y-72400000D01*
X149700135Y-72419786D01*
X149799607Y-72400000D01*
X157174946Y-72400000D01*
X157274417Y-72419786D01*
X157373888Y-72400000D01*
X157373893Y-72400000D01*
X157668499Y-72341399D01*
X158002586Y-72118169D01*
X158058935Y-72033837D01*
X159379130Y-70713642D01*
X168385287Y-70713642D01*
X169290000Y-71618356D01*
X169290001Y-96498775D01*
X169270214Y-96598251D01*
X169290001Y-96697727D01*
X169320328Y-96850189D01*
X169348602Y-96992333D01*
X169515482Y-97242088D01*
X169515485Y-97242091D01*
X169571832Y-97326420D01*
X169656161Y-97382767D01*
X179290875Y-107017482D01*
X179347222Y-107101811D01*
X179431551Y-107158158D01*
X179431553Y-107158160D01*
X179681308Y-107325041D01*
X179698849Y-107328530D01*
X179975915Y-107383642D01*
X179975919Y-107383642D01*
X180075391Y-107403428D01*
X180174863Y-107383642D01*
X180854546Y-107383642D01*
X180914901Y-107408642D01*
X181326649Y-107408642D01*
X181707055Y-107251073D01*
X181998206Y-106959922D01*
X182155775Y-106579516D01*
X182155775Y-106167768D01*
X181998206Y-105787362D01*
X181707055Y-105496211D01*
X181326649Y-105338642D01*
X180914901Y-105338642D01*
X180854546Y-105363642D01*
X180493747Y-105363642D01*
X177294444Y-102164340D01*
X177447343Y-102011441D01*
X177585318Y-101678340D01*
X177607960Y-101663211D01*
X177803563Y-101370472D01*
X177854911Y-101112327D01*
X177854911Y-101112324D01*
X177872248Y-101025163D01*
X177854911Y-100938002D01*
X177854911Y-92973233D01*
X177935151Y-92779516D01*
X177935151Y-92367768D01*
X177777582Y-91987362D01*
X177486431Y-91696211D01*
X177106025Y-91538642D01*
X176694277Y-91538642D01*
X176313871Y-91696211D01*
X176022720Y-91987362D01*
X175865151Y-92367768D01*
X175865151Y-92779516D01*
X176022720Y-93159922D01*
X176084912Y-93222114D01*
X176084912Y-94529424D01*
X174810775Y-93255287D01*
X174810775Y-89179871D01*
X174835775Y-89119516D01*
X174835775Y-88707768D01*
X174678206Y-88327362D01*
X174529419Y-88178575D01*
X175139352Y-87568642D01*
X175346649Y-87568642D01*
X175727055Y-87411073D01*
X176018206Y-87119922D01*
X176175775Y-86739516D01*
X176175775Y-86327768D01*
X176026465Y-85967302D01*
X176238574Y-86055160D01*
X176650322Y-86055160D01*
X177030728Y-85897591D01*
X177321879Y-85606440D01*
X177471879Y-85244307D01*
X177564930Y-85151256D01*
X177638825Y-85101881D01*
X177834428Y-84809142D01*
X177885776Y-84550997D01*
X177885776Y-84550993D01*
X177903113Y-84463832D01*
X177885776Y-84376671D01*
X177885776Y-76478718D01*
X177935151Y-76359516D01*
X177935151Y-75947768D01*
X177777582Y-75567362D01*
X177486431Y-75276211D01*
X177106025Y-75118642D01*
X176694277Y-75118642D01*
X176313871Y-75276211D01*
X176022720Y-75567362D01*
X175865151Y-75947768D01*
X175865151Y-76359516D01*
X176022720Y-76739922D01*
X176115777Y-76832979D01*
X176115777Y-77650288D01*
X174740775Y-76275287D01*
X174740775Y-72759871D01*
X174765775Y-72699516D01*
X174765775Y-72287768D01*
X174608206Y-71907362D01*
X174443420Y-71742576D01*
X175254923Y-70931073D01*
X175617055Y-70781073D01*
X175908206Y-70489922D01*
X176065775Y-70109516D01*
X176065775Y-69697768D01*
X175908206Y-69317362D01*
X175617055Y-69026211D01*
X175236649Y-68868642D01*
X174824901Y-68868642D01*
X174444495Y-69026211D01*
X174153344Y-69317362D01*
X174003344Y-69679494D01*
X172016620Y-71666219D01*
X171942727Y-71715593D01*
X171893353Y-71789486D01*
X171893351Y-71789488D01*
X171747123Y-72008333D01*
X171678438Y-72353642D01*
X171695776Y-72440807D01*
X171695775Y-77995635D01*
X171545775Y-78357768D01*
X171545775Y-78769516D01*
X171703344Y-79149922D01*
X171994495Y-79441073D01*
X172374901Y-79598642D01*
X172786649Y-79598642D01*
X173167055Y-79441073D01*
X173458206Y-79149922D01*
X173615775Y-78769516D01*
X173615775Y-78357768D01*
X173465775Y-77995635D01*
X173465775Y-77856997D01*
X175248344Y-79639567D01*
X175273344Y-79699922D01*
X175564495Y-79991073D01*
X175944901Y-80148642D01*
X176115777Y-80148642D01*
X176115776Y-84036024D01*
X175858168Y-84142729D01*
X175567017Y-84433880D01*
X175409448Y-84814286D01*
X175409448Y-85226034D01*
X175558758Y-85586500D01*
X175346649Y-85498642D01*
X174934901Y-85498642D01*
X174554495Y-85656211D01*
X174376308Y-85834398D01*
X174358618Y-85846218D01*
X174358617Y-85846219D01*
X174284724Y-85895593D01*
X174235350Y-85969486D01*
X172016620Y-88188217D01*
X171942727Y-88237591D01*
X171893353Y-88311484D01*
X171893351Y-88311486D01*
X171747123Y-88530331D01*
X171678438Y-88875640D01*
X171695776Y-88962805D01*
X171695775Y-94655635D01*
X171545775Y-95017768D01*
X171545775Y-95429516D01*
X171703344Y-95809922D01*
X171994495Y-96101073D01*
X172374901Y-96258642D01*
X172786649Y-96258642D01*
X173167055Y-96101073D01*
X173458206Y-95809922D01*
X173615775Y-95429516D01*
X173615775Y-95017768D01*
X173544519Y-94845741D01*
X175208344Y-96509566D01*
X175233344Y-96569922D01*
X175524495Y-96861073D01*
X175904901Y-97018642D01*
X176084911Y-97018642D01*
X176084911Y-100505779D01*
X175983632Y-100547730D01*
X175830733Y-100700629D01*
X171310000Y-96179896D01*
X171310000Y-71299471D01*
X171329786Y-71200000D01*
X171310000Y-71100529D01*
X171310000Y-71100524D01*
X171251399Y-70805918D01*
X171150586Y-70655041D01*
X171084518Y-70556162D01*
X171084516Y-70556160D01*
X171028169Y-70471831D01*
X170943841Y-70415485D01*
X169588160Y-69059804D01*
X169531811Y-68975473D01*
X169197724Y-68752243D01*
X168903118Y-68693642D01*
X168903113Y-68693642D01*
X168803642Y-68673856D01*
X168704171Y-68693642D01*
X159227004Y-68693642D01*
X159166649Y-68668642D01*
X158754901Y-68668642D01*
X158374495Y-68826211D01*
X158083344Y-69117362D01*
X158058344Y-69177718D01*
X156856062Y-70380000D01*
X150135632Y-70380000D01*
X149834217Y-70178601D01*
X149539611Y-70120000D01*
X149539606Y-70120000D01*
X149440135Y-70100214D01*
X149340664Y-70120000D01*
X145166229Y-70120000D01*
X145105874Y-70095000D01*
X144694126Y-70095000D01*
X144313720Y-70252569D01*
X144022569Y-70543720D01*
X143997568Y-70604077D01*
X140971646Y-73629999D01*
X130843710Y-73629999D01*
X130576280Y-73362569D01*
X130195874Y-73205000D01*
X129784126Y-73205000D01*
X129403720Y-73362569D01*
X129112569Y-73653720D01*
X128955000Y-74034126D01*
X128955000Y-74445874D01*
X129112569Y-74826280D01*
X129403720Y-75117431D01*
X129464077Y-75142432D01*
X129605480Y-75283834D01*
X129645443Y-75343643D01*
X128225620Y-75343643D01*
X128150773Y-75328755D01*
X128075926Y-75343643D01*
X128075922Y-75343643D01*
X127854237Y-75387739D01*
X127778057Y-75438641D01*
X127730624Y-75438641D01*
X127655776Y-75423753D01*
X127580928Y-75438641D01*
X127580924Y-75438641D01*
X127407381Y-75473161D01*
X127359238Y-75482737D01*
X127175914Y-75605231D01*
X127107847Y-75650712D01*
X127065447Y-75714168D01*
X119186303Y-83593313D01*
X119122847Y-83635713D01*
X119080447Y-83699169D01*
X119080446Y-83699170D01*
X118954872Y-83887105D01*
X118895887Y-84183642D01*
X118910776Y-84258494D01*
X118910775Y-102008839D01*
X114956303Y-105963313D01*
X114892847Y-106005713D01*
X114850447Y-106069169D01*
X114850446Y-106069170D01*
X114724872Y-106257105D01*
X114665887Y-106553642D01*
X114680776Y-106628494D01*
X114680776Y-112895992D01*
X114648206Y-112817362D01*
X114357055Y-112526211D01*
X113976649Y-112368642D01*
X113564901Y-112368642D01*
X113516617Y-112388642D01*
X112038782Y-112388642D01*
X111676649Y-112238642D01*
X111508364Y-112238642D01*
X111784326Y-112124335D01*
X112300520Y-111608141D01*
X112579882Y-110933701D01*
X112579882Y-110203693D01*
X112300520Y-109529253D01*
X111784326Y-109013059D01*
X111109886Y-108733697D01*
X110379878Y-108733697D01*
X109705438Y-109013059D01*
X109189244Y-109529253D01*
X108909882Y-110203693D01*
X108909882Y-110933701D01*
X109154266Y-111523697D01*
X108509878Y-111523697D01*
X107835438Y-111803059D01*
X107319244Y-112319253D01*
X107039882Y-112993693D01*
X107039882Y-113723701D01*
X107319244Y-114398141D01*
X107835438Y-114914335D01*
X108509878Y-115193697D01*
X109239886Y-115193697D01*
X109914326Y-114914335D01*
X110430520Y-114398141D01*
X110635851Y-113902429D01*
X110884495Y-114151073D01*
X111264901Y-114308642D01*
X111676649Y-114308642D01*
X112038782Y-114158642D01*
X113062064Y-114158642D01*
X113184495Y-114281073D01*
X113564901Y-114438642D01*
X113976649Y-114438642D01*
X114357055Y-114281073D01*
X114648206Y-113989922D01*
X114680775Y-113911292D01*
X114680775Y-120871842D01*
X108466303Y-127086315D01*
X108402847Y-127128715D01*
X108360447Y-127192171D01*
X108360446Y-127192172D01*
X108234872Y-127380107D01*
X108175887Y-127676644D01*
X108190776Y-127751496D01*
X108190775Y-133228790D01*
X108175886Y-133303642D01*
X108234871Y-133600179D01*
X108370242Y-133802776D01*
X107587713Y-133478642D01*
X106101837Y-133478642D01*
X104729067Y-134047262D01*
X104442975Y-134333354D01*
X104442975Y-128512254D01*
X104400329Y-128297859D01*
X104393807Y-128288099D01*
X104347594Y-128088186D01*
X104293241Y-127967617D01*
X104242609Y-127845381D01*
X104019190Y-127511012D01*
X103881605Y-127373428D01*
X103816405Y-127308228D01*
X103482036Y-127084808D01*
X103251006Y-126989113D01*
X103217082Y-126975061D01*
X102822666Y-126896607D01*
X102812820Y-126896607D01*
X102751663Y-126884442D01*
X100224365Y-126884442D01*
X100045092Y-126848782D01*
X99954479Y-126788237D01*
X99893935Y-126697626D01*
X99870975Y-126582199D01*
X99870975Y-81167768D01*
X109279275Y-81167768D01*
X109279275Y-81579516D01*
X109436844Y-81959922D01*
X109727995Y-82251073D01*
X110108401Y-82408642D01*
X110520149Y-82408642D01*
X110900555Y-82251073D01*
X111191706Y-81959922D01*
X111349275Y-81579516D01*
X111349275Y-81167768D01*
X111199275Y-80805635D01*
X111199275Y-79100497D01*
X112800775Y-80701997D01*
X112800776Y-84847410D01*
X112775775Y-84907768D01*
X112775775Y-85319516D01*
X112933344Y-85699922D01*
X113082131Y-85848709D01*
X112462199Y-86468642D01*
X112184901Y-86468642D01*
X111804495Y-86626211D01*
X111513344Y-86917362D01*
X111355775Y-87297768D01*
X111355775Y-87709516D01*
X111500387Y-88058642D01*
X111204901Y-88058642D01*
X110824495Y-88216211D01*
X110533344Y-88507362D01*
X110383344Y-88869494D01*
X109750122Y-89502717D01*
X109676226Y-89552093D01*
X109480623Y-89844833D01*
X109429275Y-90102978D01*
X109429275Y-90102981D01*
X109411938Y-90190142D01*
X109429275Y-90277303D01*
X109429276Y-97275633D01*
X109279275Y-97637768D01*
X109279275Y-98049516D01*
X109436844Y-98429922D01*
X109727995Y-98721073D01*
X110108401Y-98878642D01*
X110520149Y-98878642D01*
X110900555Y-98721073D01*
X111191706Y-98429922D01*
X111349275Y-98049516D01*
X111349275Y-97637768D01*
X111199275Y-97275635D01*
X111199275Y-95820497D01*
X112710775Y-97331997D01*
X112710776Y-101957410D01*
X112685775Y-102017768D01*
X112685775Y-102429516D01*
X112843344Y-102809922D01*
X112992131Y-102958709D01*
X112384630Y-103566211D01*
X112022497Y-103716211D01*
X111731346Y-104007362D01*
X111573777Y-104387768D01*
X111573777Y-104799516D01*
X111731346Y-105179922D01*
X112022497Y-105471073D01*
X112402903Y-105628642D01*
X112814651Y-105628642D01*
X113195057Y-105471073D01*
X113486208Y-105179922D01*
X113636208Y-104817789D01*
X115494931Y-102959067D01*
X115568824Y-102909693D01*
X115764427Y-102616954D01*
X115815775Y-102358809D01*
X115815775Y-102358804D01*
X115833112Y-102271645D01*
X115815775Y-102184485D01*
X115815775Y-96231649D01*
X115965775Y-95869516D01*
X115965775Y-95457768D01*
X115808206Y-95077362D01*
X115517055Y-94786211D01*
X115136649Y-94628642D01*
X114724901Y-94628642D01*
X114344495Y-94786211D01*
X114053344Y-95077362D01*
X113895775Y-95457768D01*
X113895775Y-95660287D01*
X112403206Y-94167718D01*
X112378206Y-94107362D01*
X112087055Y-93816211D01*
X111706649Y-93658642D01*
X111294901Y-93658642D01*
X111199275Y-93698252D01*
X111199275Y-90556720D01*
X111634923Y-90121073D01*
X111997055Y-89971073D01*
X112288206Y-89679922D01*
X112445775Y-89299516D01*
X112445775Y-88887768D01*
X112301163Y-88538642D01*
X112596649Y-88538642D01*
X112977055Y-88381073D01*
X113020026Y-88338102D01*
X113024087Y-88337294D01*
X113316826Y-88141691D01*
X113366202Y-88067795D01*
X115474931Y-85959067D01*
X115548824Y-85909693D01*
X115616345Y-85808642D01*
X115744427Y-85616954D01*
X115756509Y-85556211D01*
X115795775Y-85358809D01*
X115795775Y-85358805D01*
X115813112Y-85271644D01*
X115795775Y-85184483D01*
X115795775Y-79421649D01*
X115945775Y-79059516D01*
X115945775Y-78647768D01*
X115788206Y-78267362D01*
X115497055Y-77976211D01*
X115116649Y-77818642D01*
X114704901Y-77818642D01*
X114324495Y-77976211D01*
X114033344Y-78267362D01*
X113875775Y-78647768D01*
X113875775Y-78920287D01*
X112323206Y-77367718D01*
X112298206Y-77307362D01*
X112007055Y-77016211D01*
X111626649Y-76858642D01*
X111214901Y-76858642D01*
X111199275Y-76865114D01*
X111199275Y-73886720D01*
X111594923Y-73491073D01*
X111957055Y-73341073D01*
X112248206Y-73049922D01*
X112405775Y-72669516D01*
X112405775Y-72257768D01*
X112248206Y-71877362D01*
X112005840Y-71634996D01*
X123095000Y-71634996D01*
X123095000Y-72365004D01*
X123374362Y-73039444D01*
X123890556Y-73555638D01*
X124564996Y-73835000D01*
X125295004Y-73835000D01*
X125969444Y-73555638D01*
X126485638Y-73039444D01*
X126765000Y-72365004D01*
X126765000Y-71634996D01*
X126485638Y-70960556D01*
X125969444Y-70444362D01*
X125295004Y-70165000D01*
X124564996Y-70165000D01*
X123890556Y-70444362D01*
X123374362Y-70960556D01*
X123095000Y-71634996D01*
X112005840Y-71634996D01*
X111957055Y-71586211D01*
X111576649Y-71428642D01*
X111164901Y-71428642D01*
X110784495Y-71586211D01*
X110493344Y-71877362D01*
X110343344Y-72239494D01*
X109750122Y-72832717D01*
X109676226Y-72882093D01*
X109480623Y-73174833D01*
X109429275Y-73432978D01*
X109429275Y-73432981D01*
X109411938Y-73520142D01*
X109429275Y-73607303D01*
X109429276Y-80805633D01*
X109279275Y-81167768D01*
X99870975Y-81167768D01*
X99870975Y-60447768D01*
X101695775Y-60447768D01*
X101695775Y-60859516D01*
X101853344Y-61239922D01*
X102144495Y-61531073D01*
X102524901Y-61688642D01*
X102546195Y-61688642D01*
X104605350Y-63747798D01*
X104654724Y-63821691D01*
X104728617Y-63871065D01*
X104728618Y-63871066D01*
X104839653Y-63945257D01*
X104947463Y-64017294D01*
X105205608Y-64068642D01*
X105205612Y-64068642D01*
X105292772Y-64085979D01*
X105379932Y-64068642D01*
X111292768Y-64068642D01*
X111654901Y-64218642D01*
X112066649Y-64218642D01*
X112447055Y-64061073D01*
X112738206Y-63769922D01*
X112895775Y-63389516D01*
X112895775Y-62977768D01*
X112738206Y-62597362D01*
X112447055Y-62306211D01*
X112066649Y-62148642D01*
X111654901Y-62148642D01*
X111619443Y-62163329D01*
X113206699Y-60576073D01*
X113267055Y-60551073D01*
X113558206Y-60259922D01*
X113715775Y-59879516D01*
X113715775Y-59708641D01*
X116688408Y-59708641D01*
X116828792Y-60047559D01*
X117119943Y-60338710D01*
X117500349Y-60496279D01*
X117885775Y-60496279D01*
X117885775Y-61774483D01*
X117868438Y-61861644D01*
X117885775Y-61948805D01*
X117885775Y-61948808D01*
X117937123Y-62206953D01*
X118132726Y-62499693D01*
X118206622Y-62549069D01*
X119355350Y-63697798D01*
X119404724Y-63771691D01*
X119478617Y-63821065D01*
X119478618Y-63821066D01*
X119508550Y-63841066D01*
X119697463Y-63967294D01*
X119955608Y-64018642D01*
X119955612Y-64018642D01*
X120042773Y-64035979D01*
X120129934Y-64018642D01*
X125832768Y-64018642D01*
X126194901Y-64168642D01*
X126606649Y-64168642D01*
X126987055Y-64011073D01*
X127278206Y-63719922D01*
X127435775Y-63339516D01*
X127435775Y-62927768D01*
X127278206Y-62547362D01*
X126987055Y-62256211D01*
X126606649Y-62098642D01*
X126264130Y-62098642D01*
X127816700Y-60546073D01*
X127877055Y-60521073D01*
X128168206Y-60229922D01*
X128325775Y-59849516D01*
X128325775Y-59452142D01*
X130927697Y-59452142D01*
X131243344Y-59767790D01*
X131393344Y-60129922D01*
X131684495Y-60421073D01*
X132064901Y-60578642D01*
X132476649Y-60578642D01*
X132857055Y-60421073D01*
X133148206Y-60129922D01*
X133305775Y-59749516D01*
X133305775Y-59337768D01*
X133148206Y-58957362D01*
X132968612Y-58777768D01*
X133785775Y-58777768D01*
X133785775Y-59189516D01*
X133815775Y-59261942D01*
X133815774Y-62344482D01*
X133798437Y-62431643D01*
X133815774Y-62518804D01*
X133815774Y-62518807D01*
X133867122Y-62776952D01*
X134062725Y-63069692D01*
X134136621Y-63119068D01*
X134745350Y-63727798D01*
X134794724Y-63801691D01*
X134868617Y-63851065D01*
X134868618Y-63851066D01*
X135072497Y-63987294D01*
X135087463Y-63997294D01*
X135345608Y-64048642D01*
X135345612Y-64048642D01*
X135432773Y-64065979D01*
X135519934Y-64048642D01*
X141332768Y-64048642D01*
X141694901Y-64198642D01*
X142106649Y-64198642D01*
X142487055Y-64041073D01*
X142778206Y-63749922D01*
X142935775Y-63369516D01*
X142935775Y-62957768D01*
X142778206Y-62577362D01*
X142487055Y-62286211D01*
X142106649Y-62128642D01*
X141714130Y-62128642D01*
X143336700Y-60506073D01*
X143397055Y-60481073D01*
X143688206Y-60189922D01*
X143845775Y-59809516D01*
X143845775Y-59638641D01*
X146697402Y-59638641D01*
X146802343Y-59743583D01*
X146952343Y-60105715D01*
X147243494Y-60396866D01*
X147623900Y-60554435D01*
X148035648Y-60554435D01*
X148416054Y-60396866D01*
X148707205Y-60105715D01*
X148864774Y-59725309D01*
X148864774Y-59313561D01*
X148707205Y-58933155D01*
X148416054Y-58642004D01*
X148188549Y-58547768D01*
X149495775Y-58547768D01*
X149495775Y-58959516D01*
X149645776Y-59321651D01*
X149645775Y-62284483D01*
X149628438Y-62371644D01*
X149645775Y-62458805D01*
X149645775Y-62458808D01*
X149697123Y-62716953D01*
X149892726Y-63009693D01*
X149966622Y-63059069D01*
X150625350Y-63717798D01*
X150674724Y-63791691D01*
X150748617Y-63841065D01*
X150748618Y-63841066D01*
X150763584Y-63851066D01*
X150967463Y-63987294D01*
X151225608Y-64038642D01*
X151225612Y-64038642D01*
X151312772Y-64055979D01*
X151399932Y-64038642D01*
X157202768Y-64038642D01*
X157564901Y-64188642D01*
X157976649Y-64188642D01*
X158357055Y-64031073D01*
X158648206Y-63739922D01*
X158805775Y-63359516D01*
X158805775Y-62947768D01*
X158648206Y-62567362D01*
X158357055Y-62276211D01*
X157976649Y-62118642D01*
X157564901Y-62118642D01*
X157392875Y-62189897D01*
X159196700Y-60386073D01*
X159257055Y-60361073D01*
X159548206Y-60069922D01*
X159705775Y-59689516D01*
X159705775Y-59518641D01*
X162694304Y-59518641D01*
X162895701Y-59720039D01*
X163045701Y-60082171D01*
X163336852Y-60373322D01*
X163717258Y-60530891D01*
X164129006Y-60530891D01*
X164509412Y-60373322D01*
X164800563Y-60082171D01*
X164958132Y-59701765D01*
X164958132Y-59290017D01*
X164800563Y-58909611D01*
X164509412Y-58618460D01*
X164147280Y-58468460D01*
X164026588Y-58347768D01*
X165695775Y-58347768D01*
X165695775Y-58759516D01*
X165845776Y-59121651D01*
X165845775Y-62354483D01*
X165828438Y-62441644D01*
X165845775Y-62528805D01*
X165845775Y-62528808D01*
X165897123Y-62786953D01*
X166092726Y-63079693D01*
X166166622Y-63129069D01*
X166755350Y-63717798D01*
X166804724Y-63791691D01*
X166878617Y-63841065D01*
X166878618Y-63841066D01*
X166893584Y-63851066D01*
X167097463Y-63987294D01*
X167355608Y-64038642D01*
X167355612Y-64038642D01*
X167442772Y-64055979D01*
X167529932Y-64038642D01*
X173502768Y-64038642D01*
X173864901Y-64188642D01*
X174276649Y-64188642D01*
X174657055Y-64031073D01*
X174948206Y-63739922D01*
X175105775Y-63359516D01*
X175105775Y-62947768D01*
X174948206Y-62567362D01*
X174657055Y-62276211D01*
X174276649Y-62118642D01*
X173904130Y-62118642D01*
X175416699Y-60606073D01*
X175477055Y-60581073D01*
X175768206Y-60289922D01*
X175925775Y-59909516D01*
X175925775Y-59738641D01*
X179194196Y-59738641D01*
X179283344Y-59827790D01*
X179433344Y-60189922D01*
X179724495Y-60481073D01*
X180104901Y-60638642D01*
X180516649Y-60638642D01*
X180897055Y-60481073D01*
X181188206Y-60189922D01*
X181345775Y-59809516D01*
X181345775Y-59397768D01*
X181188206Y-59017362D01*
X180897055Y-58726211D01*
X180534923Y-58576211D01*
X180248199Y-58289488D01*
X180198823Y-58215592D01*
X179906084Y-58019989D01*
X179647939Y-57968641D01*
X179647935Y-57968641D01*
X179560774Y-57951304D01*
X179473613Y-57968641D01*
X171678068Y-57968641D01*
X171436649Y-57868642D01*
X171024901Y-57868642D01*
X170644495Y-58026211D01*
X170353344Y-58317362D01*
X170195775Y-58697768D01*
X170195775Y-59109516D01*
X170353344Y-59489922D01*
X170644495Y-59781073D01*
X171024901Y-59938642D01*
X171436649Y-59938642D01*
X171817055Y-59781073D01*
X171859487Y-59738641D01*
X173427421Y-59738641D01*
X172102420Y-61063642D01*
X167887004Y-61063642D01*
X167826649Y-61038642D01*
X167615775Y-61038642D01*
X167615775Y-59121649D01*
X167765775Y-58759516D01*
X167765775Y-58347768D01*
X167608206Y-57967362D01*
X167317055Y-57676211D01*
X166936649Y-57518642D01*
X166524901Y-57518642D01*
X166144495Y-57676211D01*
X165853344Y-57967362D01*
X165695775Y-58347768D01*
X164026588Y-58347768D01*
X163748307Y-58069488D01*
X163698931Y-57995592D01*
X163406192Y-57799989D01*
X163148047Y-57748641D01*
X163148043Y-57748641D01*
X163060882Y-57731304D01*
X162973721Y-57748641D01*
X155557935Y-57748641D01*
X155470775Y-57731304D01*
X155383616Y-57748641D01*
X155383611Y-57748641D01*
X155125466Y-57799989D01*
X155022720Y-57868642D01*
X154994901Y-57868642D01*
X154614495Y-58026211D01*
X154323344Y-58317362D01*
X154165775Y-58697768D01*
X154165775Y-59109516D01*
X154323344Y-59489922D01*
X154614495Y-59781073D01*
X154994901Y-59938642D01*
X155406649Y-59938642D01*
X155787055Y-59781073D01*
X156049487Y-59518641D01*
X157207420Y-59518641D01*
X155692420Y-61033642D01*
X151727004Y-61033642D01*
X151666649Y-61008642D01*
X151415775Y-61008642D01*
X151415775Y-59321649D01*
X151565775Y-58959516D01*
X151565775Y-58547768D01*
X151408206Y-58167362D01*
X151117055Y-57876211D01*
X150736649Y-57718642D01*
X150324901Y-57718642D01*
X149944495Y-57876211D01*
X149653344Y-58167362D01*
X149495775Y-58547768D01*
X148188549Y-58547768D01*
X148053922Y-58492004D01*
X147751405Y-58189488D01*
X147702029Y-58115592D01*
X147409290Y-57919989D01*
X147151145Y-57868641D01*
X147151141Y-57868641D01*
X147063980Y-57851304D01*
X146976819Y-57868641D01*
X139577935Y-57868641D01*
X139490775Y-57851304D01*
X139403616Y-57868641D01*
X139403611Y-57868641D01*
X139403606Y-57868642D01*
X139134901Y-57868642D01*
X138754495Y-58026211D01*
X138463344Y-58317362D01*
X138305775Y-58697768D01*
X138305775Y-59109516D01*
X138463344Y-59489922D01*
X138754495Y-59781073D01*
X139134901Y-59938642D01*
X139546649Y-59938642D01*
X139927055Y-59781073D01*
X140069487Y-59638641D01*
X141347420Y-59638641D01*
X139972420Y-61013642D01*
X135817004Y-61013642D01*
X135756649Y-60988642D01*
X135585774Y-60988642D01*
X135585774Y-59682354D01*
X135698206Y-59569922D01*
X135855775Y-59189516D01*
X135855775Y-58777768D01*
X135698206Y-58397362D01*
X135407055Y-58106211D01*
X135026649Y-57948642D01*
X134614901Y-57948642D01*
X134234495Y-58106211D01*
X133943344Y-58397362D01*
X133785775Y-58777768D01*
X132968612Y-58777768D01*
X132857055Y-58666211D01*
X132494923Y-58516211D01*
X131981700Y-58002989D01*
X131932324Y-57929093D01*
X131639585Y-57733490D01*
X131381440Y-57682142D01*
X131381436Y-57682142D01*
X131294275Y-57664805D01*
X131207114Y-57682142D01*
X124198782Y-57682142D01*
X123836649Y-57532142D01*
X123424901Y-57532142D01*
X123044495Y-57689711D01*
X122753344Y-57980862D01*
X122595775Y-58361268D01*
X122595775Y-58773016D01*
X122753344Y-59153422D01*
X123044495Y-59444573D01*
X123424901Y-59602142D01*
X123836649Y-59602142D01*
X124198782Y-59452142D01*
X126053919Y-59452142D01*
X124532420Y-60973642D01*
X120417004Y-60973642D01*
X120356649Y-60948642D01*
X119944901Y-60948642D01*
X119655775Y-61068402D01*
X119655775Y-59341649D01*
X119805775Y-58979516D01*
X119805775Y-58567768D01*
X119648206Y-58187362D01*
X119357055Y-57896211D01*
X118976649Y-57738642D01*
X118564901Y-57738642D01*
X118184495Y-57896211D01*
X117893344Y-58187362D01*
X117831995Y-58335472D01*
X117756010Y-58259487D01*
X117706634Y-58185592D01*
X117413895Y-57989989D01*
X117155750Y-57938641D01*
X117155746Y-57938641D01*
X117068585Y-57921304D01*
X116981424Y-57938641D01*
X109395642Y-57938641D01*
X109226649Y-57868642D01*
X108814901Y-57868642D01*
X108434495Y-58026211D01*
X108143344Y-58317362D01*
X107985775Y-58697768D01*
X107985775Y-59109516D01*
X108143344Y-59489922D01*
X108434495Y-59781073D01*
X108814901Y-59938642D01*
X109226649Y-59938642D01*
X109607055Y-59781073D01*
X109679487Y-59708641D01*
X111217421Y-59708641D01*
X109882420Y-61043642D01*
X105687004Y-61043642D01*
X105626649Y-61018642D01*
X105214901Y-61018642D01*
X104834495Y-61176211D01*
X104685708Y-61324998D01*
X103735580Y-60374871D01*
X103608206Y-60067362D01*
X103317055Y-59776211D01*
X102936649Y-59618642D01*
X102524901Y-59618642D01*
X102144495Y-59776211D01*
X101853344Y-60067362D01*
X101695775Y-60447768D01*
X99870975Y-60447768D01*
X99870975Y-51607866D01*
X99939769Y-50906249D01*
X100133091Y-50265935D01*
X100447105Y-49675361D01*
X100869843Y-49157032D01*
X101385212Y-48730682D01*
X101973575Y-48412554D01*
X102104214Y-48372115D01*
X101078395Y-49397934D01*
X100509775Y-50770704D01*
X100509775Y-52256580D01*
X101078395Y-53629350D01*
X102129067Y-54680022D01*
X103501837Y-55248642D01*
X104987713Y-55248642D01*
X106360483Y-54680022D01*
X107411155Y-53629350D01*
X107979775Y-52256580D01*
X107979775Y-50770704D01*
X107411155Y-49397934D01*
X106360483Y-48347262D01*
X105863107Y-48141242D01*
X182626443Y-48141242D01*
X182129067Y-48347262D01*
X182129067Y-48347262D01*
G37*
X182129067Y-48347262D02*
X181078395Y-49397934D01*
X180509775Y-50770704D01*
X180509775Y-52256580D01*
X181078395Y-53629350D01*
X182129067Y-54680022D01*
X183501837Y-55248642D01*
X184987713Y-55248642D01*
X186360483Y-54680022D01*
X187411155Y-53629350D01*
X187681975Y-52975533D01*
X187681976Y-126531047D01*
X187646315Y-126710325D01*
X187585770Y-126800938D01*
X187495159Y-126861482D01*
X187379732Y-126884442D01*
X184890187Y-126884442D01*
X184819186Y-126898565D01*
X184819183Y-126898565D01*
X184425518Y-126976870D01*
X184160565Y-127086617D01*
X183826831Y-127309610D01*
X183624043Y-127512398D01*
X183401049Y-127846133D01*
X183300788Y-128088186D01*
X183291303Y-128111085D01*
X183212998Y-128504751D01*
X183212998Y-128517458D01*
X183198876Y-128588454D01*
X183198875Y-134585654D01*
X182660483Y-134047262D01*
X181287713Y-133478642D01*
X179801837Y-133478642D01*
X178429067Y-134047262D01*
X177378395Y-135097934D01*
X176809775Y-136470704D01*
X176809775Y-137956580D01*
X177378395Y-139329350D01*
X177620787Y-139571742D01*
X109768763Y-139571742D01*
X110011155Y-139329350D01*
X110579775Y-137956580D01*
X110579775Y-137781400D01*
X110660455Y-137976179D01*
X111053438Y-138369162D01*
X111566894Y-138581842D01*
X112122656Y-138581842D01*
X112636112Y-138369162D01*
X113029095Y-137976179D01*
X113114775Y-137769329D01*
X113200455Y-137976179D01*
X113593438Y-138369162D01*
X114106894Y-138581842D01*
X114662656Y-138581842D01*
X115176112Y-138369162D01*
X115569095Y-137976179D01*
X115654775Y-137769329D01*
X115740455Y-137976179D01*
X116133438Y-138369162D01*
X116646894Y-138581842D01*
X117202656Y-138581842D01*
X117716112Y-138369162D01*
X118109095Y-137976179D01*
X118194775Y-137769329D01*
X118280455Y-137976179D01*
X118673438Y-138369162D01*
X119186894Y-138581842D01*
X119742656Y-138581842D01*
X120256112Y-138369162D01*
X120649095Y-137976179D01*
X120734775Y-137769329D01*
X120820455Y-137976179D01*
X121213438Y-138369162D01*
X121726894Y-138581842D01*
X122282656Y-138581842D01*
X122796112Y-138369162D01*
X123189095Y-137976179D01*
X123274775Y-137769329D01*
X123360455Y-137976179D01*
X123753438Y-138369162D01*
X124266894Y-138581842D01*
X124822656Y-138581842D01*
X125336112Y-138369162D01*
X125729095Y-137976179D01*
X125814775Y-137769329D01*
X125900455Y-137976179D01*
X126293438Y-138369162D01*
X126806894Y-138581842D01*
X127362656Y-138581842D01*
X127876112Y-138369162D01*
X128269095Y-137976179D01*
X128354775Y-137769329D01*
X128440455Y-137976179D01*
X128833438Y-138369162D01*
X129346894Y-138581842D01*
X129902656Y-138581842D01*
X130416112Y-138369162D01*
X130809095Y-137976179D01*
X130894775Y-137769329D01*
X130980455Y-137976179D01*
X131373438Y-138369162D01*
X131886894Y-138581842D01*
X132442656Y-138581842D01*
X132956112Y-138369162D01*
X133349095Y-137976179D01*
X133434775Y-137769329D01*
X133520455Y-137976179D01*
X133913438Y-138369162D01*
X134426894Y-138581842D01*
X134982656Y-138581842D01*
X135496112Y-138369162D01*
X135889095Y-137976179D01*
X135974775Y-137769329D01*
X136060455Y-137976179D01*
X136453438Y-138369162D01*
X136966894Y-138581842D01*
X137522656Y-138581842D01*
X138036112Y-138369162D01*
X138429095Y-137976179D01*
X138514775Y-137769329D01*
X138600455Y-137976179D01*
X138993438Y-138369162D01*
X139506894Y-138581842D01*
X140062656Y-138581842D01*
X140576112Y-138369162D01*
X140969095Y-137976179D01*
X141054775Y-137769329D01*
X141140455Y-137976179D01*
X141533438Y-138369162D01*
X142046894Y-138581842D01*
X142602656Y-138581842D01*
X143116112Y-138369162D01*
X143509095Y-137976179D01*
X143594775Y-137769329D01*
X143680455Y-137976179D01*
X144073438Y-138369162D01*
X144586894Y-138581842D01*
X145142656Y-138581842D01*
X145656112Y-138369162D01*
X146049095Y-137976179D01*
X146134775Y-137769329D01*
X146220455Y-137976179D01*
X146613438Y-138369162D01*
X147126894Y-138581842D01*
X147682656Y-138581842D01*
X148196112Y-138369162D01*
X148589095Y-137976179D01*
X148674775Y-137769329D01*
X148760455Y-137976179D01*
X149153438Y-138369162D01*
X149666894Y-138581842D01*
X150222656Y-138581842D01*
X150736112Y-138369162D01*
X151129095Y-137976179D01*
X151214775Y-137769329D01*
X151300455Y-137976179D01*
X151693438Y-138369162D01*
X152206894Y-138581842D01*
X152762656Y-138581842D01*
X153276112Y-138369162D01*
X153669095Y-137976179D01*
X153754775Y-137769329D01*
X153840455Y-137976179D01*
X154233438Y-138369162D01*
X154746894Y-138581842D01*
X155302656Y-138581842D01*
X155816112Y-138369162D01*
X156209095Y-137976179D01*
X156294775Y-137769329D01*
X156380455Y-137976179D01*
X156773438Y-138369162D01*
X157286894Y-138581842D01*
X157842656Y-138581842D01*
X158356112Y-138369162D01*
X158749095Y-137976179D01*
X158834775Y-137769329D01*
X158920455Y-137976179D01*
X159313438Y-138369162D01*
X159826894Y-138581842D01*
X160382656Y-138581842D01*
X160896112Y-138369162D01*
X161289095Y-137976179D01*
X161374775Y-137769329D01*
X161460455Y-137976179D01*
X161853438Y-138369162D01*
X162366894Y-138581842D01*
X162922656Y-138581842D01*
X163436112Y-138369162D01*
X163829095Y-137976179D01*
X163914775Y-137769329D01*
X164000455Y-137976179D01*
X164393438Y-138369162D01*
X164906894Y-138581842D01*
X165462656Y-138581842D01*
X165976112Y-138369162D01*
X166369095Y-137976179D01*
X166454775Y-137769329D01*
X166540455Y-137976179D01*
X166933438Y-138369162D01*
X167446894Y-138581842D01*
X168002656Y-138581842D01*
X168516112Y-138369162D01*
X168909095Y-137976179D01*
X168994775Y-137769329D01*
X169080455Y-137976179D01*
X169473438Y-138369162D01*
X169986894Y-138581842D01*
X170542656Y-138581842D01*
X171056112Y-138369162D01*
X171449095Y-137976179D01*
X171534775Y-137769329D01*
X171620455Y-137976179D01*
X172013438Y-138369162D01*
X172526894Y-138581842D01*
X173082656Y-138581842D01*
X173596112Y-138369162D01*
X173989095Y-137976179D01*
X174074775Y-137769329D01*
X174160455Y-137976179D01*
X174553438Y-138369162D01*
X175066894Y-138581842D01*
X175622656Y-138581842D01*
X176136112Y-138369162D01*
X176529095Y-137976179D01*
X176741775Y-137462723D01*
X176741775Y-136906961D01*
X176529095Y-136393505D01*
X176136112Y-136000522D01*
X175929262Y-135914842D01*
X176136112Y-135829162D01*
X176529095Y-135436179D01*
X176741775Y-134922723D01*
X176741775Y-134366961D01*
X176529095Y-133853505D01*
X176136112Y-133460522D01*
X175929262Y-133374842D01*
X176136112Y-133289162D01*
X176529095Y-132896179D01*
X176741775Y-132382723D01*
X176741775Y-131826961D01*
X176529095Y-131313505D01*
X176136112Y-130920522D01*
X175929262Y-130834842D01*
X176136112Y-130749162D01*
X176529095Y-130356179D01*
X176741775Y-129842723D01*
X176741775Y-129286961D01*
X176529095Y-128773505D01*
X176136112Y-128380522D01*
X175622656Y-128167842D01*
X175066894Y-128167842D01*
X174553438Y-128380522D01*
X174160455Y-128773505D01*
X174074775Y-128980355D01*
X173989095Y-128773505D01*
X173596112Y-128380522D01*
X173082656Y-128167842D01*
X172526894Y-128167842D01*
X172013438Y-128380522D01*
X171620455Y-128773505D01*
X171534775Y-128980355D01*
X171449095Y-128773505D01*
X171056112Y-128380522D01*
X170699437Y-128232783D01*
X171768075Y-127164146D01*
X171934147Y-127164146D01*
X172314553Y-127006577D01*
X172605704Y-126715426D01*
X172763273Y-126335020D01*
X172763273Y-125923272D01*
X172605704Y-125542866D01*
X172314553Y-125251715D01*
X171934147Y-125094146D01*
X171522399Y-125094146D01*
X171141993Y-125251715D01*
X170850842Y-125542866D01*
X170693273Y-125923272D01*
X170693273Y-126089344D01*
X169613975Y-127168643D01*
X168007576Y-127168643D01*
X166497473Y-125658541D01*
X166497473Y-124981184D01*
X166783720Y-125267431D01*
X167164126Y-125425000D01*
X167575874Y-125425000D01*
X167956280Y-125267431D01*
X168247431Y-124976280D01*
X168405000Y-124595874D01*
X168405000Y-124184126D01*
X168247431Y-123803720D01*
X168222540Y-123778829D01*
X170417460Y-123778829D01*
X170534891Y-123896260D01*
X170915297Y-124053829D01*
X171103553Y-124053829D01*
X171224633Y-124134732D01*
X171446318Y-124178828D01*
X171446322Y-124178828D01*
X171521169Y-124193716D01*
X171596016Y-124178828D01*
X173526325Y-124178828D01*
X173601172Y-124193716D01*
X173676019Y-124178828D01*
X173676024Y-124178828D01*
X173897709Y-124134732D01*
X174149101Y-123966757D01*
X174191503Y-123903298D01*
X175659802Y-122435000D01*
X175680660Y-122435000D01*
X175619145Y-122583510D01*
X175619145Y-123313518D01*
X175898507Y-123987958D01*
X176414701Y-124504152D01*
X177089141Y-124783514D01*
X177819149Y-124783514D01*
X178493589Y-124504152D01*
X179009783Y-123987958D01*
X179289145Y-123313518D01*
X179289145Y-122583510D01*
X179009783Y-121909070D01*
X178493589Y-121392876D01*
X177819149Y-121113514D01*
X177089141Y-121113514D01*
X176655000Y-121293341D01*
X176655000Y-121194126D01*
X176497431Y-120813720D01*
X176206280Y-120522569D01*
X175825874Y-120365000D01*
X175414126Y-120365000D01*
X175062559Y-120510623D01*
X173970329Y-119418395D01*
X173970328Y-119418393D01*
X173841605Y-119289671D01*
X173593012Y-119041078D01*
X173550610Y-118977619D01*
X173299218Y-118809644D01*
X173077533Y-118765548D01*
X173077528Y-118765548D01*
X173002681Y-118750660D01*
X172927834Y-118765548D01*
X170073546Y-118765548D01*
X170286280Y-118677431D01*
X170301442Y-118662269D01*
X170445310Y-118633652D01*
X170738049Y-118438049D01*
X170787425Y-118364153D01*
X173004148Y-116147431D01*
X173366280Y-115997431D01*
X173657431Y-115706280D01*
X173815000Y-115325874D01*
X173815000Y-114914126D01*
X173657431Y-114533720D01*
X173366280Y-114242569D01*
X172985874Y-114085000D01*
X172574126Y-114085000D01*
X172193720Y-114242569D01*
X171902569Y-114533720D01*
X171752569Y-114895852D01*
X169883422Y-116765000D01*
X169494126Y-116765000D01*
X169113720Y-116922569D01*
X168822569Y-117213720D01*
X168665000Y-117594126D01*
X168665000Y-118005874D01*
X168822569Y-118386280D01*
X169113720Y-118677431D01*
X169326454Y-118765548D01*
X168360000Y-118765548D01*
X168360000Y-117603711D01*
X168477431Y-117486280D01*
X168635000Y-117105874D01*
X168635000Y-116694126D01*
X168477431Y-116313720D01*
X168186280Y-116022569D01*
X167805874Y-115865000D01*
X167394126Y-115865000D01*
X167013720Y-116022569D01*
X166722569Y-116313720D01*
X166565000Y-116694126D01*
X166565000Y-117105874D01*
X166722569Y-117486280D01*
X166840001Y-117603712D01*
X166840000Y-119049595D01*
X164898997Y-119049595D01*
X164824150Y-119034707D01*
X164749303Y-119049595D01*
X164749299Y-119049595D01*
X164527614Y-119093691D01*
X164406534Y-119174594D01*
X164218278Y-119174594D01*
X163837872Y-119332163D01*
X163546721Y-119623314D01*
X163389152Y-120003720D01*
X163389152Y-120415468D01*
X163546721Y-120795874D01*
X163837872Y-121087025D01*
X164218278Y-121244594D01*
X164630026Y-121244594D01*
X164814008Y-121168386D01*
X164814872Y-121172728D01*
X164977473Y-121416079D01*
X164977473Y-122013351D01*
X164933705Y-121947847D01*
X164870246Y-121905445D01*
X164588974Y-121624173D01*
X164546572Y-121560714D01*
X164295180Y-121392739D01*
X164073495Y-121348643D01*
X164073490Y-121348643D01*
X163998643Y-121333755D01*
X163923796Y-121348643D01*
X161456204Y-121348643D01*
X161381357Y-121333755D01*
X161306510Y-121348643D01*
X161306505Y-121348643D01*
X161084820Y-121392739D01*
X160833428Y-121560714D01*
X160791028Y-121624170D01*
X160011557Y-122403642D01*
X159434486Y-122403642D01*
X159317055Y-122286211D01*
X158936649Y-122128642D01*
X158524901Y-122128642D01*
X158466305Y-122152913D01*
X161190249Y-119428970D01*
X161253705Y-119386570D01*
X161421680Y-119135178D01*
X161465776Y-118913493D01*
X161465776Y-118913489D01*
X161480664Y-118838642D01*
X161465776Y-118763795D01*
X161465776Y-117188642D01*
X161566649Y-117188642D01*
X161947055Y-117031073D01*
X162238206Y-116739922D01*
X162395775Y-116359516D01*
X162395775Y-115947768D01*
X162238206Y-115567362D01*
X162120775Y-115449931D01*
X162120775Y-112343490D01*
X162135663Y-112268642D01*
X162120775Y-112193794D01*
X162120775Y-112193790D01*
X162076679Y-111972105D01*
X162076679Y-111972104D01*
X161951104Y-111784169D01*
X161908704Y-111720713D01*
X161845248Y-111678313D01*
X160720775Y-110553841D01*
X160720775Y-110387768D01*
X160563206Y-110007362D01*
X160272055Y-109716211D01*
X159891649Y-109558642D01*
X159479901Y-109558642D01*
X159099495Y-109716211D01*
X158808344Y-110007362D01*
X158650775Y-110387768D01*
X158650775Y-110799516D01*
X158808344Y-111179922D01*
X159099495Y-111471073D01*
X159479901Y-111628642D01*
X159645974Y-111628642D01*
X160600776Y-112583445D01*
X160600775Y-115449931D01*
X160483344Y-115567362D01*
X160441154Y-115669219D01*
X159935775Y-115163841D01*
X159935775Y-114997768D01*
X159778206Y-114617362D01*
X159487055Y-114326211D01*
X159106649Y-114168642D01*
X158694901Y-114168642D01*
X158509283Y-114245527D01*
X158398206Y-113977362D01*
X158107055Y-113686211D01*
X158040775Y-113658757D01*
X158040775Y-109407353D01*
X158158206Y-109289922D01*
X158315775Y-108909516D01*
X158315775Y-108743444D01*
X158485248Y-108573971D01*
X158548704Y-108531571D01*
X158611381Y-108437768D01*
X158716679Y-108280180D01*
X158732135Y-108202478D01*
X158760775Y-108058494D01*
X158760775Y-108058490D01*
X158775663Y-107983642D01*
X158760775Y-107908794D01*
X158760775Y-106518638D01*
X164855775Y-106518638D01*
X164855775Y-107248646D01*
X165135137Y-107923086D01*
X165651331Y-108439280D01*
X166325771Y-108718642D01*
X167055779Y-108718642D01*
X167730219Y-108439280D01*
X168246413Y-107923086D01*
X168525775Y-107248646D01*
X168525775Y-106518638D01*
X168246413Y-105844198D01*
X167730219Y-105328004D01*
X167055779Y-105048642D01*
X166325771Y-105048642D01*
X165651331Y-105328004D01*
X165135137Y-105844198D01*
X164855775Y-106518638D01*
X158760775Y-106518638D01*
X158760775Y-106051082D01*
X158850775Y-106051082D01*
X159098540Y-106001799D01*
X159308584Y-105861451D01*
X159448932Y-105651407D01*
X159498215Y-105403642D01*
X159498215Y-103703642D01*
X159448932Y-103455877D01*
X159308584Y-103245833D01*
X159098540Y-103105485D01*
X158850775Y-103056202D01*
X157328136Y-103056202D01*
X157045775Y-102773841D01*
X157045775Y-102607768D01*
X156888206Y-102227362D01*
X156597055Y-101936211D01*
X156216649Y-101778642D01*
X155804901Y-101778642D01*
X155424495Y-101936211D01*
X155133344Y-102227362D01*
X154975775Y-102607768D01*
X154975775Y-103019516D01*
X155133344Y-103399922D01*
X155424495Y-103691073D01*
X155804901Y-103848642D01*
X155970974Y-103848642D01*
X156503335Y-104381004D01*
X156503335Y-105403642D01*
X156552618Y-105651407D01*
X156692966Y-105861451D01*
X156903010Y-106001799D01*
X157150775Y-106051082D01*
X157240775Y-106051082D01*
X157240776Y-107668642D01*
X157074901Y-107668642D01*
X156694495Y-107826211D01*
X156403344Y-108117362D01*
X156245775Y-108497768D01*
X156245775Y-108909516D01*
X156403344Y-109289922D01*
X156520775Y-109407353D01*
X156520776Y-112988841D01*
X153473482Y-109941548D01*
X153547055Y-109911073D01*
X153838206Y-109619922D01*
X153995775Y-109239516D01*
X153995775Y-108827768D01*
X153838206Y-108447362D01*
X153720775Y-108329931D01*
X153720775Y-102288443D01*
X156281104Y-99728115D01*
X156281106Y-99728112D01*
X156440576Y-99568642D01*
X156505580Y-99568642D01*
X156601936Y-100053060D01*
X156930150Y-100544267D01*
X157421357Y-100872481D01*
X157854519Y-100958642D01*
X158147031Y-100958642D01*
X158580193Y-100872481D01*
X159071400Y-100544267D01*
X159399614Y-100053060D01*
X159514867Y-99473642D01*
X159399614Y-98894224D01*
X159071400Y-98403017D01*
X158773014Y-98203642D01*
X159071400Y-98004267D01*
X159399614Y-97513060D01*
X159514867Y-96933642D01*
X159399614Y-96354224D01*
X159071400Y-95863017D01*
X158580193Y-95534803D01*
X158569537Y-95532683D01*
X162200250Y-91901972D01*
X162263703Y-91859574D01*
X162306101Y-91796121D01*
X162306103Y-91796119D01*
X162410741Y-91639516D01*
X162431678Y-91608182D01*
X162475774Y-91386497D01*
X162475774Y-91386493D01*
X162490662Y-91311646D01*
X162475774Y-91236799D01*
X162475774Y-89312958D01*
X162875771Y-89478642D01*
X163605779Y-89478642D01*
X164280219Y-89199280D01*
X164796413Y-88683086D01*
X165075775Y-88008646D01*
X165075775Y-87278638D01*
X164796413Y-86604198D01*
X164280219Y-86088004D01*
X163809281Y-85892935D01*
X165048575Y-84653642D01*
X165207065Y-84653642D01*
X165324496Y-84771073D01*
X165704902Y-84928642D01*
X166116650Y-84928642D01*
X166497056Y-84771073D01*
X166788207Y-84479922D01*
X166945776Y-84099516D01*
X166945776Y-83687768D01*
X166788207Y-83307362D01*
X166497056Y-83016211D01*
X166116650Y-82858642D01*
X165704902Y-82858642D01*
X165324496Y-83016211D01*
X165207065Y-83133642D01*
X164808619Y-83133642D01*
X164733772Y-83118754D01*
X164658925Y-83133642D01*
X164658921Y-83133642D01*
X164437236Y-83177738D01*
X164185844Y-83345713D01*
X164143444Y-83409169D01*
X161231304Y-86321310D01*
X161167845Y-86363712D01*
X160999870Y-86615105D01*
X160955774Y-86836790D01*
X160955774Y-86836794D01*
X160940886Y-86911641D01*
X160955774Y-86986488D01*
X160955774Y-87058494D01*
X160955775Y-87058499D01*
X160955774Y-90996842D01*
X159031730Y-92920886D01*
X158887055Y-92776211D01*
X158506649Y-92618642D01*
X158094901Y-92618642D01*
X157714495Y-92776211D01*
X157423344Y-93067362D01*
X157398344Y-93127717D01*
X155682420Y-94843642D01*
X132039130Y-94843642D01*
X131095293Y-93899805D01*
X131038944Y-93815473D01*
X130704857Y-93592243D01*
X130410251Y-93533642D01*
X130410246Y-93533642D01*
X130310775Y-93513856D01*
X130211304Y-93533642D01*
X128347004Y-93533642D01*
X128286649Y-93508642D01*
X127874901Y-93508642D01*
X127735775Y-93566270D01*
X127735775Y-93307768D01*
X127710775Y-93247413D01*
X127710775Y-83259871D01*
X127735775Y-83199516D01*
X127735775Y-82787768D01*
X127710775Y-82727413D01*
X127710775Y-82581997D01*
X127824134Y-82468638D01*
X128575775Y-82468638D01*
X128575775Y-83198646D01*
X128855137Y-83873086D01*
X129371331Y-84389280D01*
X130045771Y-84668642D01*
X130775779Y-84668642D01*
X131450219Y-84389280D01*
X131966413Y-83873086D01*
X132245775Y-83198646D01*
X132245775Y-82468638D01*
X131966413Y-81794198D01*
X131450219Y-81278004D01*
X130775779Y-80998642D01*
X130045771Y-80998642D01*
X129371331Y-81278004D01*
X128855137Y-81794198D01*
X128575775Y-82468638D01*
X127824134Y-82468638D01*
X129469131Y-80823642D01*
X133550697Y-80823642D01*
X133544495Y-80826211D01*
X133253344Y-81117362D01*
X133095775Y-81497768D01*
X133095775Y-81909516D01*
X133253344Y-82289922D01*
X133386461Y-82423039D01*
X133414871Y-82565864D01*
X133582847Y-82817256D01*
X133646303Y-82859656D01*
X133810775Y-83024128D01*
X133810776Y-83648788D01*
X133810775Y-83648791D01*
X133810775Y-84018791D01*
X133810776Y-85399930D01*
X133693344Y-85517362D01*
X133535775Y-85897768D01*
X133535775Y-86066843D01*
X133405775Y-85936843D01*
X133405775Y-85770770D01*
X133248206Y-85390364D01*
X132957055Y-85099213D01*
X132576649Y-84941644D01*
X132164901Y-84941644D01*
X131784495Y-85099213D01*
X131493344Y-85390364D01*
X131335775Y-85770770D01*
X131335775Y-86182518D01*
X131493344Y-86562924D01*
X131784495Y-86854075D01*
X132164901Y-87011644D01*
X132330974Y-87011644D01*
X133575018Y-88255688D01*
X133353344Y-88477362D01*
X133195775Y-88857768D01*
X133195775Y-89023840D01*
X132216305Y-90003311D01*
X132152846Y-90045713D01*
X131984871Y-90297106D01*
X131940775Y-90518791D01*
X131940775Y-90518795D01*
X131925887Y-90593642D01*
X131940775Y-90668489D01*
X131940776Y-92724930D01*
X131823344Y-92842362D01*
X131665775Y-93222768D01*
X131665775Y-93634516D01*
X131823344Y-94014922D01*
X132114495Y-94306073D01*
X132494901Y-94463642D01*
X132906649Y-94463642D01*
X133287055Y-94306073D01*
X133578206Y-94014922D01*
X133735775Y-93634516D01*
X133735775Y-93222768D01*
X133578206Y-92842362D01*
X133460775Y-92724931D01*
X133460775Y-90908443D01*
X134270577Y-90098642D01*
X134436649Y-90098642D01*
X134817055Y-89941073D01*
X135038729Y-89719399D01*
X138957444Y-93638115D01*
X138999844Y-93701571D01*
X139251236Y-93869546D01*
X139472921Y-93913642D01*
X139472926Y-93913642D01*
X139547773Y-93928530D01*
X139622620Y-93913642D01*
X146777064Y-93913642D01*
X146894495Y-94031073D01*
X147274901Y-94188642D01*
X147686649Y-94188642D01*
X148067055Y-94031073D01*
X148358206Y-93739922D01*
X148515775Y-93359516D01*
X148515775Y-92947768D01*
X148358206Y-92567362D01*
X148067055Y-92276211D01*
X147686649Y-92118642D01*
X147274901Y-92118642D01*
X146894495Y-92276211D01*
X146777064Y-92393642D01*
X139862575Y-92393642D01*
X139633530Y-92164598D01*
X139778206Y-92019922D01*
X139935775Y-91639516D01*
X139935775Y-91227768D01*
X139778206Y-90847362D01*
X139487055Y-90556211D01*
X139360775Y-90503904D01*
X139360775Y-87137353D01*
X139478206Y-87019922D01*
X139635775Y-86639516D01*
X139635775Y-86227768D01*
X139478206Y-85847362D01*
X139187055Y-85556211D01*
X138806649Y-85398642D01*
X138394901Y-85398642D01*
X138014495Y-85556211D01*
X137723344Y-85847362D01*
X137565775Y-86227768D01*
X137565775Y-86639516D01*
X137723344Y-87019922D01*
X137840775Y-87137353D01*
X137840776Y-90371843D01*
X134607574Y-87138642D01*
X134776649Y-87138642D01*
X135157055Y-86981073D01*
X135448206Y-86689922D01*
X135605775Y-86309516D01*
X135605775Y-85897768D01*
X135448206Y-85517362D01*
X135330775Y-85399931D01*
X135330775Y-84277768D01*
X135755775Y-84277768D01*
X135755775Y-84689516D01*
X135913344Y-85069922D01*
X136204495Y-85361073D01*
X136584901Y-85518642D01*
X136996649Y-85518642D01*
X137377055Y-85361073D01*
X137534486Y-85203642D01*
X138995974Y-85203642D01*
X140185447Y-86393116D01*
X140227848Y-86456573D01*
X140291304Y-86498973D01*
X140479239Y-86624548D01*
X140487600Y-86626211D01*
X140700925Y-86668644D01*
X140700929Y-86668644D01*
X140775777Y-86683532D01*
X140794923Y-86679724D01*
X142088779Y-87973581D01*
X141985000Y-88224126D01*
X141985000Y-88635874D01*
X142142569Y-89016280D01*
X142433720Y-89307431D01*
X142814126Y-89465000D01*
X143225874Y-89465000D01*
X143606280Y-89307431D01*
X143897431Y-89016280D01*
X144055000Y-88635874D01*
X144055000Y-88224126D01*
X143926955Y-87914996D01*
X147195000Y-87914996D01*
X147195000Y-88645004D01*
X147474362Y-89319444D01*
X147990556Y-89835638D01*
X148664996Y-90115000D01*
X149395004Y-90115000D01*
X150069444Y-89835638D01*
X150585638Y-89319444D01*
X150865000Y-88645004D01*
X150865000Y-87914996D01*
X150585638Y-87240556D01*
X150069444Y-86724362D01*
X149395004Y-86445000D01*
X148664996Y-86445000D01*
X147990556Y-86724362D01*
X147474362Y-87240556D01*
X147195000Y-87914996D01*
X143926955Y-87914996D01*
X143897431Y-87843720D01*
X143772834Y-87719123D01*
X143742902Y-87568642D01*
X143735904Y-87533462D01*
X143610329Y-87345527D01*
X143567929Y-87282071D01*
X143504473Y-87239671D01*
X141688975Y-85424174D01*
X141646573Y-85360715D01*
X141395181Y-85192740D01*
X141173496Y-85148644D01*
X141173491Y-85148644D01*
X141098644Y-85133756D01*
X141079499Y-85137564D01*
X139901106Y-83959172D01*
X139858704Y-83895713D01*
X139607312Y-83727738D01*
X139385627Y-83683642D01*
X139385622Y-83683642D01*
X139310775Y-83668754D01*
X139235928Y-83683642D01*
X137454486Y-83683642D01*
X137377055Y-83606211D01*
X136996649Y-83448642D01*
X136584901Y-83448642D01*
X136204495Y-83606211D01*
X135913344Y-83897362D01*
X135755775Y-84277768D01*
X135330775Y-84277768D01*
X135330775Y-82784174D01*
X135345663Y-82709327D01*
X135330775Y-82634480D01*
X135330775Y-82634475D01*
X135286679Y-82412790D01*
X135118704Y-82161398D01*
X135073855Y-82131431D01*
X135165775Y-81909516D01*
X135165775Y-81497768D01*
X135008206Y-81117362D01*
X134717055Y-80826211D01*
X134710853Y-80823642D01*
X138812420Y-80823642D01*
X139196257Y-81207479D01*
X139252606Y-81291811D01*
X139586693Y-81515041D01*
X139881299Y-81573642D01*
X139881303Y-81573642D01*
X139980774Y-81593428D01*
X140080245Y-81573642D01*
X140412830Y-81573642D01*
X140424901Y-81578642D01*
X140836649Y-81578642D01*
X140848720Y-81573642D01*
X151835775Y-81573642D01*
X151835775Y-81909516D01*
X151993344Y-82289922D01*
X152284495Y-82581073D01*
X152664901Y-82738642D01*
X153076649Y-82738642D01*
X153457055Y-82581073D01*
X153568662Y-82469466D01*
X153597942Y-82463642D01*
X153597947Y-82463642D01*
X153636557Y-82455962D01*
X154968294Y-82455962D01*
X155320974Y-82808642D01*
X154914901Y-82808642D01*
X154534495Y-82966211D01*
X154243344Y-83257362D01*
X154085775Y-83637768D01*
X154085775Y-84049516D01*
X154243344Y-84429922D01*
X154360775Y-84547353D01*
X154360776Y-87793609D01*
X154354495Y-87796211D01*
X154063344Y-88087362D01*
X153905775Y-88467768D01*
X153905775Y-88879516D01*
X154063344Y-89259922D01*
X154354495Y-89551073D01*
X154734901Y-89708642D01*
X155146649Y-89708642D01*
X155527055Y-89551073D01*
X155818206Y-89259922D01*
X155975775Y-88879516D01*
X155975775Y-88467768D01*
X155880775Y-88238417D01*
X155880775Y-84547353D01*
X155998206Y-84429922D01*
X156155775Y-84049516D01*
X156155775Y-83643444D01*
X156501037Y-83988706D01*
X156603846Y-84142571D01*
X156667305Y-84184973D01*
X157495775Y-85013444D01*
X157495775Y-85179516D01*
X157653344Y-85559922D01*
X157944495Y-85851073D01*
X158324901Y-86008642D01*
X158736649Y-86008642D01*
X159117055Y-85851073D01*
X159408206Y-85559922D01*
X159565775Y-85179516D01*
X159565775Y-84767768D01*
X159408206Y-84387362D01*
X159117055Y-84096211D01*
X158736649Y-83938642D01*
X158570577Y-83938642D01*
X157802516Y-83170582D01*
X157742104Y-83080169D01*
X157699704Y-83016713D01*
X157636248Y-82974313D01*
X156023033Y-81361099D01*
X156304858Y-81305040D01*
X156638945Y-81081810D01*
X156695294Y-80997478D01*
X156729130Y-80963642D01*
X157918688Y-80963642D01*
X157954901Y-80978642D01*
X158366649Y-80978642D01*
X158402862Y-80963642D01*
X162521304Y-80963642D01*
X162620775Y-80983428D01*
X162720246Y-80963642D01*
X162720251Y-80963642D01*
X163014857Y-80905041D01*
X163348944Y-80681811D01*
X163405293Y-80597479D01*
X166436700Y-77566073D01*
X166497055Y-77541073D01*
X166788206Y-77249922D01*
X166945775Y-76869516D01*
X166945775Y-76457768D01*
X166788206Y-76077362D01*
X166497055Y-75786211D01*
X166116649Y-75628642D01*
X165704901Y-75628642D01*
X165324495Y-75786211D01*
X165033344Y-76077362D01*
X165008344Y-76137717D01*
X162202420Y-78943642D01*
X158451147Y-78943642D01*
X158366649Y-78908642D01*
X157954901Y-78908642D01*
X157870403Y-78943642D01*
X156410245Y-78943642D01*
X156310774Y-78923856D01*
X156211303Y-78943642D01*
X156211299Y-78943642D01*
X155916693Y-79002243D01*
X155582606Y-79225473D01*
X155526256Y-79309807D01*
X155500149Y-79335914D01*
X155461303Y-79343641D01*
X155461298Y-79343641D01*
X155166692Y-79402242D01*
X154940106Y-79553642D01*
X140945289Y-79553642D01*
X140836649Y-79508642D01*
X140424901Y-79508642D01*
X140374858Y-79529370D01*
X140015293Y-79169805D01*
X139958944Y-79085473D01*
X139624857Y-78862243D01*
X139330251Y-78803642D01*
X139330246Y-78803642D01*
X139230775Y-78783856D01*
X139131304Y-78803642D01*
X130046129Y-78803642D01*
X130916129Y-77933642D01*
X133414546Y-77933642D01*
X133474901Y-77958642D01*
X133886649Y-77958642D01*
X134267055Y-77801073D01*
X134558206Y-77509922D01*
X134715775Y-77129516D01*
X134715775Y-76863643D01*
X145891612Y-76863643D01*
X145966459Y-76878531D01*
X146041306Y-76863643D01*
X146041311Y-76863643D01*
X146262996Y-76819547D01*
X146514388Y-76651572D01*
X146556790Y-76588113D01*
X147665248Y-75479656D01*
X147728704Y-75437256D01*
X147896679Y-75185864D01*
X147925089Y-75043039D01*
X148058206Y-74909922D01*
X148215775Y-74529516D01*
X148215775Y-74117768D01*
X148058206Y-73737362D01*
X147767055Y-73446211D01*
X147386649Y-73288642D01*
X146974901Y-73288642D01*
X146594495Y-73446211D01*
X146303344Y-73737362D01*
X146145775Y-74117768D01*
X146145775Y-74529516D01*
X146239503Y-74755797D01*
X145651658Y-75343643D01*
X142134557Y-75343643D01*
X142174519Y-75283836D01*
X145318355Y-72140000D01*
X149004638Y-72140000D01*
X149306053Y-72341399D01*
X149600659Y-72400000D01*
X149600663Y-72400000D01*
X149700135Y-72419786D01*
X149799607Y-72400000D01*
X157174946Y-72400000D01*
X157274417Y-72419786D01*
X157373888Y-72400000D01*
X157373893Y-72400000D01*
X157668499Y-72341399D01*
X158002586Y-72118169D01*
X158058935Y-72033837D01*
X159379130Y-70713642D01*
X168385287Y-70713642D01*
X169290000Y-71618356D01*
X169290001Y-96498775D01*
X169270214Y-96598251D01*
X169290001Y-96697727D01*
X169320328Y-96850189D01*
X169348602Y-96992333D01*
X169515482Y-97242088D01*
X169515485Y-97242091D01*
X169571832Y-97326420D01*
X169656161Y-97382767D01*
X179290875Y-107017482D01*
X179347222Y-107101811D01*
X179431551Y-107158158D01*
X179431553Y-107158160D01*
X179681308Y-107325041D01*
X179698849Y-107328530D01*
X179975915Y-107383642D01*
X179975919Y-107383642D01*
X180075391Y-107403428D01*
X180174863Y-107383642D01*
X180854546Y-107383642D01*
X180914901Y-107408642D01*
X181326649Y-107408642D01*
X181707055Y-107251073D01*
X181998206Y-106959922D01*
X182155775Y-106579516D01*
X182155775Y-106167768D01*
X181998206Y-105787362D01*
X181707055Y-105496211D01*
X181326649Y-105338642D01*
X180914901Y-105338642D01*
X180854546Y-105363642D01*
X180493747Y-105363642D01*
X177294444Y-102164340D01*
X177447343Y-102011441D01*
X177585318Y-101678340D01*
X177607960Y-101663211D01*
X177803563Y-101370472D01*
X177854911Y-101112327D01*
X177854911Y-101112324D01*
X177872248Y-101025163D01*
X177854911Y-100938002D01*
X177854911Y-92973233D01*
X177935151Y-92779516D01*
X177935151Y-92367768D01*
X177777582Y-91987362D01*
X177486431Y-91696211D01*
X177106025Y-91538642D01*
X176694277Y-91538642D01*
X176313871Y-91696211D01*
X176022720Y-91987362D01*
X175865151Y-92367768D01*
X175865151Y-92779516D01*
X176022720Y-93159922D01*
X176084912Y-93222114D01*
X176084912Y-94529424D01*
X174810775Y-93255287D01*
X174810775Y-89179871D01*
X174835775Y-89119516D01*
X174835775Y-88707768D01*
X174678206Y-88327362D01*
X174529419Y-88178575D01*
X175139352Y-87568642D01*
X175346649Y-87568642D01*
X175727055Y-87411073D01*
X176018206Y-87119922D01*
X176175775Y-86739516D01*
X176175775Y-86327768D01*
X176026465Y-85967302D01*
X176238574Y-86055160D01*
X176650322Y-86055160D01*
X177030728Y-85897591D01*
X177321879Y-85606440D01*
X177471879Y-85244307D01*
X177564930Y-85151256D01*
X177638825Y-85101881D01*
X177834428Y-84809142D01*
X177885776Y-84550997D01*
X177885776Y-84550993D01*
X177903113Y-84463832D01*
X177885776Y-84376671D01*
X177885776Y-76478718D01*
X177935151Y-76359516D01*
X177935151Y-75947768D01*
X177777582Y-75567362D01*
X177486431Y-75276211D01*
X177106025Y-75118642D01*
X176694277Y-75118642D01*
X176313871Y-75276211D01*
X176022720Y-75567362D01*
X175865151Y-75947768D01*
X175865151Y-76359516D01*
X176022720Y-76739922D01*
X176115777Y-76832979D01*
X176115777Y-77650288D01*
X174740775Y-76275287D01*
X174740775Y-72759871D01*
X174765775Y-72699516D01*
X174765775Y-72287768D01*
X174608206Y-71907362D01*
X174443420Y-71742576D01*
X175254923Y-70931073D01*
X175617055Y-70781073D01*
X175908206Y-70489922D01*
X176065775Y-70109516D01*
X176065775Y-69697768D01*
X175908206Y-69317362D01*
X175617055Y-69026211D01*
X175236649Y-68868642D01*
X174824901Y-68868642D01*
X174444495Y-69026211D01*
X174153344Y-69317362D01*
X174003344Y-69679494D01*
X172016620Y-71666219D01*
X171942727Y-71715593D01*
X171893353Y-71789486D01*
X171893351Y-71789488D01*
X171747123Y-72008333D01*
X171678438Y-72353642D01*
X171695776Y-72440807D01*
X171695775Y-77995635D01*
X171545775Y-78357768D01*
X171545775Y-78769516D01*
X171703344Y-79149922D01*
X171994495Y-79441073D01*
X172374901Y-79598642D01*
X172786649Y-79598642D01*
X173167055Y-79441073D01*
X173458206Y-79149922D01*
X173615775Y-78769516D01*
X173615775Y-78357768D01*
X173465775Y-77995635D01*
X173465775Y-77856997D01*
X175248344Y-79639567D01*
X175273344Y-79699922D01*
X175564495Y-79991073D01*
X175944901Y-80148642D01*
X176115777Y-80148642D01*
X176115776Y-84036024D01*
X175858168Y-84142729D01*
X175567017Y-84433880D01*
X175409448Y-84814286D01*
X175409448Y-85226034D01*
X175558758Y-85586500D01*
X175346649Y-85498642D01*
X174934901Y-85498642D01*
X174554495Y-85656211D01*
X174376308Y-85834398D01*
X174358618Y-85846218D01*
X174358617Y-85846219D01*
X174284724Y-85895593D01*
X174235350Y-85969486D01*
X172016620Y-88188217D01*
X171942727Y-88237591D01*
X171893353Y-88311484D01*
X171893351Y-88311486D01*
X171747123Y-88530331D01*
X171678438Y-88875640D01*
X171695776Y-88962805D01*
X171695775Y-94655635D01*
X171545775Y-95017768D01*
X171545775Y-95429516D01*
X171703344Y-95809922D01*
X171994495Y-96101073D01*
X172374901Y-96258642D01*
X172786649Y-96258642D01*
X173167055Y-96101073D01*
X173458206Y-95809922D01*
X173615775Y-95429516D01*
X173615775Y-95017768D01*
X173544519Y-94845741D01*
X175208344Y-96509566D01*
X175233344Y-96569922D01*
X175524495Y-96861073D01*
X175904901Y-97018642D01*
X176084911Y-97018642D01*
X176084911Y-100505779D01*
X175983632Y-100547730D01*
X175830733Y-100700629D01*
X171310000Y-96179896D01*
X171310000Y-71299471D01*
X171329786Y-71200000D01*
X171310000Y-71100529D01*
X171310000Y-71100524D01*
X171251399Y-70805918D01*
X171150586Y-70655041D01*
X171084518Y-70556162D01*
X171084516Y-70556160D01*
X171028169Y-70471831D01*
X170943841Y-70415485D01*
X169588160Y-69059804D01*
X169531811Y-68975473D01*
X169197724Y-68752243D01*
X168903118Y-68693642D01*
X168903113Y-68693642D01*
X168803642Y-68673856D01*
X168704171Y-68693642D01*
X159227004Y-68693642D01*
X159166649Y-68668642D01*
X158754901Y-68668642D01*
X158374495Y-68826211D01*
X158083344Y-69117362D01*
X158058344Y-69177718D01*
X156856062Y-70380000D01*
X150135632Y-70380000D01*
X149834217Y-70178601D01*
X149539611Y-70120000D01*
X149539606Y-70120000D01*
X149440135Y-70100214D01*
X149340664Y-70120000D01*
X145166229Y-70120000D01*
X145105874Y-70095000D01*
X144694126Y-70095000D01*
X144313720Y-70252569D01*
X144022569Y-70543720D01*
X143997568Y-70604077D01*
X140971646Y-73629999D01*
X130843710Y-73629999D01*
X130576280Y-73362569D01*
X130195874Y-73205000D01*
X129784126Y-73205000D01*
X129403720Y-73362569D01*
X129112569Y-73653720D01*
X128955000Y-74034126D01*
X128955000Y-74445874D01*
X129112569Y-74826280D01*
X129403720Y-75117431D01*
X129464077Y-75142432D01*
X129605480Y-75283834D01*
X129645443Y-75343643D01*
X128225620Y-75343643D01*
X128150773Y-75328755D01*
X128075926Y-75343643D01*
X128075922Y-75343643D01*
X127854237Y-75387739D01*
X127778057Y-75438641D01*
X127730624Y-75438641D01*
X127655776Y-75423753D01*
X127580928Y-75438641D01*
X127580924Y-75438641D01*
X127407381Y-75473161D01*
X127359238Y-75482737D01*
X127175914Y-75605231D01*
X127107847Y-75650712D01*
X127065447Y-75714168D01*
X119186303Y-83593313D01*
X119122847Y-83635713D01*
X119080447Y-83699169D01*
X119080446Y-83699170D01*
X118954872Y-83887105D01*
X118895887Y-84183642D01*
X118910776Y-84258494D01*
X118910775Y-102008839D01*
X114956303Y-105963313D01*
X114892847Y-106005713D01*
X114850447Y-106069169D01*
X114850446Y-106069170D01*
X114724872Y-106257105D01*
X114665887Y-106553642D01*
X114680776Y-106628494D01*
X114680776Y-112895992D01*
X114648206Y-112817362D01*
X114357055Y-112526211D01*
X113976649Y-112368642D01*
X113564901Y-112368642D01*
X113516617Y-112388642D01*
X112038782Y-112388642D01*
X111676649Y-112238642D01*
X111508364Y-112238642D01*
X111784326Y-112124335D01*
X112300520Y-111608141D01*
X112579882Y-110933701D01*
X112579882Y-110203693D01*
X112300520Y-109529253D01*
X111784326Y-109013059D01*
X111109886Y-108733697D01*
X110379878Y-108733697D01*
X109705438Y-109013059D01*
X109189244Y-109529253D01*
X108909882Y-110203693D01*
X108909882Y-110933701D01*
X109154266Y-111523697D01*
X108509878Y-111523697D01*
X107835438Y-111803059D01*
X107319244Y-112319253D01*
X107039882Y-112993693D01*
X107039882Y-113723701D01*
X107319244Y-114398141D01*
X107835438Y-114914335D01*
X108509878Y-115193697D01*
X109239886Y-115193697D01*
X109914326Y-114914335D01*
X110430520Y-114398141D01*
X110635851Y-113902429D01*
X110884495Y-114151073D01*
X111264901Y-114308642D01*
X111676649Y-114308642D01*
X112038782Y-114158642D01*
X113062064Y-114158642D01*
X113184495Y-114281073D01*
X113564901Y-114438642D01*
X113976649Y-114438642D01*
X114357055Y-114281073D01*
X114648206Y-113989922D01*
X114680775Y-113911292D01*
X114680775Y-120871842D01*
X108466303Y-127086315D01*
X108402847Y-127128715D01*
X108360447Y-127192171D01*
X108360446Y-127192172D01*
X108234872Y-127380107D01*
X108175887Y-127676644D01*
X108190776Y-127751496D01*
X108190775Y-133228790D01*
X108175886Y-133303642D01*
X108234871Y-133600179D01*
X108370242Y-133802776D01*
X107587713Y-133478642D01*
X106101837Y-133478642D01*
X104729067Y-134047262D01*
X104442975Y-134333354D01*
X104442975Y-128512254D01*
X104400329Y-128297859D01*
X104393807Y-128288099D01*
X104347594Y-128088186D01*
X104293241Y-127967617D01*
X104242609Y-127845381D01*
X104019190Y-127511012D01*
X103881605Y-127373428D01*
X103816405Y-127308228D01*
X103482036Y-127084808D01*
X103251006Y-126989113D01*
X103217082Y-126975061D01*
X102822666Y-126896607D01*
X102812820Y-126896607D01*
X102751663Y-126884442D01*
X100224365Y-126884442D01*
X100045092Y-126848782D01*
X99954479Y-126788237D01*
X99893935Y-126697626D01*
X99870975Y-126582199D01*
X99870975Y-81167768D01*
X109279275Y-81167768D01*
X109279275Y-81579516D01*
X109436844Y-81959922D01*
X109727995Y-82251073D01*
X110108401Y-82408642D01*
X110520149Y-82408642D01*
X110900555Y-82251073D01*
X111191706Y-81959922D01*
X111349275Y-81579516D01*
X111349275Y-81167768D01*
X111199275Y-80805635D01*
X111199275Y-79100497D01*
X112800775Y-80701997D01*
X112800776Y-84847410D01*
X112775775Y-84907768D01*
X112775775Y-85319516D01*
X112933344Y-85699922D01*
X113082131Y-85848709D01*
X112462199Y-86468642D01*
X112184901Y-86468642D01*
X111804495Y-86626211D01*
X111513344Y-86917362D01*
X111355775Y-87297768D01*
X111355775Y-87709516D01*
X111500387Y-88058642D01*
X111204901Y-88058642D01*
X110824495Y-88216211D01*
X110533344Y-88507362D01*
X110383344Y-88869494D01*
X109750122Y-89502717D01*
X109676226Y-89552093D01*
X109480623Y-89844833D01*
X109429275Y-90102978D01*
X109429275Y-90102981D01*
X109411938Y-90190142D01*
X109429275Y-90277303D01*
X109429276Y-97275633D01*
X109279275Y-97637768D01*
X109279275Y-98049516D01*
X109436844Y-98429922D01*
X109727995Y-98721073D01*
X110108401Y-98878642D01*
X110520149Y-98878642D01*
X110900555Y-98721073D01*
X111191706Y-98429922D01*
X111349275Y-98049516D01*
X111349275Y-97637768D01*
X111199275Y-97275635D01*
X111199275Y-95820497D01*
X112710775Y-97331997D01*
X112710776Y-101957410D01*
X112685775Y-102017768D01*
X112685775Y-102429516D01*
X112843344Y-102809922D01*
X112992131Y-102958709D01*
X112384630Y-103566211D01*
X112022497Y-103716211D01*
X111731346Y-104007362D01*
X111573777Y-104387768D01*
X111573777Y-104799516D01*
X111731346Y-105179922D01*
X112022497Y-105471073D01*
X112402903Y-105628642D01*
X112814651Y-105628642D01*
X113195057Y-105471073D01*
X113486208Y-105179922D01*
X113636208Y-104817789D01*
X115494931Y-102959067D01*
X115568824Y-102909693D01*
X115764427Y-102616954D01*
X115815775Y-102358809D01*
X115815775Y-102358804D01*
X115833112Y-102271645D01*
X115815775Y-102184485D01*
X115815775Y-96231649D01*
X115965775Y-95869516D01*
X115965775Y-95457768D01*
X115808206Y-95077362D01*
X115517055Y-94786211D01*
X115136649Y-94628642D01*
X114724901Y-94628642D01*
X114344495Y-94786211D01*
X114053344Y-95077362D01*
X113895775Y-95457768D01*
X113895775Y-95660287D01*
X112403206Y-94167718D01*
X112378206Y-94107362D01*
X112087055Y-93816211D01*
X111706649Y-93658642D01*
X111294901Y-93658642D01*
X111199275Y-93698252D01*
X111199275Y-90556720D01*
X111634923Y-90121073D01*
X111997055Y-89971073D01*
X112288206Y-89679922D01*
X112445775Y-89299516D01*
X112445775Y-88887768D01*
X112301163Y-88538642D01*
X112596649Y-88538642D01*
X112977055Y-88381073D01*
X113020026Y-88338102D01*
X113024087Y-88337294D01*
X113316826Y-88141691D01*
X113366202Y-88067795D01*
X115474931Y-85959067D01*
X115548824Y-85909693D01*
X115616345Y-85808642D01*
X115744427Y-85616954D01*
X115756509Y-85556211D01*
X115795775Y-85358809D01*
X115795775Y-85358805D01*
X115813112Y-85271644D01*
X115795775Y-85184483D01*
X115795775Y-79421649D01*
X115945775Y-79059516D01*
X115945775Y-78647768D01*
X115788206Y-78267362D01*
X115497055Y-77976211D01*
X115116649Y-77818642D01*
X114704901Y-77818642D01*
X114324495Y-77976211D01*
X114033344Y-78267362D01*
X113875775Y-78647768D01*
X113875775Y-78920287D01*
X112323206Y-77367718D01*
X112298206Y-77307362D01*
X112007055Y-77016211D01*
X111626649Y-76858642D01*
X111214901Y-76858642D01*
X111199275Y-76865114D01*
X111199275Y-73886720D01*
X111594923Y-73491073D01*
X111957055Y-73341073D01*
X112248206Y-73049922D01*
X112405775Y-72669516D01*
X112405775Y-72257768D01*
X112248206Y-71877362D01*
X112005840Y-71634996D01*
X123095000Y-71634996D01*
X123095000Y-72365004D01*
X123374362Y-73039444D01*
X123890556Y-73555638D01*
X124564996Y-73835000D01*
X125295004Y-73835000D01*
X125969444Y-73555638D01*
X126485638Y-73039444D01*
X126765000Y-72365004D01*
X126765000Y-71634996D01*
X126485638Y-70960556D01*
X125969444Y-70444362D01*
X125295004Y-70165000D01*
X124564996Y-70165000D01*
X123890556Y-70444362D01*
X123374362Y-70960556D01*
X123095000Y-71634996D01*
X112005840Y-71634996D01*
X111957055Y-71586211D01*
X111576649Y-71428642D01*
X111164901Y-71428642D01*
X110784495Y-71586211D01*
X110493344Y-71877362D01*
X110343344Y-72239494D01*
X109750122Y-72832717D01*
X109676226Y-72882093D01*
X109480623Y-73174833D01*
X109429275Y-73432978D01*
X109429275Y-73432981D01*
X109411938Y-73520142D01*
X109429275Y-73607303D01*
X109429276Y-80805633D01*
X109279275Y-81167768D01*
X99870975Y-81167768D01*
X99870975Y-60447768D01*
X101695775Y-60447768D01*
X101695775Y-60859516D01*
X101853344Y-61239922D01*
X102144495Y-61531073D01*
X102524901Y-61688642D01*
X102546195Y-61688642D01*
X104605350Y-63747798D01*
X104654724Y-63821691D01*
X104728617Y-63871065D01*
X104728618Y-63871066D01*
X104839653Y-63945257D01*
X104947463Y-64017294D01*
X105205608Y-64068642D01*
X105205612Y-64068642D01*
X105292772Y-64085979D01*
X105379932Y-64068642D01*
X111292768Y-64068642D01*
X111654901Y-64218642D01*
X112066649Y-64218642D01*
X112447055Y-64061073D01*
X112738206Y-63769922D01*
X112895775Y-63389516D01*
X112895775Y-62977768D01*
X112738206Y-62597362D01*
X112447055Y-62306211D01*
X112066649Y-62148642D01*
X111654901Y-62148642D01*
X111619443Y-62163329D01*
X113206699Y-60576073D01*
X113267055Y-60551073D01*
X113558206Y-60259922D01*
X113715775Y-59879516D01*
X113715775Y-59708641D01*
X116688408Y-59708641D01*
X116828792Y-60047559D01*
X117119943Y-60338710D01*
X117500349Y-60496279D01*
X117885775Y-60496279D01*
X117885775Y-61774483D01*
X117868438Y-61861644D01*
X117885775Y-61948805D01*
X117885775Y-61948808D01*
X117937123Y-62206953D01*
X118132726Y-62499693D01*
X118206622Y-62549069D01*
X119355350Y-63697798D01*
X119404724Y-63771691D01*
X119478617Y-63821065D01*
X119478618Y-63821066D01*
X119508550Y-63841066D01*
X119697463Y-63967294D01*
X119955608Y-64018642D01*
X119955612Y-64018642D01*
X120042773Y-64035979D01*
X120129934Y-64018642D01*
X125832768Y-64018642D01*
X126194901Y-64168642D01*
X126606649Y-64168642D01*
X126987055Y-64011073D01*
X127278206Y-63719922D01*
X127435775Y-63339516D01*
X127435775Y-62927768D01*
X127278206Y-62547362D01*
X126987055Y-62256211D01*
X126606649Y-62098642D01*
X126264130Y-62098642D01*
X127816700Y-60546073D01*
X127877055Y-60521073D01*
X128168206Y-60229922D01*
X128325775Y-59849516D01*
X128325775Y-59452142D01*
X130927697Y-59452142D01*
X131243344Y-59767790D01*
X131393344Y-60129922D01*
X131684495Y-60421073D01*
X132064901Y-60578642D01*
X132476649Y-60578642D01*
X132857055Y-60421073D01*
X133148206Y-60129922D01*
X133305775Y-59749516D01*
X133305775Y-59337768D01*
X133148206Y-58957362D01*
X132968612Y-58777768D01*
X133785775Y-58777768D01*
X133785775Y-59189516D01*
X133815775Y-59261942D01*
X133815774Y-62344482D01*
X133798437Y-62431643D01*
X133815774Y-62518804D01*
X133815774Y-62518807D01*
X133867122Y-62776952D01*
X134062725Y-63069692D01*
X134136621Y-63119068D01*
X134745350Y-63727798D01*
X134794724Y-63801691D01*
X134868617Y-63851065D01*
X134868618Y-63851066D01*
X135072497Y-63987294D01*
X135087463Y-63997294D01*
X135345608Y-64048642D01*
X135345612Y-64048642D01*
X135432773Y-64065979D01*
X135519934Y-64048642D01*
X141332768Y-64048642D01*
X141694901Y-64198642D01*
X142106649Y-64198642D01*
X142487055Y-64041073D01*
X142778206Y-63749922D01*
X142935775Y-63369516D01*
X142935775Y-62957768D01*
X142778206Y-62577362D01*
X142487055Y-62286211D01*
X142106649Y-62128642D01*
X141714130Y-62128642D01*
X143336700Y-60506073D01*
X143397055Y-60481073D01*
X143688206Y-60189922D01*
X143845775Y-59809516D01*
X143845775Y-59638641D01*
X146697402Y-59638641D01*
X146802343Y-59743583D01*
X146952343Y-60105715D01*
X147243494Y-60396866D01*
X147623900Y-60554435D01*
X148035648Y-60554435D01*
X148416054Y-60396866D01*
X148707205Y-60105715D01*
X148864774Y-59725309D01*
X148864774Y-59313561D01*
X148707205Y-58933155D01*
X148416054Y-58642004D01*
X148188549Y-58547768D01*
X149495775Y-58547768D01*
X149495775Y-58959516D01*
X149645776Y-59321651D01*
X149645775Y-62284483D01*
X149628438Y-62371644D01*
X149645775Y-62458805D01*
X149645775Y-62458808D01*
X149697123Y-62716953D01*
X149892726Y-63009693D01*
X149966622Y-63059069D01*
X150625350Y-63717798D01*
X150674724Y-63791691D01*
X150748617Y-63841065D01*
X150748618Y-63841066D01*
X150763584Y-63851066D01*
X150967463Y-63987294D01*
X151225608Y-64038642D01*
X151225612Y-64038642D01*
X151312772Y-64055979D01*
X151399932Y-64038642D01*
X157202768Y-64038642D01*
X157564901Y-64188642D01*
X157976649Y-64188642D01*
X158357055Y-64031073D01*
X158648206Y-63739922D01*
X158805775Y-63359516D01*
X158805775Y-62947768D01*
X158648206Y-62567362D01*
X158357055Y-62276211D01*
X157976649Y-62118642D01*
X157564901Y-62118642D01*
X157392875Y-62189897D01*
X159196700Y-60386073D01*
X159257055Y-60361073D01*
X159548206Y-60069922D01*
X159705775Y-59689516D01*
X159705775Y-59518641D01*
X162694304Y-59518641D01*
X162895701Y-59720039D01*
X163045701Y-60082171D01*
X163336852Y-60373322D01*
X163717258Y-60530891D01*
X164129006Y-60530891D01*
X164509412Y-60373322D01*
X164800563Y-60082171D01*
X164958132Y-59701765D01*
X164958132Y-59290017D01*
X164800563Y-58909611D01*
X164509412Y-58618460D01*
X164147280Y-58468460D01*
X164026588Y-58347768D01*
X165695775Y-58347768D01*
X165695775Y-58759516D01*
X165845776Y-59121651D01*
X165845775Y-62354483D01*
X165828438Y-62441644D01*
X165845775Y-62528805D01*
X165845775Y-62528808D01*
X165897123Y-62786953D01*
X166092726Y-63079693D01*
X166166622Y-63129069D01*
X166755350Y-63717798D01*
X166804724Y-63791691D01*
X166878617Y-63841065D01*
X166878618Y-63841066D01*
X166893584Y-63851066D01*
X167097463Y-63987294D01*
X167355608Y-64038642D01*
X167355612Y-64038642D01*
X167442772Y-64055979D01*
X167529932Y-64038642D01*
X173502768Y-64038642D01*
X173864901Y-64188642D01*
X174276649Y-64188642D01*
X174657055Y-64031073D01*
X174948206Y-63739922D01*
X175105775Y-63359516D01*
X175105775Y-62947768D01*
X174948206Y-62567362D01*
X174657055Y-62276211D01*
X174276649Y-62118642D01*
X173904130Y-62118642D01*
X175416699Y-60606073D01*
X175477055Y-60581073D01*
X175768206Y-60289922D01*
X175925775Y-59909516D01*
X175925775Y-59738641D01*
X179194196Y-59738641D01*
X179283344Y-59827790D01*
X179433344Y-60189922D01*
X179724495Y-60481073D01*
X180104901Y-60638642D01*
X180516649Y-60638642D01*
X180897055Y-60481073D01*
X181188206Y-60189922D01*
X181345775Y-59809516D01*
X181345775Y-59397768D01*
X181188206Y-59017362D01*
X180897055Y-58726211D01*
X180534923Y-58576211D01*
X180248199Y-58289488D01*
X180198823Y-58215592D01*
X179906084Y-58019989D01*
X179647939Y-57968641D01*
X179647935Y-57968641D01*
X179560774Y-57951304D01*
X179473613Y-57968641D01*
X171678068Y-57968641D01*
X171436649Y-57868642D01*
X171024901Y-57868642D01*
X170644495Y-58026211D01*
X170353344Y-58317362D01*
X170195775Y-58697768D01*
X170195775Y-59109516D01*
X170353344Y-59489922D01*
X170644495Y-59781073D01*
X171024901Y-59938642D01*
X171436649Y-59938642D01*
X171817055Y-59781073D01*
X171859487Y-59738641D01*
X173427421Y-59738641D01*
X172102420Y-61063642D01*
X167887004Y-61063642D01*
X167826649Y-61038642D01*
X167615775Y-61038642D01*
X167615775Y-59121649D01*
X167765775Y-58759516D01*
X167765775Y-58347768D01*
X167608206Y-57967362D01*
X167317055Y-57676211D01*
X166936649Y-57518642D01*
X166524901Y-57518642D01*
X166144495Y-57676211D01*
X165853344Y-57967362D01*
X165695775Y-58347768D01*
X164026588Y-58347768D01*
X163748307Y-58069488D01*
X163698931Y-57995592D01*
X163406192Y-57799989D01*
X163148047Y-57748641D01*
X163148043Y-57748641D01*
X163060882Y-57731304D01*
X162973721Y-57748641D01*
X155557935Y-57748641D01*
X155470775Y-57731304D01*
X155383616Y-57748641D01*
X155383611Y-57748641D01*
X155125466Y-57799989D01*
X155022720Y-57868642D01*
X154994901Y-57868642D01*
X154614495Y-58026211D01*
X154323344Y-58317362D01*
X154165775Y-58697768D01*
X154165775Y-59109516D01*
X154323344Y-59489922D01*
X154614495Y-59781073D01*
X154994901Y-59938642D01*
X155406649Y-59938642D01*
X155787055Y-59781073D01*
X156049487Y-59518641D01*
X157207420Y-59518641D01*
X155692420Y-61033642D01*
X151727004Y-61033642D01*
X151666649Y-61008642D01*
X151415775Y-61008642D01*
X151415775Y-59321649D01*
X151565775Y-58959516D01*
X151565775Y-58547768D01*
X151408206Y-58167362D01*
X151117055Y-57876211D01*
X150736649Y-57718642D01*
X150324901Y-57718642D01*
X149944495Y-57876211D01*
X149653344Y-58167362D01*
X149495775Y-58547768D01*
X148188549Y-58547768D01*
X148053922Y-58492004D01*
X147751405Y-58189488D01*
X147702029Y-58115592D01*
X147409290Y-57919989D01*
X147151145Y-57868641D01*
X147151141Y-57868641D01*
X147063980Y-57851304D01*
X146976819Y-57868641D01*
X139577935Y-57868641D01*
X139490775Y-57851304D01*
X139403616Y-57868641D01*
X139403611Y-57868641D01*
X139403606Y-57868642D01*
X139134901Y-57868642D01*
X138754495Y-58026211D01*
X138463344Y-58317362D01*
X138305775Y-58697768D01*
X138305775Y-59109516D01*
X138463344Y-59489922D01*
X138754495Y-59781073D01*
X139134901Y-59938642D01*
X139546649Y-59938642D01*
X139927055Y-59781073D01*
X140069487Y-59638641D01*
X141347420Y-59638641D01*
X139972420Y-61013642D01*
X135817004Y-61013642D01*
X135756649Y-60988642D01*
X135585774Y-60988642D01*
X135585774Y-59682354D01*
X135698206Y-59569922D01*
X135855775Y-59189516D01*
X135855775Y-58777768D01*
X135698206Y-58397362D01*
X135407055Y-58106211D01*
X135026649Y-57948642D01*
X134614901Y-57948642D01*
X134234495Y-58106211D01*
X133943344Y-58397362D01*
X133785775Y-58777768D01*
X132968612Y-58777768D01*
X132857055Y-58666211D01*
X132494923Y-58516211D01*
X131981700Y-58002989D01*
X131932324Y-57929093D01*
X131639585Y-57733490D01*
X131381440Y-57682142D01*
X131381436Y-57682142D01*
X131294275Y-57664805D01*
X131207114Y-57682142D01*
X124198782Y-57682142D01*
X123836649Y-57532142D01*
X123424901Y-57532142D01*
X123044495Y-57689711D01*
X122753344Y-57980862D01*
X122595775Y-58361268D01*
X122595775Y-58773016D01*
X122753344Y-59153422D01*
X123044495Y-59444573D01*
X123424901Y-59602142D01*
X123836649Y-59602142D01*
X124198782Y-59452142D01*
X126053919Y-59452142D01*
X124532420Y-60973642D01*
X120417004Y-60973642D01*
X120356649Y-60948642D01*
X119944901Y-60948642D01*
X119655775Y-61068402D01*
X119655775Y-59341649D01*
X119805775Y-58979516D01*
X119805775Y-58567768D01*
X119648206Y-58187362D01*
X119357055Y-57896211D01*
X118976649Y-57738642D01*
X118564901Y-57738642D01*
X118184495Y-57896211D01*
X117893344Y-58187362D01*
X117831995Y-58335472D01*
X117756010Y-58259487D01*
X117706634Y-58185592D01*
X117413895Y-57989989D01*
X117155750Y-57938641D01*
X117155746Y-57938641D01*
X117068585Y-57921304D01*
X116981424Y-57938641D01*
X109395642Y-57938641D01*
X109226649Y-57868642D01*
X108814901Y-57868642D01*
X108434495Y-58026211D01*
X108143344Y-58317362D01*
X107985775Y-58697768D01*
X107985775Y-59109516D01*
X108143344Y-59489922D01*
X108434495Y-59781073D01*
X108814901Y-59938642D01*
X109226649Y-59938642D01*
X109607055Y-59781073D01*
X109679487Y-59708641D01*
X111217421Y-59708641D01*
X109882420Y-61043642D01*
X105687004Y-61043642D01*
X105626649Y-61018642D01*
X105214901Y-61018642D01*
X104834495Y-61176211D01*
X104685708Y-61324998D01*
X103735580Y-60374871D01*
X103608206Y-60067362D01*
X103317055Y-59776211D01*
X102936649Y-59618642D01*
X102524901Y-59618642D01*
X102144495Y-59776211D01*
X101853344Y-60067362D01*
X101695775Y-60447768D01*
X99870975Y-60447768D01*
X99870975Y-51607866D01*
X99939769Y-50906249D01*
X100133091Y-50265935D01*
X100447105Y-49675361D01*
X100869843Y-49157032D01*
X101385212Y-48730682D01*
X101973575Y-48412554D01*
X102104214Y-48372115D01*
X101078395Y-49397934D01*
X100509775Y-50770704D01*
X100509775Y-52256580D01*
X101078395Y-53629350D01*
X102129067Y-54680022D01*
X103501837Y-55248642D01*
X104987713Y-55248642D01*
X106360483Y-54680022D01*
X107411155Y-53629350D01*
X107979775Y-52256580D01*
X107979775Y-50770704D01*
X107411155Y-49397934D01*
X106360483Y-48347262D01*
X105863107Y-48141242D01*
X182626443Y-48141242D01*
X182129067Y-48347262D01*
G36*
X116214495Y-119141073D02*
X116594901Y-119298642D01*
X116760974Y-119298642D01*
X117490775Y-120028444D01*
X117490776Y-128287185D01*
X117202656Y-128167842D01*
X116646894Y-128167842D01*
X116133438Y-128380522D01*
X115740455Y-128773505D01*
X115654775Y-128980355D01*
X115569095Y-128773505D01*
X115176112Y-128380522D01*
X114662656Y-128167842D01*
X114106894Y-128167842D01*
X113593438Y-128380522D01*
X113200455Y-128773505D01*
X113114775Y-128980355D01*
X113029095Y-128773505D01*
X112636112Y-128380522D01*
X112122656Y-128167842D01*
X111566894Y-128167842D01*
X111053438Y-128380522D01*
X110660455Y-128773505D01*
X110447775Y-129286961D01*
X110447775Y-129842723D01*
X110660455Y-130356179D01*
X111053438Y-130749162D01*
X111260288Y-130834842D01*
X111053438Y-130920522D01*
X110660455Y-131313505D01*
X110447775Y-131826961D01*
X110447775Y-132382723D01*
X110514430Y-132543642D01*
X109710775Y-132543642D01*
X109710775Y-127991445D01*
X115925248Y-121776973D01*
X115988704Y-121734573D01*
X116156679Y-121483181D01*
X116200775Y-121261496D01*
X116200775Y-121261492D01*
X116215663Y-121186645D01*
X116200775Y-121111798D01*
X116200775Y-119127353D01*
X116214495Y-119141073D01*
X116214495Y-119141073D01*
G37*
X116214495Y-119141073D02*
X116594901Y-119298642D01*
X116760974Y-119298642D01*
X117490775Y-120028444D01*
X117490776Y-128287185D01*
X117202656Y-128167842D01*
X116646894Y-128167842D01*
X116133438Y-128380522D01*
X115740455Y-128773505D01*
X115654775Y-128980355D01*
X115569095Y-128773505D01*
X115176112Y-128380522D01*
X114662656Y-128167842D01*
X114106894Y-128167842D01*
X113593438Y-128380522D01*
X113200455Y-128773505D01*
X113114775Y-128980355D01*
X113029095Y-128773505D01*
X112636112Y-128380522D01*
X112122656Y-128167842D01*
X111566894Y-128167842D01*
X111053438Y-128380522D01*
X110660455Y-128773505D01*
X110447775Y-129286961D01*
X110447775Y-129842723D01*
X110660455Y-130356179D01*
X111053438Y-130749162D01*
X111260288Y-130834842D01*
X111053438Y-130920522D01*
X110660455Y-131313505D01*
X110447775Y-131826961D01*
X110447775Y-132382723D01*
X110514430Y-132543642D01*
X109710775Y-132543642D01*
X109710775Y-127991445D01*
X115925248Y-121776973D01*
X115988704Y-121734573D01*
X116156679Y-121483181D01*
X116200775Y-121261496D01*
X116200775Y-121261492D01*
X116215663Y-121186645D01*
X116200775Y-121111798D01*
X116200775Y-119127353D01*
X116214495Y-119141073D01*
G36*
X142498986Y-124793632D02*
X139685631Y-124793632D01*
X139610784Y-124778744D01*
X139535937Y-124793632D01*
X139535933Y-124793632D01*
X139314248Y-124837728D01*
X139314246Y-124837729D01*
X139314247Y-124837729D01*
X139126311Y-124963303D01*
X139126309Y-124963305D01*
X139062856Y-125005703D01*
X139020458Y-125069156D01*
X135602603Y-128487013D01*
X135496112Y-128380522D01*
X134982656Y-128167842D01*
X134426894Y-128167842D01*
X133913438Y-128380522D01*
X133520455Y-128773505D01*
X133434775Y-128980355D01*
X133349095Y-128773505D01*
X132956112Y-128380522D01*
X132442656Y-128167842D01*
X131886894Y-128167842D01*
X131373438Y-128380522D01*
X130980455Y-128773505D01*
X130894775Y-128980355D01*
X130809095Y-128773505D01*
X130416112Y-128380522D01*
X130316426Y-128339231D01*
X131104539Y-127551117D01*
X131304495Y-127751073D01*
X131684901Y-127908642D01*
X132096649Y-127908642D01*
X132477055Y-127751073D01*
X132768206Y-127459922D01*
X132925775Y-127079516D01*
X132925775Y-126913443D01*
X139315578Y-120523642D01*
X146768975Y-120523642D01*
X142498986Y-124793632D01*
X142498986Y-124793632D01*
G37*
X142498986Y-124793632D02*
X139685631Y-124793632D01*
X139610784Y-124778744D01*
X139535937Y-124793632D01*
X139535933Y-124793632D01*
X139314248Y-124837728D01*
X139314246Y-124837729D01*
X139314247Y-124837729D01*
X139126311Y-124963303D01*
X139126309Y-124963305D01*
X139062856Y-125005703D01*
X139020458Y-125069156D01*
X135602603Y-128487013D01*
X135496112Y-128380522D01*
X134982656Y-128167842D01*
X134426894Y-128167842D01*
X133913438Y-128380522D01*
X133520455Y-128773505D01*
X133434775Y-128980355D01*
X133349095Y-128773505D01*
X132956112Y-128380522D01*
X132442656Y-128167842D01*
X131886894Y-128167842D01*
X131373438Y-128380522D01*
X130980455Y-128773505D01*
X130894775Y-128980355D01*
X130809095Y-128773505D01*
X130416112Y-128380522D01*
X130316426Y-128339231D01*
X131104539Y-127551117D01*
X131304495Y-127751073D01*
X131684901Y-127908642D01*
X132096649Y-127908642D01*
X132477055Y-127751073D01*
X132768206Y-127459922D01*
X132925775Y-127079516D01*
X132925775Y-126913443D01*
X139315578Y-120523642D01*
X146768975Y-120523642D01*
X142498986Y-124793632D01*
G36*
X121360936Y-84632124D02*
X121276607Y-84688471D01*
X121220260Y-84772800D01*
X121220257Y-84772803D01*
X121053377Y-85022558D01*
X120974989Y-85416640D01*
X120994776Y-85516116D01*
X120994775Y-128599185D01*
X120820455Y-128773505D01*
X120734775Y-128980355D01*
X120649095Y-128773505D01*
X120256112Y-128380522D01*
X119742656Y-128167842D01*
X119186894Y-128167842D01*
X119010775Y-128240793D01*
X119010775Y-119788490D01*
X119025663Y-119713642D01*
X119010775Y-119638794D01*
X119010775Y-119638790D01*
X118966679Y-119417105D01*
X118966679Y-119417104D01*
X118841104Y-119229169D01*
X118798704Y-119165713D01*
X118735248Y-119123313D01*
X117835775Y-118223841D01*
X117835775Y-118057768D01*
X117678206Y-117677362D01*
X117387055Y-117386211D01*
X117006649Y-117228642D01*
X116594901Y-117228642D01*
X116214495Y-117386211D01*
X116200775Y-117399931D01*
X116200775Y-106868443D01*
X120155251Y-102913969D01*
X120218704Y-102871571D01*
X120261102Y-102808118D01*
X120261104Y-102808116D01*
X120344877Y-102682740D01*
X120386679Y-102620179D01*
X120430775Y-102398494D01*
X120430775Y-102398490D01*
X120445663Y-102323643D01*
X120430775Y-102248796D01*
X120430775Y-84498443D01*
X127970578Y-76958641D01*
X127980929Y-76958641D01*
X128055776Y-76973529D01*
X128130623Y-76958641D01*
X128130628Y-76958641D01*
X128352313Y-76914545D01*
X128428493Y-76863643D01*
X129129416Y-76863643D01*
X121360936Y-84632124D01*
X121360936Y-84632124D01*
G37*
X121360936Y-84632124D02*
X121276607Y-84688471D01*
X121220260Y-84772800D01*
X121220257Y-84772803D01*
X121053377Y-85022558D01*
X120974989Y-85416640D01*
X120994776Y-85516116D01*
X120994775Y-128599185D01*
X120820455Y-128773505D01*
X120734775Y-128980355D01*
X120649095Y-128773505D01*
X120256112Y-128380522D01*
X119742656Y-128167842D01*
X119186894Y-128167842D01*
X119010775Y-128240793D01*
X119010775Y-119788490D01*
X119025663Y-119713642D01*
X119010775Y-119638794D01*
X119010775Y-119638790D01*
X118966679Y-119417105D01*
X118966679Y-119417104D01*
X118841104Y-119229169D01*
X118798704Y-119165713D01*
X118735248Y-119123313D01*
X117835775Y-118223841D01*
X117835775Y-118057768D01*
X117678206Y-117677362D01*
X117387055Y-117386211D01*
X117006649Y-117228642D01*
X116594901Y-117228642D01*
X116214495Y-117386211D01*
X116200775Y-117399931D01*
X116200775Y-106868443D01*
X120155251Y-102913969D01*
X120218704Y-102871571D01*
X120261102Y-102808118D01*
X120261104Y-102808116D01*
X120344877Y-102682740D01*
X120386679Y-102620179D01*
X120430775Y-102398494D01*
X120430775Y-102398490D01*
X120445663Y-102323643D01*
X120430775Y-102248796D01*
X120430775Y-84498443D01*
X127970578Y-76958641D01*
X127980929Y-76958641D01*
X128055776Y-76973529D01*
X128130623Y-76958641D01*
X128130628Y-76958641D01*
X128352313Y-76914545D01*
X128428493Y-76863643D01*
X129129416Y-76863643D01*
X121360936Y-84632124D01*
G36*
X125665775Y-83199516D02*
X125690775Y-83259872D01*
X125690776Y-93247410D01*
X125665775Y-93307768D01*
X125665775Y-93719516D01*
X125690775Y-93779872D01*
X125690776Y-104944166D01*
X125670989Y-105043642D01*
X125749377Y-105437724D01*
X125916257Y-105687479D01*
X125916260Y-105687482D01*
X125972607Y-105771811D01*
X126056936Y-105828158D01*
X127914363Y-107685585D01*
X127890775Y-107804167D01*
X127890775Y-107804171D01*
X127870989Y-107903642D01*
X127890775Y-108003113D01*
X127890775Y-108377413D01*
X127865775Y-108437768D01*
X127865775Y-108849516D01*
X128023344Y-109229922D01*
X128314495Y-109521073D01*
X128694901Y-109678642D01*
X129106649Y-109678642D01*
X129487055Y-109521073D01*
X129778206Y-109229922D01*
X129935775Y-108849516D01*
X129935775Y-108575718D01*
X129971351Y-108568641D01*
X132795775Y-108568641D01*
X132795775Y-108739516D01*
X132953344Y-109119922D01*
X133070776Y-109237354D01*
X133070775Y-112815797D01*
X133055887Y-112890644D01*
X133070775Y-112965491D01*
X133070775Y-112965495D01*
X133114871Y-113187180D01*
X133282846Y-113438573D01*
X133346305Y-113480975D01*
X137143444Y-117278115D01*
X137185844Y-117341571D01*
X137249300Y-117383971D01*
X137437235Y-117509546D01*
X137485378Y-117519122D01*
X137658921Y-117553642D01*
X137658925Y-117553642D01*
X137733773Y-117568530D01*
X137808621Y-117553642D01*
X145737064Y-117553642D01*
X145816326Y-117632904D01*
X145494495Y-117766211D01*
X145377064Y-117883642D01*
X139012059Y-117883642D01*
X138937212Y-117868754D01*
X138862365Y-117883642D01*
X138862361Y-117883642D01*
X138640676Y-117927738D01*
X138389284Y-118095713D01*
X138346884Y-118159169D01*
X132293998Y-124212056D01*
X132238206Y-124077362D01*
X131947055Y-123786211D01*
X131566649Y-123628642D01*
X131154901Y-123628642D01*
X130774495Y-123786211D01*
X130483344Y-124077362D01*
X130458344Y-124137717D01*
X129262420Y-125333642D01*
X125937004Y-125333642D01*
X125876649Y-125308642D01*
X125554775Y-125308642D01*
X125554775Y-112352316D01*
X125714901Y-112418642D01*
X126126649Y-112418642D01*
X126507055Y-112261073D01*
X126614486Y-112153642D01*
X127097064Y-112153642D01*
X126833344Y-112417362D01*
X126675775Y-112797768D01*
X126675775Y-113209516D01*
X126833344Y-113589922D01*
X126950775Y-113707353D01*
X126950776Y-117759930D01*
X126893344Y-117817362D01*
X126735775Y-118197768D01*
X126735775Y-118609516D01*
X126893344Y-118989922D01*
X127184495Y-119281073D01*
X127564901Y-119438642D01*
X127976649Y-119438642D01*
X128357055Y-119281073D01*
X128648206Y-118989922D01*
X128805775Y-118609516D01*
X128805775Y-118197768D01*
X128648206Y-117817362D01*
X128470775Y-117639931D01*
X128470775Y-113707353D01*
X128588206Y-113589922D01*
X128745775Y-113209516D01*
X128745775Y-112797768D01*
X128588206Y-112417362D01*
X128324486Y-112153642D01*
X128645974Y-112153642D01*
X129730448Y-113238118D01*
X129772846Y-113301571D01*
X129836299Y-113343969D01*
X129836301Y-113343971D01*
X129866443Y-113364111D01*
X130100444Y-113598112D01*
X130142846Y-113661571D01*
X130394238Y-113829546D01*
X130615923Y-113873642D01*
X130615928Y-113873642D01*
X130690775Y-113888530D01*
X130765622Y-113873642D01*
X131054906Y-113873642D01*
X131005000Y-113994126D01*
X131005000Y-114405874D01*
X131162569Y-114786280D01*
X131453720Y-115077431D01*
X131834126Y-115235000D01*
X132245874Y-115235000D01*
X132626280Y-115077431D01*
X132917431Y-114786280D01*
X133075000Y-114405874D01*
X133075000Y-113994126D01*
X132917431Y-113613720D01*
X132784314Y-113480603D01*
X132755904Y-113337778D01*
X132755904Y-113337777D01*
X132630329Y-113149842D01*
X132587929Y-113086386D01*
X132524472Y-113043986D01*
X132109658Y-112629172D01*
X132067256Y-112565713D01*
X131815864Y-112397738D01*
X131594179Y-112353642D01*
X131594174Y-112353642D01*
X131519327Y-112338754D01*
X131444480Y-112353642D01*
X131005576Y-112353642D01*
X130921106Y-112269172D01*
X130878704Y-112205713D01*
X130785114Y-112143178D01*
X129551106Y-110909172D01*
X129508704Y-110845713D01*
X129257312Y-110677738D01*
X129035627Y-110633642D01*
X129035622Y-110633642D01*
X128960775Y-110618754D01*
X128885928Y-110633642D01*
X126634486Y-110633642D01*
X126507055Y-110506211D01*
X126126649Y-110348642D01*
X125714901Y-110348642D01*
X125554775Y-110414968D01*
X125554775Y-91269871D01*
X125579775Y-91209516D01*
X125579775Y-90797768D01*
X125422206Y-90417362D01*
X125131055Y-90126211D01*
X124750649Y-89968642D01*
X124338901Y-89968642D01*
X123958495Y-90126211D01*
X123667344Y-90417362D01*
X123509775Y-90797768D01*
X123509775Y-91209516D01*
X123534776Y-91269874D01*
X123534775Y-128599185D01*
X123360455Y-128773505D01*
X123274775Y-128980355D01*
X123189095Y-128773505D01*
X123014775Y-128599185D01*
X123014775Y-85834995D01*
X125665775Y-83183995D01*
X125665775Y-83199516D01*
X125665775Y-83199516D01*
G37*
X125665775Y-83199516D02*
X125690775Y-83259872D01*
X125690776Y-93247410D01*
X125665775Y-93307768D01*
X125665775Y-93719516D01*
X125690775Y-93779872D01*
X125690776Y-104944166D01*
X125670989Y-105043642D01*
X125749377Y-105437724D01*
X125916257Y-105687479D01*
X125916260Y-105687482D01*
X125972607Y-105771811D01*
X126056936Y-105828158D01*
X127914363Y-107685585D01*
X127890775Y-107804167D01*
X127890775Y-107804171D01*
X127870989Y-107903642D01*
X127890775Y-108003113D01*
X127890775Y-108377413D01*
X127865775Y-108437768D01*
X127865775Y-108849516D01*
X128023344Y-109229922D01*
X128314495Y-109521073D01*
X128694901Y-109678642D01*
X129106649Y-109678642D01*
X129487055Y-109521073D01*
X129778206Y-109229922D01*
X129935775Y-108849516D01*
X129935775Y-108575718D01*
X129971351Y-108568641D01*
X132795775Y-108568641D01*
X132795775Y-108739516D01*
X132953344Y-109119922D01*
X133070776Y-109237354D01*
X133070775Y-112815797D01*
X133055887Y-112890644D01*
X133070775Y-112965491D01*
X133070775Y-112965495D01*
X133114871Y-113187180D01*
X133282846Y-113438573D01*
X133346305Y-113480975D01*
X137143444Y-117278115D01*
X137185844Y-117341571D01*
X137249300Y-117383971D01*
X137437235Y-117509546D01*
X137485378Y-117519122D01*
X137658921Y-117553642D01*
X137658925Y-117553642D01*
X137733773Y-117568530D01*
X137808621Y-117553642D01*
X145737064Y-117553642D01*
X145816326Y-117632904D01*
X145494495Y-117766211D01*
X145377064Y-117883642D01*
X139012059Y-117883642D01*
X138937212Y-117868754D01*
X138862365Y-117883642D01*
X138862361Y-117883642D01*
X138640676Y-117927738D01*
X138389284Y-118095713D01*
X138346884Y-118159169D01*
X132293998Y-124212056D01*
X132238206Y-124077362D01*
X131947055Y-123786211D01*
X131566649Y-123628642D01*
X131154901Y-123628642D01*
X130774495Y-123786211D01*
X130483344Y-124077362D01*
X130458344Y-124137717D01*
X129262420Y-125333642D01*
X125937004Y-125333642D01*
X125876649Y-125308642D01*
X125554775Y-125308642D01*
X125554775Y-112352316D01*
X125714901Y-112418642D01*
X126126649Y-112418642D01*
X126507055Y-112261073D01*
X126614486Y-112153642D01*
X127097064Y-112153642D01*
X126833344Y-112417362D01*
X126675775Y-112797768D01*
X126675775Y-113209516D01*
X126833344Y-113589922D01*
X126950775Y-113707353D01*
X126950776Y-117759930D01*
X126893344Y-117817362D01*
X126735775Y-118197768D01*
X126735775Y-118609516D01*
X126893344Y-118989922D01*
X127184495Y-119281073D01*
X127564901Y-119438642D01*
X127976649Y-119438642D01*
X128357055Y-119281073D01*
X128648206Y-118989922D01*
X128805775Y-118609516D01*
X128805775Y-118197768D01*
X128648206Y-117817362D01*
X128470775Y-117639931D01*
X128470775Y-113707353D01*
X128588206Y-113589922D01*
X128745775Y-113209516D01*
X128745775Y-112797768D01*
X128588206Y-112417362D01*
X128324486Y-112153642D01*
X128645974Y-112153642D01*
X129730448Y-113238118D01*
X129772846Y-113301571D01*
X129836299Y-113343969D01*
X129836301Y-113343971D01*
X129866443Y-113364111D01*
X130100444Y-113598112D01*
X130142846Y-113661571D01*
X130394238Y-113829546D01*
X130615923Y-113873642D01*
X130615928Y-113873642D01*
X130690775Y-113888530D01*
X130765622Y-113873642D01*
X131054906Y-113873642D01*
X131005000Y-113994126D01*
X131005000Y-114405874D01*
X131162569Y-114786280D01*
X131453720Y-115077431D01*
X131834126Y-115235000D01*
X132245874Y-115235000D01*
X132626280Y-115077431D01*
X132917431Y-114786280D01*
X133075000Y-114405874D01*
X133075000Y-113994126D01*
X132917431Y-113613720D01*
X132784314Y-113480603D01*
X132755904Y-113337778D01*
X132755904Y-113337777D01*
X132630329Y-113149842D01*
X132587929Y-113086386D01*
X132524472Y-113043986D01*
X132109658Y-112629172D01*
X132067256Y-112565713D01*
X131815864Y-112397738D01*
X131594179Y-112353642D01*
X131594174Y-112353642D01*
X131519327Y-112338754D01*
X131444480Y-112353642D01*
X131005576Y-112353642D01*
X130921106Y-112269172D01*
X130878704Y-112205713D01*
X130785114Y-112143178D01*
X129551106Y-110909172D01*
X129508704Y-110845713D01*
X129257312Y-110677738D01*
X129035627Y-110633642D01*
X129035622Y-110633642D01*
X128960775Y-110618754D01*
X128885928Y-110633642D01*
X126634486Y-110633642D01*
X126507055Y-110506211D01*
X126126649Y-110348642D01*
X125714901Y-110348642D01*
X125554775Y-110414968D01*
X125554775Y-91269871D01*
X125579775Y-91209516D01*
X125579775Y-90797768D01*
X125422206Y-90417362D01*
X125131055Y-90126211D01*
X124750649Y-89968642D01*
X124338901Y-89968642D01*
X123958495Y-90126211D01*
X123667344Y-90417362D01*
X123509775Y-90797768D01*
X123509775Y-91209516D01*
X123534776Y-91269874D01*
X123534775Y-128599185D01*
X123360455Y-128773505D01*
X123274775Y-128980355D01*
X123189095Y-128773505D01*
X123014775Y-128599185D01*
X123014775Y-85834995D01*
X125665775Y-83183995D01*
X125665775Y-83199516D01*
G36*
X162625775Y-125809516D02*
X162783344Y-126189922D01*
X162864856Y-126271434D01*
X162742569Y-126393720D01*
X162585000Y-126774126D01*
X162585000Y-127185874D01*
X162742569Y-127566280D01*
X163033720Y-127857431D01*
X163414126Y-128015000D01*
X163825874Y-128015000D01*
X164206280Y-127857431D01*
X164497431Y-127566280D01*
X164655000Y-127185874D01*
X164655000Y-127019802D01*
X164870249Y-126804553D01*
X164933705Y-126762153D01*
X165032717Y-126613971D01*
X165101680Y-126510762D01*
X165114463Y-126446495D01*
X165120225Y-126417527D01*
X165139581Y-126446494D01*
X165189545Y-126521271D01*
X165253001Y-126563671D01*
X167029897Y-128340568D01*
X166933438Y-128380522D01*
X166540455Y-128773505D01*
X166454775Y-128980355D01*
X166369095Y-128773505D01*
X165976112Y-128380522D01*
X165462656Y-128167842D01*
X164906894Y-128167842D01*
X164393438Y-128380522D01*
X164000455Y-128773505D01*
X163914775Y-128980355D01*
X163829095Y-128773505D01*
X163436112Y-128380522D01*
X162922656Y-128167842D01*
X162366894Y-128167842D01*
X161853438Y-128380522D01*
X161460455Y-128773505D01*
X161374775Y-128980355D01*
X161289095Y-128773505D01*
X160896112Y-128380522D01*
X160382656Y-128167842D01*
X159826894Y-128167842D01*
X159313438Y-128380522D01*
X158920455Y-128773505D01*
X158834775Y-128980355D01*
X158749095Y-128773505D01*
X158356112Y-128380522D01*
X157842656Y-128167842D01*
X157286894Y-128167842D01*
X156773438Y-128380522D01*
X156380455Y-128773505D01*
X156294775Y-128980355D01*
X156209095Y-128773505D01*
X155816112Y-128380522D01*
X155314231Y-128172636D01*
X155430314Y-128149546D01*
X155681706Y-127981571D01*
X155724108Y-127918113D01*
X156680252Y-126961970D01*
X156743705Y-126919572D01*
X156786103Y-126856119D01*
X156786105Y-126856117D01*
X156888992Y-126702135D01*
X156983344Y-126929922D01*
X157274495Y-127221073D01*
X157654901Y-127378642D01*
X158066649Y-127378642D01*
X158447055Y-127221073D01*
X158738206Y-126929922D01*
X158895775Y-126549516D01*
X158895775Y-126444966D01*
X160425855Y-126444966D01*
X160543286Y-126562397D01*
X160923692Y-126719966D01*
X161335440Y-126719966D01*
X161715846Y-126562397D01*
X162006997Y-126271246D01*
X162164566Y-125890840D01*
X162164566Y-125719966D01*
X162625775Y-125719966D01*
X162625775Y-125809516D01*
X162625775Y-125809516D01*
G37*
X162625775Y-125809516D02*
X162783344Y-126189922D01*
X162864856Y-126271434D01*
X162742569Y-126393720D01*
X162585000Y-126774126D01*
X162585000Y-127185874D01*
X162742569Y-127566280D01*
X163033720Y-127857431D01*
X163414126Y-128015000D01*
X163825874Y-128015000D01*
X164206280Y-127857431D01*
X164497431Y-127566280D01*
X164655000Y-127185874D01*
X164655000Y-127019802D01*
X164870249Y-126804553D01*
X164933705Y-126762153D01*
X165032717Y-126613971D01*
X165101680Y-126510762D01*
X165114463Y-126446495D01*
X165120225Y-126417527D01*
X165139581Y-126446494D01*
X165189545Y-126521271D01*
X165253001Y-126563671D01*
X167029897Y-128340568D01*
X166933438Y-128380522D01*
X166540455Y-128773505D01*
X166454775Y-128980355D01*
X166369095Y-128773505D01*
X165976112Y-128380522D01*
X165462656Y-128167842D01*
X164906894Y-128167842D01*
X164393438Y-128380522D01*
X164000455Y-128773505D01*
X163914775Y-128980355D01*
X163829095Y-128773505D01*
X163436112Y-128380522D01*
X162922656Y-128167842D01*
X162366894Y-128167842D01*
X161853438Y-128380522D01*
X161460455Y-128773505D01*
X161374775Y-128980355D01*
X161289095Y-128773505D01*
X160896112Y-128380522D01*
X160382656Y-128167842D01*
X159826894Y-128167842D01*
X159313438Y-128380522D01*
X158920455Y-128773505D01*
X158834775Y-128980355D01*
X158749095Y-128773505D01*
X158356112Y-128380522D01*
X157842656Y-128167842D01*
X157286894Y-128167842D01*
X156773438Y-128380522D01*
X156380455Y-128773505D01*
X156294775Y-128980355D01*
X156209095Y-128773505D01*
X155816112Y-128380522D01*
X155314231Y-128172636D01*
X155430314Y-128149546D01*
X155681706Y-127981571D01*
X155724108Y-127918113D01*
X156680252Y-126961970D01*
X156743705Y-126919572D01*
X156786103Y-126856119D01*
X156786105Y-126856117D01*
X156888992Y-126702135D01*
X156983344Y-126929922D01*
X157274495Y-127221073D01*
X157654901Y-127378642D01*
X158066649Y-127378642D01*
X158447055Y-127221073D01*
X158738206Y-126929922D01*
X158895775Y-126549516D01*
X158895775Y-126444966D01*
X160425855Y-126444966D01*
X160543286Y-126562397D01*
X160923692Y-126719966D01*
X161335440Y-126719966D01*
X161715846Y-126562397D01*
X162006997Y-126271246D01*
X162164566Y-125890840D01*
X162164566Y-125719966D01*
X162625775Y-125719966D01*
X162625775Y-125809516D01*
G36*
X157695775Y-122957768D02*
X157695775Y-123369516D01*
X157853344Y-123749922D01*
X158144495Y-124041073D01*
X158213147Y-124069510D01*
X158181701Y-124082535D01*
X157890550Y-124373686D01*
X157732981Y-124754092D01*
X157732981Y-125165840D01*
X157792131Y-125308642D01*
X157654901Y-125308642D01*
X157274495Y-125466211D01*
X156983344Y-125757362D01*
X156955776Y-125823917D01*
X156955776Y-123663442D01*
X157720046Y-122899172D01*
X157695775Y-122957768D01*
X157695775Y-122957768D01*
G37*
X157695775Y-122957768D02*
X157695775Y-123369516D01*
X157853344Y-123749922D01*
X158144495Y-124041073D01*
X158213147Y-124069510D01*
X158181701Y-124082535D01*
X157890550Y-124373686D01*
X157732981Y-124754092D01*
X157732981Y-125165840D01*
X157792131Y-125308642D01*
X157654901Y-125308642D01*
X157274495Y-125466211D01*
X156983344Y-125757362D01*
X156955776Y-125823917D01*
X156955776Y-123663442D01*
X157720046Y-122899172D01*
X157695775Y-122957768D01*
G36*
X148974871Y-120540178D02*
X149142846Y-120791571D01*
X149206305Y-120833973D01*
X153479783Y-125107452D01*
X153434495Y-125126211D01*
X153317064Y-125243642D01*
X144198578Y-125243642D01*
X148740249Y-120701972D01*
X148803705Y-120659572D01*
X148929878Y-120470741D01*
X148953906Y-120434781D01*
X148974871Y-120540178D01*
X148974871Y-120540178D01*
G37*
X148974871Y-120540178D02*
X149142846Y-120791571D01*
X149206305Y-120833973D01*
X153479783Y-125107452D01*
X153434495Y-125126211D01*
X153317064Y-125243642D01*
X144198578Y-125243642D01*
X148740249Y-120701972D01*
X148803705Y-120659572D01*
X148929878Y-120470741D01*
X148953906Y-120434781D01*
X148974871Y-120540178D01*
G36*
X163625776Y-124493842D02*
X163607429Y-124475495D01*
X163565028Y-124412037D01*
X163313636Y-124244062D01*
X163091951Y-124199966D01*
X163091946Y-124199966D01*
X163017099Y-124185078D01*
X162942252Y-124199966D01*
X159471692Y-124199966D01*
X159354261Y-124082535D01*
X159285609Y-124054098D01*
X159317055Y-124041073D01*
X159434486Y-123923642D01*
X160251511Y-123923642D01*
X160326358Y-123938530D01*
X160401205Y-123923642D01*
X160401210Y-123923642D01*
X160622895Y-123879546D01*
X160874287Y-123711571D01*
X160916689Y-123648112D01*
X161696159Y-122868643D01*
X163625777Y-122868643D01*
X163625776Y-124493842D01*
X163625776Y-124493842D01*
G37*
X163625776Y-124493842D02*
X163607429Y-124475495D01*
X163565028Y-124412037D01*
X163313636Y-124244062D01*
X163091951Y-124199966D01*
X163091946Y-124199966D01*
X163017099Y-124185078D01*
X162942252Y-124199966D01*
X159471692Y-124199966D01*
X159354261Y-124082535D01*
X159285609Y-124054098D01*
X159317055Y-124041073D01*
X159434486Y-123923642D01*
X160251511Y-123923642D01*
X160326358Y-123938530D01*
X160401205Y-123923642D01*
X160401210Y-123923642D01*
X160622895Y-123879546D01*
X160874287Y-123711571D01*
X160916689Y-123648112D01*
X161696159Y-122868643D01*
X163625777Y-122868643D01*
X163625776Y-124493842D01*
G36*
X134752606Y-109541811D02*
X134836938Y-109598160D01*
X135006256Y-109767477D01*
X135062606Y-109851811D01*
X135177074Y-109928296D01*
X136786257Y-111537479D01*
X136842606Y-111621811D01*
X137176693Y-111845041D01*
X137471299Y-111903642D01*
X137471303Y-111903642D01*
X137570774Y-111923428D01*
X137670245Y-111903642D01*
X143162420Y-111903642D01*
X143646259Y-112387482D01*
X143702606Y-112471811D01*
X143786935Y-112528158D01*
X143786937Y-112528160D01*
X144036692Y-112695041D01*
X144097343Y-112707105D01*
X144331299Y-112753642D01*
X144331303Y-112753642D01*
X144430775Y-112773428D01*
X144530247Y-112753642D01*
X145471304Y-112753642D01*
X145570775Y-112773428D01*
X145670246Y-112753642D01*
X145670251Y-112753642D01*
X145964857Y-112695041D01*
X146298944Y-112471811D01*
X146355293Y-112387480D01*
X147869131Y-110873642D01*
X148655775Y-110873642D01*
X148655775Y-111249516D01*
X148813344Y-111629922D01*
X148930776Y-111747354D01*
X148930775Y-117177886D01*
X148920128Y-117161951D01*
X148846105Y-117051167D01*
X148846103Y-117051165D01*
X148803705Y-116987712D01*
X148740252Y-116945314D01*
X145354108Y-113559172D01*
X145311706Y-113495713D01*
X145060314Y-113327738D01*
X144838629Y-113283642D01*
X144838624Y-113283642D01*
X144763777Y-113268754D01*
X144688930Y-113283642D01*
X143644486Y-113283642D01*
X143527055Y-113166211D01*
X143146649Y-113008642D01*
X142734901Y-113008642D01*
X142354495Y-113166211D01*
X142063344Y-113457362D01*
X141905775Y-113837768D01*
X141905775Y-114249516D01*
X142063344Y-114629922D01*
X142354495Y-114921073D01*
X142734901Y-115078642D01*
X143146649Y-115078642D01*
X143527055Y-114921073D01*
X143644486Y-114803642D01*
X144448976Y-114803642D01*
X145678975Y-116033642D01*
X138085129Y-116033642D01*
X138530219Y-115849280D01*
X139046413Y-115333086D01*
X139325775Y-114658646D01*
X139325775Y-113928638D01*
X139046413Y-113254198D01*
X138530219Y-112738004D01*
X137855779Y-112458642D01*
X137125771Y-112458642D01*
X136451331Y-112738004D01*
X135935137Y-113254198D01*
X135740068Y-113725136D01*
X134590775Y-112575843D01*
X134590775Y-109299614D01*
X134752606Y-109541811D01*
X134752606Y-109541811D01*
G37*
X134752606Y-109541811D02*
X134836938Y-109598160D01*
X135006256Y-109767477D01*
X135062606Y-109851811D01*
X135177074Y-109928296D01*
X136786257Y-111537479D01*
X136842606Y-111621811D01*
X137176693Y-111845041D01*
X137471299Y-111903642D01*
X137471303Y-111903642D01*
X137570774Y-111923428D01*
X137670245Y-111903642D01*
X143162420Y-111903642D01*
X143646259Y-112387482D01*
X143702606Y-112471811D01*
X143786935Y-112528158D01*
X143786937Y-112528160D01*
X144036692Y-112695041D01*
X144097343Y-112707105D01*
X144331299Y-112753642D01*
X144331303Y-112753642D01*
X144430775Y-112773428D01*
X144530247Y-112753642D01*
X145471304Y-112753642D01*
X145570775Y-112773428D01*
X145670246Y-112753642D01*
X145670251Y-112753642D01*
X145964857Y-112695041D01*
X146298944Y-112471811D01*
X146355293Y-112387480D01*
X147869131Y-110873642D01*
X148655775Y-110873642D01*
X148655775Y-111249516D01*
X148813344Y-111629922D01*
X148930776Y-111747354D01*
X148930775Y-117177886D01*
X148920128Y-117161951D01*
X148846105Y-117051167D01*
X148846103Y-117051165D01*
X148803705Y-116987712D01*
X148740252Y-116945314D01*
X145354108Y-113559172D01*
X145311706Y-113495713D01*
X145060314Y-113327738D01*
X144838629Y-113283642D01*
X144838624Y-113283642D01*
X144763777Y-113268754D01*
X144688930Y-113283642D01*
X143644486Y-113283642D01*
X143527055Y-113166211D01*
X143146649Y-113008642D01*
X142734901Y-113008642D01*
X142354495Y-113166211D01*
X142063344Y-113457362D01*
X141905775Y-113837768D01*
X141905775Y-114249516D01*
X142063344Y-114629922D01*
X142354495Y-114921073D01*
X142734901Y-115078642D01*
X143146649Y-115078642D01*
X143527055Y-114921073D01*
X143644486Y-114803642D01*
X144448976Y-114803642D01*
X145678975Y-116033642D01*
X138085129Y-116033642D01*
X138530219Y-115849280D01*
X139046413Y-115333086D01*
X139325775Y-114658646D01*
X139325775Y-113928638D01*
X139046413Y-113254198D01*
X138530219Y-112738004D01*
X137855779Y-112458642D01*
X137125771Y-112458642D01*
X136451331Y-112738004D01*
X135935137Y-113254198D01*
X135740068Y-113725136D01*
X134590775Y-112575843D01*
X134590775Y-109299614D01*
X134752606Y-109541811D01*
G36*
X148723434Y-101598642D02*
X148723438Y-101598642D01*
X148798285Y-101613530D01*
X148873132Y-101598642D01*
X152087064Y-101598642D01*
X152204495Y-101716073D01*
X152234637Y-101728558D01*
X152226301Y-101770470D01*
X152185887Y-101973642D01*
X152200776Y-102048494D01*
X152200775Y-108329931D01*
X152085775Y-108444931D01*
X152085775Y-108387768D01*
X151928206Y-108007362D01*
X151637055Y-107716211D01*
X151256649Y-107558642D01*
X150844901Y-107558642D01*
X150464495Y-107716211D01*
X150173344Y-108007362D01*
X150015775Y-108387768D01*
X150015775Y-108799516D01*
X150038195Y-108853642D01*
X147550245Y-108853642D01*
X147450774Y-108833856D01*
X147351303Y-108853642D01*
X147351299Y-108853642D01*
X147056693Y-108912243D01*
X146979769Y-108963642D01*
X146806936Y-109079125D01*
X146806935Y-109079126D01*
X146722606Y-109135473D01*
X146666259Y-109219802D01*
X145152420Y-110733642D01*
X144849131Y-110733642D01*
X144576808Y-110461320D01*
X144728206Y-110309922D01*
X144885775Y-109929516D01*
X144885775Y-109517768D01*
X144728206Y-109137362D01*
X144437055Y-108846211D01*
X144056649Y-108688642D01*
X143657142Y-108688642D01*
X143528206Y-108377362D01*
X143410775Y-108259931D01*
X143410775Y-106448488D01*
X143425663Y-106373641D01*
X143410775Y-106298794D01*
X143410775Y-106298790D01*
X143402789Y-106258642D01*
X143566649Y-106258642D01*
X143947055Y-106101073D01*
X144238206Y-105809922D01*
X144395775Y-105429516D01*
X144395775Y-105263443D01*
X146469578Y-103189641D01*
X147307064Y-103189641D01*
X147424495Y-103307072D01*
X147804901Y-103464641D01*
X148216649Y-103464641D01*
X148597055Y-103307072D01*
X148888206Y-103015921D01*
X149045775Y-102635515D01*
X149045775Y-102223767D01*
X148888206Y-101843361D01*
X148623636Y-101578791D01*
X148723434Y-101598642D01*
X148723434Y-101598642D01*
G37*
X148723434Y-101598642D02*
X148723438Y-101598642D01*
X148798285Y-101613530D01*
X148873132Y-101598642D01*
X152087064Y-101598642D01*
X152204495Y-101716073D01*
X152234637Y-101728558D01*
X152226301Y-101770470D01*
X152185887Y-101973642D01*
X152200776Y-102048494D01*
X152200775Y-108329931D01*
X152085775Y-108444931D01*
X152085775Y-108387768D01*
X151928206Y-108007362D01*
X151637055Y-107716211D01*
X151256649Y-107558642D01*
X150844901Y-107558642D01*
X150464495Y-107716211D01*
X150173344Y-108007362D01*
X150015775Y-108387768D01*
X150015775Y-108799516D01*
X150038195Y-108853642D01*
X147550245Y-108853642D01*
X147450774Y-108833856D01*
X147351303Y-108853642D01*
X147351299Y-108853642D01*
X147056693Y-108912243D01*
X146979769Y-108963642D01*
X146806936Y-109079125D01*
X146806935Y-109079126D01*
X146722606Y-109135473D01*
X146666259Y-109219802D01*
X145152420Y-110733642D01*
X144849131Y-110733642D01*
X144576808Y-110461320D01*
X144728206Y-110309922D01*
X144885775Y-109929516D01*
X144885775Y-109517768D01*
X144728206Y-109137362D01*
X144437055Y-108846211D01*
X144056649Y-108688642D01*
X143657142Y-108688642D01*
X143528206Y-108377362D01*
X143410775Y-108259931D01*
X143410775Y-106448488D01*
X143425663Y-106373641D01*
X143410775Y-106298794D01*
X143410775Y-106298790D01*
X143402789Y-106258642D01*
X143566649Y-106258642D01*
X143947055Y-106101073D01*
X144238206Y-105809922D01*
X144395775Y-105429516D01*
X144395775Y-105263443D01*
X146469578Y-103189641D01*
X147307064Y-103189641D01*
X147424495Y-103307072D01*
X147804901Y-103464641D01*
X148216649Y-103464641D01*
X148597055Y-103307072D01*
X148888206Y-103015921D01*
X149045775Y-102635515D01*
X149045775Y-102223767D01*
X148888206Y-101843361D01*
X148623636Y-101578791D01*
X148723434Y-101598642D01*
G36*
X127874901Y-95578642D02*
X128286649Y-95578642D01*
X128347004Y-95553642D01*
X129892420Y-95553642D01*
X130876258Y-96537480D01*
X130932606Y-96621811D01*
X131016937Y-96678159D01*
X131266692Y-96845040D01*
X131660774Y-96923428D01*
X131660775Y-96923428D01*
X131961339Y-96863642D01*
X138629563Y-96863642D01*
X137506293Y-97986913D01*
X137442837Y-98029313D01*
X137400437Y-98092769D01*
X137400436Y-98092770D01*
X137274862Y-98280705D01*
X137215877Y-98577242D01*
X137230766Y-98652094D01*
X137230765Y-103698830D01*
X136205775Y-102673841D01*
X136205775Y-102507768D01*
X136048206Y-102127362D01*
X135757055Y-101836211D01*
X135376649Y-101678642D01*
X134964901Y-101678642D01*
X134584495Y-101836211D01*
X134293344Y-102127362D01*
X134135775Y-102507768D01*
X134135775Y-102919516D01*
X134293344Y-103299922D01*
X134584495Y-103591073D01*
X134964901Y-103748642D01*
X135130974Y-103748642D01*
X136260776Y-104878445D01*
X136260775Y-107809931D01*
X136143344Y-107927362D01*
X136129953Y-107959691D01*
X136124613Y-107956123D01*
X135083294Y-106914804D01*
X135026945Y-106830472D01*
X134692858Y-106607242D01*
X134398252Y-106548641D01*
X134398247Y-106548641D01*
X134298776Y-106528855D01*
X134199305Y-106548641D01*
X129910933Y-106548641D01*
X129811461Y-106528855D01*
X129711989Y-106548641D01*
X129711985Y-106548641D01*
X129647046Y-106561558D01*
X127710775Y-104625287D01*
X127710775Y-95510659D01*
X127874901Y-95578642D01*
X127874901Y-95578642D01*
G37*
X127874901Y-95578642D02*
X128286649Y-95578642D01*
X128347004Y-95553642D01*
X129892420Y-95553642D01*
X130876258Y-96537480D01*
X130932606Y-96621811D01*
X131016937Y-96678159D01*
X131266692Y-96845040D01*
X131660774Y-96923428D01*
X131660775Y-96923428D01*
X131961339Y-96863642D01*
X138629563Y-96863642D01*
X137506293Y-97986913D01*
X137442837Y-98029313D01*
X137400437Y-98092769D01*
X137400436Y-98092770D01*
X137274862Y-98280705D01*
X137215877Y-98577242D01*
X137230766Y-98652094D01*
X137230765Y-103698830D01*
X136205775Y-102673841D01*
X136205775Y-102507768D01*
X136048206Y-102127362D01*
X135757055Y-101836211D01*
X135376649Y-101678642D01*
X134964901Y-101678642D01*
X134584495Y-101836211D01*
X134293344Y-102127362D01*
X134135775Y-102507768D01*
X134135775Y-102919516D01*
X134293344Y-103299922D01*
X134584495Y-103591073D01*
X134964901Y-103748642D01*
X135130974Y-103748642D01*
X136260776Y-104878445D01*
X136260775Y-107809931D01*
X136143344Y-107927362D01*
X136129953Y-107959691D01*
X136124613Y-107956123D01*
X135083294Y-106914804D01*
X135026945Y-106830472D01*
X134692858Y-106607242D01*
X134398252Y-106548641D01*
X134398247Y-106548641D01*
X134298776Y-106528855D01*
X134199305Y-106548641D01*
X129910933Y-106548641D01*
X129811461Y-106528855D01*
X129711989Y-106548641D01*
X129711985Y-106548641D01*
X129647046Y-106561558D01*
X127710775Y-104625287D01*
X127710775Y-95510659D01*
X127874901Y-95578642D01*
G36*
X142876303Y-99968313D02*
X142812847Y-100010713D01*
X142770447Y-100074169D01*
X142770446Y-100074170D01*
X142644872Y-100262105D01*
X142585887Y-100558642D01*
X142600776Y-100633494D01*
X142600775Y-104519931D01*
X142483344Y-104637362D01*
X142325775Y-105017768D01*
X142325775Y-105117541D01*
X142205627Y-105093642D01*
X142205622Y-105093642D01*
X142130775Y-105078754D01*
X142055928Y-105093642D01*
X141935577Y-105093642D01*
X139925775Y-103083841D01*
X139925775Y-102057353D01*
X140043206Y-101939922D01*
X140200775Y-101559516D01*
X140200775Y-101147768D01*
X140043206Y-100767362D01*
X139752055Y-100476211D01*
X139371649Y-100318642D01*
X139200775Y-100318642D01*
X139200775Y-99078443D01*
X140025577Y-98253642D01*
X144590973Y-98253642D01*
X142876303Y-99968313D01*
X142876303Y-99968313D01*
G37*
X142876303Y-99968313D02*
X142812847Y-100010713D01*
X142770447Y-100074169D01*
X142770446Y-100074170D01*
X142644872Y-100262105D01*
X142585887Y-100558642D01*
X142600776Y-100633494D01*
X142600775Y-104519931D01*
X142483344Y-104637362D01*
X142325775Y-105017768D01*
X142325775Y-105117541D01*
X142205627Y-105093642D01*
X142205622Y-105093642D01*
X142130775Y-105078754D01*
X142055928Y-105093642D01*
X141935577Y-105093642D01*
X139925775Y-103083841D01*
X139925775Y-102057353D01*
X140043206Y-101939922D01*
X140200775Y-101559516D01*
X140200775Y-101147768D01*
X140043206Y-100767362D01*
X139752055Y-100476211D01*
X139371649Y-100318642D01*
X139200775Y-100318642D01*
X139200775Y-99078443D01*
X140025577Y-98253642D01*
X144590973Y-98253642D01*
X142876303Y-99968313D01*
G04 #@! TD*
M02*
