G04 #@! TF.GenerationSoftware,KiCad,Pcbnew,(5.0.1-3-g963ef8bb5)*
G04 #@! TF.CreationDate,2021-05-26T22:53:26+02:00*
G04 #@! TF.ProjectId,EPS_v3_NanoSatLab,4550535F76335F4E616E6F5361744C61,rev?*
G04 #@! TF.SameCoordinates,Original*
G04 #@! TF.FileFunction,Soldermask,Bot*
G04 #@! TF.FilePolarity,Negative*
%FSLAX46Y46*%
G04 Gerber Fmt 4.6, Leading zero omitted, Abs format (unit mm)*
G04 Created by KiCad (PCBNEW (5.0.1-3-g963ef8bb5)) date 2021 May 26, Wednesday 22:53:26*
%MOMM*%
%LPD*%
G01*
G04 APERTURE LIST*
%ADD10C,0.100000*%
G04 APERTURE END LIST*
D10*
G36*
X181176580Y-134126584D02*
X181463888Y-134183733D01*
X182037333Y-134421262D01*
X182252104Y-134564768D01*
X182553423Y-134766103D01*
X182992314Y-135204994D01*
X182992316Y-135204997D01*
X183337155Y-135721084D01*
X183337155Y-135721085D01*
X183574684Y-136294530D01*
X183695775Y-136903294D01*
X183695775Y-137523990D01*
X183637623Y-137816340D01*
X183574684Y-138132755D01*
X183337155Y-138706200D01*
X182994641Y-139218807D01*
X182992314Y-139222290D01*
X182553423Y-139661181D01*
X182553420Y-139661183D01*
X182037333Y-140006022D01*
X181463888Y-140243551D01*
X181260966Y-140283915D01*
X180855123Y-140364642D01*
X180234427Y-140364642D01*
X179828584Y-140283915D01*
X179625662Y-140243551D01*
X179052217Y-140006022D01*
X178536130Y-139661183D01*
X178536127Y-139661181D01*
X178097236Y-139222290D01*
X178094909Y-139218807D01*
X177752395Y-138706200D01*
X177514866Y-138132755D01*
X177451927Y-137816340D01*
X177393775Y-137523990D01*
X177393775Y-136903294D01*
X177514866Y-136294530D01*
X177752395Y-135721085D01*
X177752395Y-135721084D01*
X178097234Y-135204997D01*
X178097236Y-135204994D01*
X178536127Y-134766103D01*
X178837446Y-134564768D01*
X179052217Y-134421262D01*
X179625662Y-134183733D01*
X179912970Y-134126584D01*
X180234427Y-134062642D01*
X180855123Y-134062642D01*
X181176580Y-134126584D01*
X181176580Y-134126584D01*
G37*
G36*
X107476580Y-134126584D02*
X107763888Y-134183733D01*
X108337333Y-134421262D01*
X108552104Y-134564768D01*
X108853423Y-134766103D01*
X109292314Y-135204994D01*
X109292316Y-135204997D01*
X109637155Y-135721084D01*
X109637155Y-135721085D01*
X109874684Y-136294530D01*
X109995775Y-136903294D01*
X109995775Y-137523990D01*
X109937623Y-137816340D01*
X109874684Y-138132755D01*
X109637155Y-138706200D01*
X109294641Y-139218807D01*
X109292314Y-139222290D01*
X108853423Y-139661181D01*
X108853420Y-139661183D01*
X108337333Y-140006022D01*
X107763888Y-140243551D01*
X107560966Y-140283915D01*
X107155123Y-140364642D01*
X106534427Y-140364642D01*
X106128584Y-140283915D01*
X105925662Y-140243551D01*
X105352217Y-140006022D01*
X104836130Y-139661183D01*
X104836127Y-139661181D01*
X104397236Y-139222290D01*
X104394909Y-139218807D01*
X104052395Y-138706200D01*
X103814866Y-138132755D01*
X103751927Y-137816340D01*
X103693775Y-137523990D01*
X103693775Y-136903294D01*
X103814866Y-136294530D01*
X104052395Y-135721085D01*
X104052395Y-135721084D01*
X104397234Y-135204997D01*
X104397236Y-135204994D01*
X104836127Y-134766103D01*
X105137446Y-134564768D01*
X105352217Y-134421262D01*
X105925662Y-134183733D01*
X106212970Y-134126584D01*
X106534427Y-134062642D01*
X107155123Y-134062642D01*
X107476580Y-134126584D01*
X107476580Y-134126584D01*
G37*
G36*
X170501917Y-136403084D02*
X170649877Y-136464372D01*
X170783033Y-136553344D01*
X170896273Y-136666584D01*
X170985245Y-136799740D01*
X171046533Y-136947700D01*
X171077775Y-137104767D01*
X171077775Y-137264917D01*
X171046533Y-137421984D01*
X170985245Y-137569944D01*
X170896273Y-137703100D01*
X170783033Y-137816340D01*
X170649877Y-137905312D01*
X170501917Y-137966600D01*
X170344850Y-137997842D01*
X170184700Y-137997842D01*
X170027633Y-137966600D01*
X169879673Y-137905312D01*
X169746517Y-137816340D01*
X169633277Y-137703100D01*
X169544305Y-137569944D01*
X169483017Y-137421984D01*
X169451775Y-137264917D01*
X169451775Y-137104767D01*
X169483017Y-136947700D01*
X169544305Y-136799740D01*
X169633277Y-136666584D01*
X169746517Y-136553344D01*
X169879673Y-136464372D01*
X170027633Y-136403084D01*
X170184700Y-136371842D01*
X170344850Y-136371842D01*
X170501917Y-136403084D01*
X170501917Y-136403084D01*
G37*
G36*
X167961917Y-136403084D02*
X168109877Y-136464372D01*
X168243033Y-136553344D01*
X168356273Y-136666584D01*
X168445245Y-136799740D01*
X168506533Y-136947700D01*
X168537775Y-137104767D01*
X168537775Y-137264917D01*
X168506533Y-137421984D01*
X168445245Y-137569944D01*
X168356273Y-137703100D01*
X168243033Y-137816340D01*
X168109877Y-137905312D01*
X167961917Y-137966600D01*
X167804850Y-137997842D01*
X167644700Y-137997842D01*
X167487633Y-137966600D01*
X167339673Y-137905312D01*
X167206517Y-137816340D01*
X167093277Y-137703100D01*
X167004305Y-137569944D01*
X166943017Y-137421984D01*
X166911775Y-137264917D01*
X166911775Y-137104767D01*
X166943017Y-136947700D01*
X167004305Y-136799740D01*
X167093277Y-136666584D01*
X167206517Y-136553344D01*
X167339673Y-136464372D01*
X167487633Y-136403084D01*
X167644700Y-136371842D01*
X167804850Y-136371842D01*
X167961917Y-136403084D01*
X167961917Y-136403084D01*
G37*
G36*
X165421917Y-136403084D02*
X165569877Y-136464372D01*
X165703033Y-136553344D01*
X165816273Y-136666584D01*
X165905245Y-136799740D01*
X165966533Y-136947700D01*
X165997775Y-137104767D01*
X165997775Y-137264917D01*
X165966533Y-137421984D01*
X165905245Y-137569944D01*
X165816273Y-137703100D01*
X165703033Y-137816340D01*
X165569877Y-137905312D01*
X165421917Y-137966600D01*
X165264850Y-137997842D01*
X165104700Y-137997842D01*
X164947633Y-137966600D01*
X164799673Y-137905312D01*
X164666517Y-137816340D01*
X164553277Y-137703100D01*
X164464305Y-137569944D01*
X164403017Y-137421984D01*
X164371775Y-137264917D01*
X164371775Y-137104767D01*
X164403017Y-136947700D01*
X164464305Y-136799740D01*
X164553277Y-136666584D01*
X164666517Y-136553344D01*
X164799673Y-136464372D01*
X164947633Y-136403084D01*
X165104700Y-136371842D01*
X165264850Y-136371842D01*
X165421917Y-136403084D01*
X165421917Y-136403084D01*
G37*
G36*
X162881917Y-136403084D02*
X163029877Y-136464372D01*
X163163033Y-136553344D01*
X163276273Y-136666584D01*
X163365245Y-136799740D01*
X163426533Y-136947700D01*
X163457775Y-137104767D01*
X163457775Y-137264917D01*
X163426533Y-137421984D01*
X163365245Y-137569944D01*
X163276273Y-137703100D01*
X163163033Y-137816340D01*
X163029877Y-137905312D01*
X162881917Y-137966600D01*
X162724850Y-137997842D01*
X162564700Y-137997842D01*
X162407633Y-137966600D01*
X162259673Y-137905312D01*
X162126517Y-137816340D01*
X162013277Y-137703100D01*
X161924305Y-137569944D01*
X161863017Y-137421984D01*
X161831775Y-137264917D01*
X161831775Y-137104767D01*
X161863017Y-136947700D01*
X161924305Y-136799740D01*
X162013277Y-136666584D01*
X162126517Y-136553344D01*
X162259673Y-136464372D01*
X162407633Y-136403084D01*
X162564700Y-136371842D01*
X162724850Y-136371842D01*
X162881917Y-136403084D01*
X162881917Y-136403084D01*
G37*
G36*
X160341917Y-136403084D02*
X160489877Y-136464372D01*
X160623033Y-136553344D01*
X160736273Y-136666584D01*
X160825245Y-136799740D01*
X160886533Y-136947700D01*
X160917775Y-137104767D01*
X160917775Y-137264917D01*
X160886533Y-137421984D01*
X160825245Y-137569944D01*
X160736273Y-137703100D01*
X160623033Y-137816340D01*
X160489877Y-137905312D01*
X160341917Y-137966600D01*
X160184850Y-137997842D01*
X160024700Y-137997842D01*
X159867633Y-137966600D01*
X159719673Y-137905312D01*
X159586517Y-137816340D01*
X159473277Y-137703100D01*
X159384305Y-137569944D01*
X159323017Y-137421984D01*
X159291775Y-137264917D01*
X159291775Y-137104767D01*
X159323017Y-136947700D01*
X159384305Y-136799740D01*
X159473277Y-136666584D01*
X159586517Y-136553344D01*
X159719673Y-136464372D01*
X159867633Y-136403084D01*
X160024700Y-136371842D01*
X160184850Y-136371842D01*
X160341917Y-136403084D01*
X160341917Y-136403084D01*
G37*
G36*
X157801917Y-136403084D02*
X157949877Y-136464372D01*
X158083033Y-136553344D01*
X158196273Y-136666584D01*
X158285245Y-136799740D01*
X158346533Y-136947700D01*
X158377775Y-137104767D01*
X158377775Y-137264917D01*
X158346533Y-137421984D01*
X158285245Y-137569944D01*
X158196273Y-137703100D01*
X158083033Y-137816340D01*
X157949877Y-137905312D01*
X157801917Y-137966600D01*
X157644850Y-137997842D01*
X157484700Y-137997842D01*
X157327633Y-137966600D01*
X157179673Y-137905312D01*
X157046517Y-137816340D01*
X156933277Y-137703100D01*
X156844305Y-137569944D01*
X156783017Y-137421984D01*
X156751775Y-137264917D01*
X156751775Y-137104767D01*
X156783017Y-136947700D01*
X156844305Y-136799740D01*
X156933277Y-136666584D01*
X157046517Y-136553344D01*
X157179673Y-136464372D01*
X157327633Y-136403084D01*
X157484700Y-136371842D01*
X157644850Y-136371842D01*
X157801917Y-136403084D01*
X157801917Y-136403084D01*
G37*
G36*
X155261917Y-136403084D02*
X155409877Y-136464372D01*
X155543033Y-136553344D01*
X155656273Y-136666584D01*
X155745245Y-136799740D01*
X155806533Y-136947700D01*
X155837775Y-137104767D01*
X155837775Y-137264917D01*
X155806533Y-137421984D01*
X155745245Y-137569944D01*
X155656273Y-137703100D01*
X155543033Y-137816340D01*
X155409877Y-137905312D01*
X155261917Y-137966600D01*
X155104850Y-137997842D01*
X154944700Y-137997842D01*
X154787633Y-137966600D01*
X154639673Y-137905312D01*
X154506517Y-137816340D01*
X154393277Y-137703100D01*
X154304305Y-137569944D01*
X154243017Y-137421984D01*
X154211775Y-137264917D01*
X154211775Y-137104767D01*
X154243017Y-136947700D01*
X154304305Y-136799740D01*
X154393277Y-136666584D01*
X154506517Y-136553344D01*
X154639673Y-136464372D01*
X154787633Y-136403084D01*
X154944700Y-136371842D01*
X155104850Y-136371842D01*
X155261917Y-136403084D01*
X155261917Y-136403084D01*
G37*
G36*
X152721917Y-136403084D02*
X152869877Y-136464372D01*
X153003033Y-136553344D01*
X153116273Y-136666584D01*
X153205245Y-136799740D01*
X153266533Y-136947700D01*
X153297775Y-137104767D01*
X153297775Y-137264917D01*
X153266533Y-137421984D01*
X153205245Y-137569944D01*
X153116273Y-137703100D01*
X153003033Y-137816340D01*
X152869877Y-137905312D01*
X152721917Y-137966600D01*
X152564850Y-137997842D01*
X152404700Y-137997842D01*
X152247633Y-137966600D01*
X152099673Y-137905312D01*
X151966517Y-137816340D01*
X151853277Y-137703100D01*
X151764305Y-137569944D01*
X151703017Y-137421984D01*
X151671775Y-137264917D01*
X151671775Y-137104767D01*
X151703017Y-136947700D01*
X151764305Y-136799740D01*
X151853277Y-136666584D01*
X151966517Y-136553344D01*
X152099673Y-136464372D01*
X152247633Y-136403084D01*
X152404700Y-136371842D01*
X152564850Y-136371842D01*
X152721917Y-136403084D01*
X152721917Y-136403084D01*
G37*
G36*
X150181917Y-136403084D02*
X150329877Y-136464372D01*
X150463033Y-136553344D01*
X150576273Y-136666584D01*
X150665245Y-136799740D01*
X150726533Y-136947700D01*
X150757775Y-137104767D01*
X150757775Y-137264917D01*
X150726533Y-137421984D01*
X150665245Y-137569944D01*
X150576273Y-137703100D01*
X150463033Y-137816340D01*
X150329877Y-137905312D01*
X150181917Y-137966600D01*
X150024850Y-137997842D01*
X149864700Y-137997842D01*
X149707633Y-137966600D01*
X149559673Y-137905312D01*
X149426517Y-137816340D01*
X149313277Y-137703100D01*
X149224305Y-137569944D01*
X149163017Y-137421984D01*
X149131775Y-137264917D01*
X149131775Y-137104767D01*
X149163017Y-136947700D01*
X149224305Y-136799740D01*
X149313277Y-136666584D01*
X149426517Y-136553344D01*
X149559673Y-136464372D01*
X149707633Y-136403084D01*
X149864700Y-136371842D01*
X150024850Y-136371842D01*
X150181917Y-136403084D01*
X150181917Y-136403084D01*
G37*
G36*
X147641917Y-136403084D02*
X147789877Y-136464372D01*
X147923033Y-136553344D01*
X148036273Y-136666584D01*
X148125245Y-136799740D01*
X148186533Y-136947700D01*
X148217775Y-137104767D01*
X148217775Y-137264917D01*
X148186533Y-137421984D01*
X148125245Y-137569944D01*
X148036273Y-137703100D01*
X147923033Y-137816340D01*
X147789877Y-137905312D01*
X147641917Y-137966600D01*
X147484850Y-137997842D01*
X147324700Y-137997842D01*
X147167633Y-137966600D01*
X147019673Y-137905312D01*
X146886517Y-137816340D01*
X146773277Y-137703100D01*
X146684305Y-137569944D01*
X146623017Y-137421984D01*
X146591775Y-137264917D01*
X146591775Y-137104767D01*
X146623017Y-136947700D01*
X146684305Y-136799740D01*
X146773277Y-136666584D01*
X146886517Y-136553344D01*
X147019673Y-136464372D01*
X147167633Y-136403084D01*
X147324700Y-136371842D01*
X147484850Y-136371842D01*
X147641917Y-136403084D01*
X147641917Y-136403084D01*
G37*
G36*
X145101917Y-136403084D02*
X145249877Y-136464372D01*
X145383033Y-136553344D01*
X145496273Y-136666584D01*
X145585245Y-136799740D01*
X145646533Y-136947700D01*
X145677775Y-137104767D01*
X145677775Y-137264917D01*
X145646533Y-137421984D01*
X145585245Y-137569944D01*
X145496273Y-137703100D01*
X145383033Y-137816340D01*
X145249877Y-137905312D01*
X145101917Y-137966600D01*
X144944850Y-137997842D01*
X144784700Y-137997842D01*
X144627633Y-137966600D01*
X144479673Y-137905312D01*
X144346517Y-137816340D01*
X144233277Y-137703100D01*
X144144305Y-137569944D01*
X144083017Y-137421984D01*
X144051775Y-137264917D01*
X144051775Y-137104767D01*
X144083017Y-136947700D01*
X144144305Y-136799740D01*
X144233277Y-136666584D01*
X144346517Y-136553344D01*
X144479673Y-136464372D01*
X144627633Y-136403084D01*
X144784700Y-136371842D01*
X144944850Y-136371842D01*
X145101917Y-136403084D01*
X145101917Y-136403084D01*
G37*
G36*
X142561917Y-136403084D02*
X142709877Y-136464372D01*
X142843033Y-136553344D01*
X142956273Y-136666584D01*
X143045245Y-136799740D01*
X143106533Y-136947700D01*
X143137775Y-137104767D01*
X143137775Y-137264917D01*
X143106533Y-137421984D01*
X143045245Y-137569944D01*
X142956273Y-137703100D01*
X142843033Y-137816340D01*
X142709877Y-137905312D01*
X142561917Y-137966600D01*
X142404850Y-137997842D01*
X142244700Y-137997842D01*
X142087633Y-137966600D01*
X141939673Y-137905312D01*
X141806517Y-137816340D01*
X141693277Y-137703100D01*
X141604305Y-137569944D01*
X141543017Y-137421984D01*
X141511775Y-137264917D01*
X141511775Y-137104767D01*
X141543017Y-136947700D01*
X141604305Y-136799740D01*
X141693277Y-136666584D01*
X141806517Y-136553344D01*
X141939673Y-136464372D01*
X142087633Y-136403084D01*
X142244700Y-136371842D01*
X142404850Y-136371842D01*
X142561917Y-136403084D01*
X142561917Y-136403084D01*
G37*
G36*
X140021917Y-136403084D02*
X140169877Y-136464372D01*
X140303033Y-136553344D01*
X140416273Y-136666584D01*
X140505245Y-136799740D01*
X140566533Y-136947700D01*
X140597775Y-137104767D01*
X140597775Y-137264917D01*
X140566533Y-137421984D01*
X140505245Y-137569944D01*
X140416273Y-137703100D01*
X140303033Y-137816340D01*
X140169877Y-137905312D01*
X140021917Y-137966600D01*
X139864850Y-137997842D01*
X139704700Y-137997842D01*
X139547633Y-137966600D01*
X139399673Y-137905312D01*
X139266517Y-137816340D01*
X139153277Y-137703100D01*
X139064305Y-137569944D01*
X139003017Y-137421984D01*
X138971775Y-137264917D01*
X138971775Y-137104767D01*
X139003017Y-136947700D01*
X139064305Y-136799740D01*
X139153277Y-136666584D01*
X139266517Y-136553344D01*
X139399673Y-136464372D01*
X139547633Y-136403084D01*
X139704700Y-136371842D01*
X139864850Y-136371842D01*
X140021917Y-136403084D01*
X140021917Y-136403084D01*
G37*
G36*
X137481917Y-136403084D02*
X137629877Y-136464372D01*
X137763033Y-136553344D01*
X137876273Y-136666584D01*
X137965245Y-136799740D01*
X138026533Y-136947700D01*
X138057775Y-137104767D01*
X138057775Y-137264917D01*
X138026533Y-137421984D01*
X137965245Y-137569944D01*
X137876273Y-137703100D01*
X137763033Y-137816340D01*
X137629877Y-137905312D01*
X137481917Y-137966600D01*
X137324850Y-137997842D01*
X137164700Y-137997842D01*
X137007633Y-137966600D01*
X136859673Y-137905312D01*
X136726517Y-137816340D01*
X136613277Y-137703100D01*
X136524305Y-137569944D01*
X136463017Y-137421984D01*
X136431775Y-137264917D01*
X136431775Y-137104767D01*
X136463017Y-136947700D01*
X136524305Y-136799740D01*
X136613277Y-136666584D01*
X136726517Y-136553344D01*
X136859673Y-136464372D01*
X137007633Y-136403084D01*
X137164700Y-136371842D01*
X137324850Y-136371842D01*
X137481917Y-136403084D01*
X137481917Y-136403084D01*
G37*
G36*
X134941917Y-136403084D02*
X135089877Y-136464372D01*
X135223033Y-136553344D01*
X135336273Y-136666584D01*
X135425245Y-136799740D01*
X135486533Y-136947700D01*
X135517775Y-137104767D01*
X135517775Y-137264917D01*
X135486533Y-137421984D01*
X135425245Y-137569944D01*
X135336273Y-137703100D01*
X135223033Y-137816340D01*
X135089877Y-137905312D01*
X134941917Y-137966600D01*
X134784850Y-137997842D01*
X134624700Y-137997842D01*
X134467633Y-137966600D01*
X134319673Y-137905312D01*
X134186517Y-137816340D01*
X134073277Y-137703100D01*
X133984305Y-137569944D01*
X133923017Y-137421984D01*
X133891775Y-137264917D01*
X133891775Y-137104767D01*
X133923017Y-136947700D01*
X133984305Y-136799740D01*
X134073277Y-136666584D01*
X134186517Y-136553344D01*
X134319673Y-136464372D01*
X134467633Y-136403084D01*
X134624700Y-136371842D01*
X134784850Y-136371842D01*
X134941917Y-136403084D01*
X134941917Y-136403084D01*
G37*
G36*
X132401917Y-136403084D02*
X132549877Y-136464372D01*
X132683033Y-136553344D01*
X132796273Y-136666584D01*
X132885245Y-136799740D01*
X132946533Y-136947700D01*
X132977775Y-137104767D01*
X132977775Y-137264917D01*
X132946533Y-137421984D01*
X132885245Y-137569944D01*
X132796273Y-137703100D01*
X132683033Y-137816340D01*
X132549877Y-137905312D01*
X132401917Y-137966600D01*
X132244850Y-137997842D01*
X132084700Y-137997842D01*
X131927633Y-137966600D01*
X131779673Y-137905312D01*
X131646517Y-137816340D01*
X131533277Y-137703100D01*
X131444305Y-137569944D01*
X131383017Y-137421984D01*
X131351775Y-137264917D01*
X131351775Y-137104767D01*
X131383017Y-136947700D01*
X131444305Y-136799740D01*
X131533277Y-136666584D01*
X131646517Y-136553344D01*
X131779673Y-136464372D01*
X131927633Y-136403084D01*
X132084700Y-136371842D01*
X132244850Y-136371842D01*
X132401917Y-136403084D01*
X132401917Y-136403084D01*
G37*
G36*
X129861917Y-136403084D02*
X130009877Y-136464372D01*
X130143033Y-136553344D01*
X130256273Y-136666584D01*
X130345245Y-136799740D01*
X130406533Y-136947700D01*
X130437775Y-137104767D01*
X130437775Y-137264917D01*
X130406533Y-137421984D01*
X130345245Y-137569944D01*
X130256273Y-137703100D01*
X130143033Y-137816340D01*
X130009877Y-137905312D01*
X129861917Y-137966600D01*
X129704850Y-137997842D01*
X129544700Y-137997842D01*
X129387633Y-137966600D01*
X129239673Y-137905312D01*
X129106517Y-137816340D01*
X128993277Y-137703100D01*
X128904305Y-137569944D01*
X128843017Y-137421984D01*
X128811775Y-137264917D01*
X128811775Y-137104767D01*
X128843017Y-136947700D01*
X128904305Y-136799740D01*
X128993277Y-136666584D01*
X129106517Y-136553344D01*
X129239673Y-136464372D01*
X129387633Y-136403084D01*
X129544700Y-136371842D01*
X129704850Y-136371842D01*
X129861917Y-136403084D01*
X129861917Y-136403084D01*
G37*
G36*
X127321917Y-136403084D02*
X127469877Y-136464372D01*
X127603033Y-136553344D01*
X127716273Y-136666584D01*
X127805245Y-136799740D01*
X127866533Y-136947700D01*
X127897775Y-137104767D01*
X127897775Y-137264917D01*
X127866533Y-137421984D01*
X127805245Y-137569944D01*
X127716273Y-137703100D01*
X127603033Y-137816340D01*
X127469877Y-137905312D01*
X127321917Y-137966600D01*
X127164850Y-137997842D01*
X127004700Y-137997842D01*
X126847633Y-137966600D01*
X126699673Y-137905312D01*
X126566517Y-137816340D01*
X126453277Y-137703100D01*
X126364305Y-137569944D01*
X126303017Y-137421984D01*
X126271775Y-137264917D01*
X126271775Y-137104767D01*
X126303017Y-136947700D01*
X126364305Y-136799740D01*
X126453277Y-136666584D01*
X126566517Y-136553344D01*
X126699673Y-136464372D01*
X126847633Y-136403084D01*
X127004700Y-136371842D01*
X127164850Y-136371842D01*
X127321917Y-136403084D01*
X127321917Y-136403084D01*
G37*
G36*
X124781917Y-136403084D02*
X124929877Y-136464372D01*
X125063033Y-136553344D01*
X125176273Y-136666584D01*
X125265245Y-136799740D01*
X125326533Y-136947700D01*
X125357775Y-137104767D01*
X125357775Y-137264917D01*
X125326533Y-137421984D01*
X125265245Y-137569944D01*
X125176273Y-137703100D01*
X125063033Y-137816340D01*
X124929877Y-137905312D01*
X124781917Y-137966600D01*
X124624850Y-137997842D01*
X124464700Y-137997842D01*
X124307633Y-137966600D01*
X124159673Y-137905312D01*
X124026517Y-137816340D01*
X123913277Y-137703100D01*
X123824305Y-137569944D01*
X123763017Y-137421984D01*
X123731775Y-137264917D01*
X123731775Y-137104767D01*
X123763017Y-136947700D01*
X123824305Y-136799740D01*
X123913277Y-136666584D01*
X124026517Y-136553344D01*
X124159673Y-136464372D01*
X124307633Y-136403084D01*
X124464700Y-136371842D01*
X124624850Y-136371842D01*
X124781917Y-136403084D01*
X124781917Y-136403084D01*
G37*
G36*
X122241917Y-136403084D02*
X122389877Y-136464372D01*
X122523033Y-136553344D01*
X122636273Y-136666584D01*
X122725245Y-136799740D01*
X122786533Y-136947700D01*
X122817775Y-137104767D01*
X122817775Y-137264917D01*
X122786533Y-137421984D01*
X122725245Y-137569944D01*
X122636273Y-137703100D01*
X122523033Y-137816340D01*
X122389877Y-137905312D01*
X122241917Y-137966600D01*
X122084850Y-137997842D01*
X121924700Y-137997842D01*
X121767633Y-137966600D01*
X121619673Y-137905312D01*
X121486517Y-137816340D01*
X121373277Y-137703100D01*
X121284305Y-137569944D01*
X121223017Y-137421984D01*
X121191775Y-137264917D01*
X121191775Y-137104767D01*
X121223017Y-136947700D01*
X121284305Y-136799740D01*
X121373277Y-136666584D01*
X121486517Y-136553344D01*
X121619673Y-136464372D01*
X121767633Y-136403084D01*
X121924700Y-136371842D01*
X122084850Y-136371842D01*
X122241917Y-136403084D01*
X122241917Y-136403084D01*
G37*
G36*
X119701917Y-136403084D02*
X119849877Y-136464372D01*
X119983033Y-136553344D01*
X120096273Y-136666584D01*
X120185245Y-136799740D01*
X120246533Y-136947700D01*
X120277775Y-137104767D01*
X120277775Y-137264917D01*
X120246533Y-137421984D01*
X120185245Y-137569944D01*
X120096273Y-137703100D01*
X119983033Y-137816340D01*
X119849877Y-137905312D01*
X119701917Y-137966600D01*
X119544850Y-137997842D01*
X119384700Y-137997842D01*
X119227633Y-137966600D01*
X119079673Y-137905312D01*
X118946517Y-137816340D01*
X118833277Y-137703100D01*
X118744305Y-137569944D01*
X118683017Y-137421984D01*
X118651775Y-137264917D01*
X118651775Y-137104767D01*
X118683017Y-136947700D01*
X118744305Y-136799740D01*
X118833277Y-136666584D01*
X118946517Y-136553344D01*
X119079673Y-136464372D01*
X119227633Y-136403084D01*
X119384700Y-136371842D01*
X119544850Y-136371842D01*
X119701917Y-136403084D01*
X119701917Y-136403084D01*
G37*
G36*
X117161917Y-136403084D02*
X117309877Y-136464372D01*
X117443033Y-136553344D01*
X117556273Y-136666584D01*
X117645245Y-136799740D01*
X117706533Y-136947700D01*
X117737775Y-137104767D01*
X117737775Y-137264917D01*
X117706533Y-137421984D01*
X117645245Y-137569944D01*
X117556273Y-137703100D01*
X117443033Y-137816340D01*
X117309877Y-137905312D01*
X117161917Y-137966600D01*
X117004850Y-137997842D01*
X116844700Y-137997842D01*
X116687633Y-137966600D01*
X116539673Y-137905312D01*
X116406517Y-137816340D01*
X116293277Y-137703100D01*
X116204305Y-137569944D01*
X116143017Y-137421984D01*
X116111775Y-137264917D01*
X116111775Y-137104767D01*
X116143017Y-136947700D01*
X116204305Y-136799740D01*
X116293277Y-136666584D01*
X116406517Y-136553344D01*
X116539673Y-136464372D01*
X116687633Y-136403084D01*
X116844700Y-136371842D01*
X117004850Y-136371842D01*
X117161917Y-136403084D01*
X117161917Y-136403084D01*
G37*
G36*
X114621917Y-136403084D02*
X114769877Y-136464372D01*
X114903033Y-136553344D01*
X115016273Y-136666584D01*
X115105245Y-136799740D01*
X115166533Y-136947700D01*
X115197775Y-137104767D01*
X115197775Y-137264917D01*
X115166533Y-137421984D01*
X115105245Y-137569944D01*
X115016273Y-137703100D01*
X114903033Y-137816340D01*
X114769877Y-137905312D01*
X114621917Y-137966600D01*
X114464850Y-137997842D01*
X114304700Y-137997842D01*
X114147633Y-137966600D01*
X113999673Y-137905312D01*
X113866517Y-137816340D01*
X113753277Y-137703100D01*
X113664305Y-137569944D01*
X113603017Y-137421984D01*
X113571775Y-137264917D01*
X113571775Y-137104767D01*
X113603017Y-136947700D01*
X113664305Y-136799740D01*
X113753277Y-136666584D01*
X113866517Y-136553344D01*
X113999673Y-136464372D01*
X114147633Y-136403084D01*
X114304700Y-136371842D01*
X114464850Y-136371842D01*
X114621917Y-136403084D01*
X114621917Y-136403084D01*
G37*
G36*
X112081917Y-136403084D02*
X112229877Y-136464372D01*
X112363033Y-136553344D01*
X112476273Y-136666584D01*
X112565245Y-136799740D01*
X112626533Y-136947700D01*
X112657775Y-137104767D01*
X112657775Y-137264917D01*
X112626533Y-137421984D01*
X112565245Y-137569944D01*
X112476273Y-137703100D01*
X112363033Y-137816340D01*
X112229877Y-137905312D01*
X112081917Y-137966600D01*
X111924850Y-137997842D01*
X111764700Y-137997842D01*
X111607633Y-137966600D01*
X111459673Y-137905312D01*
X111326517Y-137816340D01*
X111213277Y-137703100D01*
X111124305Y-137569944D01*
X111063017Y-137421984D01*
X111031775Y-137264917D01*
X111031775Y-137104767D01*
X111063017Y-136947700D01*
X111124305Y-136799740D01*
X111213277Y-136666584D01*
X111326517Y-136553344D01*
X111459673Y-136464372D01*
X111607633Y-136403084D01*
X111764700Y-136371842D01*
X111924850Y-136371842D01*
X112081917Y-136403084D01*
X112081917Y-136403084D01*
G37*
G36*
X175581917Y-136403084D02*
X175729877Y-136464372D01*
X175863033Y-136553344D01*
X175976273Y-136666584D01*
X176065245Y-136799740D01*
X176126533Y-136947700D01*
X176157775Y-137104767D01*
X176157775Y-137264917D01*
X176126533Y-137421984D01*
X176065245Y-137569944D01*
X175976273Y-137703100D01*
X175863033Y-137816340D01*
X175729877Y-137905312D01*
X175581917Y-137966600D01*
X175424850Y-137997842D01*
X175264700Y-137997842D01*
X175107633Y-137966600D01*
X174959673Y-137905312D01*
X174826517Y-137816340D01*
X174713277Y-137703100D01*
X174624305Y-137569944D01*
X174563017Y-137421984D01*
X174531775Y-137264917D01*
X174531775Y-137104767D01*
X174563017Y-136947700D01*
X174624305Y-136799740D01*
X174713277Y-136666584D01*
X174826517Y-136553344D01*
X174959673Y-136464372D01*
X175107633Y-136403084D01*
X175264700Y-136371842D01*
X175424850Y-136371842D01*
X175581917Y-136403084D01*
X175581917Y-136403084D01*
G37*
G36*
X173041917Y-136403084D02*
X173189877Y-136464372D01*
X173323033Y-136553344D01*
X173436273Y-136666584D01*
X173525245Y-136799740D01*
X173586533Y-136947700D01*
X173617775Y-137104767D01*
X173617775Y-137264917D01*
X173586533Y-137421984D01*
X173525245Y-137569944D01*
X173436273Y-137703100D01*
X173323033Y-137816340D01*
X173189877Y-137905312D01*
X173041917Y-137966600D01*
X172884850Y-137997842D01*
X172724700Y-137997842D01*
X172567633Y-137966600D01*
X172419673Y-137905312D01*
X172286517Y-137816340D01*
X172173277Y-137703100D01*
X172084305Y-137569944D01*
X172023017Y-137421984D01*
X171991775Y-137264917D01*
X171991775Y-137104767D01*
X172023017Y-136947700D01*
X172084305Y-136799740D01*
X172173277Y-136666584D01*
X172286517Y-136553344D01*
X172419673Y-136464372D01*
X172567633Y-136403084D01*
X172724700Y-136371842D01*
X172884850Y-136371842D01*
X173041917Y-136403084D01*
X173041917Y-136403084D01*
G37*
G36*
X142561917Y-133863084D02*
X142709877Y-133924372D01*
X142843033Y-134013344D01*
X142956273Y-134126584D01*
X143045245Y-134259740D01*
X143106533Y-134407700D01*
X143137775Y-134564767D01*
X143137775Y-134724917D01*
X143106533Y-134881984D01*
X143045245Y-135029944D01*
X142956273Y-135163100D01*
X142843033Y-135276340D01*
X142709877Y-135365312D01*
X142561917Y-135426600D01*
X142404850Y-135457842D01*
X142244700Y-135457842D01*
X142087633Y-135426600D01*
X141939673Y-135365312D01*
X141806517Y-135276340D01*
X141693277Y-135163100D01*
X141604305Y-135029944D01*
X141543017Y-134881984D01*
X141511775Y-134724917D01*
X141511775Y-134564767D01*
X141543017Y-134407700D01*
X141604305Y-134259740D01*
X141693277Y-134126584D01*
X141806517Y-134013344D01*
X141939673Y-133924372D01*
X142087633Y-133863084D01*
X142244700Y-133831842D01*
X142404850Y-133831842D01*
X142561917Y-133863084D01*
X142561917Y-133863084D01*
G37*
G36*
X175581917Y-133863084D02*
X175729877Y-133924372D01*
X175863033Y-134013344D01*
X175976273Y-134126584D01*
X176065245Y-134259740D01*
X176126533Y-134407700D01*
X176157775Y-134564767D01*
X176157775Y-134724917D01*
X176126533Y-134881984D01*
X176065245Y-135029944D01*
X175976273Y-135163100D01*
X175863033Y-135276340D01*
X175729877Y-135365312D01*
X175581917Y-135426600D01*
X175424850Y-135457842D01*
X175264700Y-135457842D01*
X175107633Y-135426600D01*
X174959673Y-135365312D01*
X174826517Y-135276340D01*
X174713277Y-135163100D01*
X174624305Y-135029944D01*
X174563017Y-134881984D01*
X174531775Y-134724917D01*
X174531775Y-134564767D01*
X174563017Y-134407700D01*
X174624305Y-134259740D01*
X174713277Y-134126584D01*
X174826517Y-134013344D01*
X174959673Y-133924372D01*
X175107633Y-133863084D01*
X175264700Y-133831842D01*
X175424850Y-133831842D01*
X175581917Y-133863084D01*
X175581917Y-133863084D01*
G37*
G36*
X173041917Y-133863084D02*
X173189877Y-133924372D01*
X173323033Y-134013344D01*
X173436273Y-134126584D01*
X173525245Y-134259740D01*
X173586533Y-134407700D01*
X173617775Y-134564767D01*
X173617775Y-134724917D01*
X173586533Y-134881984D01*
X173525245Y-135029944D01*
X173436273Y-135163100D01*
X173323033Y-135276340D01*
X173189877Y-135365312D01*
X173041917Y-135426600D01*
X172884850Y-135457842D01*
X172724700Y-135457842D01*
X172567633Y-135426600D01*
X172419673Y-135365312D01*
X172286517Y-135276340D01*
X172173277Y-135163100D01*
X172084305Y-135029944D01*
X172023017Y-134881984D01*
X171991775Y-134724917D01*
X171991775Y-134564767D01*
X172023017Y-134407700D01*
X172084305Y-134259740D01*
X172173277Y-134126584D01*
X172286517Y-134013344D01*
X172419673Y-133924372D01*
X172567633Y-133863084D01*
X172724700Y-133831842D01*
X172884850Y-133831842D01*
X173041917Y-133863084D01*
X173041917Y-133863084D01*
G37*
G36*
X170501917Y-133863084D02*
X170649877Y-133924372D01*
X170783033Y-134013344D01*
X170896273Y-134126584D01*
X170985245Y-134259740D01*
X171046533Y-134407700D01*
X171077775Y-134564767D01*
X171077775Y-134724917D01*
X171046533Y-134881984D01*
X170985245Y-135029944D01*
X170896273Y-135163100D01*
X170783033Y-135276340D01*
X170649877Y-135365312D01*
X170501917Y-135426600D01*
X170344850Y-135457842D01*
X170184700Y-135457842D01*
X170027633Y-135426600D01*
X169879673Y-135365312D01*
X169746517Y-135276340D01*
X169633277Y-135163100D01*
X169544305Y-135029944D01*
X169483017Y-134881984D01*
X169451775Y-134724917D01*
X169451775Y-134564767D01*
X169483017Y-134407700D01*
X169544305Y-134259740D01*
X169633277Y-134126584D01*
X169746517Y-134013344D01*
X169879673Y-133924372D01*
X170027633Y-133863084D01*
X170184700Y-133831842D01*
X170344850Y-133831842D01*
X170501917Y-133863084D01*
X170501917Y-133863084D01*
G37*
G36*
X167961917Y-133863084D02*
X168109877Y-133924372D01*
X168243033Y-134013344D01*
X168356273Y-134126584D01*
X168445245Y-134259740D01*
X168506533Y-134407700D01*
X168537775Y-134564767D01*
X168537775Y-134724917D01*
X168506533Y-134881984D01*
X168445245Y-135029944D01*
X168356273Y-135163100D01*
X168243033Y-135276340D01*
X168109877Y-135365312D01*
X167961917Y-135426600D01*
X167804850Y-135457842D01*
X167644700Y-135457842D01*
X167487633Y-135426600D01*
X167339673Y-135365312D01*
X167206517Y-135276340D01*
X167093277Y-135163100D01*
X167004305Y-135029944D01*
X166943017Y-134881984D01*
X166911775Y-134724917D01*
X166911775Y-134564767D01*
X166943017Y-134407700D01*
X167004305Y-134259740D01*
X167093277Y-134126584D01*
X167206517Y-134013344D01*
X167339673Y-133924372D01*
X167487633Y-133863084D01*
X167644700Y-133831842D01*
X167804850Y-133831842D01*
X167961917Y-133863084D01*
X167961917Y-133863084D01*
G37*
G36*
X165421917Y-133863084D02*
X165569877Y-133924372D01*
X165703033Y-134013344D01*
X165816273Y-134126584D01*
X165905245Y-134259740D01*
X165966533Y-134407700D01*
X165997775Y-134564767D01*
X165997775Y-134724917D01*
X165966533Y-134881984D01*
X165905245Y-135029944D01*
X165816273Y-135163100D01*
X165703033Y-135276340D01*
X165569877Y-135365312D01*
X165421917Y-135426600D01*
X165264850Y-135457842D01*
X165104700Y-135457842D01*
X164947633Y-135426600D01*
X164799673Y-135365312D01*
X164666517Y-135276340D01*
X164553277Y-135163100D01*
X164464305Y-135029944D01*
X164403017Y-134881984D01*
X164371775Y-134724917D01*
X164371775Y-134564767D01*
X164403017Y-134407700D01*
X164464305Y-134259740D01*
X164553277Y-134126584D01*
X164666517Y-134013344D01*
X164799673Y-133924372D01*
X164947633Y-133863084D01*
X165104700Y-133831842D01*
X165264850Y-133831842D01*
X165421917Y-133863084D01*
X165421917Y-133863084D01*
G37*
G36*
X162881917Y-133863084D02*
X163029877Y-133924372D01*
X163163033Y-134013344D01*
X163276273Y-134126584D01*
X163365245Y-134259740D01*
X163426533Y-134407700D01*
X163457775Y-134564767D01*
X163457775Y-134724917D01*
X163426533Y-134881984D01*
X163365245Y-135029944D01*
X163276273Y-135163100D01*
X163163033Y-135276340D01*
X163029877Y-135365312D01*
X162881917Y-135426600D01*
X162724850Y-135457842D01*
X162564700Y-135457842D01*
X162407633Y-135426600D01*
X162259673Y-135365312D01*
X162126517Y-135276340D01*
X162013277Y-135163100D01*
X161924305Y-135029944D01*
X161863017Y-134881984D01*
X161831775Y-134724917D01*
X161831775Y-134564767D01*
X161863017Y-134407700D01*
X161924305Y-134259740D01*
X162013277Y-134126584D01*
X162126517Y-134013344D01*
X162259673Y-133924372D01*
X162407633Y-133863084D01*
X162564700Y-133831842D01*
X162724850Y-133831842D01*
X162881917Y-133863084D01*
X162881917Y-133863084D01*
G37*
G36*
X160341917Y-133863084D02*
X160489877Y-133924372D01*
X160623033Y-134013344D01*
X160736273Y-134126584D01*
X160825245Y-134259740D01*
X160886533Y-134407700D01*
X160917775Y-134564767D01*
X160917775Y-134724917D01*
X160886533Y-134881984D01*
X160825245Y-135029944D01*
X160736273Y-135163100D01*
X160623033Y-135276340D01*
X160489877Y-135365312D01*
X160341917Y-135426600D01*
X160184850Y-135457842D01*
X160024700Y-135457842D01*
X159867633Y-135426600D01*
X159719673Y-135365312D01*
X159586517Y-135276340D01*
X159473277Y-135163100D01*
X159384305Y-135029944D01*
X159323017Y-134881984D01*
X159291775Y-134724917D01*
X159291775Y-134564767D01*
X159323017Y-134407700D01*
X159384305Y-134259740D01*
X159473277Y-134126584D01*
X159586517Y-134013344D01*
X159719673Y-133924372D01*
X159867633Y-133863084D01*
X160024700Y-133831842D01*
X160184850Y-133831842D01*
X160341917Y-133863084D01*
X160341917Y-133863084D01*
G37*
G36*
X157801917Y-133863084D02*
X157949877Y-133924372D01*
X158083033Y-134013344D01*
X158196273Y-134126584D01*
X158285245Y-134259740D01*
X158346533Y-134407700D01*
X158377775Y-134564767D01*
X158377775Y-134724917D01*
X158346533Y-134881984D01*
X158285245Y-135029944D01*
X158196273Y-135163100D01*
X158083033Y-135276340D01*
X157949877Y-135365312D01*
X157801917Y-135426600D01*
X157644850Y-135457842D01*
X157484700Y-135457842D01*
X157327633Y-135426600D01*
X157179673Y-135365312D01*
X157046517Y-135276340D01*
X156933277Y-135163100D01*
X156844305Y-135029944D01*
X156783017Y-134881984D01*
X156751775Y-134724917D01*
X156751775Y-134564767D01*
X156783017Y-134407700D01*
X156844305Y-134259740D01*
X156933277Y-134126584D01*
X157046517Y-134013344D01*
X157179673Y-133924372D01*
X157327633Y-133863084D01*
X157484700Y-133831842D01*
X157644850Y-133831842D01*
X157801917Y-133863084D01*
X157801917Y-133863084D01*
G37*
G36*
X155261917Y-133863084D02*
X155409877Y-133924372D01*
X155543033Y-134013344D01*
X155656273Y-134126584D01*
X155745245Y-134259740D01*
X155806533Y-134407700D01*
X155837775Y-134564767D01*
X155837775Y-134724917D01*
X155806533Y-134881984D01*
X155745245Y-135029944D01*
X155656273Y-135163100D01*
X155543033Y-135276340D01*
X155409877Y-135365312D01*
X155261917Y-135426600D01*
X155104850Y-135457842D01*
X154944700Y-135457842D01*
X154787633Y-135426600D01*
X154639673Y-135365312D01*
X154506517Y-135276340D01*
X154393277Y-135163100D01*
X154304305Y-135029944D01*
X154243017Y-134881984D01*
X154211775Y-134724917D01*
X154211775Y-134564767D01*
X154243017Y-134407700D01*
X154304305Y-134259740D01*
X154393277Y-134126584D01*
X154506517Y-134013344D01*
X154639673Y-133924372D01*
X154787633Y-133863084D01*
X154944700Y-133831842D01*
X155104850Y-133831842D01*
X155261917Y-133863084D01*
X155261917Y-133863084D01*
G37*
G36*
X152721917Y-133863084D02*
X152869877Y-133924372D01*
X153003033Y-134013344D01*
X153116273Y-134126584D01*
X153205245Y-134259740D01*
X153266533Y-134407700D01*
X153297775Y-134564767D01*
X153297775Y-134724917D01*
X153266533Y-134881984D01*
X153205245Y-135029944D01*
X153116273Y-135163100D01*
X153003033Y-135276340D01*
X152869877Y-135365312D01*
X152721917Y-135426600D01*
X152564850Y-135457842D01*
X152404700Y-135457842D01*
X152247633Y-135426600D01*
X152099673Y-135365312D01*
X151966517Y-135276340D01*
X151853277Y-135163100D01*
X151764305Y-135029944D01*
X151703017Y-134881984D01*
X151671775Y-134724917D01*
X151671775Y-134564767D01*
X151703017Y-134407700D01*
X151764305Y-134259740D01*
X151853277Y-134126584D01*
X151966517Y-134013344D01*
X152099673Y-133924372D01*
X152247633Y-133863084D01*
X152404700Y-133831842D01*
X152564850Y-133831842D01*
X152721917Y-133863084D01*
X152721917Y-133863084D01*
G37*
G36*
X150181917Y-133863084D02*
X150329877Y-133924372D01*
X150463033Y-134013344D01*
X150576273Y-134126584D01*
X150665245Y-134259740D01*
X150726533Y-134407700D01*
X150757775Y-134564767D01*
X150757775Y-134724917D01*
X150726533Y-134881984D01*
X150665245Y-135029944D01*
X150576273Y-135163100D01*
X150463033Y-135276340D01*
X150329877Y-135365312D01*
X150181917Y-135426600D01*
X150024850Y-135457842D01*
X149864700Y-135457842D01*
X149707633Y-135426600D01*
X149559673Y-135365312D01*
X149426517Y-135276340D01*
X149313277Y-135163100D01*
X149224305Y-135029944D01*
X149163017Y-134881984D01*
X149131775Y-134724917D01*
X149131775Y-134564767D01*
X149163017Y-134407700D01*
X149224305Y-134259740D01*
X149313277Y-134126584D01*
X149426517Y-134013344D01*
X149559673Y-133924372D01*
X149707633Y-133863084D01*
X149864700Y-133831842D01*
X150024850Y-133831842D01*
X150181917Y-133863084D01*
X150181917Y-133863084D01*
G37*
G36*
X147641917Y-133863084D02*
X147789877Y-133924372D01*
X147923033Y-134013344D01*
X148036273Y-134126584D01*
X148125245Y-134259740D01*
X148186533Y-134407700D01*
X148217775Y-134564767D01*
X148217775Y-134724917D01*
X148186533Y-134881984D01*
X148125245Y-135029944D01*
X148036273Y-135163100D01*
X147923033Y-135276340D01*
X147789877Y-135365312D01*
X147641917Y-135426600D01*
X147484850Y-135457842D01*
X147324700Y-135457842D01*
X147167633Y-135426600D01*
X147019673Y-135365312D01*
X146886517Y-135276340D01*
X146773277Y-135163100D01*
X146684305Y-135029944D01*
X146623017Y-134881984D01*
X146591775Y-134724917D01*
X146591775Y-134564767D01*
X146623017Y-134407700D01*
X146684305Y-134259740D01*
X146773277Y-134126584D01*
X146886517Y-134013344D01*
X147019673Y-133924372D01*
X147167633Y-133863084D01*
X147324700Y-133831842D01*
X147484850Y-133831842D01*
X147641917Y-133863084D01*
X147641917Y-133863084D01*
G37*
G36*
X145101917Y-133863084D02*
X145249877Y-133924372D01*
X145383033Y-134013344D01*
X145496273Y-134126584D01*
X145585245Y-134259740D01*
X145646533Y-134407700D01*
X145677775Y-134564767D01*
X145677775Y-134724917D01*
X145646533Y-134881984D01*
X145585245Y-135029944D01*
X145496273Y-135163100D01*
X145383033Y-135276340D01*
X145249877Y-135365312D01*
X145101917Y-135426600D01*
X144944850Y-135457842D01*
X144784700Y-135457842D01*
X144627633Y-135426600D01*
X144479673Y-135365312D01*
X144346517Y-135276340D01*
X144233277Y-135163100D01*
X144144305Y-135029944D01*
X144083017Y-134881984D01*
X144051775Y-134724917D01*
X144051775Y-134564767D01*
X144083017Y-134407700D01*
X144144305Y-134259740D01*
X144233277Y-134126584D01*
X144346517Y-134013344D01*
X144479673Y-133924372D01*
X144627633Y-133863084D01*
X144784700Y-133831842D01*
X144944850Y-133831842D01*
X145101917Y-133863084D01*
X145101917Y-133863084D01*
G37*
G36*
X140021917Y-133863084D02*
X140169877Y-133924372D01*
X140303033Y-134013344D01*
X140416273Y-134126584D01*
X140505245Y-134259740D01*
X140566533Y-134407700D01*
X140597775Y-134564767D01*
X140597775Y-134724917D01*
X140566533Y-134881984D01*
X140505245Y-135029944D01*
X140416273Y-135163100D01*
X140303033Y-135276340D01*
X140169877Y-135365312D01*
X140021917Y-135426600D01*
X139864850Y-135457842D01*
X139704700Y-135457842D01*
X139547633Y-135426600D01*
X139399673Y-135365312D01*
X139266517Y-135276340D01*
X139153277Y-135163100D01*
X139064305Y-135029944D01*
X139003017Y-134881984D01*
X138971775Y-134724917D01*
X138971775Y-134564767D01*
X139003017Y-134407700D01*
X139064305Y-134259740D01*
X139153277Y-134126584D01*
X139266517Y-134013344D01*
X139399673Y-133924372D01*
X139547633Y-133863084D01*
X139704700Y-133831842D01*
X139864850Y-133831842D01*
X140021917Y-133863084D01*
X140021917Y-133863084D01*
G37*
G36*
X137481917Y-133863084D02*
X137629877Y-133924372D01*
X137763033Y-134013344D01*
X137876273Y-134126584D01*
X137965245Y-134259740D01*
X138026533Y-134407700D01*
X138057775Y-134564767D01*
X138057775Y-134724917D01*
X138026533Y-134881984D01*
X137965245Y-135029944D01*
X137876273Y-135163100D01*
X137763033Y-135276340D01*
X137629877Y-135365312D01*
X137481917Y-135426600D01*
X137324850Y-135457842D01*
X137164700Y-135457842D01*
X137007633Y-135426600D01*
X136859673Y-135365312D01*
X136726517Y-135276340D01*
X136613277Y-135163100D01*
X136524305Y-135029944D01*
X136463017Y-134881984D01*
X136431775Y-134724917D01*
X136431775Y-134564767D01*
X136463017Y-134407700D01*
X136524305Y-134259740D01*
X136613277Y-134126584D01*
X136726517Y-134013344D01*
X136859673Y-133924372D01*
X137007633Y-133863084D01*
X137164700Y-133831842D01*
X137324850Y-133831842D01*
X137481917Y-133863084D01*
X137481917Y-133863084D01*
G37*
G36*
X134941917Y-133863084D02*
X135089877Y-133924372D01*
X135223033Y-134013344D01*
X135336273Y-134126584D01*
X135425245Y-134259740D01*
X135486533Y-134407700D01*
X135517775Y-134564767D01*
X135517775Y-134724917D01*
X135486533Y-134881984D01*
X135425245Y-135029944D01*
X135336273Y-135163100D01*
X135223033Y-135276340D01*
X135089877Y-135365312D01*
X134941917Y-135426600D01*
X134784850Y-135457842D01*
X134624700Y-135457842D01*
X134467633Y-135426600D01*
X134319673Y-135365312D01*
X134186517Y-135276340D01*
X134073277Y-135163100D01*
X133984305Y-135029944D01*
X133923017Y-134881984D01*
X133891775Y-134724917D01*
X133891775Y-134564767D01*
X133923017Y-134407700D01*
X133984305Y-134259740D01*
X134073277Y-134126584D01*
X134186517Y-134013344D01*
X134319673Y-133924372D01*
X134467633Y-133863084D01*
X134624700Y-133831842D01*
X134784850Y-133831842D01*
X134941917Y-133863084D01*
X134941917Y-133863084D01*
G37*
G36*
X132401917Y-133863084D02*
X132549877Y-133924372D01*
X132683033Y-134013344D01*
X132796273Y-134126584D01*
X132885245Y-134259740D01*
X132946533Y-134407700D01*
X132977775Y-134564767D01*
X132977775Y-134724917D01*
X132946533Y-134881984D01*
X132885245Y-135029944D01*
X132796273Y-135163100D01*
X132683033Y-135276340D01*
X132549877Y-135365312D01*
X132401917Y-135426600D01*
X132244850Y-135457842D01*
X132084700Y-135457842D01*
X131927633Y-135426600D01*
X131779673Y-135365312D01*
X131646517Y-135276340D01*
X131533277Y-135163100D01*
X131444305Y-135029944D01*
X131383017Y-134881984D01*
X131351775Y-134724917D01*
X131351775Y-134564767D01*
X131383017Y-134407700D01*
X131444305Y-134259740D01*
X131533277Y-134126584D01*
X131646517Y-134013344D01*
X131779673Y-133924372D01*
X131927633Y-133863084D01*
X132084700Y-133831842D01*
X132244850Y-133831842D01*
X132401917Y-133863084D01*
X132401917Y-133863084D01*
G37*
G36*
X129861917Y-133863084D02*
X130009877Y-133924372D01*
X130143033Y-134013344D01*
X130256273Y-134126584D01*
X130345245Y-134259740D01*
X130406533Y-134407700D01*
X130437775Y-134564767D01*
X130437775Y-134724917D01*
X130406533Y-134881984D01*
X130345245Y-135029944D01*
X130256273Y-135163100D01*
X130143033Y-135276340D01*
X130009877Y-135365312D01*
X129861917Y-135426600D01*
X129704850Y-135457842D01*
X129544700Y-135457842D01*
X129387633Y-135426600D01*
X129239673Y-135365312D01*
X129106517Y-135276340D01*
X128993277Y-135163100D01*
X128904305Y-135029944D01*
X128843017Y-134881984D01*
X128811775Y-134724917D01*
X128811775Y-134564767D01*
X128843017Y-134407700D01*
X128904305Y-134259740D01*
X128993277Y-134126584D01*
X129106517Y-134013344D01*
X129239673Y-133924372D01*
X129387633Y-133863084D01*
X129544700Y-133831842D01*
X129704850Y-133831842D01*
X129861917Y-133863084D01*
X129861917Y-133863084D01*
G37*
G36*
X127321917Y-133863084D02*
X127469877Y-133924372D01*
X127603033Y-134013344D01*
X127716273Y-134126584D01*
X127805245Y-134259740D01*
X127866533Y-134407700D01*
X127897775Y-134564767D01*
X127897775Y-134724917D01*
X127866533Y-134881984D01*
X127805245Y-135029944D01*
X127716273Y-135163100D01*
X127603033Y-135276340D01*
X127469877Y-135365312D01*
X127321917Y-135426600D01*
X127164850Y-135457842D01*
X127004700Y-135457842D01*
X126847633Y-135426600D01*
X126699673Y-135365312D01*
X126566517Y-135276340D01*
X126453277Y-135163100D01*
X126364305Y-135029944D01*
X126303017Y-134881984D01*
X126271775Y-134724917D01*
X126271775Y-134564767D01*
X126303017Y-134407700D01*
X126364305Y-134259740D01*
X126453277Y-134126584D01*
X126566517Y-134013344D01*
X126699673Y-133924372D01*
X126847633Y-133863084D01*
X127004700Y-133831842D01*
X127164850Y-133831842D01*
X127321917Y-133863084D01*
X127321917Y-133863084D01*
G37*
G36*
X124781917Y-133863084D02*
X124929877Y-133924372D01*
X125063033Y-134013344D01*
X125176273Y-134126584D01*
X125265245Y-134259740D01*
X125326533Y-134407700D01*
X125357775Y-134564767D01*
X125357775Y-134724917D01*
X125326533Y-134881984D01*
X125265245Y-135029944D01*
X125176273Y-135163100D01*
X125063033Y-135276340D01*
X124929877Y-135365312D01*
X124781917Y-135426600D01*
X124624850Y-135457842D01*
X124464700Y-135457842D01*
X124307633Y-135426600D01*
X124159673Y-135365312D01*
X124026517Y-135276340D01*
X123913277Y-135163100D01*
X123824305Y-135029944D01*
X123763017Y-134881984D01*
X123731775Y-134724917D01*
X123731775Y-134564767D01*
X123763017Y-134407700D01*
X123824305Y-134259740D01*
X123913277Y-134126584D01*
X124026517Y-134013344D01*
X124159673Y-133924372D01*
X124307633Y-133863084D01*
X124464700Y-133831842D01*
X124624850Y-133831842D01*
X124781917Y-133863084D01*
X124781917Y-133863084D01*
G37*
G36*
X122241917Y-133863084D02*
X122389877Y-133924372D01*
X122523033Y-134013344D01*
X122636273Y-134126584D01*
X122725245Y-134259740D01*
X122786533Y-134407700D01*
X122817775Y-134564767D01*
X122817775Y-134724917D01*
X122786533Y-134881984D01*
X122725245Y-135029944D01*
X122636273Y-135163100D01*
X122523033Y-135276340D01*
X122389877Y-135365312D01*
X122241917Y-135426600D01*
X122084850Y-135457842D01*
X121924700Y-135457842D01*
X121767633Y-135426600D01*
X121619673Y-135365312D01*
X121486517Y-135276340D01*
X121373277Y-135163100D01*
X121284305Y-135029944D01*
X121223017Y-134881984D01*
X121191775Y-134724917D01*
X121191775Y-134564767D01*
X121223017Y-134407700D01*
X121284305Y-134259740D01*
X121373277Y-134126584D01*
X121486517Y-134013344D01*
X121619673Y-133924372D01*
X121767633Y-133863084D01*
X121924700Y-133831842D01*
X122084850Y-133831842D01*
X122241917Y-133863084D01*
X122241917Y-133863084D01*
G37*
G36*
X119701917Y-133863084D02*
X119849877Y-133924372D01*
X119983033Y-134013344D01*
X120096273Y-134126584D01*
X120185245Y-134259740D01*
X120246533Y-134407700D01*
X120277775Y-134564767D01*
X120277775Y-134724917D01*
X120246533Y-134881984D01*
X120185245Y-135029944D01*
X120096273Y-135163100D01*
X119983033Y-135276340D01*
X119849877Y-135365312D01*
X119701917Y-135426600D01*
X119544850Y-135457842D01*
X119384700Y-135457842D01*
X119227633Y-135426600D01*
X119079673Y-135365312D01*
X118946517Y-135276340D01*
X118833277Y-135163100D01*
X118744305Y-135029944D01*
X118683017Y-134881984D01*
X118651775Y-134724917D01*
X118651775Y-134564767D01*
X118683017Y-134407700D01*
X118744305Y-134259740D01*
X118833277Y-134126584D01*
X118946517Y-134013344D01*
X119079673Y-133924372D01*
X119227633Y-133863084D01*
X119384700Y-133831842D01*
X119544850Y-133831842D01*
X119701917Y-133863084D01*
X119701917Y-133863084D01*
G37*
G36*
X117161917Y-133863084D02*
X117309877Y-133924372D01*
X117443033Y-134013344D01*
X117556273Y-134126584D01*
X117645245Y-134259740D01*
X117706533Y-134407700D01*
X117737775Y-134564767D01*
X117737775Y-134724917D01*
X117706533Y-134881984D01*
X117645245Y-135029944D01*
X117556273Y-135163100D01*
X117443033Y-135276340D01*
X117309877Y-135365312D01*
X117161917Y-135426600D01*
X117004850Y-135457842D01*
X116844700Y-135457842D01*
X116687633Y-135426600D01*
X116539673Y-135365312D01*
X116406517Y-135276340D01*
X116293277Y-135163100D01*
X116204305Y-135029944D01*
X116143017Y-134881984D01*
X116111775Y-134724917D01*
X116111775Y-134564767D01*
X116143017Y-134407700D01*
X116204305Y-134259740D01*
X116293277Y-134126584D01*
X116406517Y-134013344D01*
X116539673Y-133924372D01*
X116687633Y-133863084D01*
X116844700Y-133831842D01*
X117004850Y-133831842D01*
X117161917Y-133863084D01*
X117161917Y-133863084D01*
G37*
G36*
X114621917Y-133863084D02*
X114769877Y-133924372D01*
X114903033Y-134013344D01*
X115016273Y-134126584D01*
X115105245Y-134259740D01*
X115166533Y-134407700D01*
X115197775Y-134564767D01*
X115197775Y-134724917D01*
X115166533Y-134881984D01*
X115105245Y-135029944D01*
X115016273Y-135163100D01*
X114903033Y-135276340D01*
X114769877Y-135365312D01*
X114621917Y-135426600D01*
X114464850Y-135457842D01*
X114304700Y-135457842D01*
X114147633Y-135426600D01*
X113999673Y-135365312D01*
X113866517Y-135276340D01*
X113753277Y-135163100D01*
X113664305Y-135029944D01*
X113603017Y-134881984D01*
X113571775Y-134724917D01*
X113571775Y-134564767D01*
X113603017Y-134407700D01*
X113664305Y-134259740D01*
X113753277Y-134126584D01*
X113866517Y-134013344D01*
X113999673Y-133924372D01*
X114147633Y-133863084D01*
X114304700Y-133831842D01*
X114464850Y-133831842D01*
X114621917Y-133863084D01*
X114621917Y-133863084D01*
G37*
G36*
X112081917Y-133863084D02*
X112229877Y-133924372D01*
X112363033Y-134013344D01*
X112476273Y-134126584D01*
X112565245Y-134259740D01*
X112626533Y-134407700D01*
X112657775Y-134564767D01*
X112657775Y-134724917D01*
X112626533Y-134881984D01*
X112565245Y-135029944D01*
X112476273Y-135163100D01*
X112363033Y-135276340D01*
X112229877Y-135365312D01*
X112081917Y-135426600D01*
X111924850Y-135457842D01*
X111764700Y-135457842D01*
X111607633Y-135426600D01*
X111459673Y-135365312D01*
X111326517Y-135276340D01*
X111213277Y-135163100D01*
X111124305Y-135029944D01*
X111063017Y-134881984D01*
X111031775Y-134724917D01*
X111031775Y-134564767D01*
X111063017Y-134407700D01*
X111124305Y-134259740D01*
X111213277Y-134126584D01*
X111326517Y-134013344D01*
X111459673Y-133924372D01*
X111607633Y-133863084D01*
X111764700Y-133831842D01*
X111924850Y-133831842D01*
X112081917Y-133863084D01*
X112081917Y-133863084D01*
G37*
G36*
X170501917Y-131323084D02*
X170649877Y-131384372D01*
X170783033Y-131473344D01*
X170896273Y-131586584D01*
X170985245Y-131719740D01*
X171046533Y-131867700D01*
X171077775Y-132024767D01*
X171077775Y-132184917D01*
X171046533Y-132341984D01*
X170985245Y-132489944D01*
X170896273Y-132623100D01*
X170783033Y-132736340D01*
X170649877Y-132825312D01*
X170501917Y-132886600D01*
X170344850Y-132917842D01*
X170184700Y-132917842D01*
X170027633Y-132886600D01*
X169879673Y-132825312D01*
X169746517Y-132736340D01*
X169633277Y-132623100D01*
X169544305Y-132489944D01*
X169483017Y-132341984D01*
X169451775Y-132184917D01*
X169451775Y-132024767D01*
X169483017Y-131867700D01*
X169544305Y-131719740D01*
X169633277Y-131586584D01*
X169746517Y-131473344D01*
X169879673Y-131384372D01*
X170027633Y-131323084D01*
X170184700Y-131291842D01*
X170344850Y-131291842D01*
X170501917Y-131323084D01*
X170501917Y-131323084D01*
G37*
G36*
X114621917Y-131323084D02*
X114769877Y-131384372D01*
X114903033Y-131473344D01*
X115016273Y-131586584D01*
X115105245Y-131719740D01*
X115166533Y-131867700D01*
X115197775Y-132024767D01*
X115197775Y-132184917D01*
X115166533Y-132341984D01*
X115105245Y-132489944D01*
X115016273Y-132623100D01*
X114903033Y-132736340D01*
X114769877Y-132825312D01*
X114621917Y-132886600D01*
X114464850Y-132917842D01*
X114304700Y-132917842D01*
X114147633Y-132886600D01*
X113999673Y-132825312D01*
X113866517Y-132736340D01*
X113753277Y-132623100D01*
X113664305Y-132489944D01*
X113603017Y-132341984D01*
X113571775Y-132184917D01*
X113571775Y-132024767D01*
X113603017Y-131867700D01*
X113664305Y-131719740D01*
X113753277Y-131586584D01*
X113866517Y-131473344D01*
X113999673Y-131384372D01*
X114147633Y-131323084D01*
X114304700Y-131291842D01*
X114464850Y-131291842D01*
X114621917Y-131323084D01*
X114621917Y-131323084D01*
G37*
G36*
X167961917Y-131323084D02*
X168109877Y-131384372D01*
X168243033Y-131473344D01*
X168356273Y-131586584D01*
X168445245Y-131719740D01*
X168506533Y-131867700D01*
X168537775Y-132024767D01*
X168537775Y-132184917D01*
X168506533Y-132341984D01*
X168445245Y-132489944D01*
X168356273Y-132623100D01*
X168243033Y-132736340D01*
X168109877Y-132825312D01*
X167961917Y-132886600D01*
X167804850Y-132917842D01*
X167644700Y-132917842D01*
X167487633Y-132886600D01*
X167339673Y-132825312D01*
X167206517Y-132736340D01*
X167093277Y-132623100D01*
X167004305Y-132489944D01*
X166943017Y-132341984D01*
X166911775Y-132184917D01*
X166911775Y-132024767D01*
X166943017Y-131867700D01*
X167004305Y-131719740D01*
X167093277Y-131586584D01*
X167206517Y-131473344D01*
X167339673Y-131384372D01*
X167487633Y-131323084D01*
X167644700Y-131291842D01*
X167804850Y-131291842D01*
X167961917Y-131323084D01*
X167961917Y-131323084D01*
G37*
G36*
X165421917Y-131323084D02*
X165569877Y-131384372D01*
X165703033Y-131473344D01*
X165816273Y-131586584D01*
X165905245Y-131719740D01*
X165966533Y-131867700D01*
X165997775Y-132024767D01*
X165997775Y-132184917D01*
X165966533Y-132341984D01*
X165905245Y-132489944D01*
X165816273Y-132623100D01*
X165703033Y-132736340D01*
X165569877Y-132825312D01*
X165421917Y-132886600D01*
X165264850Y-132917842D01*
X165104700Y-132917842D01*
X164947633Y-132886600D01*
X164799673Y-132825312D01*
X164666517Y-132736340D01*
X164553277Y-132623100D01*
X164464305Y-132489944D01*
X164403017Y-132341984D01*
X164371775Y-132184917D01*
X164371775Y-132024767D01*
X164403017Y-131867700D01*
X164464305Y-131719740D01*
X164553277Y-131586584D01*
X164666517Y-131473344D01*
X164799673Y-131384372D01*
X164947633Y-131323084D01*
X165104700Y-131291842D01*
X165264850Y-131291842D01*
X165421917Y-131323084D01*
X165421917Y-131323084D01*
G37*
G36*
X162881917Y-131323084D02*
X163029877Y-131384372D01*
X163163033Y-131473344D01*
X163276273Y-131586584D01*
X163365245Y-131719740D01*
X163426533Y-131867700D01*
X163457775Y-132024767D01*
X163457775Y-132184917D01*
X163426533Y-132341984D01*
X163365245Y-132489944D01*
X163276273Y-132623100D01*
X163163033Y-132736340D01*
X163029877Y-132825312D01*
X162881917Y-132886600D01*
X162724850Y-132917842D01*
X162564700Y-132917842D01*
X162407633Y-132886600D01*
X162259673Y-132825312D01*
X162126517Y-132736340D01*
X162013277Y-132623100D01*
X161924305Y-132489944D01*
X161863017Y-132341984D01*
X161831775Y-132184917D01*
X161831775Y-132024767D01*
X161863017Y-131867700D01*
X161924305Y-131719740D01*
X162013277Y-131586584D01*
X162126517Y-131473344D01*
X162259673Y-131384372D01*
X162407633Y-131323084D01*
X162564700Y-131291842D01*
X162724850Y-131291842D01*
X162881917Y-131323084D01*
X162881917Y-131323084D01*
G37*
G36*
X160341917Y-131323084D02*
X160489877Y-131384372D01*
X160623033Y-131473344D01*
X160736273Y-131586584D01*
X160825245Y-131719740D01*
X160886533Y-131867700D01*
X160917775Y-132024767D01*
X160917775Y-132184917D01*
X160886533Y-132341984D01*
X160825245Y-132489944D01*
X160736273Y-132623100D01*
X160623033Y-132736340D01*
X160489877Y-132825312D01*
X160341917Y-132886600D01*
X160184850Y-132917842D01*
X160024700Y-132917842D01*
X159867633Y-132886600D01*
X159719673Y-132825312D01*
X159586517Y-132736340D01*
X159473277Y-132623100D01*
X159384305Y-132489944D01*
X159323017Y-132341984D01*
X159291775Y-132184917D01*
X159291775Y-132024767D01*
X159323017Y-131867700D01*
X159384305Y-131719740D01*
X159473277Y-131586584D01*
X159586517Y-131473344D01*
X159719673Y-131384372D01*
X159867633Y-131323084D01*
X160024700Y-131291842D01*
X160184850Y-131291842D01*
X160341917Y-131323084D01*
X160341917Y-131323084D01*
G37*
G36*
X175581917Y-131323084D02*
X175729877Y-131384372D01*
X175863033Y-131473344D01*
X175976273Y-131586584D01*
X176065245Y-131719740D01*
X176126533Y-131867700D01*
X176157775Y-132024767D01*
X176157775Y-132184917D01*
X176126533Y-132341984D01*
X176065245Y-132489944D01*
X175976273Y-132623100D01*
X175863033Y-132736340D01*
X175729877Y-132825312D01*
X175581917Y-132886600D01*
X175424850Y-132917842D01*
X175264700Y-132917842D01*
X175107633Y-132886600D01*
X174959673Y-132825312D01*
X174826517Y-132736340D01*
X174713277Y-132623100D01*
X174624305Y-132489944D01*
X174563017Y-132341984D01*
X174531775Y-132184917D01*
X174531775Y-132024767D01*
X174563017Y-131867700D01*
X174624305Y-131719740D01*
X174713277Y-131586584D01*
X174826517Y-131473344D01*
X174959673Y-131384372D01*
X175107633Y-131323084D01*
X175264700Y-131291842D01*
X175424850Y-131291842D01*
X175581917Y-131323084D01*
X175581917Y-131323084D01*
G37*
G36*
X157801917Y-131323084D02*
X157949877Y-131384372D01*
X158083033Y-131473344D01*
X158196273Y-131586584D01*
X158285245Y-131719740D01*
X158346533Y-131867700D01*
X158377775Y-132024767D01*
X158377775Y-132184917D01*
X158346533Y-132341984D01*
X158285245Y-132489944D01*
X158196273Y-132623100D01*
X158083033Y-132736340D01*
X157949877Y-132825312D01*
X157801917Y-132886600D01*
X157644850Y-132917842D01*
X157484700Y-132917842D01*
X157327633Y-132886600D01*
X157179673Y-132825312D01*
X157046517Y-132736340D01*
X156933277Y-132623100D01*
X156844305Y-132489944D01*
X156783017Y-132341984D01*
X156751775Y-132184917D01*
X156751775Y-132024767D01*
X156783017Y-131867700D01*
X156844305Y-131719740D01*
X156933277Y-131586584D01*
X157046517Y-131473344D01*
X157179673Y-131384372D01*
X157327633Y-131323084D01*
X157484700Y-131291842D01*
X157644850Y-131291842D01*
X157801917Y-131323084D01*
X157801917Y-131323084D01*
G37*
G36*
X173041917Y-131323084D02*
X173189877Y-131384372D01*
X173323033Y-131473344D01*
X173436273Y-131586584D01*
X173525245Y-131719740D01*
X173586533Y-131867700D01*
X173617775Y-132024767D01*
X173617775Y-132184917D01*
X173586533Y-132341984D01*
X173525245Y-132489944D01*
X173436273Y-132623100D01*
X173323033Y-132736340D01*
X173189877Y-132825312D01*
X173041917Y-132886600D01*
X172884850Y-132917842D01*
X172724700Y-132917842D01*
X172567633Y-132886600D01*
X172419673Y-132825312D01*
X172286517Y-132736340D01*
X172173277Y-132623100D01*
X172084305Y-132489944D01*
X172023017Y-132341984D01*
X171991775Y-132184917D01*
X171991775Y-132024767D01*
X172023017Y-131867700D01*
X172084305Y-131719740D01*
X172173277Y-131586584D01*
X172286517Y-131473344D01*
X172419673Y-131384372D01*
X172567633Y-131323084D01*
X172724700Y-131291842D01*
X172884850Y-131291842D01*
X173041917Y-131323084D01*
X173041917Y-131323084D01*
G37*
G36*
X155261917Y-131323084D02*
X155409877Y-131384372D01*
X155543033Y-131473344D01*
X155656273Y-131586584D01*
X155745245Y-131719740D01*
X155806533Y-131867700D01*
X155837775Y-132024767D01*
X155837775Y-132184917D01*
X155806533Y-132341984D01*
X155745245Y-132489944D01*
X155656273Y-132623100D01*
X155543033Y-132736340D01*
X155409877Y-132825312D01*
X155261917Y-132886600D01*
X155104850Y-132917842D01*
X154944700Y-132917842D01*
X154787633Y-132886600D01*
X154639673Y-132825312D01*
X154506517Y-132736340D01*
X154393277Y-132623100D01*
X154304305Y-132489944D01*
X154243017Y-132341984D01*
X154211775Y-132184917D01*
X154211775Y-132024767D01*
X154243017Y-131867700D01*
X154304305Y-131719740D01*
X154393277Y-131586584D01*
X154506517Y-131473344D01*
X154639673Y-131384372D01*
X154787633Y-131323084D01*
X154944700Y-131291842D01*
X155104850Y-131291842D01*
X155261917Y-131323084D01*
X155261917Y-131323084D01*
G37*
G36*
X152721917Y-131323084D02*
X152869877Y-131384372D01*
X153003033Y-131473344D01*
X153116273Y-131586584D01*
X153205245Y-131719740D01*
X153266533Y-131867700D01*
X153297775Y-132024767D01*
X153297775Y-132184917D01*
X153266533Y-132341984D01*
X153205245Y-132489944D01*
X153116273Y-132623100D01*
X153003033Y-132736340D01*
X152869877Y-132825312D01*
X152721917Y-132886600D01*
X152564850Y-132917842D01*
X152404700Y-132917842D01*
X152247633Y-132886600D01*
X152099673Y-132825312D01*
X151966517Y-132736340D01*
X151853277Y-132623100D01*
X151764305Y-132489944D01*
X151703017Y-132341984D01*
X151671775Y-132184917D01*
X151671775Y-132024767D01*
X151703017Y-131867700D01*
X151764305Y-131719740D01*
X151853277Y-131586584D01*
X151966517Y-131473344D01*
X152099673Y-131384372D01*
X152247633Y-131323084D01*
X152404700Y-131291842D01*
X152564850Y-131291842D01*
X152721917Y-131323084D01*
X152721917Y-131323084D01*
G37*
G36*
X150181917Y-131323084D02*
X150329877Y-131384372D01*
X150463033Y-131473344D01*
X150576273Y-131586584D01*
X150665245Y-131719740D01*
X150726533Y-131867700D01*
X150757775Y-132024767D01*
X150757775Y-132184917D01*
X150726533Y-132341984D01*
X150665245Y-132489944D01*
X150576273Y-132623100D01*
X150463033Y-132736340D01*
X150329877Y-132825312D01*
X150181917Y-132886600D01*
X150024850Y-132917842D01*
X149864700Y-132917842D01*
X149707633Y-132886600D01*
X149559673Y-132825312D01*
X149426517Y-132736340D01*
X149313277Y-132623100D01*
X149224305Y-132489944D01*
X149163017Y-132341984D01*
X149131775Y-132184917D01*
X149131775Y-132024767D01*
X149163017Y-131867700D01*
X149224305Y-131719740D01*
X149313277Y-131586584D01*
X149426517Y-131473344D01*
X149559673Y-131384372D01*
X149707633Y-131323084D01*
X149864700Y-131291842D01*
X150024850Y-131291842D01*
X150181917Y-131323084D01*
X150181917Y-131323084D01*
G37*
G36*
X147641917Y-131323084D02*
X147789877Y-131384372D01*
X147923033Y-131473344D01*
X148036273Y-131586584D01*
X148125245Y-131719740D01*
X148186533Y-131867700D01*
X148217775Y-132024767D01*
X148217775Y-132184917D01*
X148186533Y-132341984D01*
X148125245Y-132489944D01*
X148036273Y-132623100D01*
X147923033Y-132736340D01*
X147789877Y-132825312D01*
X147641917Y-132886600D01*
X147484850Y-132917842D01*
X147324700Y-132917842D01*
X147167633Y-132886600D01*
X147019673Y-132825312D01*
X146886517Y-132736340D01*
X146773277Y-132623100D01*
X146684305Y-132489944D01*
X146623017Y-132341984D01*
X146591775Y-132184917D01*
X146591775Y-132024767D01*
X146623017Y-131867700D01*
X146684305Y-131719740D01*
X146773277Y-131586584D01*
X146886517Y-131473344D01*
X147019673Y-131384372D01*
X147167633Y-131323084D01*
X147324700Y-131291842D01*
X147484850Y-131291842D01*
X147641917Y-131323084D01*
X147641917Y-131323084D01*
G37*
G36*
X145101917Y-131323084D02*
X145249877Y-131384372D01*
X145383033Y-131473344D01*
X145496273Y-131586584D01*
X145585245Y-131719740D01*
X145646533Y-131867700D01*
X145677775Y-132024767D01*
X145677775Y-132184917D01*
X145646533Y-132341984D01*
X145585245Y-132489944D01*
X145496273Y-132623100D01*
X145383033Y-132736340D01*
X145249877Y-132825312D01*
X145101917Y-132886600D01*
X144944850Y-132917842D01*
X144784700Y-132917842D01*
X144627633Y-132886600D01*
X144479673Y-132825312D01*
X144346517Y-132736340D01*
X144233277Y-132623100D01*
X144144305Y-132489944D01*
X144083017Y-132341984D01*
X144051775Y-132184917D01*
X144051775Y-132024767D01*
X144083017Y-131867700D01*
X144144305Y-131719740D01*
X144233277Y-131586584D01*
X144346517Y-131473344D01*
X144479673Y-131384372D01*
X144627633Y-131323084D01*
X144784700Y-131291842D01*
X144944850Y-131291842D01*
X145101917Y-131323084D01*
X145101917Y-131323084D01*
G37*
G36*
X142561917Y-131323084D02*
X142709877Y-131384372D01*
X142843033Y-131473344D01*
X142956273Y-131586584D01*
X143045245Y-131719740D01*
X143106533Y-131867700D01*
X143137775Y-132024767D01*
X143137775Y-132184917D01*
X143106533Y-132341984D01*
X143045245Y-132489944D01*
X142956273Y-132623100D01*
X142843033Y-132736340D01*
X142709877Y-132825312D01*
X142561917Y-132886600D01*
X142404850Y-132917842D01*
X142244700Y-132917842D01*
X142087633Y-132886600D01*
X141939673Y-132825312D01*
X141806517Y-132736340D01*
X141693277Y-132623100D01*
X141604305Y-132489944D01*
X141543017Y-132341984D01*
X141511775Y-132184917D01*
X141511775Y-132024767D01*
X141543017Y-131867700D01*
X141604305Y-131719740D01*
X141693277Y-131586584D01*
X141806517Y-131473344D01*
X141939673Y-131384372D01*
X142087633Y-131323084D01*
X142244700Y-131291842D01*
X142404850Y-131291842D01*
X142561917Y-131323084D01*
X142561917Y-131323084D01*
G37*
G36*
X140021917Y-131323084D02*
X140169877Y-131384372D01*
X140303033Y-131473344D01*
X140416273Y-131586584D01*
X140505245Y-131719740D01*
X140566533Y-131867700D01*
X140597775Y-132024767D01*
X140597775Y-132184917D01*
X140566533Y-132341984D01*
X140505245Y-132489944D01*
X140416273Y-132623100D01*
X140303033Y-132736340D01*
X140169877Y-132825312D01*
X140021917Y-132886600D01*
X139864850Y-132917842D01*
X139704700Y-132917842D01*
X139547633Y-132886600D01*
X139399673Y-132825312D01*
X139266517Y-132736340D01*
X139153277Y-132623100D01*
X139064305Y-132489944D01*
X139003017Y-132341984D01*
X138971775Y-132184917D01*
X138971775Y-132024767D01*
X139003017Y-131867700D01*
X139064305Y-131719740D01*
X139153277Y-131586584D01*
X139266517Y-131473344D01*
X139399673Y-131384372D01*
X139547633Y-131323084D01*
X139704700Y-131291842D01*
X139864850Y-131291842D01*
X140021917Y-131323084D01*
X140021917Y-131323084D01*
G37*
G36*
X137481917Y-131323084D02*
X137629877Y-131384372D01*
X137763033Y-131473344D01*
X137876273Y-131586584D01*
X137965245Y-131719740D01*
X138026533Y-131867700D01*
X138057775Y-132024767D01*
X138057775Y-132184917D01*
X138026533Y-132341984D01*
X137965245Y-132489944D01*
X137876273Y-132623100D01*
X137763033Y-132736340D01*
X137629877Y-132825312D01*
X137481917Y-132886600D01*
X137324850Y-132917842D01*
X137164700Y-132917842D01*
X137007633Y-132886600D01*
X136859673Y-132825312D01*
X136726517Y-132736340D01*
X136613277Y-132623100D01*
X136524305Y-132489944D01*
X136463017Y-132341984D01*
X136431775Y-132184917D01*
X136431775Y-132024767D01*
X136463017Y-131867700D01*
X136524305Y-131719740D01*
X136613277Y-131586584D01*
X136726517Y-131473344D01*
X136859673Y-131384372D01*
X137007633Y-131323084D01*
X137164700Y-131291842D01*
X137324850Y-131291842D01*
X137481917Y-131323084D01*
X137481917Y-131323084D01*
G37*
G36*
X134941917Y-131323084D02*
X135089877Y-131384372D01*
X135223033Y-131473344D01*
X135336273Y-131586584D01*
X135425245Y-131719740D01*
X135486533Y-131867700D01*
X135517775Y-132024767D01*
X135517775Y-132184917D01*
X135486533Y-132341984D01*
X135425245Y-132489944D01*
X135336273Y-132623100D01*
X135223033Y-132736340D01*
X135089877Y-132825312D01*
X134941917Y-132886600D01*
X134784850Y-132917842D01*
X134624700Y-132917842D01*
X134467633Y-132886600D01*
X134319673Y-132825312D01*
X134186517Y-132736340D01*
X134073277Y-132623100D01*
X133984305Y-132489944D01*
X133923017Y-132341984D01*
X133891775Y-132184917D01*
X133891775Y-132024767D01*
X133923017Y-131867700D01*
X133984305Y-131719740D01*
X134073277Y-131586584D01*
X134186517Y-131473344D01*
X134319673Y-131384372D01*
X134467633Y-131323084D01*
X134624700Y-131291842D01*
X134784850Y-131291842D01*
X134941917Y-131323084D01*
X134941917Y-131323084D01*
G37*
G36*
X132401917Y-131323084D02*
X132549877Y-131384372D01*
X132683033Y-131473344D01*
X132796273Y-131586584D01*
X132885245Y-131719740D01*
X132946533Y-131867700D01*
X132977775Y-132024767D01*
X132977775Y-132184917D01*
X132946533Y-132341984D01*
X132885245Y-132489944D01*
X132796273Y-132623100D01*
X132683033Y-132736340D01*
X132549877Y-132825312D01*
X132401917Y-132886600D01*
X132244850Y-132917842D01*
X132084700Y-132917842D01*
X131927633Y-132886600D01*
X131779673Y-132825312D01*
X131646517Y-132736340D01*
X131533277Y-132623100D01*
X131444305Y-132489944D01*
X131383017Y-132341984D01*
X131351775Y-132184917D01*
X131351775Y-132024767D01*
X131383017Y-131867700D01*
X131444305Y-131719740D01*
X131533277Y-131586584D01*
X131646517Y-131473344D01*
X131779673Y-131384372D01*
X131927633Y-131323084D01*
X132084700Y-131291842D01*
X132244850Y-131291842D01*
X132401917Y-131323084D01*
X132401917Y-131323084D01*
G37*
G36*
X129861917Y-131323084D02*
X130009877Y-131384372D01*
X130143033Y-131473344D01*
X130256273Y-131586584D01*
X130345245Y-131719740D01*
X130406533Y-131867700D01*
X130437775Y-132024767D01*
X130437775Y-132184917D01*
X130406533Y-132341984D01*
X130345245Y-132489944D01*
X130256273Y-132623100D01*
X130143033Y-132736340D01*
X130009877Y-132825312D01*
X129861917Y-132886600D01*
X129704850Y-132917842D01*
X129544700Y-132917842D01*
X129387633Y-132886600D01*
X129239673Y-132825312D01*
X129106517Y-132736340D01*
X128993277Y-132623100D01*
X128904305Y-132489944D01*
X128843017Y-132341984D01*
X128811775Y-132184917D01*
X128811775Y-132024767D01*
X128843017Y-131867700D01*
X128904305Y-131719740D01*
X128993277Y-131586584D01*
X129106517Y-131473344D01*
X129239673Y-131384372D01*
X129387633Y-131323084D01*
X129544700Y-131291842D01*
X129704850Y-131291842D01*
X129861917Y-131323084D01*
X129861917Y-131323084D01*
G37*
G36*
X127321917Y-131323084D02*
X127469877Y-131384372D01*
X127603033Y-131473344D01*
X127716273Y-131586584D01*
X127805245Y-131719740D01*
X127866533Y-131867700D01*
X127897775Y-132024767D01*
X127897775Y-132184917D01*
X127866533Y-132341984D01*
X127805245Y-132489944D01*
X127716273Y-132623100D01*
X127603033Y-132736340D01*
X127469877Y-132825312D01*
X127321917Y-132886600D01*
X127164850Y-132917842D01*
X127004700Y-132917842D01*
X126847633Y-132886600D01*
X126699673Y-132825312D01*
X126566517Y-132736340D01*
X126453277Y-132623100D01*
X126364305Y-132489944D01*
X126303017Y-132341984D01*
X126271775Y-132184917D01*
X126271775Y-132024767D01*
X126303017Y-131867700D01*
X126364305Y-131719740D01*
X126453277Y-131586584D01*
X126566517Y-131473344D01*
X126699673Y-131384372D01*
X126847633Y-131323084D01*
X127004700Y-131291842D01*
X127164850Y-131291842D01*
X127321917Y-131323084D01*
X127321917Y-131323084D01*
G37*
G36*
X124781917Y-131323084D02*
X124929877Y-131384372D01*
X125063033Y-131473344D01*
X125176273Y-131586584D01*
X125265245Y-131719740D01*
X125326533Y-131867700D01*
X125357775Y-132024767D01*
X125357775Y-132184917D01*
X125326533Y-132341984D01*
X125265245Y-132489944D01*
X125176273Y-132623100D01*
X125063033Y-132736340D01*
X124929877Y-132825312D01*
X124781917Y-132886600D01*
X124624850Y-132917842D01*
X124464700Y-132917842D01*
X124307633Y-132886600D01*
X124159673Y-132825312D01*
X124026517Y-132736340D01*
X123913277Y-132623100D01*
X123824305Y-132489944D01*
X123763017Y-132341984D01*
X123731775Y-132184917D01*
X123731775Y-132024767D01*
X123763017Y-131867700D01*
X123824305Y-131719740D01*
X123913277Y-131586584D01*
X124026517Y-131473344D01*
X124159673Y-131384372D01*
X124307633Y-131323084D01*
X124464700Y-131291842D01*
X124624850Y-131291842D01*
X124781917Y-131323084D01*
X124781917Y-131323084D01*
G37*
G36*
X122241917Y-131323084D02*
X122389877Y-131384372D01*
X122523033Y-131473344D01*
X122636273Y-131586584D01*
X122725245Y-131719740D01*
X122786533Y-131867700D01*
X122817775Y-132024767D01*
X122817775Y-132184917D01*
X122786533Y-132341984D01*
X122725245Y-132489944D01*
X122636273Y-132623100D01*
X122523033Y-132736340D01*
X122389877Y-132825312D01*
X122241917Y-132886600D01*
X122084850Y-132917842D01*
X121924700Y-132917842D01*
X121767633Y-132886600D01*
X121619673Y-132825312D01*
X121486517Y-132736340D01*
X121373277Y-132623100D01*
X121284305Y-132489944D01*
X121223017Y-132341984D01*
X121191775Y-132184917D01*
X121191775Y-132024767D01*
X121223017Y-131867700D01*
X121284305Y-131719740D01*
X121373277Y-131586584D01*
X121486517Y-131473344D01*
X121619673Y-131384372D01*
X121767633Y-131323084D01*
X121924700Y-131291842D01*
X122084850Y-131291842D01*
X122241917Y-131323084D01*
X122241917Y-131323084D01*
G37*
G36*
X119701917Y-131323084D02*
X119849877Y-131384372D01*
X119983033Y-131473344D01*
X120096273Y-131586584D01*
X120185245Y-131719740D01*
X120246533Y-131867700D01*
X120277775Y-132024767D01*
X120277775Y-132184917D01*
X120246533Y-132341984D01*
X120185245Y-132489944D01*
X120096273Y-132623100D01*
X119983033Y-132736340D01*
X119849877Y-132825312D01*
X119701917Y-132886600D01*
X119544850Y-132917842D01*
X119384700Y-132917842D01*
X119227633Y-132886600D01*
X119079673Y-132825312D01*
X118946517Y-132736340D01*
X118833277Y-132623100D01*
X118744305Y-132489944D01*
X118683017Y-132341984D01*
X118651775Y-132184917D01*
X118651775Y-132024767D01*
X118683017Y-131867700D01*
X118744305Y-131719740D01*
X118833277Y-131586584D01*
X118946517Y-131473344D01*
X119079673Y-131384372D01*
X119227633Y-131323084D01*
X119384700Y-131291842D01*
X119544850Y-131291842D01*
X119701917Y-131323084D01*
X119701917Y-131323084D01*
G37*
G36*
X117161917Y-131323084D02*
X117309877Y-131384372D01*
X117443033Y-131473344D01*
X117556273Y-131586584D01*
X117645245Y-131719740D01*
X117706533Y-131867700D01*
X117737775Y-132024767D01*
X117737775Y-132184917D01*
X117706533Y-132341984D01*
X117645245Y-132489944D01*
X117556273Y-132623100D01*
X117443033Y-132736340D01*
X117309877Y-132825312D01*
X117161917Y-132886600D01*
X117004850Y-132917842D01*
X116844700Y-132917842D01*
X116687633Y-132886600D01*
X116539673Y-132825312D01*
X116406517Y-132736340D01*
X116293277Y-132623100D01*
X116204305Y-132489944D01*
X116143017Y-132341984D01*
X116111775Y-132184917D01*
X116111775Y-132024767D01*
X116143017Y-131867700D01*
X116204305Y-131719740D01*
X116293277Y-131586584D01*
X116406517Y-131473344D01*
X116539673Y-131384372D01*
X116687633Y-131323084D01*
X116844700Y-131291842D01*
X117004850Y-131291842D01*
X117161917Y-131323084D01*
X117161917Y-131323084D01*
G37*
G36*
X112081917Y-131323084D02*
X112229877Y-131384372D01*
X112363033Y-131473344D01*
X112476273Y-131586584D01*
X112565245Y-131719740D01*
X112626533Y-131867700D01*
X112657775Y-132024767D01*
X112657775Y-132184917D01*
X112626533Y-132341984D01*
X112565245Y-132489944D01*
X112476273Y-132623100D01*
X112363033Y-132736340D01*
X112229877Y-132825312D01*
X112081917Y-132886600D01*
X111924850Y-132917842D01*
X111764700Y-132917842D01*
X111607633Y-132886600D01*
X111459673Y-132825312D01*
X111326517Y-132736340D01*
X111213277Y-132623100D01*
X111124305Y-132489944D01*
X111063017Y-132341984D01*
X111031775Y-132184917D01*
X111031775Y-132024767D01*
X111063017Y-131867700D01*
X111124305Y-131719740D01*
X111213277Y-131586584D01*
X111326517Y-131473344D01*
X111459673Y-131384372D01*
X111607633Y-131323084D01*
X111764700Y-131291842D01*
X111924850Y-131291842D01*
X112081917Y-131323084D01*
X112081917Y-131323084D01*
G37*
G36*
X175581917Y-128783084D02*
X175729877Y-128844372D01*
X175863033Y-128933344D01*
X175976273Y-129046584D01*
X176065245Y-129179740D01*
X176126533Y-129327700D01*
X176157775Y-129484767D01*
X176157775Y-129644917D01*
X176126533Y-129801984D01*
X176065245Y-129949944D01*
X175976273Y-130083100D01*
X175863033Y-130196340D01*
X175729877Y-130285312D01*
X175581917Y-130346600D01*
X175424850Y-130377842D01*
X175264700Y-130377842D01*
X175107633Y-130346600D01*
X174959673Y-130285312D01*
X174826517Y-130196340D01*
X174713277Y-130083100D01*
X174624305Y-129949944D01*
X174563017Y-129801984D01*
X174531775Y-129644917D01*
X174531775Y-129484767D01*
X174563017Y-129327700D01*
X174624305Y-129179740D01*
X174713277Y-129046584D01*
X174826517Y-128933344D01*
X174959673Y-128844372D01*
X175107633Y-128783084D01*
X175264700Y-128751842D01*
X175424850Y-128751842D01*
X175581917Y-128783084D01*
X175581917Y-128783084D01*
G37*
G36*
X173041917Y-128783084D02*
X173189877Y-128844372D01*
X173323033Y-128933344D01*
X173436273Y-129046584D01*
X173525245Y-129179740D01*
X173586533Y-129327700D01*
X173617775Y-129484767D01*
X173617775Y-129644917D01*
X173586533Y-129801984D01*
X173525245Y-129949944D01*
X173436273Y-130083100D01*
X173323033Y-130196340D01*
X173189877Y-130285312D01*
X173041917Y-130346600D01*
X172884850Y-130377842D01*
X172724700Y-130377842D01*
X172567633Y-130346600D01*
X172419673Y-130285312D01*
X172286517Y-130196340D01*
X172173277Y-130083100D01*
X172084305Y-129949944D01*
X172023017Y-129801984D01*
X171991775Y-129644917D01*
X171991775Y-129484767D01*
X172023017Y-129327700D01*
X172084305Y-129179740D01*
X172173277Y-129046584D01*
X172286517Y-128933344D01*
X172419673Y-128844372D01*
X172567633Y-128783084D01*
X172724700Y-128751842D01*
X172884850Y-128751842D01*
X173041917Y-128783084D01*
X173041917Y-128783084D01*
G37*
G36*
X165421917Y-128783084D02*
X165569877Y-128844372D01*
X165703033Y-128933344D01*
X165816273Y-129046584D01*
X165905245Y-129179740D01*
X165966533Y-129327700D01*
X165997775Y-129484767D01*
X165997775Y-129644917D01*
X165966533Y-129801984D01*
X165905245Y-129949944D01*
X165816273Y-130083100D01*
X165703033Y-130196340D01*
X165569877Y-130285312D01*
X165421917Y-130346600D01*
X165264850Y-130377842D01*
X165104700Y-130377842D01*
X164947633Y-130346600D01*
X164799673Y-130285312D01*
X164666517Y-130196340D01*
X164553277Y-130083100D01*
X164464305Y-129949944D01*
X164403017Y-129801984D01*
X164371775Y-129644917D01*
X164371775Y-129484767D01*
X164403017Y-129327700D01*
X164464305Y-129179740D01*
X164553277Y-129046584D01*
X164666517Y-128933344D01*
X164799673Y-128844372D01*
X164947633Y-128783084D01*
X165104700Y-128751842D01*
X165264850Y-128751842D01*
X165421917Y-128783084D01*
X165421917Y-128783084D01*
G37*
G36*
X170501917Y-128783084D02*
X170649877Y-128844372D01*
X170783033Y-128933344D01*
X170896273Y-129046584D01*
X170985245Y-129179740D01*
X171046533Y-129327700D01*
X171077775Y-129484767D01*
X171077775Y-129644917D01*
X171046533Y-129801984D01*
X170985245Y-129949944D01*
X170896273Y-130083100D01*
X170783033Y-130196340D01*
X170649877Y-130285312D01*
X170501917Y-130346600D01*
X170344850Y-130377842D01*
X170184700Y-130377842D01*
X170027633Y-130346600D01*
X169879673Y-130285312D01*
X169746517Y-130196340D01*
X169633277Y-130083100D01*
X169544305Y-129949944D01*
X169483017Y-129801984D01*
X169451775Y-129644917D01*
X169451775Y-129484767D01*
X169483017Y-129327700D01*
X169544305Y-129179740D01*
X169633277Y-129046584D01*
X169746517Y-128933344D01*
X169879673Y-128844372D01*
X170027633Y-128783084D01*
X170184700Y-128751842D01*
X170344850Y-128751842D01*
X170501917Y-128783084D01*
X170501917Y-128783084D01*
G37*
G36*
X167961917Y-128783084D02*
X168109877Y-128844372D01*
X168243033Y-128933344D01*
X168356273Y-129046584D01*
X168445245Y-129179740D01*
X168506533Y-129327700D01*
X168537775Y-129484767D01*
X168537775Y-129644917D01*
X168506533Y-129801984D01*
X168445245Y-129949944D01*
X168356273Y-130083100D01*
X168243033Y-130196340D01*
X168109877Y-130285312D01*
X167961917Y-130346600D01*
X167804850Y-130377842D01*
X167644700Y-130377842D01*
X167487633Y-130346600D01*
X167339673Y-130285312D01*
X167206517Y-130196340D01*
X167093277Y-130083100D01*
X167004305Y-129949944D01*
X166943017Y-129801984D01*
X166911775Y-129644917D01*
X166911775Y-129484767D01*
X166943017Y-129327700D01*
X167004305Y-129179740D01*
X167093277Y-129046584D01*
X167206517Y-128933344D01*
X167339673Y-128844372D01*
X167487633Y-128783084D01*
X167644700Y-128751842D01*
X167804850Y-128751842D01*
X167961917Y-128783084D01*
X167961917Y-128783084D01*
G37*
G36*
X162881917Y-128783084D02*
X163029877Y-128844372D01*
X163163033Y-128933344D01*
X163276273Y-129046584D01*
X163365245Y-129179740D01*
X163426533Y-129327700D01*
X163457775Y-129484767D01*
X163457775Y-129644917D01*
X163426533Y-129801984D01*
X163365245Y-129949944D01*
X163276273Y-130083100D01*
X163163033Y-130196340D01*
X163029877Y-130285312D01*
X162881917Y-130346600D01*
X162724850Y-130377842D01*
X162564700Y-130377842D01*
X162407633Y-130346600D01*
X162259673Y-130285312D01*
X162126517Y-130196340D01*
X162013277Y-130083100D01*
X161924305Y-129949944D01*
X161863017Y-129801984D01*
X161831775Y-129644917D01*
X161831775Y-129484767D01*
X161863017Y-129327700D01*
X161924305Y-129179740D01*
X162013277Y-129046584D01*
X162126517Y-128933344D01*
X162259673Y-128844372D01*
X162407633Y-128783084D01*
X162564700Y-128751842D01*
X162724850Y-128751842D01*
X162881917Y-128783084D01*
X162881917Y-128783084D01*
G37*
G36*
X160341917Y-128783084D02*
X160489877Y-128844372D01*
X160623033Y-128933344D01*
X160736273Y-129046584D01*
X160825245Y-129179740D01*
X160886533Y-129327700D01*
X160917775Y-129484767D01*
X160917775Y-129644917D01*
X160886533Y-129801984D01*
X160825245Y-129949944D01*
X160736273Y-130083100D01*
X160623033Y-130196340D01*
X160489877Y-130285312D01*
X160341917Y-130346600D01*
X160184850Y-130377842D01*
X160024700Y-130377842D01*
X159867633Y-130346600D01*
X159719673Y-130285312D01*
X159586517Y-130196340D01*
X159473277Y-130083100D01*
X159384305Y-129949944D01*
X159323017Y-129801984D01*
X159291775Y-129644917D01*
X159291775Y-129484767D01*
X159323017Y-129327700D01*
X159384305Y-129179740D01*
X159473277Y-129046584D01*
X159586517Y-128933344D01*
X159719673Y-128844372D01*
X159867633Y-128783084D01*
X160024700Y-128751842D01*
X160184850Y-128751842D01*
X160341917Y-128783084D01*
X160341917Y-128783084D01*
G37*
G36*
X157801917Y-128783084D02*
X157949877Y-128844372D01*
X158083033Y-128933344D01*
X158196273Y-129046584D01*
X158285245Y-129179740D01*
X158346533Y-129327700D01*
X158377775Y-129484767D01*
X158377775Y-129644917D01*
X158346533Y-129801984D01*
X158285245Y-129949944D01*
X158196273Y-130083100D01*
X158083033Y-130196340D01*
X157949877Y-130285312D01*
X157801917Y-130346600D01*
X157644850Y-130377842D01*
X157484700Y-130377842D01*
X157327633Y-130346600D01*
X157179673Y-130285312D01*
X157046517Y-130196340D01*
X156933277Y-130083100D01*
X156844305Y-129949944D01*
X156783017Y-129801984D01*
X156751775Y-129644917D01*
X156751775Y-129484767D01*
X156783017Y-129327700D01*
X156844305Y-129179740D01*
X156933277Y-129046584D01*
X157046517Y-128933344D01*
X157179673Y-128844372D01*
X157327633Y-128783084D01*
X157484700Y-128751842D01*
X157644850Y-128751842D01*
X157801917Y-128783084D01*
X157801917Y-128783084D01*
G37*
G36*
X155261917Y-128783084D02*
X155409877Y-128844372D01*
X155543033Y-128933344D01*
X155656273Y-129046584D01*
X155745245Y-129179740D01*
X155806533Y-129327700D01*
X155837775Y-129484767D01*
X155837775Y-129644917D01*
X155806533Y-129801984D01*
X155745245Y-129949944D01*
X155656273Y-130083100D01*
X155543033Y-130196340D01*
X155409877Y-130285312D01*
X155261917Y-130346600D01*
X155104850Y-130377842D01*
X154944700Y-130377842D01*
X154787633Y-130346600D01*
X154639673Y-130285312D01*
X154506517Y-130196340D01*
X154393277Y-130083100D01*
X154304305Y-129949944D01*
X154243017Y-129801984D01*
X154211775Y-129644917D01*
X154211775Y-129484767D01*
X154243017Y-129327700D01*
X154304305Y-129179740D01*
X154393277Y-129046584D01*
X154506517Y-128933344D01*
X154639673Y-128844372D01*
X154787633Y-128783084D01*
X154944700Y-128751842D01*
X155104850Y-128751842D01*
X155261917Y-128783084D01*
X155261917Y-128783084D01*
G37*
G36*
X152721917Y-128783084D02*
X152869877Y-128844372D01*
X153003033Y-128933344D01*
X153116273Y-129046584D01*
X153205245Y-129179740D01*
X153266533Y-129327700D01*
X153297775Y-129484767D01*
X153297775Y-129644917D01*
X153266533Y-129801984D01*
X153205245Y-129949944D01*
X153116273Y-130083100D01*
X153003033Y-130196340D01*
X152869877Y-130285312D01*
X152721917Y-130346600D01*
X152564850Y-130377842D01*
X152404700Y-130377842D01*
X152247633Y-130346600D01*
X152099673Y-130285312D01*
X151966517Y-130196340D01*
X151853277Y-130083100D01*
X151764305Y-129949944D01*
X151703017Y-129801984D01*
X151671775Y-129644917D01*
X151671775Y-129484767D01*
X151703017Y-129327700D01*
X151764305Y-129179740D01*
X151853277Y-129046584D01*
X151966517Y-128933344D01*
X152099673Y-128844372D01*
X152247633Y-128783084D01*
X152404700Y-128751842D01*
X152564850Y-128751842D01*
X152721917Y-128783084D01*
X152721917Y-128783084D01*
G37*
G36*
X150181917Y-128783084D02*
X150329877Y-128844372D01*
X150463033Y-128933344D01*
X150576273Y-129046584D01*
X150665245Y-129179740D01*
X150726533Y-129327700D01*
X150757775Y-129484767D01*
X150757775Y-129644917D01*
X150726533Y-129801984D01*
X150665245Y-129949944D01*
X150576273Y-130083100D01*
X150463033Y-130196340D01*
X150329877Y-130285312D01*
X150181917Y-130346600D01*
X150024850Y-130377842D01*
X149864700Y-130377842D01*
X149707633Y-130346600D01*
X149559673Y-130285312D01*
X149426517Y-130196340D01*
X149313277Y-130083100D01*
X149224305Y-129949944D01*
X149163017Y-129801984D01*
X149131775Y-129644917D01*
X149131775Y-129484767D01*
X149163017Y-129327700D01*
X149224305Y-129179740D01*
X149313277Y-129046584D01*
X149426517Y-128933344D01*
X149559673Y-128844372D01*
X149707633Y-128783084D01*
X149864700Y-128751842D01*
X150024850Y-128751842D01*
X150181917Y-128783084D01*
X150181917Y-128783084D01*
G37*
G36*
X147641917Y-128783084D02*
X147789877Y-128844372D01*
X147923033Y-128933344D01*
X148036273Y-129046584D01*
X148125245Y-129179740D01*
X148186533Y-129327700D01*
X148217775Y-129484767D01*
X148217775Y-129644917D01*
X148186533Y-129801984D01*
X148125245Y-129949944D01*
X148036273Y-130083100D01*
X147923033Y-130196340D01*
X147789877Y-130285312D01*
X147641917Y-130346600D01*
X147484850Y-130377842D01*
X147324700Y-130377842D01*
X147167633Y-130346600D01*
X147019673Y-130285312D01*
X146886517Y-130196340D01*
X146773277Y-130083100D01*
X146684305Y-129949944D01*
X146623017Y-129801984D01*
X146591775Y-129644917D01*
X146591775Y-129484767D01*
X146623017Y-129327700D01*
X146684305Y-129179740D01*
X146773277Y-129046584D01*
X146886517Y-128933344D01*
X147019673Y-128844372D01*
X147167633Y-128783084D01*
X147324700Y-128751842D01*
X147484850Y-128751842D01*
X147641917Y-128783084D01*
X147641917Y-128783084D01*
G37*
G36*
X145101917Y-128783084D02*
X145249877Y-128844372D01*
X145383033Y-128933344D01*
X145496273Y-129046584D01*
X145585245Y-129179740D01*
X145646533Y-129327700D01*
X145677775Y-129484767D01*
X145677775Y-129644917D01*
X145646533Y-129801984D01*
X145585245Y-129949944D01*
X145496273Y-130083100D01*
X145383033Y-130196340D01*
X145249877Y-130285312D01*
X145101917Y-130346600D01*
X144944850Y-130377842D01*
X144784700Y-130377842D01*
X144627633Y-130346600D01*
X144479673Y-130285312D01*
X144346517Y-130196340D01*
X144233277Y-130083100D01*
X144144305Y-129949944D01*
X144083017Y-129801984D01*
X144051775Y-129644917D01*
X144051775Y-129484767D01*
X144083017Y-129327700D01*
X144144305Y-129179740D01*
X144233277Y-129046584D01*
X144346517Y-128933344D01*
X144479673Y-128844372D01*
X144627633Y-128783084D01*
X144784700Y-128751842D01*
X144944850Y-128751842D01*
X145101917Y-128783084D01*
X145101917Y-128783084D01*
G37*
G36*
X112081917Y-128783084D02*
X112229877Y-128844372D01*
X112363033Y-128933344D01*
X112476273Y-129046584D01*
X112565245Y-129179740D01*
X112626533Y-129327700D01*
X112657775Y-129484767D01*
X112657775Y-129644917D01*
X112626533Y-129801984D01*
X112565245Y-129949944D01*
X112476273Y-130083100D01*
X112363033Y-130196340D01*
X112229877Y-130285312D01*
X112081917Y-130346600D01*
X111924850Y-130377842D01*
X111764700Y-130377842D01*
X111607633Y-130346600D01*
X111459673Y-130285312D01*
X111326517Y-130196340D01*
X111213277Y-130083100D01*
X111124305Y-129949944D01*
X111063017Y-129801984D01*
X111031775Y-129644917D01*
X111031775Y-129484767D01*
X111063017Y-129327700D01*
X111124305Y-129179740D01*
X111213277Y-129046584D01*
X111326517Y-128933344D01*
X111459673Y-128844372D01*
X111607633Y-128783084D01*
X111764700Y-128751842D01*
X111924850Y-128751842D01*
X112081917Y-128783084D01*
X112081917Y-128783084D01*
G37*
G36*
X114621917Y-128783084D02*
X114769877Y-128844372D01*
X114903033Y-128933344D01*
X115016273Y-129046584D01*
X115105245Y-129179740D01*
X115166533Y-129327700D01*
X115197775Y-129484767D01*
X115197775Y-129644917D01*
X115166533Y-129801984D01*
X115105245Y-129949944D01*
X115016273Y-130083100D01*
X114903033Y-130196340D01*
X114769877Y-130285312D01*
X114621917Y-130346600D01*
X114464850Y-130377842D01*
X114304700Y-130377842D01*
X114147633Y-130346600D01*
X113999673Y-130285312D01*
X113866517Y-130196340D01*
X113753277Y-130083100D01*
X113664305Y-129949944D01*
X113603017Y-129801984D01*
X113571775Y-129644917D01*
X113571775Y-129484767D01*
X113603017Y-129327700D01*
X113664305Y-129179740D01*
X113753277Y-129046584D01*
X113866517Y-128933344D01*
X113999673Y-128844372D01*
X114147633Y-128783084D01*
X114304700Y-128751842D01*
X114464850Y-128751842D01*
X114621917Y-128783084D01*
X114621917Y-128783084D01*
G37*
G36*
X142561917Y-128783084D02*
X142709877Y-128844372D01*
X142843033Y-128933344D01*
X142956273Y-129046584D01*
X143045245Y-129179740D01*
X143106533Y-129327700D01*
X143137775Y-129484767D01*
X143137775Y-129644917D01*
X143106533Y-129801984D01*
X143045245Y-129949944D01*
X142956273Y-130083100D01*
X142843033Y-130196340D01*
X142709877Y-130285312D01*
X142561917Y-130346600D01*
X142404850Y-130377842D01*
X142244700Y-130377842D01*
X142087633Y-130346600D01*
X141939673Y-130285312D01*
X141806517Y-130196340D01*
X141693277Y-130083100D01*
X141604305Y-129949944D01*
X141543017Y-129801984D01*
X141511775Y-129644917D01*
X141511775Y-129484767D01*
X141543017Y-129327700D01*
X141604305Y-129179740D01*
X141693277Y-129046584D01*
X141806517Y-128933344D01*
X141939673Y-128844372D01*
X142087633Y-128783084D01*
X142244700Y-128751842D01*
X142404850Y-128751842D01*
X142561917Y-128783084D01*
X142561917Y-128783084D01*
G37*
G36*
X117161917Y-128783084D02*
X117309877Y-128844372D01*
X117443033Y-128933344D01*
X117556273Y-129046584D01*
X117645245Y-129179740D01*
X117706533Y-129327700D01*
X117737775Y-129484767D01*
X117737775Y-129644917D01*
X117706533Y-129801984D01*
X117645245Y-129949944D01*
X117556273Y-130083100D01*
X117443033Y-130196340D01*
X117309877Y-130285312D01*
X117161917Y-130346600D01*
X117004850Y-130377842D01*
X116844700Y-130377842D01*
X116687633Y-130346600D01*
X116539673Y-130285312D01*
X116406517Y-130196340D01*
X116293277Y-130083100D01*
X116204305Y-129949944D01*
X116143017Y-129801984D01*
X116111775Y-129644917D01*
X116111775Y-129484767D01*
X116143017Y-129327700D01*
X116204305Y-129179740D01*
X116293277Y-129046584D01*
X116406517Y-128933344D01*
X116539673Y-128844372D01*
X116687633Y-128783084D01*
X116844700Y-128751842D01*
X117004850Y-128751842D01*
X117161917Y-128783084D01*
X117161917Y-128783084D01*
G37*
G36*
X140021917Y-128783084D02*
X140169877Y-128844372D01*
X140303033Y-128933344D01*
X140416273Y-129046584D01*
X140505245Y-129179740D01*
X140566533Y-129327700D01*
X140597775Y-129484767D01*
X140597775Y-129644917D01*
X140566533Y-129801984D01*
X140505245Y-129949944D01*
X140416273Y-130083100D01*
X140303033Y-130196340D01*
X140169877Y-130285312D01*
X140021917Y-130346600D01*
X139864850Y-130377842D01*
X139704700Y-130377842D01*
X139547633Y-130346600D01*
X139399673Y-130285312D01*
X139266517Y-130196340D01*
X139153277Y-130083100D01*
X139064305Y-129949944D01*
X139003017Y-129801984D01*
X138971775Y-129644917D01*
X138971775Y-129484767D01*
X139003017Y-129327700D01*
X139064305Y-129179740D01*
X139153277Y-129046584D01*
X139266517Y-128933344D01*
X139399673Y-128844372D01*
X139547633Y-128783084D01*
X139704700Y-128751842D01*
X139864850Y-128751842D01*
X140021917Y-128783084D01*
X140021917Y-128783084D01*
G37*
G36*
X119701917Y-128783084D02*
X119849877Y-128844372D01*
X119983033Y-128933344D01*
X120096273Y-129046584D01*
X120185245Y-129179740D01*
X120246533Y-129327700D01*
X120277775Y-129484767D01*
X120277775Y-129644917D01*
X120246533Y-129801984D01*
X120185245Y-129949944D01*
X120096273Y-130083100D01*
X119983033Y-130196340D01*
X119849877Y-130285312D01*
X119701917Y-130346600D01*
X119544850Y-130377842D01*
X119384700Y-130377842D01*
X119227633Y-130346600D01*
X119079673Y-130285312D01*
X118946517Y-130196340D01*
X118833277Y-130083100D01*
X118744305Y-129949944D01*
X118683017Y-129801984D01*
X118651775Y-129644917D01*
X118651775Y-129484767D01*
X118683017Y-129327700D01*
X118744305Y-129179740D01*
X118833277Y-129046584D01*
X118946517Y-128933344D01*
X119079673Y-128844372D01*
X119227633Y-128783084D01*
X119384700Y-128751842D01*
X119544850Y-128751842D01*
X119701917Y-128783084D01*
X119701917Y-128783084D01*
G37*
G36*
X137481917Y-128783084D02*
X137629877Y-128844372D01*
X137763033Y-128933344D01*
X137876273Y-129046584D01*
X137965245Y-129179740D01*
X138026533Y-129327700D01*
X138057775Y-129484767D01*
X138057775Y-129644917D01*
X138026533Y-129801984D01*
X137965245Y-129949944D01*
X137876273Y-130083100D01*
X137763033Y-130196340D01*
X137629877Y-130285312D01*
X137481917Y-130346600D01*
X137324850Y-130377842D01*
X137164700Y-130377842D01*
X137007633Y-130346600D01*
X136859673Y-130285312D01*
X136726517Y-130196340D01*
X136613277Y-130083100D01*
X136524305Y-129949944D01*
X136463017Y-129801984D01*
X136431775Y-129644917D01*
X136431775Y-129484767D01*
X136463017Y-129327700D01*
X136524305Y-129179740D01*
X136613277Y-129046584D01*
X136726517Y-128933344D01*
X136859673Y-128844372D01*
X137007633Y-128783084D01*
X137164700Y-128751842D01*
X137324850Y-128751842D01*
X137481917Y-128783084D01*
X137481917Y-128783084D01*
G37*
G36*
X122241917Y-128783084D02*
X122389877Y-128844372D01*
X122523033Y-128933344D01*
X122636273Y-129046584D01*
X122725245Y-129179740D01*
X122786533Y-129327700D01*
X122817775Y-129484767D01*
X122817775Y-129644917D01*
X122786533Y-129801984D01*
X122725245Y-129949944D01*
X122636273Y-130083100D01*
X122523033Y-130196340D01*
X122389877Y-130285312D01*
X122241917Y-130346600D01*
X122084850Y-130377842D01*
X121924700Y-130377842D01*
X121767633Y-130346600D01*
X121619673Y-130285312D01*
X121486517Y-130196340D01*
X121373277Y-130083100D01*
X121284305Y-129949944D01*
X121223017Y-129801984D01*
X121191775Y-129644917D01*
X121191775Y-129484767D01*
X121223017Y-129327700D01*
X121284305Y-129179740D01*
X121373277Y-129046584D01*
X121486517Y-128933344D01*
X121619673Y-128844372D01*
X121767633Y-128783084D01*
X121924700Y-128751842D01*
X122084850Y-128751842D01*
X122241917Y-128783084D01*
X122241917Y-128783084D01*
G37*
G36*
X134941917Y-128783084D02*
X135089877Y-128844372D01*
X135223033Y-128933344D01*
X135336273Y-129046584D01*
X135425245Y-129179740D01*
X135486533Y-129327700D01*
X135517775Y-129484767D01*
X135517775Y-129644917D01*
X135486533Y-129801984D01*
X135425245Y-129949944D01*
X135336273Y-130083100D01*
X135223033Y-130196340D01*
X135089877Y-130285312D01*
X134941917Y-130346600D01*
X134784850Y-130377842D01*
X134624700Y-130377842D01*
X134467633Y-130346600D01*
X134319673Y-130285312D01*
X134186517Y-130196340D01*
X134073277Y-130083100D01*
X133984305Y-129949944D01*
X133923017Y-129801984D01*
X133891775Y-129644917D01*
X133891775Y-129484767D01*
X133923017Y-129327700D01*
X133984305Y-129179740D01*
X134073277Y-129046584D01*
X134186517Y-128933344D01*
X134319673Y-128844372D01*
X134467633Y-128783084D01*
X134624700Y-128751842D01*
X134784850Y-128751842D01*
X134941917Y-128783084D01*
X134941917Y-128783084D01*
G37*
G36*
X124781917Y-128783084D02*
X124929877Y-128844372D01*
X125063033Y-128933344D01*
X125176273Y-129046584D01*
X125265245Y-129179740D01*
X125326533Y-129327700D01*
X125357775Y-129484767D01*
X125357775Y-129644917D01*
X125326533Y-129801984D01*
X125265245Y-129949944D01*
X125176273Y-130083100D01*
X125063033Y-130196340D01*
X124929877Y-130285312D01*
X124781917Y-130346600D01*
X124624850Y-130377842D01*
X124464700Y-130377842D01*
X124307633Y-130346600D01*
X124159673Y-130285312D01*
X124026517Y-130196340D01*
X123913277Y-130083100D01*
X123824305Y-129949944D01*
X123763017Y-129801984D01*
X123731775Y-129644917D01*
X123731775Y-129484767D01*
X123763017Y-129327700D01*
X123824305Y-129179740D01*
X123913277Y-129046584D01*
X124026517Y-128933344D01*
X124159673Y-128844372D01*
X124307633Y-128783084D01*
X124464700Y-128751842D01*
X124624850Y-128751842D01*
X124781917Y-128783084D01*
X124781917Y-128783084D01*
G37*
G36*
X132401917Y-128783084D02*
X132549877Y-128844372D01*
X132683033Y-128933344D01*
X132796273Y-129046584D01*
X132885245Y-129179740D01*
X132946533Y-129327700D01*
X132977775Y-129484767D01*
X132977775Y-129644917D01*
X132946533Y-129801984D01*
X132885245Y-129949944D01*
X132796273Y-130083100D01*
X132683033Y-130196340D01*
X132549877Y-130285312D01*
X132401917Y-130346600D01*
X132244850Y-130377842D01*
X132084700Y-130377842D01*
X131927633Y-130346600D01*
X131779673Y-130285312D01*
X131646517Y-130196340D01*
X131533277Y-130083100D01*
X131444305Y-129949944D01*
X131383017Y-129801984D01*
X131351775Y-129644917D01*
X131351775Y-129484767D01*
X131383017Y-129327700D01*
X131444305Y-129179740D01*
X131533277Y-129046584D01*
X131646517Y-128933344D01*
X131779673Y-128844372D01*
X131927633Y-128783084D01*
X132084700Y-128751842D01*
X132244850Y-128751842D01*
X132401917Y-128783084D01*
X132401917Y-128783084D01*
G37*
G36*
X127321917Y-128783084D02*
X127469877Y-128844372D01*
X127603033Y-128933344D01*
X127716273Y-129046584D01*
X127805245Y-129179740D01*
X127866533Y-129327700D01*
X127897775Y-129484767D01*
X127897775Y-129644917D01*
X127866533Y-129801984D01*
X127805245Y-129949944D01*
X127716273Y-130083100D01*
X127603033Y-130196340D01*
X127469877Y-130285312D01*
X127321917Y-130346600D01*
X127164850Y-130377842D01*
X127004700Y-130377842D01*
X126847633Y-130346600D01*
X126699673Y-130285312D01*
X126566517Y-130196340D01*
X126453277Y-130083100D01*
X126364305Y-129949944D01*
X126303017Y-129801984D01*
X126271775Y-129644917D01*
X126271775Y-129484767D01*
X126303017Y-129327700D01*
X126364305Y-129179740D01*
X126453277Y-129046584D01*
X126566517Y-128933344D01*
X126699673Y-128844372D01*
X126847633Y-128783084D01*
X127004700Y-128751842D01*
X127164850Y-128751842D01*
X127321917Y-128783084D01*
X127321917Y-128783084D01*
G37*
G36*
X129861917Y-128783084D02*
X130009877Y-128844372D01*
X130143033Y-128933344D01*
X130256273Y-129046584D01*
X130345245Y-129179740D01*
X130406533Y-129327700D01*
X130437775Y-129484767D01*
X130437775Y-129644917D01*
X130406533Y-129801984D01*
X130345245Y-129949944D01*
X130256273Y-130083100D01*
X130143033Y-130196340D01*
X130009877Y-130285312D01*
X129861917Y-130346600D01*
X129704850Y-130377842D01*
X129544700Y-130377842D01*
X129387633Y-130346600D01*
X129239673Y-130285312D01*
X129106517Y-130196340D01*
X128993277Y-130083100D01*
X128904305Y-129949944D01*
X128843017Y-129801984D01*
X128811775Y-129644917D01*
X128811775Y-129484767D01*
X128843017Y-129327700D01*
X128904305Y-129179740D01*
X128993277Y-129046584D01*
X129106517Y-128933344D01*
X129239673Y-128844372D01*
X129387633Y-128783084D01*
X129544700Y-128751842D01*
X129704850Y-128751842D01*
X129861917Y-128783084D01*
X129861917Y-128783084D01*
G37*
G36*
X177637781Y-121709533D02*
X177819048Y-121745589D01*
X178046716Y-121839892D01*
X178250687Y-121976182D01*
X178251614Y-121976801D01*
X178425858Y-122151045D01*
X178425860Y-122151048D01*
X178562767Y-122355943D01*
X178657070Y-122583611D01*
X178705145Y-122825301D01*
X178705145Y-123071727D01*
X178657070Y-123313417D01*
X178562767Y-123541085D01*
X178426477Y-123745056D01*
X178425858Y-123745983D01*
X178251614Y-123920227D01*
X178251611Y-123920229D01*
X178046716Y-124057136D01*
X177819048Y-124151439D01*
X177637780Y-124187495D01*
X177577359Y-124199514D01*
X177330931Y-124199514D01*
X177270510Y-124187495D01*
X177089242Y-124151439D01*
X176861574Y-124057136D01*
X176656679Y-123920229D01*
X176656676Y-123920227D01*
X176482432Y-123745983D01*
X176481813Y-123745056D01*
X176345523Y-123541085D01*
X176251220Y-123313417D01*
X176203145Y-123071727D01*
X176203145Y-122825301D01*
X176251220Y-122583611D01*
X176345523Y-122355943D01*
X176482430Y-122151048D01*
X176482432Y-122151045D01*
X176656676Y-121976801D01*
X176657603Y-121976182D01*
X176861574Y-121839892D01*
X177089242Y-121745589D01*
X177270509Y-121709533D01*
X177330931Y-121697514D01*
X177577359Y-121697514D01*
X177637781Y-121709533D01*
X177637781Y-121709533D01*
G37*
G36*
X137674410Y-113054661D02*
X137855678Y-113090717D01*
X138083346Y-113185020D01*
X138287317Y-113321310D01*
X138288244Y-113321929D01*
X138462488Y-113496173D01*
X138462490Y-113496176D01*
X138599397Y-113701071D01*
X138693700Y-113928739D01*
X138741775Y-114170429D01*
X138741775Y-114416855D01*
X138693700Y-114658545D01*
X138599397Y-114886213D01*
X138463107Y-115090184D01*
X138462488Y-115091111D01*
X138288244Y-115265355D01*
X138288241Y-115265357D01*
X138083346Y-115402264D01*
X137855678Y-115496567D01*
X137674410Y-115532623D01*
X137613989Y-115544642D01*
X137367561Y-115544642D01*
X137307140Y-115532623D01*
X137125872Y-115496567D01*
X136898204Y-115402264D01*
X136693309Y-115265357D01*
X136693306Y-115265355D01*
X136519062Y-115091111D01*
X136518443Y-115090184D01*
X136382153Y-114886213D01*
X136287850Y-114658545D01*
X136239775Y-114416855D01*
X136239775Y-114170429D01*
X136287850Y-113928739D01*
X136382153Y-113701071D01*
X136519060Y-113496176D01*
X136519062Y-113496173D01*
X136693306Y-113321929D01*
X136694233Y-113321310D01*
X136898204Y-113185020D01*
X137125872Y-113090717D01*
X137307140Y-113054661D01*
X137367561Y-113042642D01*
X137613989Y-113042642D01*
X137674410Y-113054661D01*
X137674410Y-113054661D01*
G37*
G36*
X109058518Y-112119716D02*
X109239785Y-112155772D01*
X109467453Y-112250075D01*
X109671424Y-112386365D01*
X109672351Y-112386984D01*
X109846595Y-112561228D01*
X109846597Y-112561231D01*
X109983504Y-112766126D01*
X110077807Y-112993794D01*
X110125882Y-113235484D01*
X110125882Y-113481910D01*
X110077807Y-113723600D01*
X109983504Y-113951268D01*
X109847214Y-114155239D01*
X109846595Y-114156166D01*
X109672351Y-114330410D01*
X109672348Y-114330412D01*
X109467453Y-114467319D01*
X109239785Y-114561622D01*
X109058517Y-114597678D01*
X108998096Y-114609697D01*
X108751668Y-114609697D01*
X108691247Y-114597678D01*
X108509979Y-114561622D01*
X108282311Y-114467319D01*
X108077416Y-114330412D01*
X108077413Y-114330410D01*
X107903169Y-114156166D01*
X107902550Y-114155239D01*
X107766260Y-113951268D01*
X107671957Y-113723600D01*
X107623882Y-113481910D01*
X107623882Y-113235484D01*
X107671957Y-112993794D01*
X107766260Y-112766126D01*
X107903167Y-112561231D01*
X107903169Y-112561228D01*
X108077413Y-112386984D01*
X108078340Y-112386365D01*
X108282311Y-112250075D01*
X108509979Y-112155772D01*
X108691246Y-112119716D01*
X108751668Y-112107697D01*
X108998096Y-112107697D01*
X109058518Y-112119716D01*
X109058518Y-112119716D01*
G37*
G36*
X110928517Y-109329716D02*
X111109785Y-109365772D01*
X111337453Y-109460075D01*
X111541424Y-109596365D01*
X111542351Y-109596984D01*
X111716595Y-109771228D01*
X111716597Y-109771231D01*
X111853504Y-109976126D01*
X111947807Y-110203794D01*
X111995882Y-110445484D01*
X111995882Y-110691910D01*
X111947807Y-110933600D01*
X111853504Y-111161268D01*
X111717214Y-111365239D01*
X111716595Y-111366166D01*
X111542351Y-111540410D01*
X111542348Y-111540412D01*
X111337453Y-111677319D01*
X111109785Y-111771622D01*
X110928517Y-111807678D01*
X110868096Y-111819697D01*
X110621668Y-111819697D01*
X110561247Y-111807678D01*
X110379979Y-111771622D01*
X110152311Y-111677319D01*
X109947416Y-111540412D01*
X109947413Y-111540410D01*
X109773169Y-111366166D01*
X109772550Y-111365239D01*
X109636260Y-111161268D01*
X109541957Y-110933600D01*
X109493882Y-110691910D01*
X109493882Y-110445484D01*
X109541957Y-110203794D01*
X109636260Y-109976126D01*
X109773167Y-109771231D01*
X109773169Y-109771228D01*
X109947413Y-109596984D01*
X109948340Y-109596365D01*
X110152311Y-109460075D01*
X110379979Y-109365772D01*
X110561247Y-109329716D01*
X110621668Y-109317697D01*
X110868096Y-109317697D01*
X110928517Y-109329716D01*
X110928517Y-109329716D01*
G37*
G36*
X166874411Y-105644661D02*
X167055678Y-105680717D01*
X167283346Y-105775020D01*
X167487317Y-105911310D01*
X167488244Y-105911929D01*
X167662488Y-106086173D01*
X167662490Y-106086176D01*
X167799397Y-106291071D01*
X167893700Y-106518739D01*
X167941775Y-106760429D01*
X167941775Y-107006855D01*
X167893700Y-107248545D01*
X167799397Y-107476213D01*
X167663107Y-107680184D01*
X167662488Y-107681111D01*
X167488244Y-107855355D01*
X167488241Y-107855357D01*
X167283346Y-107992264D01*
X167055678Y-108086567D01*
X166874410Y-108122623D01*
X166813989Y-108134642D01*
X166567561Y-108134642D01*
X166507140Y-108122623D01*
X166325872Y-108086567D01*
X166098204Y-107992264D01*
X165893309Y-107855357D01*
X165893306Y-107855355D01*
X165719062Y-107681111D01*
X165718443Y-107680184D01*
X165582153Y-107476213D01*
X165487850Y-107248545D01*
X165439775Y-107006855D01*
X165439775Y-106760429D01*
X165487850Y-106518739D01*
X165582153Y-106291071D01*
X165719060Y-106086176D01*
X165719062Y-106086173D01*
X165893306Y-105911929D01*
X165894233Y-105911310D01*
X166098204Y-105775020D01*
X166325872Y-105680717D01*
X166507139Y-105644661D01*
X166567561Y-105632642D01*
X166813989Y-105632642D01*
X166874411Y-105644661D01*
X166874411Y-105644661D01*
G37*
G36*
X158901775Y-105454642D02*
X157099775Y-105454642D01*
X157099775Y-103652642D01*
X158901775Y-103652642D01*
X158901775Y-105454642D01*
X158901775Y-105454642D01*
G37*
G36*
X158111217Y-101119160D02*
X158177402Y-101125679D01*
X158290628Y-101160026D01*
X158347242Y-101177199D01*
X158485862Y-101251294D01*
X158503766Y-101260864D01*
X158539504Y-101290194D01*
X158640961Y-101373456D01*
X158724223Y-101474913D01*
X158753553Y-101510651D01*
X158753554Y-101510653D01*
X158837218Y-101667175D01*
X158837218Y-101667176D01*
X158888738Y-101837015D01*
X158906134Y-102013642D01*
X158888738Y-102190269D01*
X158854391Y-102303495D01*
X158837218Y-102360109D01*
X158763123Y-102498729D01*
X158753553Y-102516633D01*
X158724223Y-102552371D01*
X158640961Y-102653828D01*
X158539504Y-102737090D01*
X158503766Y-102766420D01*
X158503764Y-102766421D01*
X158347242Y-102850085D01*
X158290628Y-102867258D01*
X158177402Y-102901605D01*
X158111218Y-102908123D01*
X158045035Y-102914642D01*
X157956515Y-102914642D01*
X157890332Y-102908123D01*
X157824148Y-102901605D01*
X157710922Y-102867258D01*
X157654308Y-102850085D01*
X157497786Y-102766421D01*
X157497784Y-102766420D01*
X157462046Y-102737090D01*
X157360589Y-102653828D01*
X157277327Y-102552371D01*
X157247997Y-102516633D01*
X157238427Y-102498729D01*
X157164332Y-102360109D01*
X157147159Y-102303495D01*
X157112812Y-102190269D01*
X157095416Y-102013642D01*
X157112812Y-101837015D01*
X157164332Y-101667176D01*
X157164332Y-101667175D01*
X157247996Y-101510653D01*
X157247997Y-101510651D01*
X157277327Y-101474913D01*
X157360589Y-101373456D01*
X157462046Y-101290194D01*
X157497784Y-101260864D01*
X157515688Y-101251294D01*
X157654308Y-101177199D01*
X157710922Y-101160026D01*
X157824148Y-101125679D01*
X157890333Y-101119160D01*
X157956515Y-101112642D01*
X158045035Y-101112642D01*
X158111217Y-101119160D01*
X158111217Y-101119160D01*
G37*
G36*
X158111218Y-98579161D02*
X158177402Y-98585679D01*
X158290628Y-98620026D01*
X158347242Y-98637199D01*
X158485862Y-98711294D01*
X158503766Y-98720864D01*
X158539504Y-98750194D01*
X158640961Y-98833456D01*
X158724223Y-98934913D01*
X158753553Y-98970651D01*
X158753554Y-98970653D01*
X158837218Y-99127175D01*
X158837218Y-99127176D01*
X158888738Y-99297015D01*
X158906134Y-99473642D01*
X158888738Y-99650269D01*
X158854391Y-99763495D01*
X158837218Y-99820109D01*
X158763123Y-99958729D01*
X158753553Y-99976633D01*
X158724223Y-100012371D01*
X158640961Y-100113828D01*
X158539504Y-100197090D01*
X158503766Y-100226420D01*
X158503764Y-100226421D01*
X158347242Y-100310085D01*
X158290628Y-100327258D01*
X158177402Y-100361605D01*
X158111217Y-100368124D01*
X158045035Y-100374642D01*
X157956515Y-100374642D01*
X157890332Y-100368123D01*
X157824148Y-100361605D01*
X157710922Y-100327258D01*
X157654308Y-100310085D01*
X157497786Y-100226421D01*
X157497784Y-100226420D01*
X157462046Y-100197090D01*
X157360589Y-100113828D01*
X157277327Y-100012371D01*
X157247997Y-99976633D01*
X157238427Y-99958729D01*
X157164332Y-99820109D01*
X157147159Y-99763495D01*
X157112812Y-99650269D01*
X157095416Y-99473642D01*
X157112812Y-99297015D01*
X157164332Y-99127176D01*
X157164332Y-99127175D01*
X157247996Y-98970653D01*
X157247997Y-98970651D01*
X157277327Y-98934913D01*
X157360589Y-98833456D01*
X157462046Y-98750194D01*
X157497784Y-98720864D01*
X157515688Y-98711294D01*
X157654308Y-98637199D01*
X157710922Y-98620026D01*
X157824148Y-98585679D01*
X157890332Y-98579161D01*
X157956515Y-98572642D01*
X158045035Y-98572642D01*
X158111218Y-98579161D01*
X158111218Y-98579161D01*
G37*
G36*
X158111218Y-96039161D02*
X158177402Y-96045679D01*
X158290628Y-96080026D01*
X158347242Y-96097199D01*
X158485862Y-96171294D01*
X158503766Y-96180864D01*
X158539504Y-96210194D01*
X158640961Y-96293456D01*
X158724223Y-96394913D01*
X158753553Y-96430651D01*
X158753554Y-96430653D01*
X158837218Y-96587175D01*
X158837218Y-96587176D01*
X158888738Y-96757015D01*
X158906134Y-96933642D01*
X158888738Y-97110269D01*
X158854391Y-97223495D01*
X158837218Y-97280109D01*
X158763123Y-97418729D01*
X158753553Y-97436633D01*
X158724223Y-97472371D01*
X158640961Y-97573828D01*
X158539504Y-97657090D01*
X158503766Y-97686420D01*
X158503764Y-97686421D01*
X158347242Y-97770085D01*
X158290628Y-97787258D01*
X158177402Y-97821605D01*
X158111217Y-97828124D01*
X158045035Y-97834642D01*
X157956515Y-97834642D01*
X157890333Y-97828124D01*
X157824148Y-97821605D01*
X157710922Y-97787258D01*
X157654308Y-97770085D01*
X157497786Y-97686421D01*
X157497784Y-97686420D01*
X157462046Y-97657090D01*
X157360589Y-97573828D01*
X157277327Y-97472371D01*
X157247997Y-97436633D01*
X157238427Y-97418729D01*
X157164332Y-97280109D01*
X157147159Y-97223495D01*
X157112812Y-97110269D01*
X157095416Y-96933642D01*
X157112812Y-96757015D01*
X157164332Y-96587176D01*
X157164332Y-96587175D01*
X157247996Y-96430653D01*
X157247997Y-96430651D01*
X157277327Y-96394913D01*
X157360589Y-96293456D01*
X157462046Y-96210194D01*
X157497784Y-96180864D01*
X157515688Y-96171294D01*
X157654308Y-96097199D01*
X157710922Y-96080026D01*
X157824148Y-96045679D01*
X157890332Y-96039161D01*
X157956515Y-96032642D01*
X158045035Y-96032642D01*
X158111218Y-96039161D01*
X158111218Y-96039161D01*
G37*
G36*
X149213635Y-87041019D02*
X149394903Y-87077075D01*
X149622571Y-87171378D01*
X149783247Y-87278739D01*
X149827469Y-87308287D01*
X150001713Y-87482531D01*
X150001715Y-87482534D01*
X150138622Y-87687429D01*
X150232925Y-87915097D01*
X150281000Y-88156787D01*
X150281000Y-88403213D01*
X150232925Y-88644903D01*
X150138622Y-88872571D01*
X150002332Y-89076542D01*
X150001713Y-89077469D01*
X149827469Y-89251713D01*
X149827466Y-89251715D01*
X149622571Y-89388622D01*
X149394903Y-89482925D01*
X149213636Y-89518981D01*
X149153214Y-89531000D01*
X148906786Y-89531000D01*
X148846364Y-89518981D01*
X148665097Y-89482925D01*
X148437429Y-89388622D01*
X148232534Y-89251715D01*
X148232531Y-89251713D01*
X148058287Y-89077469D01*
X148057668Y-89076542D01*
X147921378Y-88872571D01*
X147827075Y-88644903D01*
X147779000Y-88403213D01*
X147779000Y-88156787D01*
X147827075Y-87915097D01*
X147921378Y-87687429D01*
X148058285Y-87482534D01*
X148058287Y-87482531D01*
X148232531Y-87308287D01*
X148276753Y-87278739D01*
X148437429Y-87171378D01*
X148665097Y-87077075D01*
X148846365Y-87041019D01*
X148906786Y-87029000D01*
X149153214Y-87029000D01*
X149213635Y-87041019D01*
X149213635Y-87041019D01*
G37*
G36*
X163424411Y-86404661D02*
X163605678Y-86440717D01*
X163833346Y-86535020D01*
X164037317Y-86671310D01*
X164038244Y-86671929D01*
X164212488Y-86846173D01*
X164212490Y-86846176D01*
X164349397Y-87051071D01*
X164443700Y-87278739D01*
X164491775Y-87520429D01*
X164491775Y-87766855D01*
X164443700Y-88008545D01*
X164349397Y-88236213D01*
X164237811Y-88403213D01*
X164212488Y-88441111D01*
X164038244Y-88615355D01*
X164038241Y-88615357D01*
X163833346Y-88752264D01*
X163605678Y-88846567D01*
X163424410Y-88882623D01*
X163363989Y-88894642D01*
X163117561Y-88894642D01*
X163057140Y-88882623D01*
X162875872Y-88846567D01*
X162648204Y-88752264D01*
X162443309Y-88615357D01*
X162443306Y-88615355D01*
X162269062Y-88441111D01*
X162243739Y-88403213D01*
X162132153Y-88236213D01*
X162037850Y-88008545D01*
X161989775Y-87766855D01*
X161989775Y-87520429D01*
X162037850Y-87278739D01*
X162132153Y-87051071D01*
X162269060Y-86846176D01*
X162269062Y-86846173D01*
X162443306Y-86671929D01*
X162444233Y-86671310D01*
X162648204Y-86535020D01*
X162875872Y-86440717D01*
X163057140Y-86404661D01*
X163117561Y-86392642D01*
X163363989Y-86392642D01*
X163424411Y-86404661D01*
X163424411Y-86404661D01*
G37*
G36*
X130594410Y-81594661D02*
X130775678Y-81630717D01*
X131003346Y-81725020D01*
X131207317Y-81861310D01*
X131208244Y-81861929D01*
X131382488Y-82036173D01*
X131382490Y-82036176D01*
X131519397Y-82241071D01*
X131613700Y-82468739D01*
X131661775Y-82710429D01*
X131661775Y-82956855D01*
X131613700Y-83198545D01*
X131519397Y-83426213D01*
X131383107Y-83630184D01*
X131382488Y-83631111D01*
X131208244Y-83805355D01*
X131208241Y-83805357D01*
X131003346Y-83942264D01*
X130775678Y-84036567D01*
X130594410Y-84072623D01*
X130533989Y-84084642D01*
X130287561Y-84084642D01*
X130227140Y-84072623D01*
X130045872Y-84036567D01*
X129818204Y-83942264D01*
X129613309Y-83805357D01*
X129613306Y-83805355D01*
X129439062Y-83631111D01*
X129438443Y-83630184D01*
X129302153Y-83426213D01*
X129207850Y-83198545D01*
X129159775Y-82956855D01*
X129159775Y-82710429D01*
X129207850Y-82468739D01*
X129302153Y-82241071D01*
X129439060Y-82036176D01*
X129439062Y-82036173D01*
X129613306Y-81861929D01*
X129614233Y-81861310D01*
X129818204Y-81725020D01*
X130045872Y-81630717D01*
X130227140Y-81594661D01*
X130287561Y-81582642D01*
X130533989Y-81582642D01*
X130594410Y-81594661D01*
X130594410Y-81594661D01*
G37*
G36*
X125113636Y-70761019D02*
X125294903Y-70797075D01*
X125522571Y-70891378D01*
X125726542Y-71027668D01*
X125727469Y-71028287D01*
X125901713Y-71202531D01*
X125901715Y-71202534D01*
X126038622Y-71407429D01*
X126132925Y-71635097D01*
X126181000Y-71876787D01*
X126181000Y-72123213D01*
X126132925Y-72364903D01*
X126038622Y-72592571D01*
X125902332Y-72796542D01*
X125901713Y-72797469D01*
X125727469Y-72971713D01*
X125727466Y-72971715D01*
X125522571Y-73108622D01*
X125294903Y-73202925D01*
X125113635Y-73238981D01*
X125053214Y-73251000D01*
X124806786Y-73251000D01*
X124746365Y-73238981D01*
X124565097Y-73202925D01*
X124337429Y-73108622D01*
X124132534Y-72971715D01*
X124132531Y-72971713D01*
X123958287Y-72797469D01*
X123957668Y-72796542D01*
X123821378Y-72592571D01*
X123727075Y-72364903D01*
X123679000Y-72123213D01*
X123679000Y-71876787D01*
X123727075Y-71635097D01*
X123821378Y-71407429D01*
X123958285Y-71202534D01*
X123958287Y-71202531D01*
X124132531Y-71028287D01*
X124133458Y-71027668D01*
X124337429Y-70891378D01*
X124565097Y-70797075D01*
X124746364Y-70761019D01*
X124806786Y-70749000D01*
X125053214Y-70749000D01*
X125113636Y-70761019D01*
X125113636Y-70761019D01*
G37*
G36*
X104960966Y-48443369D02*
X105163888Y-48483733D01*
X105737333Y-48721262D01*
X106249940Y-49063776D01*
X106253423Y-49066103D01*
X106692314Y-49504994D01*
X106692316Y-49504997D01*
X107037155Y-50021084D01*
X107274684Y-50594529D01*
X107395775Y-51203296D01*
X107395775Y-51823988D01*
X107274684Y-52432755D01*
X107037155Y-53006200D01*
X106694641Y-53518807D01*
X106692314Y-53522290D01*
X106253423Y-53961181D01*
X106253420Y-53961183D01*
X105737333Y-54306022D01*
X105163888Y-54543551D01*
X104960966Y-54583915D01*
X104555123Y-54664642D01*
X103934427Y-54664642D01*
X103528584Y-54583915D01*
X103325662Y-54543551D01*
X102752217Y-54306022D01*
X102236130Y-53961183D01*
X102236127Y-53961181D01*
X101797236Y-53522290D01*
X101794909Y-53518807D01*
X101452395Y-53006200D01*
X101214866Y-52432755D01*
X101093775Y-51823988D01*
X101093775Y-51203296D01*
X101214866Y-50594529D01*
X101452395Y-50021084D01*
X101797234Y-49504997D01*
X101797236Y-49504994D01*
X102236127Y-49066103D01*
X102239610Y-49063776D01*
X102752217Y-48721262D01*
X103325662Y-48483733D01*
X103528584Y-48443369D01*
X103934427Y-48362642D01*
X104555123Y-48362642D01*
X104960966Y-48443369D01*
X104960966Y-48443369D01*
G37*
G36*
X184960966Y-48443369D02*
X185163888Y-48483733D01*
X185737333Y-48721262D01*
X186249940Y-49063776D01*
X186253423Y-49066103D01*
X186692314Y-49504994D01*
X186692316Y-49504997D01*
X187037155Y-50021084D01*
X187274684Y-50594529D01*
X187395775Y-51203296D01*
X187395775Y-51823988D01*
X187274684Y-52432755D01*
X187037155Y-53006200D01*
X186694641Y-53518807D01*
X186692314Y-53522290D01*
X186253423Y-53961181D01*
X186253420Y-53961183D01*
X185737333Y-54306022D01*
X185163888Y-54543551D01*
X184960966Y-54583915D01*
X184555123Y-54664642D01*
X183934427Y-54664642D01*
X183528584Y-54583915D01*
X183325662Y-54543551D01*
X182752217Y-54306022D01*
X182236130Y-53961183D01*
X182236127Y-53961181D01*
X181797236Y-53522290D01*
X181794909Y-53518807D01*
X181452395Y-53006200D01*
X181214866Y-52432755D01*
X181093775Y-51823988D01*
X181093775Y-51203296D01*
X181214866Y-50594529D01*
X181452395Y-50021084D01*
X181797234Y-49504997D01*
X181797236Y-49504994D01*
X182236127Y-49066103D01*
X182239610Y-49063776D01*
X182752217Y-48721262D01*
X183325662Y-48483733D01*
X183528584Y-48443369D01*
X183934427Y-48362642D01*
X184555123Y-48362642D01*
X184960966Y-48443369D01*
X184960966Y-48443369D01*
G37*
M02*
