M48
;DRILL file {KiCad (5.0.1-3-g963ef8bb5)} date 2021 May 26, Wednesday 22:53:29
;FORMAT={-:-/ absolute / metric / decimal}
FMAT,2
METRIC,TZ
T1C0.400
T2C1.000
T3C1.016
T4C1.600
T5C3.200
%
G90
G05
M71
T1
X100.921Y-85.604
X100.921Y-87.604
X100.921Y-102.574
X100.921Y-104.574
X100.921Y-121.264
X100.921Y-123.264
X101.121Y-65.504
X101.121Y-67.504
X101.121Y-69.504
X101.621Y-65.504
X101.621Y-67.504
X102.731Y-60.654
X102.921Y-85.604
X102.921Y-87.604
X102.921Y-102.574
X102.921Y-104.574
X102.921Y-121.264
X102.921Y-123.264
X103.121Y-69.504
X103.621Y-65.504
X103.621Y-67.504
X104.921Y-85.604
X104.921Y-87.604
X104.921Y-102.574
X104.921Y-104.574
X104.921Y-121.264
X104.921Y-123.264
X105.121Y-69.504
X105.421Y-62.054
X107.201Y-75.524
X107.351Y-92.044
X109.021Y-58.904
X109.211Y-126.344
X109.383Y-60.484
X110.314Y-81.374
X110.314Y-97.844
X110.471Y-86.514
X110.941Y-118.294
X111.371Y-72.464
X111.411Y-89.094
X111.421Y-77.894
X111.471Y-113.274
X111.501Y-94.694
X111.861Y-63.184
X112.341Y-97.764
X112.391Y-87.504
X112.471Y-81.232
X112.609Y-104.594
X112.681Y-59.674
X113.47Y-69.52
X113.721Y-102.224
X113.771Y-113.404
X113.811Y-85.114
X114.371Y-63.304
X114.901Y-55.984
X114.911Y-78.854
X114.931Y-95.664
X114.99Y-87.25
X115.011Y-126.084
X115.291Y-76.964
X115.321Y-93.884
X116.7Y-107.9
X116.801Y-118.264
X117.061Y-102.214
X117.706Y-59.461
X118.771Y-58.774
X120.151Y-61.984
X120.981Y-65.304
X122.3Y-83.5
X123.28Y-77.92
X123.3Y-113.3
X123.321Y-127.874
X123.4Y-90.3
X123.631Y-58.567
X123.941Y-60.604
X124.545Y-91.004
X125.671Y-126.344
X125.921Y-111.384
X126.401Y-63.134
X126.431Y-112.864
X126.701Y-82.994
X126.701Y-93.514
X126.841Y-107.974
X127.291Y-59.644
X127.711Y-113.004
X127.741Y-101.604
X127.771Y-118.404
X127.951Y-122.954
X128.081Y-94.544
X128.43Y-63.266
X128.901Y-108.644
X129.331Y-54.974
X129.621Y-116.844
X129.99Y-74.24
X131.361Y-124.664
X131.601Y-89.074
X131.891Y-126.874
X132.04Y-114.2
X132.271Y-59.544
X132.371Y-85.977
X132.701Y-93.429
X133.031Y-83.834
X133.681Y-76.924
X133.831Y-108.534
X134.131Y-81.704
X134.231Y-89.064
X134.571Y-86.104
X134.821Y-58.984
X135.171Y-102.714
X135.361Y-126.174
X135.371Y-118.454
X135.551Y-62.024
X135.56Y-87.16
X136.371Y-99.384
X136.45Y-72.92
X136.481Y-65.314
X136.791Y-84.484
X137.021Y-108.514
X137.341Y-81.814
X138.601Y-86.434
X138.871Y-123.774
X138.901Y-91.434
X139.166Y-101.354
X139.341Y-58.904
X139.601Y-60.634
X140.351Y-90.024
X140.461Y-98.874
X140.631Y-80.544
X140.986Y-103.981
X141.711Y-106.584
X141.901Y-63.164
X142.291Y-100.174
X142.651Y-108.964
X142.811Y-59.604
X142.941Y-114.044
X143.02Y-88.43
X143.361Y-105.224
X143.851Y-109.724
X144.353Y-63.277
X144.9Y-71.13
X145.211Y-55.554
X145.531Y-105.954
X145.701Y-98.219
X145.941Y-120.864
X146.081Y-118.644
X146.271Y-113.574
X146.441Y-116.794
X147.181Y-74.324
X147.381Y-123.134
X147.481Y-93.154
X147.531Y-119.764
X147.83Y-59.519
X147.961Y-104.104
X147.991Y-100.031
X148.011Y-102.43
X149.171Y-72.304
X149.541Y-102.274
X149.691Y-111.044
X150.441Y-98.324
X150.531Y-58.754
X150.981Y-118.654
X151.051Y-108.594
X151.051Y-111.904
X151.461Y-62.044
X152.501Y-120.744
X152.791Y-100.839
X152.871Y-81.704
X152.961Y-109.034
X153.226Y-119.114
X153.455Y-118.14
X154.021Y-126.004
X154.231Y-110.054
X154.571Y-97.494
X154.746Y-123.914
X154.941Y-88.674
X155.121Y-83.844
X155.201Y-58.904
X155.471Y-126.024
X155.513Y-60.554
X156.011Y-102.814
X156.141Y-122.324
X156.351Y-98.534
X156.831Y-87.294
X156.891Y-121.394
X157.281Y-108.704
X157.521Y-114.564
X157.771Y-63.154
X157.861Y-126.344
X158.161Y-79.944
X158.301Y-93.654
X158.531Y-84.974
X158.671Y-59.484
X158.731Y-123.164
X158.768Y-124.96
X158.901Y-115.204
X158.961Y-69.704
X159.686Y-110.594
X159.891Y-121.384
X159.981Y-118.234
X160.267Y-63.309
X161.081Y-56.064
X161.13Y-125.685
X161.361Y-116.154
X161.381Y-123.874
X162.911Y-77.584
X162.921Y-74.594
X163.62Y-126.98
X163.661Y-125.604
X163.923Y-59.496
X164.251Y-95.874
X164.251Y-99.424
X164.251Y-102.284
X164.331Y-92.014
X164.424Y-120.21
X164.661Y-127.644
X165.911Y-76.664
X165.911Y-83.894
X166.3Y-117.
X166.731Y-58.554
X167.308Y-120.669
X167.37Y-124.39
X167.6Y-116.9
X167.621Y-62.074
X167.7Y-103.7
X169.29Y-124.09
X169.7Y-117.8
X171.121Y-123.019
X171.2Y-103.7
X171.231Y-58.904
X171.3Y-70.7
X171.601Y-60.524
X171.728Y-126.129
X172.261Y-86.384
X172.486Y-81.072
X172.52Y-112.1
X172.538Y-96.934
X172.581Y-78.564
X172.581Y-95.224
X172.78Y-115.12
X173.731Y-72.494
X173.801Y-88.914
X174.071Y-63.154
X174.391Y-105.274
X174.391Y-109.134
X174.891Y-59.704
X175.031Y-69.904
X175.141Y-86.534
X175.221Y-92.734
X175.431Y-112.944
X175.491Y-76.414
X175.62Y-121.4
X176.111Y-95.984
X176.151Y-79.114
X176.351Y-63.314
X176.444Y-85.02
X176.57Y-101.425
X176.9Y-76.154
X176.9Y-92.574
X177.171Y-56.054
X179.071Y-87.224
X179.831Y-98.364
X179.901Y-82.014
X180.311Y-59.604
X181.121Y-106.374
X181.341Y-123.664
X181.341Y-125.664
X181.341Y-127.664
X181.341Y-129.664
X182.431Y-103.554
X182.431Y-105.554
X182.661Y-86.984
X182.661Y-88.984
X183.341Y-119.664
X183.341Y-121.664
X183.341Y-123.664
X184.011Y-57.984
X184.011Y-59.984
X184.011Y-61.984
X184.011Y-63.984
X184.011Y-65.984
X184.431Y-103.554
X184.431Y-105.554
X184.661Y-86.984
X184.661Y-88.984
X185.341Y-119.664
X185.341Y-121.664
X185.341Y-123.664
X186.011Y-57.984
X186.011Y-59.984
X186.011Y-61.984
X186.011Y-63.984
X186.011Y-65.984
X186.431Y-103.554
X186.431Y-105.554
X186.661Y-86.984
X186.661Y-88.984
T2
X158.001Y-96.934
X158.001Y-99.474
X158.001Y-102.014
X158.001Y-104.554
T3
X111.845Y-129.565
X111.845Y-132.105
X111.845Y-134.645
X111.845Y-137.185
X114.385Y-129.565
X114.385Y-132.105
X114.385Y-134.645
X114.385Y-137.185
X116.925Y-129.565
X116.925Y-132.105
X116.925Y-134.645
X116.925Y-137.185
X119.465Y-129.565
X119.465Y-132.105
X119.465Y-134.645
X119.465Y-137.185
X122.005Y-129.565
X122.005Y-132.105
X122.005Y-134.645
X122.005Y-137.185
X124.545Y-129.565
X124.545Y-132.105
X124.545Y-134.645
X124.545Y-137.185
X127.085Y-129.565
X127.085Y-132.105
X127.085Y-134.645
X127.085Y-137.185
X129.625Y-129.565
X129.625Y-132.105
X129.625Y-134.645
X129.625Y-137.185
X132.165Y-129.565
X132.165Y-132.105
X132.165Y-134.645
X132.165Y-137.185
X134.705Y-129.565
X134.705Y-132.105
X134.705Y-134.645
X134.705Y-137.185
X137.245Y-129.565
X137.245Y-132.105
X137.245Y-134.645
X137.245Y-137.185
X139.785Y-129.565
X139.785Y-132.105
X139.785Y-134.645
X139.785Y-137.185
X142.325Y-129.565
X142.325Y-132.105
X142.325Y-134.645
X142.325Y-137.185
X144.865Y-129.565
X144.865Y-132.105
X144.865Y-134.645
X144.865Y-137.185
X147.405Y-129.565
X147.405Y-132.105
X147.405Y-134.645
X147.405Y-137.185
X149.945Y-129.565
X149.945Y-132.105
X149.945Y-134.645
X149.945Y-137.185
X152.485Y-129.565
X152.485Y-132.105
X152.485Y-134.645
X152.485Y-137.185
X155.025Y-129.565
X155.025Y-132.105
X155.025Y-134.645
X155.025Y-137.185
X157.565Y-129.565
X157.565Y-132.105
X157.565Y-134.645
X157.565Y-137.185
X160.105Y-129.565
X160.105Y-132.105
X160.105Y-134.645
X160.105Y-137.185
X162.645Y-129.565
X162.645Y-132.105
X162.645Y-134.645
X162.645Y-137.185
X165.185Y-129.565
X165.185Y-132.105
X165.185Y-134.645
X165.185Y-137.185
X167.725Y-129.565
X167.725Y-132.105
X167.725Y-134.645
X167.725Y-137.185
X170.265Y-129.565
X170.265Y-132.105
X170.265Y-134.645
X170.265Y-137.185
X172.805Y-129.565
X172.805Y-132.105
X172.805Y-134.645
X172.805Y-137.185
X175.345Y-129.565
X175.345Y-132.105
X175.345Y-134.645
X175.345Y-137.185
T4
X163.241Y-87.644
X137.491Y-114.294
X110.745Y-110.569
X149.03Y-88.28
X108.875Y-113.359
X124.93Y-72.
X130.411Y-82.834
X177.454Y-122.949
X166.691Y-106.884
T5
X104.245Y-51.514
X106.845Y-137.214
X180.545Y-137.214
X184.245Y-51.514
T0
M30
